<?xml version="1.0" encoding="UTF-8" ?>
<!DOCTYPE svg PUBLIC "-//W3C//DTD SVG 1.1//EN" "http://www.w3.org/Graphics/SVG/1.1/DTD/svg11.dtd">
<svg width="869pt" height="869pt" viewBox="0 0 869 869" version="1.1" xmlns="http://www.w3.org/2000/svg">
<g id="#4c4f65ff">
<path fill="#4c4f65" opacity="1.00" d=" M 174.23 10.34 C 212.38 1.95 252.38 0.17 290.76 8.20 C 320.85 14.84 350.69 27.28 372.96 49.14 C 399.80 75.40 415.85 111.76 419.54 148.94 C 420.59 180.90 420.00 212.88 420.07 244.85 C 339.99 245.00 259.91 244.51 179.83 245.10 C 182.00 269.07 196.00 292.22 217.56 303.47 C 227.53 308.92 238.93 310.62 250.05 311.97 C 280.85 315.48 312.13 311.78 341.95 303.70 C 360.62 298.77 378.72 291.90 396.48 284.36 C 381.23 316.17 376.77 352.89 383.17 387.52 C 335.21 407.31 282.33 412.05 230.94 408.76 C 215.72 407.72 200.42 406.54 185.49 403.27 C 139.31 393.10 96.28 365.21 71.55 324.45 C 61.60 308.31 55.63 290.13 51.35 271.77 C 41.76 230.62 41.88 187.41 50.50 146.11 C 54.31 128.37 59.09 110.62 67.49 94.43 C 88.69 52.79 128.58 20.86 174.23 10.34 M 227.07 97.29 C 212.95 100.92 200.03 110.26 193.36 123.38 C 187.67 134.83 186.01 147.65 182.57 159.84 C 221.45 160.32 260.35 160.34 299.24 159.77 C 296.73 146.51 295.25 132.56 288.28 120.71 C 282.83 112.33 275.44 104.94 266.32 100.65 C 254.20 94.87 240.00 93.79 227.07 97.29 Z" />
</g>
<g id="#f64747ff">
<path fill="#f64747" opacity="1.00" d=" M 521.82 203.36 C 540.68 200.34 559.83 198.92 578.93 199.50 C 618.75 200.62 658.09 208.53 697.98 208.43 C 740.19 207.99 782.41 208.15 824.63 208.16 C 824.67 233.61 824.60 259.07 824.68 284.53 C 804.71 292.11 784.58 299.25 764.60 306.78 C 778.35 341.78 779.17 381.78 766.36 417.18 C 759.78 435.27 749.44 452.09 735.68 465.61 C 724.48 476.57 711.19 485.18 697.29 492.28 C 663.55 509.26 625.46 515.29 588.04 516.43 C 567.02 517.08 545.99 516.24 525.02 514.88 C 525.12 522.58 523.39 530.31 524.75 537.98 C 525.45 542.16 528.17 546.23 532.26 547.72 C 547.36 552.85 563.05 556.32 578.95 557.61 C 624.50 561.75 670.58 553.36 715.86 561.50 C 733.75 565.01 751.64 570.14 767.33 579.65 C 784.32 589.83 798.92 604.53 807.38 622.57 C 820.92 652.59 824.64 686.80 818.61 719.13 C 813.54 746.48 801.28 772.77 782.06 793.06 C 765.42 810.42 745.24 824.18 723.62 834.60 C 699.75 846.15 674.09 853.58 648.11 858.57 C 610.87 865.65 572.82 867.33 534.99 866.59 C 498.45 865.93 461.46 861.14 427.36 847.45 C 413.92 841.98 400.94 835.23 389.07 826.85 C 358.86 804.82 343.83 765.65 347.31 728.92 C 349.47 704.92 359.93 681.30 378.06 665.12 C 396.92 648.37 421.23 639.89 444.81 632.16 C 429.78 621.92 415.27 610.05 405.72 594.33 C 398.82 583.27 395.70 569.90 397.15 556.93 C 397.63 543.47 403.73 530.65 412.71 520.79 C 425.01 506.97 441.02 497.33 456.53 487.60 C 429.16 475.33 407.34 452.16 394.96 425.01 C 389.51 413.06 385.57 400.43 383.17 387.52 C 376.77 352.89 381.23 316.17 396.48 284.36 C 408.28 259.64 428.69 239.71 452.54 226.57 C 473.94 214.61 497.71 207.34 521.82 203.36 M 571.54 287.69 C 565.13 288.59 558.74 290.58 553.44 294.37 C 542.86 302.23 536.13 314.33 532.99 326.97 C 528.59 345.04 529.68 363.94 532.43 382.18 C 533.79 390.26 534.50 398.79 539.01 405.87 C 551.78 426.74 582.62 433.66 603.03 420.12 C 611.72 414.39 616.71 404.73 620.17 395.21 C 627.48 374.65 626.75 352.19 622.95 330.99 C 621.21 322.45 620.04 313.40 615.04 306.02 C 605.78 292.03 587.83 285.47 571.54 287.69 M 532.62 682.86 C 523.34 683.62 513.67 684.55 505.45 689.31 C 497.47 693.60 489.83 699.24 485.15 707.16 C 480.00 715.61 480.37 726.34 483.35 735.48 C 487.89 747.91 499.71 755.91 511.59 760.51 C 529.44 767.81 549.06 767.17 567.97 767.54 C 602.24 767.47 637.80 761.80 667.22 743.21 C 680.57 734.57 688.34 715.56 680.03 700.98 C 674.54 694.70 666.92 690.62 659.15 687.84 C 641.45 681.78 622.46 682.56 604.01 682.19 C 580.22 682.95 556.36 680.63 532.62 682.86 Z" />
</g>
</svg>
