<svg width="40px" height="40px" viewBox="0 0 869 869" version="1.1" xmlns="http://www.w3.org/2000/svg"><path fill="#4c4f65" opacity="1.00" d="M174.23,10.34C212.38,1.95,252.38.17,290.76,8.2c30.09,6.64,59.93,19.08,82.2,40.94,26.84,26.26,42.89,62.62,46.58,99.8,1.05,31.96.46,63.94.53,95.91-80.08.15-160.16-.34-240.24.25,2.17,23.97,16.17,47.12,37.73,58.37,9.97,5.45,21.37,7.15,32.49,8.5,30.8,3.51,62.08-.19,91.9-8.27,18.67-4.93,36.77-11.8,54.53-19.34-15.25,31.81-19.71,68.53-13.31,103.16-47.96,19.79-100.84,24.53-152.23,21.24-15.22-1.04-30.52-2.22-45.45-5.49-46.18-10.17-89.21-38.06-113.94-78.82-9.95-16.14-15.92-34.32-20.2-52.68-9.59-41.15-9.47-84.36-.85-125.66,3.81-17.74,8.59-35.49,16.99-51.68,21.2-41.64,61.09-73.57,106.74-84.09m52.84,86.95c-14.12,3.63-27.04,12.97-33.71,26.09-5.69,11.45-7.35,24.27-10.79,36.46q58.32.72,116.67-.07c-2.51-13.26-3.99-27.21-10.96-39.06-5.45-8.38-12.84-15.77-21.96-20.06A57.277,57.277,0,0,0,227.07,97.29Z"/><path fill="#f64747" opacity="1.00" d=" M521.82,203.36a303.379,303.379,0,0,1,57.11-3.86c39.82,1.12,79.16,9.03,119.05,8.93,42.21-.44,84.43-.28,126.65-.27.04,25.45-.03,50.91.05,76.37-19.97,7.58-40.1,14.72-60.08,22.25,13.75,35,14.57,75,1.76,110.4a130.32,130.32,0,0,1-30.68,48.43c-11.2,10.96-24.49,19.57-38.39,26.67-33.74,16.98-71.83,23.01-109.25,24.15-21.02.65-42.05-.19-63.02-1.55.1,7.7-1.63,15.43-.27,23.1.7,4.18,3.42,8.25,7.51,9.74a194.3,194.3,0,0,0,46.69,9.89c45.55,4.14,91.63-4.25,136.91,3.89,17.89,3.51,35.78,8.64,51.47,18.15,16.99,10.18,31.59,24.88,40.05,42.92,13.54,30.02,17.26,64.23,11.23,96.56-5.07,27.35-17.33,53.64-36.55,73.93-16.64,17.36-36.82,31.12-58.44,41.54-23.87,11.55-49.53,18.98-75.51,23.97-37.24,7.08-75.29,8.76-113.12,8.02-36.54-.66-73.53-5.45-107.63-19.14a191.2,191.2,0,0,1-38.29-20.6c-30.21-22.03-45.24-61.2-41.76-97.93,2.16-24,12.62-47.62,30.75-63.8,18.86-16.75,43.17-25.23,66.75-32.96-15.03-10.24-29.54-22.11-39.09-37.83a58.9,58.9,0,0,1-8.57-37.4c.48-13.46,6.58-26.28,15.56-36.14,12.3-13.82,28.31-23.46,43.82-33.19-27.37-12.27-49.19-35.44-61.57-62.59a161.611,161.611,0,0,1-11.79-37.49c-6.4-34.63-1.94-71.35,13.31-103.16,11.8-24.72,32.21-44.65,56.06-57.79,21.4-11.96,45.17-19.23,69.28-23.21m49.72,84.33c-6.41.9-12.8,2.89-18.1,6.68-10.58,7.86-17.31,19.96-20.45,32.6-4.4,18.07-3.31,36.97-.56,55.21,1.36,8.08,2.07,16.61,6.58,23.69,12.77,20.87,43.61,27.79,64.02,14.25,8.69-5.73,13.68-15.39,17.14-24.91,7.31-20.56,6.58-43.02,2.78-64.22-1.74-8.54-2.91-17.59-7.91-24.97-9.26-13.99-27.21-20.55-43.5-18.33M532.62,682.86c-9.28.76-18.95,1.69-27.17,6.45-7.98,4.29-15.62,9.93-20.3,17.85-5.15,8.45-4.78,19.18-1.8,28.32,4.54,12.43,16.36,20.43,28.24,25.03,17.85,7.3,37.47,6.66,56.38,7.03,34.27-.07,69.83-5.74,99.25-24.33,13.35-8.64,21.12-27.65,12.81-42.23-5.49-6.28-13.11-10.36-20.88-13.14-17.7-6.06-36.69-5.28-55.14-5.65C580.22,682.95,556.36,680.63,532.62,682.86Z"/></svg>
