<?xml version="1.0" encoding="UTF-8" ?>
<!DOCTYPE svg PUBLIC "-//W3C//DTD SVG 1.1//EN" "http://www.w3.org/Graphics/SVG/1.1/DTD/svg11.dtd">
<svg width="331pt" height="52pt" viewBox="0 0 331 52" version="1.1" xmlns="http://www.w3.org/2000/svg">
<g id="#fefefeff">
</g>
<g id="#000000ff">
<path fill="#000000" opacity="1.00" d=" M 206.20 10.14 C 209.05 7.10 212.07 4.24 215.00 1.27 C 215.00 14.85 215.00 28.42 215.00 42.00 C 212.08 42.00 209.16 42.00 206.25 41.99 C 206.25 38.00 206.25 34.00 206.25 30.00 C 201.42 30.00 196.58 30.00 191.75 30.00 C 191.76 33.96 191.71 37.92 191.79 41.87 C 188.93 44.89 185.93 47.77 183.01 50.72 C 182.99 37.15 183.01 23.57 183.00 10.00 C 185.92 10.00 188.83 10.00 191.75 10.00 C 191.74 13.76 191.75 17.51 191.75 21.26 C 196.58 21.27 201.42 21.27 206.25 21.26 C 206.24 17.56 206.29 13.85 206.20 10.14 Z" />
<path fill="#000000" opacity="1.00" d=" M 218.99 4.17 C 226.74 11.94 234.50 19.70 242.25 27.46 C 242.25 21.64 242.25 15.82 242.25 10.00 C 245.17 10.00 248.08 10.00 251.00 10.00 C 251.00 23.09 251.00 36.19 251.00 49.28 C 243.25 41.52 235.50 33.76 227.75 25.99 C 227.75 31.33 227.75 36.66 227.75 42.00 C 224.83 42.00 221.92 42.00 219.00 42.00 C 219.00 29.39 219.01 16.78 218.99 4.17 Z" />
<path fill="#000000" opacity="1.00" d=" M 0.98 10.00 C 11.66 10.00 22.33 10.00 33.00 10.00 C 33.00 12.91 33.00 15.82 33.00 18.74 C 22.33 18.73 11.67 18.73 1.01 18.74 C 0.92 15.83 0.91 12.91 0.98 10.00 Z" />
<path fill="#000000" opacity="1.00" d=" M 37.00 10.00 C 47.67 10.00 58.33 10.00 69.00 10.00 C 69.01 12.91 69.00 15.83 68.99 18.74 C 61.24 18.72 53.50 18.73 45.75 18.74 C 45.75 23.58 45.75 28.42 45.75 33.26 C 50.58 33.27 55.41 33.27 60.24 33.26 C 60.24 32.53 60.26 31.08 60.26 30.35 C 63.18 27.46 66.08 24.55 68.99 21.65 C 69.01 28.43 68.99 35.21 69.01 41.99 C 66.19 44.89 63.18 47.60 60.53 50.66 C 60.01 47.80 60.32 44.89 60.26 42.00 C 52.50 42.00 44.75 42.00 37.00 42.00 C 37.00 31.33 37.00 20.67 37.00 10.00 Z" />
<path fill="#000000" opacity="1.00" d=" M 73.00 10.00 C 83.67 10.00 94.33 10.00 105.00 10.00 C 105.00 16.67 105.00 23.33 105.00 30.00 C 102.56 29.99 100.13 30.01 97.69 30.00 C 100.10 32.45 102.44 34.96 104.92 37.33 C 105.08 41.79 104.97 46.26 105.00 50.72 C 98.24 43.82 91.45 36.95 84.71 30.02 C 83.97 30.02 82.49 30.00 81.75 29.99 C 81.75 33.99 81.74 37.99 81.75 42.00 C 78.83 42.00 75.92 42.00 73.00 42.00 C 73.00 35.09 72.99 28.17 73.01 21.26 C 80.75 21.27 88.50 21.27 96.25 21.26 C 96.25 20.63 96.25 19.37 96.25 18.74 C 88.50 18.73 80.76 18.72 73.01 18.74 C 73.00 15.83 72.99 12.91 73.00 10.00 Z" />
<path fill="#000000" opacity="1.00" d=" M 110.00 10.00 C 120.67 10.00 131.33 10.00 142.00 10.00 C 142.00 12.91 142.00 15.82 141.99 18.74 C 131.33 18.73 120.67 18.72 110.02 18.74 C 110.00 15.83 109.99 12.91 110.00 10.00 Z" />
<path fill="#000000" opacity="1.00" d=" M 146.00 10.00 C 156.67 10.00 167.33 10.00 178.00 10.00 C 178.01 12.91 177.99 15.83 177.99 18.74 C 170.24 18.72 162.50 18.73 154.75 18.74 C 154.74 23.58 154.74 28.42 154.75 33.26 C 162.50 33.27 170.25 33.27 177.99 33.26 C 178.00 36.17 178.00 39.09 178.00 42.00 C 167.33 42.00 156.67 42.00 146.00 42.00 C 146.00 31.33 146.00 20.67 146.00 10.00 Z" />
<path fill="#000000" opacity="1.00" d=" M 256.00 10.00 C 266.67 10.00 277.33 10.00 288.00 10.00 C 288.00 12.91 288.00 15.82 288.00 18.74 C 277.33 18.73 266.67 18.72 256.01 18.74 C 256.00 15.83 255.99 12.91 256.00 10.00 Z" />
<path fill="#000000" opacity="1.00" d=" M 292.00 10.00 C 294.91 10.00 297.83 10.00 300.75 10.01 C 300.74 15.34 300.75 20.67 300.75 26.00 C 306.13 20.67 311.45 15.29 316.85 9.98 C 321.21 10.02 325.56 9.99 329.92 10.00 C 317.28 22.60 304.64 35.20 292.00 47.81 C 292.00 35.21 292.00 22.60 292.00 10.00 Z" />
<path fill="#000000" opacity="1.00" d=" M 1.03 21.25 C 11.68 21.29 22.33 21.27 32.98 21.26 C 33.00 24.17 33.01 27.09 33.00 30.00 C 22.33 30.00 11.66 30.00 0.99 30.00 C 0.87 27.08 0.90 24.16 1.03 21.25 Z" />
<path fill="#000000" opacity="1.00" d=" M 110.01 21.26 C 120.67 21.27 131.33 21.27 141.99 21.26 C 142.00 24.17 142.00 27.09 142.00 30.00 C 131.33 30.00 120.67 30.00 110.00 30.00 C 109.99 27.09 110.00 24.18 110.01 21.26 Z" />
<path fill="#000000" opacity="1.00" d=" M 256.00 21.26 C 266.66 21.27 277.32 21.28 287.99 21.26 C 287.99 24.17 288.01 27.09 288.00 30.00 C 277.33 30.00 266.67 30.00 256.00 30.00 C 255.99 27.09 256.00 24.18 256.00 21.26 Z" />
<path fill="#000000" opacity="1.00" d=" M 1.02 33.26 C 11.68 33.28 22.33 33.27 32.99 33.26 C 33.00 36.18 33.00 39.09 33.00 42.00 C 22.32 42.00 11.65 42.00 0.97 42.00 C 0.90 39.08 0.91 36.17 1.02 33.26 Z" />
<path fill="#000000" opacity="1.00" d=" M 110.00 33.27 C 120.67 33.27 131.33 33.27 141.99 33.26 C 142.00 36.18 142.00 39.09 142.00 42.00 C 131.33 42.00 120.67 42.00 110.00 42.00 C 110.00 39.09 110.00 36.18 110.00 33.27 Z" />
<path fill="#000000" opacity="1.00" d=" M 256.02 33.25 C 266.68 33.29 277.34 33.26 288.00 33.26 C 288.00 36.18 288.00 39.09 288.00 42.00 C 277.33 42.00 266.67 42.00 256.00 42.00 C 255.98 39.08 256.01 36.17 256.02 33.25 Z" />
</g>
</svg>
