<svg xmlns="http://www.w3.org/2000/svg" width="40" height="40" viewBox="0 0 869 869"><path fill="#fff" d="M174.23 10.34C212.38 1.94 252.38.17 290.76 8.2c30.1 6.64 59.93 19.08 82.2 40.94 26.84 26.26 42.9 62.62 46.58 99.8 1.05 31.96.46 63.94.53 95.9-80.08.16-160.16-.33-240.24.26 2.17 23.97 16.17 47.12 37.73 58.37 9.97 5.45 21.37 7.15 32.5 8.5 30.8 3.5 62.07-.2 91.9-8.27 18.66-4.93 36.76-11.8 54.52-19.34-15.25 31.8-19.7 68.53-13.3 103.16-47.97 19.8-100.85 24.53-152.24 21.24-15.22-1.04-30.52-2.22-45.45-5.5-46.2-10.16-89.22-38.05-113.95-78.8-9.95-16.15-15.92-34.33-20.2-52.7-9.6-41.14-9.47-84.35-.85-125.65 3.8-17.73 8.6-35.48 17-51.67 21.2-41.64 61.08-73.57 106.73-84.1m52.84 86.96c-14.12 3.62-27.04 12.96-33.7 26.08-5.7 11.45-7.36 24.27-10.8 36.46q58.32.72 116.67-.07c-2.5-13.26-4-27.2-10.96-39.06-5.45-8.37-12.84-15.76-21.96-20.05a57.28 57.28 0 0 0-39.25-3.36z"/><path fill="#fff" d="M521.82 203.36a303.38 303.38 0 0 1 57.1-3.86c39.83 1.12 79.17 9.03 119.06 8.93 42.2-.44 84.43-.28 126.65-.27.04 25.45-.03 50.9.05 76.37-19.97 7.58-40.1 14.72-60.08 22.25 13.75 35 14.57 75 1.76 110.4a130.32 130.32 0 0 1-30.68 48.43c-11.2 10.97-24.5 19.58-38.4 26.68-33.73 16.98-71.82 23-109.24 24.15-21.02.65-42.05-.2-63.02-1.55.1 7.7-1.63 15.43-.27 23.1.7 4.18 3.42 8.25 7.5 9.74a194.3 194.3 0 0 0 46.7 9.9c45.55 4.13 91.63-4.26 136.9 3.88 17.9 3.5 35.8 8.64 51.48 18.15 17 10.18 31.6 24.88 40.05 42.92 13.54 30.02 17.26 64.23 11.23 96.56-5.06 27.35-17.32 53.64-36.54 73.93-16.64 17.36-36.82 31.12-58.44 41.54-23.87 11.55-49.53 18.98-75.5 23.97-37.25 7.08-75.3 8.76-113.13 8.02-36.55-.67-73.54-5.46-107.64-19.15a191.2 191.2 0 0 1-38.3-20.6c-30.2-22.03-45.23-61.2-41.75-97.93 2.17-24 12.63-47.62 30.76-63.8 18.86-16.75 43.17-25.23 66.75-32.96-15.02-10.24-29.53-22.1-39.08-37.83a58.9 58.9 0 0 1-8.57-37.4c.48-13.46 6.58-26.28 15.56-36.14 12.3-13.83 28.32-23.47 43.83-33.2-27.37-12.27-49.2-35.44-61.57-62.6a161.6 161.6 0 0 1-11.8-37.48c-6.4-34.63-1.93-71.35 13.32-103.16 11.8-24.72 32.2-44.65 56.06-57.8 21.4-11.95 45.17-19.22 69.28-23.2m49.72 84.33c-6.4.9-12.8 2.88-18.1 6.67-10.58 7.86-17.3 19.96-20.45 32.6-4.4 18.07-3.32 36.97-.57 55.2 1.36 8.1 2.07 16.62 6.58 23.7 12.78 20.87 43.62 27.8 64.03 14.25 8.7-5.73 13.68-15.4 17.14-24.9 7.3-20.57 6.58-43.03 2.78-64.23-1.74-8.55-2.9-17.6-7.9-24.98-9.27-14-27.22-20.55-43.5-18.33M532.6 682.85c-9.28.76-18.95 1.7-27.17 6.45-7.98 4.3-15.62 9.94-20.3 17.86-5.15 8.45-4.78 19.18-1.8 28.32 4.54 12.43 16.36 20.43 28.24 25.03 17.84 7.3 37.46 6.67 56.37 7.04 34.27-.07 69.83-5.74 99.25-24.33 13.35-8.63 21.12-27.64 12.8-42.22-5.48-6.28-13.1-10.36-20.87-13.14-17.7-6.06-36.7-5.28-55.14-5.65-23.78.75-47.64-1.57-71.38.66z"/></svg>