<?xml version="1.0" encoding="UTF-8" standalone="no"?><!DOCTYPE svg PUBLIC "-//W3C//DTD SVG 1.1//EN" "http://www.w3.org/Graphics/SVG/1.1/DTD/svg11.dtd"><svg width="100%" height="100%" viewBox="0 0 166 100" version="1.1" xmlns="http://www.w3.org/2000/svg" xmlns:xlink="http://www.w3.org/1999/xlink" xml:space="preserve" style="fill-rule:evenodd;clip-rule:evenodd;stroke-linejoin:round;stroke-miterlimit:1.41421;"><g id="_.23.000000ff"><rect x="1" y="1" width="77" height="21" style="fill-rule:nonzero;fill:#ffffff;stroke:#ffffff;stroke-width:0px;"/><path d="M88.01,1c25.66,0 51.32,0 76.99,0c0,7 0,14 0,20.99c-18.67,0.02 -37.33,0 -56,0.01c0,11.67 0,23.33 0,35c11.67,0 23.33,0 35,0c0,-2.32 0,-4.64 0,-6.96c6.97,-7.03 13.99,-14.02 20.99,-21.01c0.01,16.32 0.01,32.64 0.01,48.96c-6.99,7 -13.99,14 -20.99,20.98c-0.02,-6.99 0,-13.98 -0.01,-20.97c-18.67,-0.01 -37.33,0.01 -56,-0.01c0,-25.66 -0.01,-51.32 0.01,-76.99Z" style="fill-rule:nonzero;fill:#ffffff;stroke:#ffffff;stroke-width:0px;"/><path d="M1,29c25.67,0 51.33,0 77,0.01c0,6.99 0,13.99 0,20.98c-25.67,0.01 -51.33,0.01 -77,0c0,-6.99 0,-13.99 0,-20.99Z" style="fill-rule:nonzero;fill:#ffffff;stroke:#ffffff;stroke-width:0px;"/><rect x="1" y="57" width="77" height="21" style="fill-rule:nonzero;fill:#ffffff;stroke:#ffffff;stroke-width:0px;"/></g></svg>