<?xml version="1.0" standalone="no"?>
<!DOCTYPE svg PUBLIC "-//W3C//DTD SVG 20010904//EN"
 "http://www.w3.org/TR/2001/REC-SVG-20010904/DTD/svg10.dtd">
<svg version="1.0" xmlns="http://www.w3.org/2000/svg"
 width="1000.000000pt" height="1000.000000pt" viewBox="0 0 1000.000000 1000.000000"
 preserveAspectRatio="xMidYMid meet">
<metadata>
Created by potrace 1.11, written by Peter Selinger 2001-2013
</metadata>
<g transform="translate(0.000000,1000.000000) scale(0.100000,-0.100000)"
fill="#000000" stroke="none">
<path d="M6360 7085 c-521 -65 -1011 -329 -1342 -725 -266 -318 -428 -686
-478 -1090 -15 -122 -12 -370 5 -507 60 -469 262 -880 595 -1213 270 -270 586
-451 955 -545 189 -48 292 -60 525 -59 550 2 978 149 1355 466 329 277 556
681 629 1123 28 165 36 317 36 653 l0 332 -1015 0 -1015 0 0 -535 0 -535 425
0 c234 0 425 -3 425 -6 0 -14 -112 -142 -162 -185 -215 -185 -456 -270 -726
-256 -267 14 -501 117 -685 301 -129 128 -218 288 -268 481 -32 125 -33 361
-1 477 96 350 335 603 680 718 119 39 231 54 371 47 145 -6 250 -36 420 -118
68 -32 125 -58 126 -57 1 2 82 147 180 323 98 176 214 382 257 459 67 115 78
141 66 152 -23 23 -240 132 -334 168 -325 125 -691 172 -1024 131z"/>
<path d="M2675 7053 c-349 -29 -655 -171 -900 -417 -196 -197 -317 -414 -387
-696 -21 -82 -22 -110 -25 -860 -4 -875 -3 -902 67 -1111 69 -209 177 -392
323 -545 221 -234 458 -358 812 -426 105 -20 148 -21 881 -25 l771 -4 6 152
c9 195 9 591 0 747 l-6 121 -761 3 c-871 4 -811 -3 -917 96 -96 88 -138 199
-139 360 l0 72 915 0 915 0 0 485 0 485 -915 0 -915 0 0 93 c0 101 19 207 46
258 30 58 111 135 172 162 99 45 171 48 920 41 l693 -7 -1 490 c-1 269 -4 500
-7 511 l-5 22 -752 -2 c-413 -1 -769 -3 -791 -5z"/>
</g>
</svg>
