<?xml version="1.0" standalone="no"?>
<!DOCTYPE svg PUBLIC "-//W3C//DTD SVG 20010904//EN"
 "http://www.w3.org/TR/2001/REC-SVG-20010904/DTD/svg10.dtd">
<svg version="1.0" xmlns="http://www.w3.org/2000/svg"
 width="1000.000000pt" height="1000.000000pt" viewBox="0 0 1000.000000 1000.000000"
 preserveAspectRatio="xMidYMid meet">
<metadata>
Created by potrace 1.11, written by Peter Selinger 2001-2013
</metadata>
<g transform="translate(0.000000,1000.000000) scale(0.100000,-0.100000)"
fill="#000000" stroke="none">
<path d="M4885 9614 c-49 -8 -217 -39 -371 -69 -155 -30 -358 -66 -450 -79
-292 -43 -590 -141 -834 -276 -69 -38 -204 -104 -300 -146 -190 -83 -156 -61
-665 -440 -352 -263 -522 -421 -722 -670 -409 -512 -623 -938 -662 -1314 -14
-134 4 -215 56 -262 17 -16 23 -13 111 59 74 60 96 73 103 62 13 -20 11 -39
-3 -39 -7 0 -35 -16 -61 -36 -92 -67 -154 -196 -198 -412 l-21 -103 52 -62
c48 -58 51 -65 45 -102 -54 -349 -73 -671 -57 -962 13 -226 48 -487 87 -653
28 -122 77 -358 134 -650 46 -239 98 -426 145 -525 86 -183 224 -354 493 -612
254 -242 505 -494 723 -723 91 -95 214 -218 273 -272 60 -55 98 -97 86 -93
-12 4 -193 92 -401 196 -225 111 -397 191 -422 194 -38 6 -152 -8 -164 -19 -8
-9 122 -227 188 -314 107 -141 168 -185 449 -323 427 -210 486 -232 819 -298
136 -28 311 -68 390 -91 249 -72 336 -81 902 -100 173 -6 365 -18 465 -30 247
-30 568 -37 715 -16 264 38 612 98 739 127 354 81 625 206 1019 472 156 105
461 330 582 430 123 102 313 295 410 417 46 58 156 185 244 283 174 193 268
313 366 471 79 125 211 379 283 546 30 69 78 175 107 235 106 223 187 452 271
765 l50 185 10 350 c11 412 6 594 -27 925 -39 393 -61 501 -149 746 -237 654
-631 1304 -1001 1650 -82 76 -128 128 -148 165 -141 265 -340 463 -736 732
-261 177 -579 354 -740 412 -41 14 -176 51 -300 81 -124 30 -266 68 -315 84
-174 58 -205 61 -585 70 -256 6 -403 14 -525 29 -193 24 -330 25 -460 5z
m1981 -2529 c157 -21 274 -48 424 -97 123 -41 406 -175 430 -203 9 -11 -9 -50
-98 -207 -60 -106 -176 -312 -257 -458 -81 -146 -148 -266 -150 -268 -1 -1
-58 25 -126 57 -68 33 -165 72 -214 87 -83 26 -103 28 -255 27 -145 0 -177 -3
-262 -26 -348 -93 -617 -344 -721 -673 -70 -221 -56 -482 38 -705 215 -510
821 -754 1339 -539 140 59 296 174 390 289 31 38 56 71 56 75 0 4 -192 6 -427
5 l-428 -1 -3 536 -2 536 1019 0 1018 0 7 -202 c8 -230 -6 -566 -29 -724 -43
-288 -146 -568 -292 -789 -353 -536 -920 -835 -1633 -862 -595 -22 -1132 189
-1550 607 -332 332 -528 728 -595 1204 -21 149 -21 418 0 561 92 614 446 1150
975 1478 238 147 574 264 853 296 122 14 368 12 493 -4z m-2636 -535 l0 -510
-747 0 c-807 0 -806 0 -896 -53 -130 -78 -186 -203 -187 -419 l0 -78 915 0
915 0 0 -485 0 -485 -915 0 -915 0 0 -62 c1 -95 25 -211 56 -268 39 -71 128
-151 195 -175 51 -19 93 -20 814 -25 l760 -5 3 -465 c2 -256 0 -484 -3 -507
l-6 -43 -715 0 c-754 0 -829 3 -1024 46 -297 66 -516 187 -716 396 -187 196
-309 422 -377 698 -20 82 -21 113 -24 878 -4 874 -4 874 58 1069 168 527 624
914 1165 987 75 11 283 14 872 15 l772 1 0 -510z"/>
<path d="M452 6491 c-54 -40 -89 -92 -172 -263 -79 -160 -90 -205 -90 -366 0
-56 -7 -145 -15 -197 -9 -52 -17 -183 -19 -292 -2 -109 -7 -319 -11 -468 -15
-520 45 -844 242 -1305 160 -377 309 -611 499 -789 l76 -71 46 32 c26 17 49
33 51 35 2 1 -21 56 -52 120 -77 162 -135 319 -270 733 -137 420 -138 424
-222 839 l-66 324 -1 341 c-2 350 3 431 42 621 10 50 24 127 30 172 6 45 27
137 47 205 55 183 48 295 -19 342 -32 23 -49 20 -96 -13z"/>
</g>
</svg>
