<?xml version="1.0" encoding="UTF-8" ?>
<!DOCTYPE svg PUBLIC "-//W3C//DTD SVG 1.1//EN" "http://www.w3.org/Graphics/SVG/1.1/DTD/svg11.dtd">
<svg width="100%" height="100%" viewBox="0 0 83 62" version="1.1" xmlns="http://www.w3.org/2000/svg">
<g id="#000000fd">
<path fill="#000000" opacity="1.00" d=" M 1.36 1.02 C 21.45 0.90 41.55 0.89 61.64 1.02 C 61.50 21.01 61.78 40.99 61.68 60.98 C 41.56 61.10 21.44 61.11 1.32 60.98 C 1.32 48.35 1.26 35.73 1.35 23.10 C 1.93 23.10 3.10 23.11 3.68 23.11 C 3.88 30.36 3.52 37.62 3.97 44.86 C 7.58 42.27 10.53 38.83 14.48 36.70 C 13.77 34.19 12.76 31.71 12.56 29.08 C 14.73 26.83 17.85 25.90 20.60 24.56 C 25.63 21.92 31.43 23.80 36.78 22.84 C 39.04 21.88 41.02 20.27 42.48 18.30 C 41.47 17.00 40.39 15.77 39.32 14.52 C 38.01 17.25 36.92 20.79 33.64 21.72 C 29.20 23.45 23.80 19.79 23.92 14.99 C 23.64 11.06 27.07 7.49 30.98 7.45 C 33.61 7.15 35.62 9.10 37.58 10.51 C 39.17 9.39 41.18 7.10 43.22 8.70 C 46.80 11.87 49.64 15.81 52.30 19.76 C 54.64 19.66 56.98 19.62 59.33 19.60 C 59.37 14.08 59.38 8.55 59.36 3.03 C 50.67 3.00 41.99 3.14 33.30 2.95 C 32.85 4.33 32.39 5.71 31.91 7.09 C 31.06 5.77 30.29 4.40 29.57 3.01 C 20.92 3.07 12.28 3.03 3.64 3.03 C 3.62 8.57 3.63 14.11 3.67 19.65 C 9.79 19.66 15.91 19.50 22.02 19.65 C 23.84 19.54 25.22 20.85 26.67 21.73 C 18.27 22.32 9.83 21.99 1.41 21.94 C 1.32 14.96 1.39 7.99 1.36 1.02 M 29.41 11.18 C 26.79 12.46 26.42 16.53 28.96 18.10 C 31.64 20.20 36.03 17.44 35.15 14.10 C 34.91 11.45 31.67 10.02 29.41 11.18 M 40.45 10.55 C 41.84 13.79 44.24 16.42 46.45 19.12 C 43.50 21.21 40.85 23.87 37.51 25.33 C 33.38 25.86 29.19 25.12 25.07 25.73 C 21.55 26.75 18.35 28.62 15.01 30.11 C 15.90 32.46 16.74 34.92 18.46 36.81 C 18.32 34.80 17.99 32.81 17.63 30.84 C 20.44 29.58 23.26 28.32 26.12 27.17 C 26.60 29.48 25.53 32.52 27.09 34.38 C 30.63 34.56 34.16 33.96 37.62 33.26 C 37.90 31.38 37.56 29.29 38.50 27.57 C 41.79 24.59 45.57 22.19 49.10 19.50 C 46.49 16.28 44.17 12.60 40.45 10.55 M 42.02 28.03 C 40.63 28.95 40.26 30.65 39.63 32.08 C 45.41 29.08 49.51 23.39 56.17 21.98 C 54.46 21.90 52.76 21.75 51.05 21.76 C 47.72 23.32 44.92 25.81 42.02 28.03 M 44.39 32.39 C 36.09 39.14 24.69 35.39 15.40 39.44 C 11.96 40.68 9.97 43.99 6.94 45.85 C 5.94 46.66 4.48 47.02 3.86 48.23 C 3.56 51.73 3.80 55.25 3.77 58.77 C 22.28 58.74 40.79 58.73 59.30 58.77 C 59.28 47.41 59.36 36.05 59.26 24.69 C 53.15 24.53 48.65 28.63 44.39 32.39 M 20.78 32.20 C 20.87 32.85 21.05 34.17 21.14 34.83 C 21.82 34.85 23.17 34.90 23.84 34.92 C 23.88 33.60 23.92 32.28 23.95 30.96 C 22.90 31.37 21.84 31.78 20.78 32.20 Z" />
</g>
<g id="#fbee66ff">
<path fill="#fbee66" opacity="1.00" d=" M 76.49 42.44 C 79.80 41.16 83.59 44.50 82.72 47.96 C 82.16 51.62 77.08 53.11 74.60 50.40 C 72.07 48.08 73.17 43.37 76.49 42.44 M 76.34 44.16 C 73.86 45.54 74.73 50.66 78.00 50.01 C 80.25 50.46 81.50 48.11 80.97 46.17 C 80.89 43.83 78.06 43.72 76.34 44.16 Z" />
</g>
<g id="#edad64ff">
<path fill="#edad64" opacity="1.00" d=" M 76.34 44.16 C 78.06 43.72 80.89 43.83 80.97 46.17 C 81.50 48.11 80.25 50.46 78.00 50.01 C 74.73 50.66 73.86 45.54 76.34 44.16 Z" />
</g>
</svg>
