<?xml version="1.0" encoding="UTF-8" ?>
<!DOCTYPE svg PUBLIC "-//W3C//DTD SVG 1.1//EN" "http://www.w3.org/Graphics/SVG/1.1/DTD/svg11.dtd">
<svg width="100%" height="100%" viewBox="0 0 181 48" version="1.1" xmlns="http://www.w3.org/2000/svg">
<g id="#000000ff">
<path fill="#000000" opacity="1.00" d=" M 23.01 0.00 L 24.31 0.00 C 24.41 1.34 24.52 2.68 24.64 4.01 C 27.82 6.24 30.96 9.11 32.03 12.97 C 31.94 16.33 28.46 17.48 25.92 18.61 C 27.55 25.90 24.74 33.28 25.89 40.65 C 27.60 42.87 28.16 45.57 26.52 48.00 L 5.80 48.00 C 3.15 47.05 1.13 45.02 0.00 42.47 L 0.00 17.79 C 0.87 14.28 3.34 11.48 6.73 10.20 C 5.16 13.74 1.93 16.83 2.29 20.98 C 2.37 27.64 2.12 34.30 2.42 40.94 C 2.41 43.34 4.70 44.65 6.15 46.19 C 6.63 38.20 5.93 30.17 6.50 22.19 C 6.78 17.99 10.38 15.38 13.73 13.51 C 13.89 7.46 18.94 3.69 23.01 0.00 M 16.73 10.11 C 16.29 11.85 16.72 13.66 16.75 15.43 C 13.28 16.23 9.40 18.14 8.87 22.09 C 8.27 29.93 8.81 37.82 8.62 45.69 C 10.87 45.67 13.12 45.68 15.37 45.65 C 15.32 43.08 15.45 40.48 15.06 37.93 C 14.59 35.02 11.36 33.61 10.77 30.76 C 11.29 30.86 12.34 31.07 12.86 31.17 C 18.14 33.96 17.83 40.62 17.66 45.72 C 18.57 45.68 20.39 45.60 21.30 45.55 C 18.21 41.47 19.09 36.26 19.11 31.50 C 21.09 29.98 23.49 28.50 24.12 25.89 C 25.15 23.05 23.52 20.28 22.56 17.68 C 25.16 16.38 27.82 15.16 30.11 13.33 C 28.09 9.54 24.76 7.03 21.33 4.62 C 19.73 6.38 17.85 7.97 16.73 10.11 M 21.40 32.61 C 20.86 37.40 21.60 42.11 24.08 46.29 C 24.42 45.60 25.78 45.05 25.01 44.16 C 22.55 40.28 23.60 35.59 23.47 31.27 C 22.78 31.72 22.09 32.16 21.40 32.61 Z" />
<path fill="#000000" opacity="1.00" d=" M 63.01 0.00 L 64.31 0.00 C 64.41 1.34 64.52 2.68 64.64 4.01 C 67.82 6.24 70.96 9.11 72.03 12.96 C 71.95 16.30 68.51 17.47 65.95 18.56 C 67.52 25.88 64.76 33.26 65.89 40.65 C 67.60 42.87 68.15 45.58 66.51 48.00 L 45.79 48.00 C 43.53 46.95 40.95 45.54 40.39 42.88 C 39.58 38.31 40.12 33.63 39.99 29.02 C 40.10 24.81 39.57 20.52 40.52 16.38 C 41.26 13.30 44.05 11.46 46.75 10.20 C 45.14 13.73 41.95 16.83 42.29 20.98 C 42.36 27.62 42.12 34.26 42.41 40.89 C 42.38 43.31 44.69 44.64 46.15 46.20 C 46.63 38.19 45.92 30.16 46.51 22.17 C 46.79 17.98 50.39 15.38 53.73 13.51 C 53.89 7.47 58.94 3.70 63.01 0.00 M 56.73 10.10 C 56.27 11.83 56.73 13.63 56.79 15.38 C 53.34 16.24 49.40 18.11 48.87 22.07 C 48.26 29.91 48.81 37.80 48.62 45.67 C 50.86 45.68 53.09 45.69 55.33 45.70 C 55.27 42.82 55.58 39.88 54.85 37.07 C 53.98 34.99 52.10 33.59 50.78 31.81 C 51.12 31.53 51.79 30.97 52.12 30.68 C 57.90 33.30 58.00 40.31 57.66 45.73 C 58.57 45.68 60.39 45.60 61.30 45.55 C 58.21 41.47 59.09 36.26 59.11 31.50 C 61.08 29.98 63.47 28.52 64.11 25.93 C 65.16 23.07 63.53 20.29 62.56 17.67 C 65.16 16.38 67.82 15.16 70.11 13.33 C 68.09 9.54 64.76 7.03 61.33 4.62 C 59.73 6.38 57.86 7.97 56.73 10.10 M 61.40 32.61 C 60.89 37.28 61.54 41.89 63.91 45.99 C 64.49 45.69 65.08 45.38 65.67 45.08 C 62.37 41.19 63.60 35.93 63.47 31.27 C 62.78 31.72 62.09 32.16 61.40 32.61 Z" />
<path fill="#000000" opacity="1.00" d=" M 103.01 0.00 L 104.31 0.00 C 104.41 1.34 104.52 2.68 104.64 4.01 C 107.82 6.24 110.98 9.12 112.04 12.99 C 111.92 16.31 108.50 17.47 105.96 18.57 C 107.52 25.88 104.76 33.27 105.90 40.66 C 107.58 42.89 108.21 45.59 106.51 48.00 L 85.80 48.00 C 82.88 46.88 80.02 44.54 80.11 41.11 C 79.84 34.06 80.00 27.00 80.02 19.94 C 79.89 15.90 82.31 10.82 86.97 10.98 C 85.13 13.75 82.14 16.28 82.34 19.92 C 82.30 26.92 82.16 33.93 82.42 40.92 C 82.40 43.33 84.70 44.65 86.15 46.19 C 86.63 38.17 85.91 30.12 86.52 22.11 C 86.82 17.94 90.41 15.37 93.73 13.51 C 93.89 7.47 98.94 3.69 103.01 0.00 M 96.72 10.12 C 96.29 11.86 96.71 13.66 96.76 15.43 C 92.95 16.20 88.83 18.65 88.75 23.00 C 88.43 30.57 88.71 38.16 88.65 45.74 C 90.90 45.67 93.15 45.68 95.40 45.61 C 95.15 41.77 96.15 37.06 92.85 34.21 C 92.14 33.27 89.47 31.23 92.02 30.65 C 97.90 33.20 98.00 40.30 97.66 45.75 C 98.58 45.69 100.41 45.58 101.33 45.52 C 98.17 41.48 99.10 36.25 99.11 31.50 C 101.07 29.98 103.45 28.54 104.10 25.97 C 105.18 23.10 103.53 20.30 102.56 17.67 C 105.16 16.38 107.82 15.17 110.11 13.33 C 108.08 9.56 104.78 6.99 101.31 4.63 C 99.71 6.39 97.84 7.98 96.72 10.12 M 103.46 31.27 C 102.94 31.60 101.92 32.27 101.40 32.61 C 100.90 37.27 101.52 41.88 103.90 45.97 C 104.49 45.68 105.08 45.39 105.68 45.10 C 102.37 41.21 103.60 35.94 103.46 31.27 Z" />
<path fill="#000000" opacity="1.00" d=" M 143.01 0.00 L 144.31 0.00 C 144.41 1.34 144.52 2.68 144.64 4.01 C 147.82 6.24 150.97 9.11 152.04 12.98 C 151.93 16.33 148.46 17.48 145.93 18.62 C 147.55 25.90 144.74 33.27 145.89 40.65 C 147.58 42.87 148.17 45.58 146.51 48.00 L 125.79 48.00 C 123.51 46.95 120.93 45.52 120.38 42.85 C 119.59 38.27 120.12 33.60 119.99 28.99 C 120.10 24.78 119.56 20.48 120.53 16.34 C 121.28 13.28 124.06 11.46 126.73 10.20 C 125.14 13.73 121.95 16.83 122.29 20.97 C 122.36 27.61 122.12 34.26 122.41 40.90 C 122.38 43.32 124.69 44.64 126.15 46.20 C 126.64 38.17 125.91 30.11 126.52 22.10 C 126.82 17.94 130.41 15.37 133.73 13.51 C 133.88 7.46 138.94 3.70 143.01 0.00 M 136.72 10.12 C 136.28 11.85 136.73 13.64 136.78 15.39 C 133.00 16.22 128.85 18.60 128.75 22.96 C 128.43 30.52 128.71 38.10 128.65 45.67 C 130.86 45.70 133.07 45.72 135.28 45.76 C 135.24 41.83 136.16 37.08 132.82 34.17 C 131.98 33.25 129.47 31.05 132.15 30.74 C 137.94 33.30 137.98 40.35 137.66 45.73 C 138.57 45.68 140.40 45.59 141.31 45.55 C 138.19 41.48 139.10 36.26 139.11 31.50 C 141.08 29.98 143.48 28.52 144.12 25.92 C 145.16 23.07 143.53 20.29 142.56 17.68 C 145.16 16.39 147.83 15.17 150.11 13.33 C 148.05 9.57 144.80 6.93 141.25 4.67 C 139.67 6.43 137.84 8.01 136.72 10.12 M 141.42 32.57 C 140.88 37.25 141.54 41.88 143.90 46.01 C 144.49 45.69 145.08 45.37 145.67 45.06 C 142.35 41.20 143.61 35.93 143.47 31.28 C 142.78 31.71 142.10 32.14 141.42 32.57 Z" />
<path fill="#000000" opacity="1.00" d=" M 23.34 9.40 C 24.57 8.07 26.69 10.14 25.36 11.38 C 24.15 12.69 21.93 10.62 23.34 9.40 Z" />
<path fill="#000000" opacity="1.00" d=" M 63.27 9.43 C 64.47 8.11 66.70 10.08 65.35 11.35 C 64.18 12.63 61.85 10.67 63.27 9.43 Z" />
<path fill="#000000" opacity="1.00" d=" M 103.35 9.39 C 104.59 8.07 106.69 10.16 105.35 11.39 C 104.13 12.69 101.92 10.60 103.35 9.39 Z" />
<path fill="#000000" opacity="1.00" d=" M 143.33 9.39 C 144.56 8.06 146.68 10.14 145.34 11.37 C 144.13 12.68 141.91 10.61 143.33 9.39 Z" />
</g>
<g id="#fff568ff">
<path fill="#fff568" opacity="1.00" d=" M 170.20 41.22 C 173.95 40.79 179.10 40.01 181.00 44.24 L 181.00 46.84 C 176.21 47.08 171.40 47.13 166.62 46.76 C 167.21 44.65 167.65 41.80 170.20 41.22 M 169.28 44.82 C 172.42 45.06 175.58 45.05 178.72 44.81 C 176.34 42.14 171.67 42.16 169.28 44.82 Z" />
</g>
<g id="#817b3481">
<path fill="#817b34" opacity="0.51" d=" M 169.28 44.82 C 171.67 42.16 176.34 42.14 178.72 44.81 C 175.58 45.05 172.42 45.06 169.28 44.82 Z" />
</g>
</svg>
