<svg width="47" height="74" viewBox="0 0 47 74" xmlns="http://www.w3.org/2000/svg" xmlns:xlink="http://www.w3.org/1999/xlink"><defs><path d="M20.178 8.38c-1.503-2.12-3.834-2.41-4.653-2.434-1.957-.199-3.855 1.134-4.852 1.134-1.017 0-2.553-1.114-4.207-1.082-2.13.032-4.122 1.225-5.215 3.078-2.254 3.778-.573 9.33 1.588 12.383 1.08 1.496 2.343 3.165 3.996 3.106 1.617-.063 2.22-.997 4.172-.997 1.933 0 2.5.997 4.186.959 1.735-.025 2.828-1.502 3.87-3.012 1.25-1.712 1.667-3.402 1.686-3.488-.04-.013-3.284-1.243-3.318-4.962-.029-3.104 2.626-4.614 2.747-4.684zM15.546 0c-1.258.054-2.833.843-3.739 1.872-.802.907-1.518 2.394-1.333 3.792 1.414.102 2.865-.69 3.773-1.726.87-1.053 1.465-2.485 1.3-3.938z" id="a"/><path d="M17.431 13.065c-.029-3.104 2.626-4.614 2.747-4.684-1.503-2.122-3.834-2.411-4.653-2.435-1.957-.199-3.855 1.134-4.852 1.134-1.017 0-2.553-1.114-4.207-1.082-2.13.032-4.122 1.225-5.215 3.078-2.254 3.778-.573 9.33 1.588 12.383 1.08 1.496 2.343 3.165 3.996 3.106 1.617-.063 2.22-.997 4.172-.997 1.933 0 2.5.997 4.186.959 1.735-.025 2.828-1.502 3.87-3.012 1.25-1.712 1.751-3.402 1.771-3.488-.04-.013-3.37-1.243-3.403-4.962zm-3.184-9.127c.87-1.053 1.465-2.485 1.3-3.938-1.26.054-2.834.843-3.74 1.872-.802.907-1.518 2.394-1.333 3.792 1.414.102 2.865-.69 3.773-1.726z" id="c"/><linearGradient x1="58.917%" y1="9.59%" x2="90.81%" y2="60.851%" id="d"><stop stop-color="#FF177B" offset="0%"/><stop stop-color="#FFEC73" offset="100%"/></linearGradient><linearGradient x1="37.103%" y1="-44.035%" x2="0%" y2="101.06%" id="e"><stop stop-color="#064AA2" offset="0%"/><stop stop-color="#63FFD4" offset="100%"/></linearGradient><path id="f" d="M12 10L0 0c.162.06 0 .251 0 1v20c0-.218.116-.055 0 0l12-11z"/><path id="g" d="M.46 10.767l6.462-3.571 2.854-1.591 4.7-2.547L11.347 0 0 10.829c.126.04.35.018.523-.068"/><linearGradient x1="78.645%" y1="50%" x2="2.495%" y2="100%" id="h"><stop stop-color="#FF4521" offset="0%"/><stop stop-color="#8A33DB" offset="100%"/></linearGradient><linearGradient x1="0%" y1="-24.186%" x2="64.224%" y2="100%" id="j"><stop stop-color="#00A3B5" offset="0%"/><stop stop-color="#D6FFA1" offset="100%"/></linearGradient><path id="k" d="M.602.123C.387.007.173-.027 0 .02l11.19 10.674 3.095-2.947-4.666-2.6-7.054-3.931L.602.123z"/><path d="M17.821 13.314c-.028-3.103 2.626-4.613 2.748-4.684-1.504-2.12-3.834-2.41-4.653-2.434-1.957-.2-3.856 1.134-4.853 1.134-1.017 0-2.552-1.115-4.207-1.082-2.13.032-4.122 1.225-5.214 3.078-2.255 3.777-.573 9.329 1.587 12.382 1.08 1.497 2.343 3.166 3.996 3.107 1.617-.064 2.221-.998 4.172-.998 1.934 0 2.5.998 4.187.96 1.735-.026 2.827-1.502 3.87-3.012 1.25-1.712 1.75-3.402 1.77-3.489-.04-.012-3.369-1.242-3.403-4.962zm-3.184-9.127c.87-1.052 1.465-2.484 1.3-3.937-1.259.054-2.833.842-3.74 1.872-.802.907-1.518 2.394-1.333 3.792 1.414.102 2.866-.69 3.773-1.727z" id="l"/></defs><g transform="translate(0 1)" fill="none" fill-rule="evenodd"><g transform="translate(23.39 .25)"><mask id="b" fill="#fff"><use xlink:href="#a"/></mask><use fill="#FFF" xlink:href="#a"/><path fill="#58B83D" mask="url(#b)" d="M-.39-1.25h22v10h-22z"/><path fill="#F6821F" mask="url(#b)" d="M-.39 8.75h22v4h-22z"/><path fill="#E03A3E" mask="url(#b)" d="M-.39 12.75h22v4h-22z"/><path fill="#963D97" mask="url(#b)" d="M-.39 16.75h22v4h-22z"/><path fill="#009DDC" mask="url(#b)" d="M-.39 20.75h22v4h-22z"/><use stroke-opacity=".16" stroke="#FFF" stroke-width=".846" xlink:href="#c"/></g><path d="M11 5c.24.26-8.467-4.582-9-5-.49-.15-1 .022-1 1v21c0-.055.364.138 1 0 .253-.355 9.24-5.354 9-5 0 0 1.46-1.032 2-1 1.053-.918 3-2 3-2 .018-.01 4.072-2.265 5-3 .15.136.098-.275 0-1-.811.253-4.982-2.083-5-2l-5-3z" fill="url(#d)" transform="translate(24.692 28)"/><use fill="url(#e)" xlink:href="#f" transform="translate(25.444 28)"/><g transform="translate(24.941 38.081)"><mask id="i" fill="#fff"><use xlink:href="#g"/></mask><path d="M11-5c-.31.254-8.616-4.587-9-5-.593-.156-.937-.007-1 1 .063.602.063 9.947 0 10-.08-.053.063 10.047 0 10 .063.938.268 1.13 1 1 .117-.363 8.69-5.361 9-5l4-3c.25-.017 4.117-2.272 5-3 .146.13.096-.281 0 0-.771-.754-4.75-3.09-5-3l-4-3z" fill="url(#h)" mask="url(#i)"/></g><use fill="url(#j)" xlink:href="#k" transform="translate(25.725 28)"/><path d="M26 55.894l8.304-1.04.004 7.37-8.3.043L26 55.894z" fill="#F8682C"/><path d="M34.301 63.244l.007 7.364L26 69.56v-6.366l8.301.05z" fill="#00B4F1"/><path d="M46.308 53v9.267H35.23v-7.412L46.308 53z" fill="#91C300"/><path d="M46.305 72.462l-11.074-1.843v-7.425h11.077l-.003 9.268z" fill="#FFC300"/><path d="M2 55.894l8.304-1.04.004 7.37-8.3.043L2 55.894zm8.301 7.35l.007 7.364L2 69.56v-6.366l8.301.05zM22.308 53v9.267H11.23v-7.412L22.308 53zm-.003 19.462l-11.074-1.843v-7.425h11.077l-.003 9.268z" fill="#FFF"/><use fill="#FFF" xlink:href="#l"/><path d="M13.001 33.148l-9.003-5.017c-.5-.278-.998-.11-.998.472v20.439c0 .436.356.625.79.383l9.211-5.134 1.789-.996 2.879-1.603 4.486-2.5c.526-.293.476-.695.032-.927-.445-.23-4.518-2.517-4.518-2.517L13 33.148z" fill="#FFF"/></g></svg>