<?xml version="1.0" encoding="UTF-8"?>
<!DOCTYPE svg PUBLIC "-//W3C//DTD SVG 1.1//EN" "http://www.w3.org/Graphics/SVG/1.1/DTD/svg11.dtd">
<svg version="1.2" width="56.44mm" height="56.44mm" viewBox="0 0 5644 5644" preserveAspectRatio="xMidYMid" fill-rule="evenodd" stroke-width="28.222" stroke-linejoin="round" xmlns="http://www.w3.org/2000/svg" xmlns:ooo="http://xml.openoffice.org/svg/export" xmlns:xlink="http://www.w3.org/1999/xlink" xmlns:presentation="http://sun.com/xmlns/staroffice/presentation" xmlns:smil="http://www.w3.org/2001/SMIL20/" xmlns:anim="urn:oasis:names:tc:opendocument:xmlns:animation:1.0" xml:space="preserve">
 <defs class="ClipPathGroup">
  <clipPath id="presentation_clip_path" clipPathUnits="userSpaceOnUse">
   <rect x="0" y="0" width="5644" height="5644"/>
  </clipPath>
  <clipPath id="presentation_clip_path_shrink" clipPathUnits="userSpaceOnUse">
   <rect x="5" y="5" width="5633" height="5633"/>
  </clipPath>
 </defs>
 <defs class="TextShapeIndex">
  <g ooo:slide="id1" ooo:id-list="id3 id4 id5 id6"/>
 </defs>
 <defs class="EmbeddedBulletChars">
  <g id="bullet-char-template-57356" transform="scale(0.00048828125,-0.00048828125)">
   <path d="M 580,1141 L 1163,571 580,0 -4,571 580,1141 Z"/>
  </g>
  <g id="bullet-char-template-57354" transform="scale(0.00048828125,-0.00048828125)">
   <path d="M 8,1128 L 1137,1128 1137,0 8,0 8,1128 Z"/>
  </g>
  <g id="bullet-char-template-10146" transform="scale(0.00048828125,-0.00048828125)">
   <path d="M 174,0 L 602,739 174,1481 1456,739 174,0 Z M 1358,739 L 309,1346 659,739 1358,739 Z"/>
  </g>
  <g id="bullet-char-template-10132" transform="scale(0.00048828125,-0.00048828125)">
   <path d="M 2015,739 L 1276,0 717,0 1260,543 174,543 174,936 1260,936 717,1481 1274,1481 2015,739 Z"/>
  </g>
  <g id="bullet-char-template-10007" transform="scale(0.00048828125,-0.00048828125)">
   <path d="M 0,-2 C -7,14 -16,27 -25,37 L 356,567 C 262,823 215,952 215,954 215,979 228,992 255,992 264,992 276,990 289,987 310,991 331,999 354,1012 L 381,999 492,748 772,1049 836,1024 860,1049 C 881,1039 901,1025 922,1006 886,937 835,863 770,784 769,783 710,716 594,584 L 774,223 C 774,196 753,168 711,139 L 727,119 C 717,90 699,76 672,76 641,76 570,178 457,381 L 164,-76 C 142,-110 111,-127 72,-127 30,-127 9,-110 8,-76 1,-67 -2,-52 -2,-32 -2,-23 -1,-13 0,-2 Z"/>
  </g>
  <g id="bullet-char-template-10004" transform="scale(0.00048828125,-0.00048828125)">
   <path d="M 285,-33 C 182,-33 111,30 74,156 52,228 41,333 41,471 41,549 55,616 82,672 116,743 169,778 240,778 293,778 328,747 346,684 L 369,508 C 377,444 397,411 428,410 L 1163,1116 C 1174,1127 1196,1133 1229,1133 1271,1133 1292,1118 1292,1087 L 1292,965 C 1292,929 1282,901 1262,881 L 442,47 C 390,-6 338,-33 285,-33 Z"/>
  </g>
  <g id="bullet-char-template-9679" transform="scale(0.00048828125,-0.00048828125)">
   <path d="M 813,0 C 632,0 489,54 383,161 276,268 223,411 223,592 223,773 276,916 383,1023 489,1130 632,1184 813,1184 992,1184 1136,1130 1245,1023 1353,916 1407,772 1407,592 1407,412 1353,268 1245,161 1136,54 992,0 813,0 Z"/>
  </g>
  <g id="bullet-char-template-8226" transform="scale(0.00048828125,-0.00048828125)">
   <path d="M 346,457 C 273,457 209,483 155,535 101,586 74,649 74,723 74,796 101,859 155,911 209,963 273,989 346,989 419,989 480,963 531,910 582,859 608,796 608,723 608,648 583,586 532,535 482,483 420,457 346,457 Z"/>
  </g>
  <g id="bullet-char-template-8211" transform="scale(0.00048828125,-0.00048828125)">
   <path d="M -4,459 L 1135,459 1135,606 -4,606 -4,459 Z"/>
  </g>
  <g id="bullet-char-template-61548" transform="scale(0.00048828125,-0.00048828125)">
   <path d="M 173,740 C 173,903 231,1043 346,1159 462,1274 601,1332 765,1332 928,1332 1067,1274 1183,1159 1299,1043 1357,903 1357,740 1357,577 1299,437 1183,322 1067,206 928,148 765,148 601,148 462,206 346,322 231,437 173,577 173,740 Z"/>
  </g>
 </defs>
 <defs class="TextEmbeddedBitmaps"/>
 <g>
  <g id="id2" class="Master_Slide">
   <g id="bg-id2" class="Background"/>
   <g id="bo-id2" class="BackgroundObjects"/>
  </g>
 </g>
 <g class="SlideGroup">
  <g>
   <g id="container-id1">
    <g id="id1" class="Slide" clip-path="url(#presentation_clip_path)">
     <g class="Page">
      <g class="com.sun.star.drawing.ClosedBezierShape">
       <g id="id3">
        <rect class="BoundingBox" stroke="none" fill="none" x="1000" y="288" width="884" height="886"/>
        <path fill="rgb(255,226,1)" stroke="none" d="M 1254,332 C 1518,193 1878,405 1880,704 1909,944 1692,1174 1454,1172 1222,1188 1007,985 1001,755 988,580 1093,402 1254,332 Z"/>
       </g>
      </g>
      <g class="com.sun.star.drawing.ClosedBezierShape">
       <g id="id4">
        <rect class="BoundingBox" stroke="none" fill="none" x="4037" y="292" width="887" height="886"/>
        <path fill="rgb(255,226,1)" stroke="none" d="M 4293,335 C 4558,196 4917,410 4920,708 4945,945 4735,1175 4497,1175 4292,1190 4097,1036 4051,838 3999,641 4107,417 4293,335 Z"/>
       </g>
      </g>
      <g class="com.sun.star.drawing.ClosedBezierShape">
       <g id="id5">
        <rect class="BoundingBox" stroke="none" fill="none" x="293" y="684" width="2893" height="2030"/>
        <path fill="rgb(255,226,1)" stroke="none" d="M 2771,687 C 2903,686 3035,685 3167,684 3198,976 3176,1270 3185,1563 3101,1566 3018,1566 2934,1567 2997,1643 2964,1739 2904,1804 2741,1999 2586,2201 2415,2389 2332,2482 2175,2438 2134,2327 2070,2182 2034,2027 1986,1876 1965,1873 1923,1865 1901,1862 1974,2146 2062,2427 2142,2710 1685,2710 1228,2713 771,2707 851,2430 917,2148 1000,1872 980,1871 940,1869 920,1869 844,2151 771,2434 684,2713 554,2710 424,2709 293,2706 371,2438 442,2168 516,1899 559,1746 585,1576 704,1460 835,1309 1036,1237 1233,1256 1515,1277 1832,1190 2080,1362 2254,1473 2331,1676 2374,1869 2504,1734 2590,1544 2772,1471 2770,1209 2771,948 2771,687 Z"/>
       </g>
      </g>
      <g class="com.sun.star.drawing.ClosedBezierShape">
       <g id="id6">
        <rect class="BoundingBox" stroke="none" fill="none" x="36" y="1252" width="5577" height="4298"/>
        <path fill="rgb(255,226,1)" stroke="none" d="M 3615,1411 C 3681,1328 3772,1254 3885,1258 4251,1248 4617,1253 4983,1254 5150,1247 5347,1359 5353,1541 5358,1960 5354,2379 5355,2797 5434,2797 5513,2796 5593,2796 5617,2961 5610,3128 5610,3294 5421,3301 5232,3299 5042,3297 5039,3949 5042,4600 5041,5252 5054,5405 4925,5567 4762,5542 4611,5550 4506,5390 4522,5250 4523,4605 4521,3961 4523,3317 4501,3317 4457,3317 4435,3317 4432,4008 4449,4699 4426,5390 4413,5412 4387,5458 4374,5481 4217,5622 3927,5532 3922,5309 3911,4638 3927,3968 3914,3297 2622,3297 1330,3303 38,3294 41,3130 30,2966 45,2803 1336,2789 2628,2801 3919,2797 3917,2435 3923,2072 3912,1709 3652,2049 3361,2365 3090,2697 3045,2717 2999,2736 2954,2756 2864,2722 2753,2669 2748,2558 2730,2464 2801,2392 2853,2324 3108,2021 3361,1716 3615,1411 Z"/>
       </g>
      </g>
     </g>
    </g>
   </g>
  </g>
 </g>
</svg>