<?xml version="1.0" encoding="UTF-8" ?>
<!DOCTYPE svg PUBLIC "-//W3C//DTD SVG 1.1//EN" "http://www.w3.org/Graphics/SVG/1.1/DTD/svg11.dtd">
<svg width="256pt" height="256pt" viewBox="0 0 256 256" version="1.1" xmlns="http://www.w3.org/2000/svg">
<g id="#6ae3a1ff">
<path fill="#6ae3a1" opacity="1.00" d=" M 31.98 13.27 C 35.64 12.66 39.42 13.50 42.59 15.38 C 89.01 41.67 135.44 67.95 181.85 94.24 C 170.09 106.25 158.21 118.17 146.58 130.30 L 146.43 130.15 C 108.26 91.20 70.29 52.06 31.98 13.27 Z" />
</g>
<g id="#47a3b9ff">
<path fill="#47a3b9" opacity="1.00" d=" M 24.02 25.02 C 23.94 20.01 26.79 14.48 31.98 13.27 C 70.29 52.06 108.26 91.20 146.43 130.15 C 108.58 167.81 70.59 205.33 32.65 242.90 C 27.26 242.88 24.14 236.80 24.04 232.00 C 23.99 163.00 24.02 94.01 24.02 25.02 Z" />
</g>
<g id="#ffa677ff">
<path fill="#ffa677" opacity="1.00" d=" M 146.58 130.30 C 158.21 118.17 170.09 106.25 181.85 94.24 C 195.61 102.01 209.35 109.80 223.09 117.58 C 226.86 119.74 230.64 123.31 230.70 127.96 C 230.91 132.60 227.30 136.35 223.56 138.56 C 208.80 146.94 194.01 155.29 179.25 163.66 C 168.38 152.52 157.47 141.42 146.58 130.30 Z" />
</g>
<g id="#bf3b88ff">
<path fill="#bf3b88" opacity="1.00" d=" M 146.43 130.15 L 146.58 130.30 C 157.47 141.42 168.38 152.52 179.25 163.66 C 134.40 189.03 89.57 214.45 44.72 239.82 C 41.17 242.28 36.98 243.53 32.65 242.90 C 70.59 205.33 108.58 167.81 146.43 130.15 Z" />
</g>
</svg>
