<?xml version="1.0" encoding="UTF-8"?>
<!DOCTYPE svg PUBLIC "-//W3C//DTD SVG 1.1//EN" "http://www.w3.org/Graphics/SVG/1.1/DTD/svg11.dtd">
<svg version="1.2" width="25.61mm" height="7.73mm" viewBox="0 0 2561 773" preserveAspectRatio="xMidYMid" fill-rule="evenodd" stroke-width="28.222" stroke-linejoin="round" xmlns="http://www.w3.org/2000/svg" xmlns:ooo="http://xml.openoffice.org/svg/export" xmlns:xlink="http://www.w3.org/1999/xlink" xmlns:presentation="http://sun.com/xmlns/staroffice/presentation" xmlns:smil="http://www.w3.org/2001/SMIL20/" xmlns:anim="urn:oasis:names:tc:opendocument:xmlns:animation:1.0" xml:space="preserve">
 <defs class="ClipPathGroup">
  <clipPath id="presentation_clip_path" clipPathUnits="userSpaceOnUse">
   <rect x="0" y="0" width="2561" height="773"/>
  </clipPath>
  <clipPath id="presentation_clip_path_shrink" clipPathUnits="userSpaceOnUse">
   <rect x="2" y="0" width="2556" height="772"/>
  </clipPath>
 </defs>
 <defs class="TextShapeIndex">
  <g ooo:slide="id1" ooo:id-list="id3 id4"/>
 </defs>
 <defs class="EmbeddedBulletChars">
  <g id="bullet-char-template-57356" transform="scale(0.00048828125,-0.00048828125)">
   <path d="M 580,1141 L 1163,571 580,0 -4,571 580,1141 Z"/>
  </g>
  <g id="bullet-char-template-57354" transform="scale(0.00048828125,-0.00048828125)">
   <path d="M 8,1128 L 1137,1128 1137,0 8,0 8,1128 Z"/>
  </g>
  <g id="bullet-char-template-10146" transform="scale(0.00048828125,-0.00048828125)">
   <path d="M 174,0 L 602,739 174,1481 1456,739 174,0 Z M 1358,739 L 309,1346 659,739 1358,739 Z"/>
  </g>
  <g id="bullet-char-template-10132" transform="scale(0.00048828125,-0.00048828125)">
   <path d="M 2015,739 L 1276,0 717,0 1260,543 174,543 174,936 1260,936 717,1481 1274,1481 2015,739 Z"/>
  </g>
  <g id="bullet-char-template-10007" transform="scale(0.00048828125,-0.00048828125)">
   <path d="M 0,-2 C -7,14 -16,27 -25,37 L 356,567 C 262,823 215,952 215,954 215,979 228,992 255,992 264,992 276,990 289,987 310,991 331,999 354,1012 L 381,999 492,748 772,1049 836,1024 860,1049 C 881,1039 901,1025 922,1006 886,937 835,863 770,784 769,783 710,716 594,584 L 774,223 C 774,196 753,168 711,139 L 727,119 C 717,90 699,76 672,76 641,76 570,178 457,381 L 164,-76 C 142,-110 111,-127 72,-127 30,-127 9,-110 8,-76 1,-67 -2,-52 -2,-32 -2,-23 -1,-13 0,-2 Z"/>
  </g>
  <g id="bullet-char-template-10004" transform="scale(0.00048828125,-0.00048828125)">
   <path d="M 285,-33 C 182,-33 111,30 74,156 52,228 41,333 41,471 41,549 55,616 82,672 116,743 169,778 240,778 293,778 328,747 346,684 L 369,508 C 377,444 397,411 428,410 L 1163,1116 C 1174,1127 1196,1133 1229,1133 1271,1133 1292,1118 1292,1087 L 1292,965 C 1292,929 1282,901 1262,881 L 442,47 C 390,-6 338,-33 285,-33 Z"/>
  </g>
  <g id="bullet-char-template-9679" transform="scale(0.00048828125,-0.00048828125)">
   <path d="M 813,0 C 632,0 489,54 383,161 276,268 223,411 223,592 223,773 276,916 383,1023 489,1130 632,1184 813,1184 992,1184 1136,1130 1245,1023 1353,916 1407,772 1407,592 1407,412 1353,268 1245,161 1136,54 992,0 813,0 Z"/>
  </g>
  <g id="bullet-char-template-8226" transform="scale(0.00048828125,-0.00048828125)">
   <path d="M 346,457 C 273,457 209,483 155,535 101,586 74,649 74,723 74,796 101,859 155,911 209,963 273,989 346,989 419,989 480,963 531,910 582,859 608,796 608,723 608,648 583,586 532,535 482,483 420,457 346,457 Z"/>
  </g>
  <g id="bullet-char-template-8211" transform="scale(0.00048828125,-0.00048828125)">
   <path d="M -4,459 L 1135,459 1135,606 -4,606 -4,459 Z"/>
  </g>
  <g id="bullet-char-template-61548" transform="scale(0.00048828125,-0.00048828125)">
   <path d="M 173,740 C 173,903 231,1043 346,1159 462,1274 601,1332 765,1332 928,1332 1067,1274 1183,1159 1299,1043 1357,903 1357,740 1357,577 1299,437 1183,322 1067,206 928,148 765,148 601,148 462,206 346,322 231,437 173,577 173,740 Z"/>
  </g>
 </defs>
 <defs class="TextEmbeddedBitmaps"/>
 <g>
  <g id="id2" class="Master_Slide">
   <g id="bg-id2" class="Background"/>
   <g id="bo-id2" class="BackgroundObjects"/>
  </g>
 </g>
 <g class="SlideGroup">
  <g>
   <g id="container-id1">
    <g id="id1" class="Slide" clip-path="url(#presentation_clip_path)">
     <g class="Page">
      <g class="com.sun.star.drawing.PolyPolygonShape">
       <g id="id3">
        <rect class="BoundingBox" stroke="none" fill="none" x="16" y="5" width="2531" height="767"/>
       </g>
      </g>
      <g class="com.sun.star.drawing.ClosedBezierShape">
       <g id="id4">
        <rect class="BoundingBox" stroke="none" fill="none" x="16" y="4" width="2529" height="767"/>
        <path fill="rgb(255,255,255)" stroke="none" d="M 1253,5 L 1315,5 C 1400,14 1483,48 1544,106 1648,202 1692,355 1653,491 1612,643 1472,757 1317,770 L 1254,770 C 1143,760 1036,700 971,607 888,487 880,319 955,193 1016,86 1131,16 1253,5 Z M 1253,5 L 1253,5 Z M 1220,74 C 1163,85 1108,114 1064,156 958,257 934,431 1013,553 1088,682 1256,741 1395,687 1544,637 1637,462 1594,309 1558,148 1383,36 1220,74 Z M 1220,74 L 1220,74 Z M 16,161 C 297,161 579,161 861,161 861,169 861,185 861,193 579,193 297,193 16,193 L 16,161 Z M 16,161 L 16,161 Z M 1698,161 C 1981,161 2262,161 2544,161 L 2544,193 C 2262,193 1981,193 1698,193 1698,185 1698,169 1698,161 Z M 1698,161 L 1698,161 Z M 1181,258 C 1224,233 1264,190 1320,205 1322,299 1320,392 1320,486 1342,487 1363,487 1384,488 1384,504 1384,521 1384,538 1318,539 1250,538 1184,538 1183,521 1183,504 1184,487 1206,487 1230,487 1254,486 1253,413 1253,340 1254,267 1230,280 1206,294 1183,305 1181,290 1181,274 1181,258 Z M 1181,258 L 1181,258 Z M 181,235 C 231,237 281,234 331,237 340,272 290,252 270,258 271,317 270,375 270,434 264,434 250,434 244,434 244,375 244,315 244,257 222,257 202,257 181,257 181,252 181,240 181,235 Z M 181,235 L 181,235 Z M 401,235 C 406,235 417,235 422,235 449,302 472,368 496,436 490,434 476,433 469,432 464,416 457,399 452,382 425,382 399,382 371,382 361,404 361,444 325,436 351,369 374,302 401,235 Z M 401,235 L 401,235 Z M 411,269 C 401,300 390,330 379,360 401,360 422,360 444,360 434,330 424,299 411,269 Z M 411,269 L 411,269 Z M 524,235 C 531,235 544,235 551,235 551,264 551,293 551,322 606,315 611,227 671,234 646,265 621,297 595,327 621,363 649,399 675,434 668,434 653,434 644,434 620,404 600,372 575,343 569,342 557,339 551,338 551,369 551,402 551,434 544,434 531,434 524,434 524,368 524,302 524,235 Z M 524,235 L 524,235 Z M 686,298 C 691,255 739,224 780,238 810,243 828,272 831,300 795,310 801,255 768,257 731,249 706,287 709,319 708,353 708,402 748,412 775,422 800,399 805,373 811,373 825,372 831,372 826,421 768,451 725,427 678,403 680,342 686,298 Z M 686,298 L 686,298 Z M 1705,235 C 1754,235 1803,235 1852,235 1852,302 1852,368 1852,434 1845,434 1833,434 1825,434 1827,374 1825,315 1827,257 1794,257 1763,257 1732,257 1732,315 1732,375 1732,434 1725,434 1713,434 1705,434 1705,368 1705,302 1705,235 Z M 1705,235 L 1705,235 Z M 1952,235 C 1958,237 1971,237 1977,237 1999,304 2026,369 2049,436 2014,443 2014,404 2003,382 1977,382 1949,382 1923,383 1913,406 1913,444 1878,436 1902,369 1928,303 1952,235 Z M 1952,235 L 1952,235 Z M 1931,360 C 1953,360 1974,360 1997,360 1986,332 1976,302 1964,272 1952,300 1942,330 1931,360 Z M 1931,360 L 1931,360 Z M 2077,235 C 2111,237 2146,232 2178,239 2219,250 2229,313 2196,337 2169,358 2133,349 2103,350 2103,378 2103,407 2103,434 2096,434 2083,434 2077,434 2077,368 2077,302 2077,235 Z M 2077,235 L 2077,235 Z M 2103,257 C 2103,280 2103,305 2103,329 2124,329 2147,329 2168,330 2196,312 2196,274 2168,255 2146,257 2124,257 2103,257 Z M 2103,257 L 2103,257 Z M 2248,235 C 2256,235 2268,235 2276,235 2276,264 2274,293 2276,322 2331,314 2336,227 2397,234 2371,264 2346,297 2319,327 2346,363 2372,399 2401,434 2392,434 2377,434 2368,434 2344,404 2324,372 2299,343 2293,342 2281,339 2276,338 2274,370 2276,402 2276,434 2268,434 2256,434 2248,434 2248,368 2248,302 2248,235 Z M 2248,235 L 2248,235 Z M 16,476 C 297,476 579,476 861,476 861,484 861,499 861,507 579,507 297,507 16,507 L 16,476 Z M 16,476 L 16,476 Z M 1698,476 C 1981,476 2262,476 2544,476 L 2544,507 C 2262,507 1981,507 1698,507 1698,499 1698,484 1698,476 Z M 1698,476 L 1698,476 Z M 1704,552 C 1725,552 1748,552 1769,552 1770,573 1769,595 1770,616 1790,616 1812,616 1832,616 1832,595 1832,573 1832,552 1854,552 1875,552 1898,552 1897,573 1898,588 1898,617 1879,616 1852,617 1833,617 1833,637 1833,658 1833,680 1812,680 1790,680 1768,680 1768,658 1769,637 1768,616 1748,617 1727,617 1707,617 1707,637 1707,658 1707,680 1684,680 1663,680 1640,680 1640,658 1640,637 1639,617 1662,616 1683,616 1704,616 1704,595 1704,573 1704,552 Z M 1704,552 L 1704,552 Z M 2087,552 C 2108,552 2131,552 2153,553 2152,573 2152,596 2152,616 2172,616 2193,616 2213,616 2213,595 2213,573 2213,552 2236,552 2257,552 2279,552 2278,573 2279,596 2278,617 2257,617 2236,617 2214,617 2214,638 2216,658 2216,680 2193,680 2172,680 2149,678 2151,658 2151,638 2151,617 2129,617 2108,617 2087,617 2088,637 2088,658 2088,680 2067,680 2044,680 2023,678 2023,658 2023,637 2023,617 2004,617 1979,617 1961,617 1959,595 1961,574 1961,552 1982,552 2003,552 2024,552 2024,573 2024,596 2024,616 2044,616 2066,616 2086,616 2087,595 2087,572 2087,552 Z M 2087,552 L 2087,552 Z M 292,556 C 314,556 334,556 356,557 356,577 356,600 356,621 376,620 399,621 419,620 419,643 419,662 419,683 397,683 377,683 356,683 356,663 356,642 356,621 335,621 314,622 291,621 292,601 291,577 292,556 Z M 292,556 L 292,556 Z M 419,556 C 441,556 462,556 485,557 484,580 484,598 484,620 474,620 429,620 419,620 419,596 420,580 419,556 Z M 419,556 L 419,556 Z M 546,556 C 567,556 590,556 612,556 612,574 611,601 611,620 592,621 566,621 547,621 546,600 546,580 546,556 Z M 546,556 L 546,556 Z M 675,557 C 696,556 718,556 739,556 739,577 740,600 739,620 760,620 781,620 801,621 801,600 801,577 801,557 823,556 845,557 866,556 866,577 866,600 866,621 888,621 909,621 930,621 929,641 930,662 930,683 909,683 888,683 866,683 866,663 866,641 866,621 845,621 823,621 801,621 803,641 801,662 801,683 780,683 760,683 738,683 739,663 739,642 739,621 718,621 696,621 675,621 676,642 676,662 676,683 654,683 634,683 611,683 611,662 611,642 611,620 630,620 656,620 675,620 675,600 675,577 675,557 Z M 675,557 L 675,557 Z M 482,683 C 484,663 484,652 484,620 500,621 535,620 547,621 546,638 547,666 547,683 526,683 505,683 482,683 Z M 482,683 L 482,683 Z M 1894,680 C 1895,658 1895,637 1895,617 1914,616 1942,617 1961,617 1961,641 1961,636 1961,680 1938,680 1917,680 1894,680 Z"/>
       </g>
      </g>
     </g>
    </g>
   </g>
  </g>
 </g>
</svg>