<svg xmlns="http://www.w3.org/2000/svg" xmlns:xlink="http://www.w3.org/1999/xlink" viewBox="-6532 -175 2561 773"><defs><style>.a{clip-path:url(#a);}.b{fill:none;}.c{fill:#ffe201;fill-rule:evenodd;}</style><clipPath id="a"><rect width="2561" height="773"/></clipPath></defs><g transform="translate(-6532 -175)"><g class="a"><rect class="b" width="2531" height="767" transform="translate(16 5)"/><rect class="b" width="2529" height="767" transform="translate(16 4)"/><path id="taxi" class="c" d="M1253,5h62c85,9,168,43,229,101,104,96,148,249,109,385-41,152-181,266-336,279h-63c-111-10-218-70-283-163-83-120-91-288-16-414C1016,86,1131,16,1253,5Zm0,0Zm-33,69c-57,11-112,40-156,82-106,101-130,275-51,397,75,129,243,188,382,134,149-50,242-225,199-378C1558,148,1383,36,1220,74Zm0,0ZM16,161H861v32H16Zm0,0Zm1682,0h846v32H1698Zm0,0Zm-517,97c43-25,83-68,139-53,2,94,0,187,0,281,22,1,43,1,64,2v50c-66,1-134,0-200,0a433.875,433.875,0,0,1,0-51c22,0,46,0,70-1q-1.5-109.5,0-219c-24,13-48,27-71,38C1181,290,1181,274,1181,258Zm0,0ZM181,235c50,2,100-1,150,2,9,35-41,15-61,21,1,59,0,117,0,176H244V257H181Zm0,0Zm220,0h21c27,67,50,133,74,201-6-2-20-3-27-4-5-16-12-33-17-50H371c-10,22-10,62-46,54C351,369,374,302,401,235Zm0,0Zm10,34c-10,31-21,61-32,91h65C434,330,424,299,411,269Zm0,0Zm113-34h27v87c55-7,60-95,120-88-25,31-50,63-76,93,26,36,54,72,80,107H644c-24-30-44-62-69-91-6-1-18-4-24-5v96H524Zm0,0Zm162,63c5-43,53-74,94-60,30,5,48,34,51,62-36,10-30-45-63-43-37-8-62,30-59,62-1,34-1,83,39,93,27,10,52-13,57-39,6,0,20-1,26-1-5,49-63,79-106,55C678,403,680,342,686,298Zm0,0Zm1019-63h147V434h-27c2-60,0-119,2-177h-95V434h-27Zm0,0Zm247,0c6,2,19,2,25,2,22,67,49,132,72,199-35,7-35-32-46-54-26,0-54,0-80,1-10,23-10,61-45,53C1902,369,1928,303,1952,235Zm0,0Zm-21,125h66c-11-28-21-58-33-88C1952,300,1942,330,1931,360Zm0,0Zm146-125c34,2,69-3,101,4,41,11,51,74,18,98-27,21-63,12-93,13v84h-26Zm0,0Zm26,22v72c21,0,44,0,65,1,28-18,28-56,0-75C2146,257,2124,257,2103,257Zm0,0Zm145-22h28c0,29-2,58,0,87,55-8,60-95,121-88-26,30-51,63-78,93,27,36,53,72,82,107h-33c-24-30-44-62-69-91-6-1-18-4-23-5-2,32,0,64,0,96h-28Zm0,0ZM16,476H861v31H16Zm0,0Zm1682,0h846v31H1698Zm0,0Zm6,76h65c1,21,0,43,1,64h62V552h66c-1,21,0,36,0,65-19-1-46,0-65,0v63h-65c0-22,1-43,0-64-20,1-41,1-61,1v63h-67c0-22,0-43-1-63,23-1,44-1,65-1Zm0,0Zm383,0c21,0,44,0,66,1-1,20-1,43-1,63h61V552h66c-1,21,0,44-1,65h-64c0,21,2,41,2,63-23,0-44,0-67-2,2-20,2-40,2-61h-64c1,20,1,41,1,63-21,0-44,0-65-2V617h-62c-2-22,0-43,0-65h63v64h62C2087,595,2087,572,2087,552Zm0,0ZM292,556c22,0,42,0,64,1v64c20-1,43,0,63-1v63H356V621c-21,0-42,1-65,0C292,601,291,577,292,556Zm0,0Zm127,0c22,0,43,0,66,1-1,23-1,41-1,63H419C419,596,420,580,419,556Zm0,0Zm127,0h66c0,18-1,45-1,64-19,1-45,1-64,1C546,600,546,580,546,556Zm0,0Zm129,1c21-1,43-1,64-1,0,21,1,44,0,64,21,0,42,0,62,1V557c22-1,44,0,65-1v65h64c-1,20,0,41,0,62H866V621H801c2,20,0,41,0,62H738c1-20,1-41,1-62H675c1,21,1,41,1,62H611V620h64Zm0,0ZM482,683c2-20,2-31,2-63,16,1,51,0,63,1-1,17,0,45,0,62Zm0,0Zm1412-3c1-22,1-43,1-63,19-1,47,0,66,0v63Z"/></g></g></svg>