<?xml version="1.0" encoding="UTF-8"?>
<!DOCTYPE svg PUBLIC "-//W3C//DTD SVG 1.1//EN" "http://www.w3.org/Graphics/SVG/1.1/DTD/svg11.dtd">
<svg version="1.2" width="32.01mm" height="9.66mm" viewBox="0 0 3201 966" preserveAspectRatio="xMidYMid" fill-rule="evenodd" stroke-width="28.222" stroke-linejoin="round" xmlns="http://www.w3.org/2000/svg" xmlns:ooo="http://xml.openoffice.org/svg/export" xmlns:xlink="http://www.w3.org/1999/xlink" xmlns:presentation="http://sun.com/xmlns/staroffice/presentation" xmlns:smil="http://www.w3.org/2001/SMIL20/" xmlns:anim="urn:oasis:names:tc:opendocument:xmlns:animation:1.0" xml:space="preserve">
 <defs class="ClipPathGroup">
  <clipPath id="presentation_clip_path" clipPathUnits="userSpaceOnUse">
   <rect x="0" y="0" width="3201" height="966"/>
  </clipPath>
  <clipPath id="presentation_clip_path_shrink" clipPathUnits="userSpaceOnUse">
   <rect x="3" y="0" width="3195" height="965"/>
  </clipPath>
 </defs>
 <defs class="TextShapeIndex">
  <g ooo:slide="id1" ooo:id-list="id3 id4 id5"/>
 </defs>
 <defs class="EmbeddedBulletChars">
  <g id="bullet-char-template-57356" transform="scale(0.00048828125,-0.00048828125)">
   <path d="M 580,1141 L 1163,571 580,0 -4,571 580,1141 Z"/>
  </g>
  <g id="bullet-char-template-57354" transform="scale(0.00048828125,-0.00048828125)">
   <path d="M 8,1128 L 1137,1128 1137,0 8,0 8,1128 Z"/>
  </g>
  <g id="bullet-char-template-10146" transform="scale(0.00048828125,-0.00048828125)">
   <path d="M 174,0 L 602,739 174,1481 1456,739 174,0 Z M 1358,739 L 309,1346 659,739 1358,739 Z"/>
  </g>
  <g id="bullet-char-template-10132" transform="scale(0.00048828125,-0.00048828125)">
   <path d="M 2015,739 L 1276,0 717,0 1260,543 174,543 174,936 1260,936 717,1481 1274,1481 2015,739 Z"/>
  </g>
  <g id="bullet-char-template-10007" transform="scale(0.00048828125,-0.00048828125)">
   <path d="M 0,-2 C -7,14 -16,27 -25,37 L 356,567 C 262,823 215,952 215,954 215,979 228,992 255,992 264,992 276,990 289,987 310,991 331,999 354,1012 L 381,999 492,748 772,1049 836,1024 860,1049 C 881,1039 901,1025 922,1006 886,937 835,863 770,784 769,783 710,716 594,584 L 774,223 C 774,196 753,168 711,139 L 727,119 C 717,90 699,76 672,76 641,76 570,178 457,381 L 164,-76 C 142,-110 111,-127 72,-127 30,-127 9,-110 8,-76 1,-67 -2,-52 -2,-32 -2,-23 -1,-13 0,-2 Z"/>
  </g>
  <g id="bullet-char-template-10004" transform="scale(0.00048828125,-0.00048828125)">
   <path d="M 285,-33 C 182,-33 111,30 74,156 52,228 41,333 41,471 41,549 55,616 82,672 116,743 169,778 240,778 293,778 328,747 346,684 L 369,508 C 377,444 397,411 428,410 L 1163,1116 C 1174,1127 1196,1133 1229,1133 1271,1133 1292,1118 1292,1087 L 1292,965 C 1292,929 1282,901 1262,881 L 442,47 C 390,-6 338,-33 285,-33 Z"/>
  </g>
  <g id="bullet-char-template-9679" transform="scale(0.00048828125,-0.00048828125)">
   <path d="M 813,0 C 632,0 489,54 383,161 276,268 223,411 223,592 223,773 276,916 383,1023 489,1130 632,1184 813,1184 992,1184 1136,1130 1245,1023 1353,916 1407,772 1407,592 1407,412 1353,268 1245,161 1136,54 992,0 813,0 Z"/>
  </g>
  <g id="bullet-char-template-8226" transform="scale(0.00048828125,-0.00048828125)">
   <path d="M 346,457 C 273,457 209,483 155,535 101,586 74,649 74,723 74,796 101,859 155,911 209,963 273,989 346,989 419,989 480,963 531,910 582,859 608,796 608,723 608,648 583,586 532,535 482,483 420,457 346,457 Z"/>
  </g>
  <g id="bullet-char-template-8211" transform="scale(0.00048828125,-0.00048828125)">
   <path d="M -4,459 L 1135,459 1135,606 -4,606 -4,459 Z"/>
  </g>
  <g id="bullet-char-template-61548" transform="scale(0.00048828125,-0.00048828125)">
   <path d="M 173,740 C 173,903 231,1043 346,1159 462,1274 601,1332 765,1332 928,1332 1067,1274 1183,1159 1299,1043 1357,903 1357,740 1357,577 1299,437 1183,322 1067,206 928,148 765,148 601,148 462,206 346,322 231,437 173,577 173,740 Z"/>
  </g>
 </defs>
 <defs class="TextEmbeddedBitmaps"/>
 <g>
  <g id="id2" class="Master_Slide">
   <g id="bg-id2" class="Background"/>
   <g id="bo-id2" class="BackgroundObjects"/>
  </g>
 </g>
 <g class="SlideGroup">
  <g>
   <g id="container-id1">
    <g id="id1" class="Slide" clip-path="url(#presentation_clip_path)">
     <g class="Page">
      <g class="com.sun.star.drawing.PolyPolygonShape">
       <g id="id3">
        <rect class="BoundingBox" stroke="none" fill="none" x="20" y="6" width="3166" height="961"/>
       </g>
      </g>
      <g class="com.sun.star.drawing.PolyPolygonShape">
       <g id="id4">
        <rect class="BoundingBox" stroke="none" fill="none" x="20" y="5" width="3163" height="961"/>
       </g>
      </g>
      <g class="com.sun.star.drawing.ClosedBezierShape">
       <g id="id5">
        <rect class="BoundingBox" stroke="none" fill="none" x="20" y="6" width="3162" height="958"/>
        <path fill="rgb(43,42,41)" stroke="none" d="M 1567,6 L 1644,6 C 1751,17 1854,60 1931,132 2061,253 2116,444 2067,614 2016,804 1841,947 1647,963 L 1568,963 C 1429,951 1295,876 1214,759 1110,609 1100,399 1194,241 1270,107 1414,20 1567,6 Z M 1567,6 L 1567,6 Z M 1525,92 C 1454,106 1385,142 1330,195 1198,321 1168,539 1267,692 1360,853 1570,927 1744,859 1931,797 2047,578 1993,386 1948,185 1729,45 1525,92 Z M 1525,92 L 1525,92 Z M 20,201 C 371,201 724,201 1077,201 1077,211 1077,231 1077,241 724,241 371,241 20,241 L 20,201 Z M 20,201 L 20,201 Z M 2123,201 C 2477,201 2828,201 3181,201 L 3181,241 C 2828,241 2477,241 2123,241 2123,231 2123,211 2123,201 Z M 2123,201 L 2123,201 Z M 1477,323 C 1530,291 1580,237 1651,256 1653,374 1651,490 1651,608 1678,609 1704,609 1731,610 1731,630 1731,652 1731,673 1648,674 1563,673 1480,673 1479,652 1479,630 1480,609 1508,609 1538,609 1568,608 1567,517 1567,425 1568,334 1538,350 1508,368 1479,381 1477,363 1477,343 1477,323 Z M 1477,323 L 1477,323 Z M 226,294 C 289,296 351,293 414,296 425,340 363,315 338,323 339,396 338,469 338,543 330,543 313,543 305,543 305,469 305,394 305,321 278,321 253,321 226,321 226,315 226,300 226,294 Z M 226,294 L 226,294 Z M 501,294 C 508,294 521,294 528,294 561,378 590,460 620,545 613,543 595,542 586,540 580,520 571,499 565,478 531,478 499,478 464,478 451,505 451,555 406,545 439,461 468,378 501,294 Z M 501,294 L 501,294 Z M 514,336 C 501,375 488,413 474,450 501,450 528,450 555,450 543,413 530,374 514,336 Z M 514,336 L 514,336 Z M 655,294 C 664,294 680,294 689,294 689,330 689,366 689,403 758,394 764,284 839,293 808,331 776,371 744,409 776,454 812,499 844,543 835,543 817,543 805,543 775,505 750,465 719,429 711,428 696,424 689,423 689,461 689,503 689,543 680,543 664,543 655,543 655,460 655,378 655,294 Z M 655,294 L 655,294 Z M 858,373 C 864,319 924,280 975,298 1013,304 1035,340 1039,375 994,388 1002,319 960,321 914,311 883,359 887,399 885,441 885,503 935,515 969,528 1000,499 1007,466 1014,466 1032,465 1039,465 1033,527 960,564 907,534 848,504 850,428 858,373 Z M 858,373 L 858,373 Z M 2132,294 C 2193,294 2254,294 2316,294 2316,378 2316,460 2316,543 2307,543 2292,543 2282,543 2284,468 2282,394 2284,321 2243,321 2204,321 2166,321 2166,394 2166,469 2166,543 2157,543 2142,543 2132,543 2132,460 2132,378 2132,294 Z M 2132,294 L 2132,294 Z M 2441,294 C 2448,296 2465,296 2472,296 2500,380 2533,461 2562,545 2518,554 2518,505 2505,478 2472,478 2437,478 2405,479 2392,508 2392,555 2348,545 2378,461 2411,379 2441,294 Z M 2441,294 L 2441,294 Z M 2415,450 C 2442,450 2468,450 2497,450 2483,415 2471,378 2456,340 2441,375 2428,413 2415,450 Z M 2415,450 L 2415,450 Z M 2597,294 C 2640,296 2683,290 2723,299 2775,313 2787,391 2746,421 2712,448 2667,436 2630,438 2630,473 2630,509 2630,543 2621,543 2605,543 2597,543 2597,460 2597,378 2597,294 Z M 2597,294 L 2597,294 Z M 2630,321 C 2630,350 2630,381 2630,411 2656,411 2685,411 2711,413 2746,390 2746,343 2711,319 2683,321 2656,321 2630,321 Z M 2630,321 L 2630,321 Z M 2811,294 C 2821,294 2836,294 2846,294 2846,330 2843,366 2846,403 2915,393 2921,284 2997,293 2965,330 2933,371 2900,409 2933,454 2966,499 3002,543 2991,543 2972,543 2961,543 2931,505 2906,465 2875,429 2867,428 2852,424 2846,423 2843,463 2846,503 2846,543 2836,543 2821,543 2811,543 2811,460 2811,378 2811,294 Z M 2811,294 L 2811,294 Z M 20,595 C 371,595 724,595 1077,595 1077,605 1077,624 1077,634 724,634 371,634 20,634 L 20,595 Z M 20,595 L 20,595 Z M 2123,595 C 2477,595 2828,595 3181,595 L 3181,634 C 2828,634 2477,634 2123,634 2123,624 2123,605 2123,595 Z M 2123,595 L 2123,595 Z M 2131,690 C 2157,690 2186,690 2212,690 2213,717 2212,744 2213,771 2238,771 2266,771 2291,771 2291,744 2291,717 2291,690 2318,690 2344,690 2373,690 2372,717 2373,736 2373,772 2349,771 2316,772 2292,772 2292,797 2292,823 2292,851 2266,851 2238,851 2211,851 2211,823 2212,797 2211,771 2186,772 2159,772 2134,772 2134,797 2134,823 2134,851 2106,851 2079,851 2051,851 2051,823 2051,797 2049,772 2078,771 2104,771 2131,771 2131,744 2131,717 2131,690 Z M 2131,690 L 2131,690 Z M 2610,690 C 2636,690 2665,690 2692,692 2691,717 2691,746 2691,771 2716,771 2742,771 2767,771 2767,744 2767,717 2767,690 2796,690 2822,690 2850,690 2848,717 2850,746 2848,772 2822,772 2796,772 2768,772 2768,798 2771,823 2771,851 2742,851 2716,851 2687,848 2690,823 2690,798 2690,772 2662,772 2636,772 2610,772 2611,797 2611,823 2611,851 2585,851 2556,851 2530,848 2530,823 2530,797 2530,772 2506,772 2475,772 2452,772 2450,744 2452,718 2452,690 2478,690 2505,690 2531,690 2531,717 2531,746 2531,771 2556,771 2583,771 2608,771 2610,744 2610,715 2610,690 Z M 2610,690 L 2610,690 Z M 365,695 C 393,695 418,695 445,697 445,722 445,751 445,777 470,776 499,777 524,776 524,804 524,828 524,854 496,854 471,854 445,854 445,829 445,803 445,777 419,777 393,778 364,777 365,752 364,722 365,695 Z M 365,695 L 365,695 Z M 524,695 C 551,695 578,695 606,697 605,726 605,748 605,776 593,776 536,776 524,776 524,746 525,726 524,695 Z M 524,695 L 524,695 Z M 683,695 C 709,695 738,695 765,695 765,718 764,752 764,776 740,777 708,777 684,777 683,751 683,726 683,695 Z M 683,695 L 683,695 Z M 844,697 C 870,695 898,695 924,695 924,722 925,751 924,776 950,776 977,776 1002,777 1002,751 1002,722 1002,697 1029,695 1057,697 1083,695 1083,722 1083,751 1083,777 1110,777 1137,777 1163,777 1162,802 1163,828 1163,854 1137,854 1110,854 1083,854 1083,829 1083,802 1083,777 1057,777 1029,777 1002,777 1004,802 1002,828 1002,854 975,854 950,854 923,854 924,829 924,803 924,777 898,777 870,777 844,777 845,803 845,828 845,854 818,854 793,854 764,854 764,828 764,803 764,776 788,776 820,776 844,776 844,751 844,722 844,697 Z M 844,697 L 844,697 Z M 603,854 C 605,829 605,816 605,776 625,777 669,776 684,777 683,798 684,833 684,854 658,854 631,854 603,854 Z M 603,854 L 603,854 Z M 2368,851 C 2369,823 2369,797 2369,772 2393,771 2428,772 2452,772 2452,802 2452,796 2452,851 2423,851 2397,851 2368,851 Z"/>
       </g>
      </g>
     </g>
    </g>
   </g>
  </g>
 </g>
</svg>