<?xml version="1.0" standalone="no"?>
<!DOCTYPE svg PUBLIC "-//W3C//DTD SVG 20010904//EN"
 "http://www.w3.org/TR/2001/REC-SVG-20010904/DTD/svg10.dtd">
<svg version="1.0" xmlns="http://www.w3.org/2000/svg"
 width="453.000000pt" height="453.000000pt" viewBox="0 0 453.000000 453.000000"
 preserveAspectRatio="xMidYMid meet">
<metadata>
Created by potrace 1.11, written by Peter Selinger 2001-2013
</metadata>
<g transform="translate(0.000000,453.000000) scale(0.100000,-0.100000)"
fill="#000000" stroke="none">
<path d="M2130 3594 c-406 -52 -734 -245 -964 -568 -130 -181 -236 -480 -236
-662 l0 -44 -45 0 -45 0 0 -85 0 -85 -80 0 -79 0 -3 83 -3 82 -85 0 -85 0 -3
-82 -3 -83 -79 0 -80 0 0 85 0 86 -82 -3 -83 -3 -3 -82 -3 -82 -82 -3 -82 -3
-3 -88 -3 -88 88 3 88 3 3 83 3 82 79 0 80 0 0 -85 0 -85 85 0 85 0 0 85 0 85
80 0 80 0 0 -85 0 -85 85 0 85 0 0 85 0 85 43 0 44 0 16 -98 c32 -197 117
-401 233 -563 114 -157 317 -331 490 -417 87 -44 250 -99 352 -119 131 -26
376 -23 509 5 373 80 677 293 878 616 89 144 163 349 183 511 l7 60 43 3 42 3
0 -85 0 -86 85 0 85 0 0 85 0 85 80 0 80 0 0 -85 0 -85 90 0 90 0 0 85 0 85
80 0 80 0 0 -85 0 -85 85 0 85 0 0 90 0 90 -85 0 -85 0 0 85 0 86 -82 -3 -83
-3 -3 -82 -3 -83 -79 0 -79 0 -3 83 -3 82 -82 3 -83 3 0 -86 0 -85 -85 0 -85
0 0 85 0 85 -38 0 -39 0 -11 93 c-49 393 -261 741 -583 957 -218 146 -440 216
-704 224 -77 2 -156 2 -175 0z m373 -175 c163 -32 337 -110 467 -208 84 -63
214 -198 269 -280 242 -356 274 -802 86 -1187 -154 -316 -430 -541 -772 -630
-131 -35 -355 -44 -488 -21 -570 100 -985 591 -985 1167 0 549 366 1016 902
1152 161 40 339 43 521 7z"/>
<path d="M2000 2885 l0 -65 85 0 85 0 0 -560 0 -560 -95 0 -95 0 0 -60 0 -60
280 0 280 0 0 60 0 60 -95 0 -95 0 -2 623 -3 622 -172 3 -173 2 0 -65z"/>
</g>
</svg>
