<?xml version="1.0" standalone="no"?>
<!DOCTYPE svg PUBLIC "-//W3C//DTD SVG 20010904//EN"
 "http://www.w3.org/TR/2001/REC-SVG-20010904/DTD/svg10.dtd">
<svg version="1.0" xmlns="http://www.w3.org/2000/svg"
 width="1000.000000pt" height="1000.000000pt" viewBox="0 0 1000.000000 1000.000000"
 preserveAspectRatio="xMidYMid meet">
<metadata>
Created by potrace 1.11, written by Peter Selinger 2001-2013
</metadata>
<g transform="translate(0.000000,1000.000000) scale(0.100000,-0.100000)"
fill="#000000" stroke="none">
<path d="M5109 9635 c-2 -2 -37 -5 -78 -6 -40 -1 -107 -8 -148 -15 -42 -8 -94
-16 -117 -20 -22 -3 -126 -23 -231 -44 -252 -51 -435 -82 -552 -95 -139 -14
-496 -131 -658 -216 -271 -141 -338 -173 -445 -215 -82 -32 -149 -73 -283
-172 -72 -54 -211 -157 -307 -228 -226 -168 -400 -313 -525 -439 -187 -188
-429 -503 -587 -765 -74 -122 -192 -365 -189 -387 0 -2 -8 -23 -18 -47 -18
-40 -57 -171 -66 -217 -2 -12 -6 -28 -9 -37 -21 -72 -27 -226 -11 -286 7 -27
25 -60 41 -77 l29 -28 93 76 c51 42 94 74 96 72 2 -2 6 -14 10 -25 5 -17 2
-23 -18 -28 -35 -9 -129 -103 -156 -156 -40 -79 -59 -138 -91 -287 l-22 -102
52 -65 c47 -58 52 -69 47 -101 -3 -19 -8 -52 -11 -72 -3 -21 -8 -49 -10 -63
-3 -14 -7 -47 -11 -75 -3 -27 -7 -61 -10 -75 -19 -115 -26 -585 -11 -780 8
-115 11 -138 32 -285 23 -152 25 -163 50 -270 33 -139 54 -229 60 -268 3 -17
12 -63 20 -102 12 -61 21 -111 41 -225 3 -14 7 -32 9 -40 2 -8 7 -31 10 -50
16 -93 36 -175 86 -340 56 -187 142 -329 324 -535 87 -99 327 -332 439 -428
52 -44 258 -252 326 -328 179 -200 492 -511 546 -542 8 -4 14 -12 14 -17 0 -5
-161 71 -357 169 -438 219 -455 226 -518 226 -71 -1 -126 -8 -131 -17 -5 -8
53 -121 87 -170 11 -14 19 -29 19 -33 0 -18 146 -198 196 -241 78 -68 99 -81
359 -208 292 -144 441 -208 540 -232 11 -3 25 -6 30 -8 16 -4 117 -25 145 -30
14 -2 59 -11 100 -20 41 -8 86 -17 100 -20 91 -17 274 -63 330 -84 8 -3 17 -6
20 -7 3 0 14 -4 25 -8 106 -35 302 -52 700 -62 256 -7 359 -13 505 -30 31 -4
112 -12 195 -21 256 -25 481 -22 651 10 10 2 39 7 64 10 25 3 56 8 70 11 13 2
42 7 65 11 372 54 705 135 892 218 113 50 265 132 408 219 172 105 612 420
745 533 107 91 148 129 241 223 58 58 141 151 185 206 43 55 95 118 114 139
37 41 40 45 155 171 187 205 307 370 435 600 49 86 153 299 185 375 15 36 58
131 96 212 109 233 184 434 258 688 65 229 84 315 88 415 8 211 9 864 2 935
-5 41 -11 102 -14 135 -3 33 -8 76 -10 95 -2 19 -7 68 -10 108 -4 41 -8 81 -9
90 -2 9 -6 37 -9 62 -4 25 -9 65 -12 90 -17 125 -117 446 -185 595 -5 11 -37
83 -70 160 -106 243 -249 503 -408 744 -31 47 -60 91 -65 96 -4 6 -39 53 -79
105 -143 191 -202 257 -288 330 -82 69 -135 128 -165 184 -64 121 -163 254
-259 351 -187 187 -535 437 -861 617 -280 156 -327 174 -651 253 -123 30 -265
68 -316 84 -208 66 -259 72 -633 76 -170 2 -323 5 -340 8 -16 3 -52 8 -80 12
-27 3 -66 7 -85 10 -19 2 -71 7 -115 11 -44 3 -83 8 -86 10 -3 2 -8 2 -10 -1z
m1756 -2548 c18 -4 39 -8 140 -23 44 -7 227 -53 250 -63 11 -5 61 -23 110 -41
94 -34 309 -139 346 -169 l22 -18 -40 -69 c-22 -38 -52 -90 -67 -116 -48 -88
-79 -142 -161 -288 -45 -80 -98 -174 -118 -210 -19 -36 -47 -85 -60 -110 -14
-25 -36 -63 -48 -85 -12 -22 -22 -41 -24 -43 -1 -1 -58 24 -126 57 -208 99
-322 126 -504 118 -130 -6 -162 -11 -245 -34 -178 -50 -360 -158 -474 -282
-23 -24 -46 -49 -51 -55 -59 -62 -160 -257 -188 -361 -43 -163 -45 -352 -4
-530 13 -53 54 -158 90 -225 109 -207 288 -369 508 -459 130 -53 223 -72 369
-76 112 -4 147 -1 255 19 154 28 369 149 500 281 44 44 115 129 115 138 0 3
-191 5 -425 4 -276 -1 -426 2 -428 8 -2 6 -3 246 -3 535 l1 525 1014 3 c601 1
1017 -2 1020 -7 8 -13 6 -573 -3 -696 -18 -266 -53 -442 -129 -639 -17 -44
-30 -82 -29 -83 3 -5 -109 -219 -141 -269 -125 -198 -350 -427 -542 -549 -33
-21 -72 -46 -86 -56 -87 -60 -340 -164 -494 -203 -78 -19 -280 -55 -370 -64
-144 -14 -427 -8 -580 14 -96 14 -365 90 -422 119 -15 8 -32 15 -37 15 -16 0
-242 118 -311 162 -304 196 -558 471 -729 790 -60 112 -139 311 -161 404 -47
200 -49 213 -66 354 -13 103 -15 315 -4 408 13 114 21 172 29 207 21 95 47
195 56 220 7 17 13 37 15 45 10 47 107 264 156 350 36 62 166 250 208 300 144
173 358 357 536 463 249 147 579 260 835 284 30 3 57 7 59 9 6 5 412 -3 436
-9z m-2649 -31 c8 -3 12 -144 12 -509 l0 -504 -726 1 c-769 1 -807 0 -894 -45
-88 -45 -174 -154 -193 -245 -3 -16 -9 -82 -12 -146 -5 -110 -4 -118 13 -119
11 0 422 -1 915 -1 l897 -1 -2 -481 -1 -481 -907 -1 c-500 0 -911 -4 -915 -7
-6 -7 -5 -99 2 -136 1 -9 6 -38 9 -66 11 -81 52 -158 116 -219 69 -66 108 -84
220 -102 14 -2 352 -5 751 -5 l726 -1 0 -504 c0 -278 -4 -507 -9 -510 -9 -6
-1421 -5 -1458 0 -14 3 -54 7 -90 11 -206 19 -458 98 -620 194 -223 132 -436
372 -554 621 -35 75 -84 202 -91 240 -1 3 -7 30 -13 60 -19 86 -20 95 -28 183
-9 106 -9 1422 0 1505 25 230 103 442 238 644 67 100 236 278 328 345 178 129
423 234 603 258 28 4 61 9 72 11 11 2 72 7 135 10 63 4 116 7 117 8 4 3 1349
-5 1359 -8z"/>
<path d="M422 6462 c-42 -42 -71 -85 -109 -162 -115 -235 -120 -249 -122 -397
-3 -121 -7 -196 -14 -220 -14 -47 -20 -135 -22 -343 -2 -124 -7 -288 -11 -365
-11 -201 -8 -392 11 -533 40 -309 105 -546 231 -840 106 -249 233 -485 317
-588 81 -99 136 -161 193 -212 l66 -61 47 31 c25 17 48 33 50 35 2 1 -15 42
-39 90 -129 264 -414 1124 -465 1403 -3 14 -16 84 -31 155 -14 72 -28 144 -31
160 -2 17 -12 64 -22 105 -10 46 -18 130 -20 220 -10 443 -3 627 30 795 5 28
11 60 14 73 2 13 6 31 9 40 3 9 8 38 10 65 3 26 8 64 12 85 4 20 8 46 10 57 3
17 39 139 63 216 13 38 6 139 -11 180 -18 42 -52 69 -85 69 -15 0 -44 -21 -81
-58z"/>
</g>
</svg>
