<?xml version="1.0" encoding="UTF-8" ?>
<!DOCTYPE svg PUBLIC "-//W3C//DTD SVG 1.1//EN" "http://www.w3.org/Graphics/SVG/1.1/DTD/svg11.dtd">
<svg width="100%" height="100%" viewBox="0 0 83 46" version="1.1" xmlns="http://www.w3.org/2000/svg">
<g id="#000000ff">
<path fill="#000000" opacity="1.00" d=" M 11.27 0.00 L 72.01 0.00 C 75.86 2.20 74.28 7.04 74.57 10.64 C 78.39 11.22 82.03 13.46 83.00 17.43 L 83.00 32.13 C 81.98 34.28 79.75 34.86 77.64 35.35 C 77.31 38.51 76.99 41.67 76.67 44.83 C 74.77 44.90 72.86 44.95 70.96 44.98 C 70.50 41.65 70.11 38.31 69.82 34.95 C 50.94 34.93 32.05 34.94 13.17 34.95 C 12.87 38.29 12.49 41.63 12.05 44.96 C 10.14 44.94 8.23 44.91 6.33 44.86 C 5.99 41.70 5.68 38.53 5.35 35.36 C 3.31 34.88 1.22 34.26 0.00 32.41 L 0.00 18.21 C 0.69 13.79 4.67 11.20 8.83 10.66 C 9.04 7.05 7.61 2.32 11.27 0.00 M 11.64 2.73 C 11.35 9.16 11.56 15.61 11.51 22.05 C 21.07 22.06 30.62 22.06 40.18 22.05 C 40.19 15.58 40.19 9.11 40.18 2.63 C 30.67 2.68 21.15 2.51 11.64 2.73 M 43.06 2.63 C 43.06 9.11 43.06 15.58 43.07 22.05 C 52.63 22.06 62.19 22.07 71.75 22.05 C 71.74 16.67 71.76 11.30 71.76 5.93 C 71.67 4.69 72.17 2.32 70.10 2.67 C 61.09 2.55 52.08 2.66 43.06 2.63 M 2.54 21.94 C 4.59 21.93 6.64 21.93 8.68 21.93 C 8.74 19.04 8.72 16.15 8.51 13.26 C 4.22 13.86 1.96 17.86 2.54 21.94 M 74.61 13.52 C 74.55 16.36 74.56 19.21 74.57 22.06 C 76.62 22.05 78.66 22.05 80.71 22.06 C 81.27 18.01 79.02 13.80 74.61 13.52 M 2.74 24.63 C 2.72 27.12 2.76 29.61 2.90 32.09 C 4.94 32.25 6.99 32.35 9.04 32.33 C 32.79 32.24 56.54 32.40 80.29 32.25 C 80.68 29.73 80.70 27.17 80.60 24.62 C 54.65 24.64 28.69 24.61 2.74 24.63 M 8.09 34.95 C 8.59 37.54 7.94 40.66 9.75 42.78 C 10.12 40.17 10.37 37.55 10.63 34.93 C 9.99 34.94 8.73 34.95 8.09 34.95 M 72.63 34.94 C 72.88 37.55 73.12 40.15 73.53 42.73 C 75.29 40.56 74.65 37.52 75.13 34.94 C 74.50 34.94 73.26 34.94 72.63 34.94 Z" />
</g>
<g id="#f6ed64f6">
<path fill="#f6ed64" opacity="0.96" d=" M 53.16 39.18 C 55.69 38.85 58.28 38.85 60.81 39.17 C 63.26 39.89 64.25 42.54 64.02 44.88 C 59.35 45.09 54.67 45.07 50.00 44.89 C 49.74 42.55 50.73 39.92 53.16 39.18 M 54.01 41.00 C 53.70 41.50 53.08 42.50 52.77 43.00 C 55.59 42.99 58.42 42.99 61.24 43.00 C 60.93 42.50 60.29 41.50 59.97 41.00 C 57.98 41.01 56.00 41.01 54.01 41.00 Z" />
</g>
<g id="#817b3481">
<path fill="#817b34" opacity="0.51" d=" M 54.01 41.00 C 56.00 41.01 57.98 41.01 59.97 41.00 C 60.29 41.50 60.93 42.50 61.24 43.00 C 58.42 42.99 55.59 42.99 52.77 43.00 C 53.08 42.50 53.70 41.50 54.01 41.00 Z" />
</g>
</svg>
