<svg version="1" xmlns="http://www.w3.org/2000/svg" width="1333.333" height="1333.333" viewBox="0 0 1000 1000"><path d="M510.9 36.5c-.2.2-3.7.5-7.8.6-4 .1-10.7.8-14.8 1.5-4.2.8-9.4 1.6-11.7 2-2.2.3-12.6 2.3-23.1 4.4-25.2 5.1-43.5 8.2-55.2 9.5-13.9 1.4-49.6 13.1-65.8 21.6-27.1 14.1-33.8 17.3-44.5 21.5-8.2 3.2-14.9 7.3-28.3 17.2-7.2 5.4-21.1 15.7-30.7 22.8-22.6 16.8-40 31.3-52.5 43.9-18.7 18.8-42.9 50.3-58.7 76.5-7.4 12.2-19.2 36.5-18.9 38.7 0 .2-.8 2.3-1.8 4.7-1.8 4-5.7 17.1-6.6 21.7-.2 1.2-.6 2.8-.9 3.7-2.1 7.2-2.7 22.6-1.1 28.6.7 2.7 2.5 6 4.1 7.7l2.9 2.8 9.3-7.6c5.1-4.2 9.4-7.4 9.6-7.2.2.2.6 1.4 1 2.5.5 1.7.2 2.3-1.8 2.8-3.5.9-12.9 10.3-15.6 15.6-4 7.9-5.9 13.8-9.1 28.7l-2.2 10.2 5.2 6.5c4.7 5.8 5.2 6.9 4.7 10.1-.3 1.9-.8 5.2-1.1 7.2-.3 2.1-.8 4.9-1 6.3-.3 1.4-.7 4.7-1.1 7.5-.3 2.7-.7 6.1-1 7.5-1.9 11.5-2.6 58.5-1.1 78 .8 11.5 1.1 13.8 3.2 28.5 2.3 15.2 2.5 16.3 5 27 3.3 13.9 5.4 22.9 6 26.8.3 1.7 1.2 6.3 2 10.2 1.2 6.1 2.1 11.1 4.1 22.5.3 1.4.7 3.2.9 4 .2.8.7 3.1 1 5 1.6 9.3 3.6 17.5 8.6 34 5.6 18.7 14.2 32.9 32.4 53.5 8.7 9.9 32.7 33.2 43.9 42.8 5.2 4.4 25.8 25.2 32.6 32.8 17.9 20 49.2 51.1 54.6 54.2.8.4 1.4 1.2 1.4 1.7s-16.1-7.1-35.7-16.9c-43.8-21.9-45.5-22.6-51.8-22.6-7.1.1-12.6.8-13.1 1.7-.5.8 5.3 12.1 8.7 17 1.1 1.4 1.9 2.9 1.9 3.3 0 1.8 14.6 19.8 19.6 24.1 7.8 6.8 9.9 8.1 35.9 20.8 29.2 14.4 44.1 20.8 54 23.2 1.1.3 2.5.6 3 .8 1.6.4 11.7 2.5 14.5 3 1.4.2 5.9 1.1 10 2 4.1.8 8.6 1.7 10 2 9.1 1.7 27.4 6.3 33 8.4.8.3 1.7.6 2 .7.3 0 1.4.4 2.5.8 10.6 3.5 30.2 5.2 70 6.2 25.6.7 35.9 1.3 50.5 3 3.1.4 11.2 1.2 19.5 2.1 25.6 2.5 48.1 2.2 65.1-1 1-.2 3.9-.7 6.4-1 2.5-.3 5.6-.8 7-1.1 1.3-.2 4.2-.7 6.5-1.1 37.2-5.4 70.5-13.5 89.2-21.8 11.3-5 26.5-13.2 40.8-21.9 17.2-10.5 61.2-42 74.5-53.3 10.7-9.1 14.8-12.9 24.1-22.3 5.8-5.8 14.1-15.1 18.5-20.6 4.3-5.5 9.5-11.8 11.4-13.9 3.7-4.1 4-4.5 15.5-17.1 18.7-20.5 30.7-37 43.5-60 4.9-8.6 15.3-29.9 18.5-37.5 1.5-3.6 5.8-13.1 9.6-21.2 10.9-23.3 18.4-43.4 25.8-68.8 6.5-22.9 8.4-31.5 8.8-41.5.8-21.1.9-86.4.2-93.5-.5-4.1-1.1-10.2-1.4-13.5-.3-3.3-.8-7.6-1-9.5-.2-1.9-.7-6.8-1-10.8-.4-4.1-.8-8.1-.9-9-.2-.9-.6-3.7-.9-6.2-.4-2.5-.9-6.5-1.2-9-1.7-12.5-11.7-44.6-18.5-59.5-.5-1.1-3.7-8.3-7-16-10.6-24.3-24.9-50.3-40.8-74.4-3.1-4.7-6-9.1-6.5-9.6-.4-.6-3.9-5.3-7.9-10.5-14.3-19.1-20.2-25.7-28.8-33-8.2-6.9-13.5-12.8-16.5-18.4-6.4-12.1-16.3-25.4-25.9-35.1-18.7-18.7-53.5-43.7-86.1-61.7-28-15.6-32.7-17.4-65.1-25.3-12.3-3-26.5-6.8-31.6-8.4-20.8-6.6-25.9-7.2-63.3-7.6-17-.2-32.3-.5-34-.8-1.6-.3-5.2-.8-8-1.2-2.7-.3-6.6-.7-8.5-1-1.9-.2-7.1-.7-11.5-1.1-4.4-.3-8.3-.8-8.6-1-.3-.2-.8-.2-1 .1zm175.6 254.8c1.8.4 3.9.8 14 2.3 4.4.7 22.7 5.3 25 6.3 1.1.5 6.1 2.3 11 4.1 9.4 3.4 30.9 13.9 34.6 16.9l2.2 1.8-4 6.9c-2.2 3.8-5.2 9-6.7 11.6-4.8 8.8-7.9 14.2-16.1 28.8-4.5 8-9.8 17.4-11.8 21-1.9 3.6-4.7 8.5-6 11-1.4 2.5-3.6 6.3-4.8 8.5-1.2 2.2-2.2 4.1-2.4 4.3-.1.1-5.8-2.4-12.6-5.7-20.8-9.9-32.2-12.6-50.4-11.8-13 .6-16.2 1.1-24.5 3.4-17.8 5-36 15.8-47.4 28.2-2.3 2.4-4.6 4.9-5.1 5.5-5.9 6.2-16 25.7-18.8 36.1-4.3 16.3-4.5 35.2-.4 53 1.3 5.3 5.4 15.8 9 22.5 10.9 20.7 28.8 36.9 50.8 45.9 13 5.3 22.3 7.2 36.9 7.6 11.2.4 14.7.1 25.5-1.9 15.4-2.8 36.9-14.9 50-28.1 4.4-4.4 11.5-12.9 11.5-13.8 0-.3-19.1-.5-42.5-.4-27.6.1-42.6-.2-42.8-.8-.2-.6-.3-24.6-.3-53.5l.1-52.5 101.4-.3c60.1-.1 101.7.2 102 .7.8 1.3.6 57.3-.3 69.6-1.8 26.6-5.3 44.2-12.9 63.9-1.7 4.4-3 8.2-2.9 8.3.3.5-10.9 21.9-14.1 26.9-12.5 19.8-35 42.7-54.2 54.9-3.3 2.1-7.2 4.6-8.6 5.6-8.7 6-34 16.4-49.4 20.3-7.8 1.9-28 5.5-37 6.4-14.4 1.4-42.7.8-58-1.4-9.6-1.4-36.5-9-42.2-11.9-1.5-.8-3.2-1.5-3.7-1.5-1.6 0-24.2-11.8-31.1-16.2-30.4-19.6-55.8-47.1-72.9-79-6-11.2-13.9-31.1-16.1-40.4-4.7-20-4.9-21.3-6.6-35.4-1.3-10.3-1.5-31.5-.4-40.8 1.3-11.4 2.1-17.2 2.9-20.7 2.1-9.5 4.7-19.5 5.6-22 .7-1.7 1.3-3.7 1.5-4.5 1-4.7 10.7-26.4 15.6-35 3.6-6.2 16.6-25 20.8-30 14.4-17.3 35.8-35.7 53.6-46.3 24.9-14.7 57.9-26 83.5-28.4 3-.3 5.7-.7 5.9-.9.6-.5 41.2.3 43.6.9zm-264.9 3.1c.8.3 1.2 14.4 1.2 50.9v50.4l-72.6-.1c-76.9-.1-80.7 0-89.4 4.5-8.8 4.5-17.4 15.4-19.3 24.5-.3 1.6-.9 8.2-1.2 14.6-.5 11-.4 11.8 1.3 11.9 1.1 0 42.2.1 91.5.1l89.7.1-.2 48.1-.1 48.1-90.7.1c-50 0-91.1.4-91.5.7-.6.7-.5 9.9.2 13.6.1.9.6 3.8.9 6.6 1.1 8.1 5.2 15.8 11.6 21.9 6.9 6.6 10.8 8.4 22 10.2 1.4.2 35.2.5 75.1.5l72.6.1v50.4c0 27.8-.4 50.7-.9 51-.9.6-142.1.5-145.8 0-1.4-.3-5.4-.7-9-1.1-20.6-1.9-45.8-9.8-62-19.4-22.3-13.2-43.6-37.2-55.4-62.1-3.5-7.5-8.4-20.2-9.1-24-.1-.3-.7-3-1.3-6-1.9-8.6-2-9.5-2.8-18.3-.9-10.6-.9-142.2 0-150.5 2.5-23 10.3-44.2 23.8-64.4 6.7-10 23.6-27.8 32.8-34.5 17.8-12.9 42.3-23.4 60.3-25.8 2.8-.4 6.1-.9 7.2-1.1 1.1-.2 7.2-.7 13.5-1 6.3-.4 11.6-.7 11.7-.8.4-.3 134.9.5 135.9.8zM42.2 353.8c-4.2 4.2-7.1 8.5-10.9 16.2-11.5 23.5-12 24.9-12.2 39.7-.3 12.1-.7 19.6-1.4 22-1.4 4.7-2 13.5-2.2 34.3-.2 12.4-.7 28.8-1.1 36.5-1.1 20.1-.8 39.2 1.1 53.3 4 30.9 10.5 54.6 23.1 84 10.6 24.9 23.3 48.5 31.7 58.8 8.1 9.9 13.6 16.1 19.3 21.2l6.6 6.1 4.7-3.1c2.5-1.7 4.8-3.3 5-3.5.2-.1-1.5-4.2-3.9-9C89.1 683.9 60.6 597.9 55.5 570c-.3-1.4-1.6-8.4-3.1-15.5-1.4-7.2-2.8-14.4-3.1-16-.2-1.7-1.2-6.4-2.2-10.5-1-4.6-1.8-13-2-22-1-44.3-.3-62.7 3-79.5.5-2.8 1.1-6 1.4-7.3.2-1.3.6-3.1.9-4 .3-.9.8-3.8 1-6.5.3-2.6.8-6.4 1.2-8.5.4-2 .8-4.6 1-5.7.3-1.7 3.9-13.9 6.3-21.6 1.3-3.8.6-13.9-1.1-18-1.8-4.2-5.2-6.9-8.5-6.9-1.5 0-4.4 2.1-8.1 5.8z"/></svg>