<svg version="1" xmlns="http://www.w3.org/2000/svg" width="1333.333" height="1333.333" viewBox="0 0 1000 1000"><path d="M82.7 1.6C61.9 5.3 44.4 14.5 29.5 29.5 16.6 42.4 8.1 57 3.1 74.9L.5 84.5v831l2.6 9.6c5 17.9 13.5 32.5 26.4 45.4 15.2 15.3 32.5 24.2 54 28 7.8 1.3 55.9 1.5 416.5 1.5s408.7-.2 416.5-1.5c21.5-3.8 38.8-12.7 54-28 12.9-12.9 21.4-27.5 26.4-45.4l2.6-9.6v-830l-2.2-8.8c-8.7-34-33.2-60.6-66-71.6C915.2-.3 941.7 0 499.1.1 153.1.2 89.3.4 82.7 1.6zM476 365v51H104V314h372v51zm420 0v51l-135.2.2-135.3.3v168h168l.3-17 .2-17 50.3-50.3c27.6-27.6 50.5-50.2 50.9-50.2.5 0 .8 53 .8 117.8v117.7l-51 51-51 51V686H524V314h372v51zM476 500.5V551H104V450h372v50.5zm0 135V686H104V585h372v50.5z"/></svg>