<?xml version="1.0" encoding="UTF-8" ?>
<!DOCTYPE svg PUBLIC "-//W3C//DTD SVG 1.1//EN" "http://www.w3.org/Graphics/SVG/1.1/DTD/svg11.dtd">
<svg viewBox="0 0 868 390" version="1.1" xmlns="http://www.w3.org/2000/svg">
<g id="#393939ff">
<path fill="#393939" opacity="1.00" d=" M 280.06 3.98 C 283.80 2.31 287.98 2.80 291.96 2.75 C 429.66 2.75 567.36 2.75 705.05 2.75 C 713.21 2.62 720.63 9.77 720.64 17.96 C 720.70 68.70 720.67 119.44 720.66 170.18 C 735.44 170.13 750.23 170.16 765.02 170.16 C 772.98 169.95 780.13 177.02 780.24 184.95 C 780.27 247.29 780.29 309.63 780.24 371.97 C 780.10 379.89 772.99 386.91 765.03 386.75 C 719.68 386.77 674.32 386.79 628.97 386.75 C 621.21 386.68 614.30 379.83 614.19 372.08 C 614.06 357.44 614.26 342.79 614.09 328.15 C 588.52 328.11 562.94 328.26 537.37 328.07 C 539.29 342.41 541.52 356.72 543.72 371.03 C 548.49 371.17 553.27 370.65 558.04 371.02 C 561.10 371.04 563.82 373.84 563.75 376.90 C 563.85 379.82 563.74 382.74 563.79 385.66 C 391.88 385.85 219.96 385.87 48.05 385.84 C 44.72 385.70 41.17 386.41 38.05 384.89 C 31.39 382.18 24.59 379.82 17.98 377.02 C 15.51 376.16 14.10 373.57 14.40 371.03 C 14.46 368.51 13.67 364.65 16.92 363.81 C 37.44 363.58 57.98 363.92 78.51 363.64 C 78.31 291.42 78.49 219.20 78.42 146.97 C 77.89 141.67 82.69 136.77 88.01 137.23 C 148.82 137.23 209.64 137.19 270.46 137.25 C 270.40 97.85 270.45 58.45 270.43 19.06 C 270.13 12.67 274.15 6.40 280.06 3.98 M 288.66 21.94 C 288.65 60.39 288.72 98.84 288.63 137.29 C 298.75 137.16 308.87 137.28 319.00 137.23 C 341.65 137.29 364.29 137.25 386.94 137.25 C 389.90 137.33 393.08 136.85 395.82 138.26 C 398.65 139.69 400.59 142.74 400.60 145.93 C 400.70 158.08 400.58 170.24 400.65 182.39 C 400.65 183.92 400.65 185.46 400.65 187.00 C 400.62 209.57 400.63 232.13 400.65 254.70 C 400.64 256.42 400.64 258.15 400.64 259.88 C 471.80 259.74 542.97 259.83 614.13 259.84 C 614.11 258.13 614.10 256.43 614.10 254.73 C 614.12 232.15 614.19 209.58 614.07 187.00 C 614.14 185.44 614.24 183.89 614.34 182.33 C 615.98 175.67 621.99 170.24 628.99 170.15 C 643.37 170.08 657.76 170.17 672.14 170.11 C 682.26 170.12 692.37 170.07 702.49 170.13 C 702.40 120.74 702.47 71.34 702.46 21.94 C 564.52 21.98 426.59 21.99 288.66 21.94 M 80.68 147.05 C 80.69 219.33 80.67 291.61 80.69 363.89 C 164.47 363.73 248.25 363.85 332.03 363.82 C 354.11 363.94 376.21 363.57 398.28 364.00 C 398.65 357.35 398.33 350.68 398.44 344.02 C 398.50 278.33 398.45 212.63 398.47 146.94 C 398.91 142.82 395.18 139.09 391.06 139.43 C 290.06 139.40 189.05 139.45 88.05 139.45 C 83.90 139.11 80.13 142.88 80.68 147.05 M 625.41 174.43 C 620.75 176.16 617.47 180.99 617.70 185.99 C 617.65 246.66 617.72 307.34 617.67 368.02 C 617.44 372.17 617.97 376.76 621.22 379.73 C 624.73 383.60 630.26 383.34 635.02 383.21 C 678.33 383.18 721.64 383.24 764.95 383.18 C 771.37 383.32 776.97 377.37 776.70 371.00 C 776.69 311.01 776.70 251.01 776.70 191.02 C 776.60 187.69 777.14 184.19 775.78 181.04 C 774.02 176.79 769.64 173.65 764.99 173.71 C 720.33 173.64 675.67 173.72 631.02 173.67 C 629.13 173.70 627.19 173.74 625.41 174.43 M 400.63 280.95 C 400.68 295.96 400.62 310.97 400.66 325.99 C 471.81 325.83 542.97 325.93 614.12 325.93 C 614.09 310.94 614.09 295.95 614.12 280.96 C 542.96 280.98 471.79 281.00 400.63 280.95 M 400.68 328.14 C 400.58 339.93 400.87 351.74 400.53 363.54 C 416.53 364.00 432.56 363.63 448.57 363.72 C 450.23 351.84 452.21 340.00 453.76 328.11 C 436.07 328.21 418.37 328.15 400.68 328.14 M 456.14 328.01 C 455.85 329.72 455.56 331.44 455.27 333.16 L 455.49 333.24 C 453.69 343.40 452.42 353.65 450.78 363.85 C 454.85 363.92 458.94 363.55 462.99 364.02 C 465.36 365.62 464.51 368.69 464.69 371.10 C 490.25 370.95 515.82 371.02 541.38 371.07 C 539.58 358.81 537.69 346.56 535.93 334.30 C 535.62 332.20 535.30 330.11 534.97 328.02 C 508.70 328.03 482.42 328.04 456.14 328.01 M 16.90 365.97 C 16.64 368.26 16.49 370.58 16.82 372.88 C 17.18 374.75 19.40 375.22 21.02 375.04 C 167.36 374.97 313.71 375.08 460.05 374.98 C 463.82 373.78 462.31 368.89 462.20 365.93 C 398.81 366.00 335.41 365.96 272.02 365.94 C 272.01 366.67 271.99 368.13 271.99 368.86 C 271.09 369.43 270.13 369.71 269.08 369.71 C 249.69 369.70 230.30 369.70 210.91 369.71 C 209.88 369.70 208.92 369.43 208.03 368.88 C 208.02 368.15 207.99 366.68 207.98 365.94 C 144.29 365.98 80.59 365.95 16.90 365.97 M 462.37 376.35 C 456.06 379.25 449.08 380.56 442.85 383.55 C 482.38 383.27 521.92 383.57 561.46 383.40 C 561.62 380.60 561.99 377.57 560.94 374.92 C 559.10 372.41 555.70 373.33 553.06 373.19 C 523.67 373.10 494.27 373.33 464.88 373.07 C 464.11 374.20 463.54 375.57 462.37 376.35 Z" />
<path fill="#393939" opacity="1.00" d=" M 238.34 142.36 C 239.42 141.53 241.31 141.69 242.18 142.82 C 244.32 144.51 242.48 148.35 239.90 148.02 C 237.04 148.16 235.70 143.77 238.34 142.36 M 237.60 144.94 C 238.38 145.75 239.17 146.57 239.96 147.38 C 240.78 146.57 241.60 145.76 242.41 144.95 C 241.59 144.14 240.77 143.34 239.94 142.54 C 239.16 143.34 238.38 144.14 237.60 144.94 Z" />
<path fill="#393939" opacity="1.00" d=" M 91.68 150.99 C 190.27 151.05 288.86 151.05 387.44 150.99 C 387.39 218.53 387.38 286.06 387.45 353.60 C 288.86 353.48 190.26 353.47 91.67 353.61 C 91.75 286.07 91.72 218.53 91.68 150.99 M 93.84 153.15 C 93.87 219.23 93.94 285.32 93.81 351.40 C 190.97 351.34 288.15 351.30 385.31 351.42 C 385.14 285.32 385.27 219.22 385.25 153.12 C 288.11 153.24 190.98 153.17 93.84 153.15 Z" />
<path fill="#393939" opacity="1.00" d=" M 694.44 181.44 C 695.42 178.37 700.65 179.35 700.29 182.62 C 700.45 184.57 698.59 185.39 697.10 186.05 C 695.44 185.24 693.23 183.50 694.44 181.44 M 696.16 181.09 C 693.50 182.75 697.25 186.30 698.86 183.73 C 700.27 182.15 697.65 179.56 696.16 181.09 Z" />
<path fill="#393939" opacity="1.00" d=" M 627.09 191.06 C 628.97 190.47 630.99 190.78 632.94 190.71 C 676.97 190.74 721.01 190.73 765.05 190.72 C 767.00 190.42 769.27 191.80 769.15 193.96 C 769.21 249.96 769.17 305.98 769.17 361.99 C 769.49 364.28 767.19 365.99 765.06 365.67 C 719.67 365.63 674.27 365.68 628.88 365.65 C 626.99 365.77 625.17 364.01 625.33 362.11 C 625.33 307.42 625.35 252.74 625.32 198.05 C 625.43 195.68 624.61 192.54 627.09 191.06 M 627.53 202.95 C 627.51 255.64 627.56 308.33 627.51 361.02 C 627.30 362.07 627.67 363.67 629.08 363.46 C 672.69 363.49 716.31 363.47 759.93 363.47 C 762.29 363.46 764.69 363.70 767.02 363.13 C 767.03 307.06 767.02 250.99 767.03 194.92 C 767.51 192.97 765.43 192.68 764.06 192.88 C 718.62 192.97 673.18 192.79 627.75 192.97 C 627.36 196.28 627.56 199.62 627.53 202.95 Z" />
<path fill="#393939" opacity="1.00" d=" M 795.39 236.49 C 813.24 235.87 831.15 236.40 849.02 236.22 C 857.63 235.66 865.45 243.38 865.17 251.97 C 865.15 291.62 865.21 331.28 865.14 370.93 C 865.05 378.84 858.03 386.11 850.01 385.90 C 836.02 386.27 822.02 385.95 808.03 386.05 C 802.16 385.41 795.67 387.22 790.42 383.79 C 785.29 380.83 782.42 374.79 782.80 368.95 C 782.84 329.96 782.81 290.96 782.81 251.97 C 782.67 244.69 788.19 237.78 795.39 236.49 M 797.31 238.51 C 790.57 238.93 784.91 245.18 785.10 251.92 C 785.13 291.61 785.07 331.30 785.13 370.99 C 785.26 377.71 791.20 383.64 797.93 383.76 C 814.63 383.86 831.34 383.75 848.05 383.82 C 855.42 384.58 862.69 378.59 862.87 371.10 C 862.95 333.06 862.87 295.02 862.91 256.99 C 862.81 253.66 863.33 250.17 861.99 247.02 C 860.06 241.80 854.64 238.24 849.09 238.43 C 831.83 238.49 814.57 238.33 797.31 238.51 Z" />
<path fill="#393939" opacity="1.00" d=" M 814.27 247.39 C 820.48 247.27 826.71 247.40 832.93 247.34 C 834.28 246.84 836.03 249.11 833.94 249.48 C 827.64 249.61 821.33 249.47 815.03 249.54 C 813.27 250.15 812.23 247.62 814.27 247.39 Z" />
<path fill="#393939" opacity="1.00" d=" M 787.99 258.89 C 788.58 258.23 789.20 257.58 789.82 256.94 C 812.23 257.00 834.63 256.93 857.04 256.97 C 859.11 256.75 860.22 259.28 859.91 261.04 C 859.88 295.38 859.95 329.71 859.88 364.05 C 859.28 364.70 858.69 365.36 858.11 366.01 C 835.34 365.99 812.57 365.99 789.80 366.01 C 789.19 365.37 788.59 364.73 788.00 364.09 C 787.99 329.02 788.02 293.96 787.99 258.89 M 789.47 260.08 C 789.47 294.07 789.50 328.06 789.45 362.05 C 789.40 363.02 789.67 363.91 790.27 364.71 C 812.77 364.60 835.28 364.68 857.79 364.67 C 858.23 363.47 858.44 362.23 858.40 360.95 C 858.34 327.64 858.35 294.32 858.39 261.01 C 858.58 259.63 857.91 257.68 856.17 258.16 C 834.76 258.16 813.34 258.19 791.93 258.14 C 790.66 257.81 789.43 258.81 789.47 260.08 Z" />
<path fill="#393939" opacity="1.00" d=" M 492.54 294.55 C 499.46 291.97 507.12 299.03 505.25 306.13 C 504.05 313.45 493.95 316.63 488.79 311.30 C 483.25 306.57 485.48 296.45 492.54 294.55 Z" />
<path fill="#393939" opacity="1.00" d=" M 695.43 369.50 C 699.37 368.05 703.86 371.96 702.94 376.08 C 702.36 380.38 696.50 382.56 693.37 379.45 C 689.94 376.75 691.23 370.63 695.43 369.50 Z" />
<path fill="#393939" opacity="1.00" d=" M 822.38 369.41 C 825.75 368.18 829.75 371.34 829.29 374.92 C 829.28 378.87 824.17 381.49 821.00 379.08 C 817.17 376.88 818.13 370.50 822.38 369.41 Z" />
</g>
<g id="#ecf0eeff">
<path fill="#ecf0ee" opacity="1.00" d=" M 288.66 21.94 C 426.59 21.99 564.52 21.98 702.46 21.94 C 702.47 71.34 702.40 120.74 702.49 170.13 C 692.37 170.07 682.26 170.12 672.14 170.11 C 672.39 131.07 672.25 92.03 672.22 53.00 C 554.45 53.00 436.68 53.00 318.92 53.00 C 318.92 81.08 318.77 109.15 319.00 137.23 C 308.87 137.28 298.75 137.16 288.63 137.29 C 288.72 98.84 288.65 60.39 288.66 21.94 M 318.91 32.63 C 318.85 38.12 318.87 43.61 318.92 49.11 C 404.92 49.07 490.92 49.19 576.92 49.05 C 577.00 43.60 576.94 38.16 576.96 32.71 C 568.31 32.39 559.65 32.66 550.99 32.57 C 473.63 32.61 396.27 32.50 318.91 32.63 M 584.62 32.68 C 584.56 38.13 584.47 43.58 584.66 49.03 C 613.84 49.19 643.02 49.12 672.20 49.06 C 672.32 43.60 672.29 38.13 672.23 32.67 C 643.03 32.52 613.82 32.50 584.62 32.68 Z" />
<path fill="#ecf0ee" opacity="1.00" d=" M 80.68 147.05 C 80.13 142.88 83.90 139.11 88.05 139.45 C 189.05 139.45 290.06 139.40 391.06 139.43 C 395.18 139.09 398.91 142.82 398.47 146.94 C 398.45 212.63 398.50 278.33 398.44 344.02 C 398.33 350.68 398.65 357.35 398.28 364.00 C 376.21 363.57 354.11 363.94 332.03 363.82 C 248.25 363.85 164.47 363.73 80.69 363.89 C 80.67 291.61 80.69 219.33 80.68 147.05 M 238.34 142.36 C 235.70 143.77 237.04 148.16 239.90 148.02 C 242.48 148.35 244.32 144.51 242.18 142.82 C 241.31 141.69 239.42 141.53 238.34 142.36 M 91.68 150.99 C 91.72 218.53 91.75 286.07 91.67 353.61 C 190.26 353.47 288.86 353.48 387.45 353.60 C 387.38 286.06 387.39 218.53 387.44 150.99 C 288.86 151.05 190.27 151.05 91.68 150.99 Z" />
<path fill="#ecf0ee" opacity="1.00" d=" M 93.84 153.15 C 190.98 153.17 288.11 153.24 385.25 153.12 C 385.27 219.22 385.14 285.32 385.31 351.42 C 288.15 351.30 190.97 351.34 93.81 351.40 C 93.94 285.32 93.87 219.23 93.84 153.15 M 116.01 163.00 C 115.99 167.80 116.02 172.60 115.98 177.40 C 130.30 177.85 144.65 177.46 158.98 177.59 C 208.01 177.52 257.05 177.73 306.07 177.49 C 305.96 172.66 306.01 167.83 306.01 163.00 C 242.68 163.00 179.34 163.00 116.01 163.00 M 316.01 163.00 C 316.00 167.81 316.00 172.61 316.00 177.41 C 331.66 177.74 347.35 177.66 363.02 177.45 C 362.98 172.63 363.00 167.81 363.00 162.99 C 347.34 163.03 331.67 162.98 316.01 163.00 M 116.04 181.06 C 115.94 216.38 116.03 251.71 116.00 287.04 C 198.33 287.07 280.66 287.03 362.99 287.06 C 363.00 251.71 363.03 216.36 362.97 181.01 C 280.66 181.02 198.35 180.94 116.04 181.06 M 116.00 291.92 C 116.02 309.27 115.96 326.63 116.03 343.99 C 142.48 344.06 168.92 343.93 195.37 344.07 C 195.44 326.71 195.50 309.35 195.34 291.99 C 168.90 291.80 142.45 291.95 116.00 291.92 M 199.91 291.91 C 199.91 309.27 199.88 326.63 199.92 344.00 C 226.29 344.01 252.65 344.00 279.01 344.01 C 278.99 326.64 279.01 309.28 279.00 291.92 C 252.64 291.88 226.27 291.91 199.91 291.91 M 283.80 291.98 C 283.67 309.33 283.74 326.70 283.77 344.06 C 310.18 343.93 336.59 344.04 363.01 344.01 C 362.99 326.65 363.01 309.29 363.00 291.94 C 336.60 291.91 310.20 291.83 283.80 291.98 Z" />
<path fill="#ecf0ee" opacity="1.00" d=" M 625.41 174.43 C 627.19 173.74 629.13 173.70 631.02 173.67 C 675.67 173.72 720.33 173.64 764.99 173.71 C 769.64 173.65 774.02 176.79 775.78 181.04 C 777.14 184.19 776.60 187.69 776.70 191.02 C 776.70 251.01 776.69 311.01 776.70 371.00 C 776.97 377.37 771.37 383.32 764.95 383.18 C 721.64 383.24 678.33 383.18 635.02 383.21 C 630.26 383.34 624.73 383.60 621.22 379.73 C 617.97 376.76 617.44 372.17 617.67 368.02 C 617.72 307.34 617.65 246.66 617.70 185.99 C 617.47 180.99 620.75 176.16 625.41 174.43 M 694.44 181.44 C 693.23 183.50 695.44 185.24 697.10 186.05 C 698.59 185.39 700.45 184.57 700.29 182.62 C 700.65 179.35 695.42 178.37 694.44 181.44 M 627.09 191.06 C 624.61 192.54 625.43 195.68 625.32 198.05 C 625.35 252.74 625.33 307.42 625.33 362.11 C 625.17 364.01 626.99 365.77 628.88 365.65 C 674.27 365.68 719.67 365.63 765.06 365.67 C 767.19 365.99 769.49 364.28 769.17 361.99 C 769.17 305.98 769.21 249.96 769.15 193.96 C 769.27 191.80 767.00 190.42 765.05 190.72 C 721.01 190.73 676.97 190.74 632.94 190.71 C 630.99 190.78 628.97 190.47 627.09 191.06 M 695.43 369.50 C 691.23 370.63 689.94 376.75 693.37 379.45 C 696.50 382.56 702.36 380.38 702.94 376.08 C 703.86 371.96 699.37 368.05 695.43 369.50 Z" />
<path fill="#ecf0ee" opacity="1.00" d=" M 400.65 182.39 C 419.74 182.92 438.84 182.47 457.93 182.62 C 492.28 182.62 526.63 182.62 560.99 182.62 C 578.77 182.43 596.57 182.99 614.34 182.33 C 614.24 183.89 614.14 185.44 614.07 187.00 C 595.74 186.98 577.41 186.98 559.09 187.01 C 559.08 209.59 558.88 232.18 559.19 254.76 C 577.49 254.81 595.80 254.85 614.10 254.73 C 614.10 256.43 614.11 258.13 614.13 259.84 C 542.97 259.83 471.80 259.74 400.64 259.88 C 400.64 258.15 400.64 256.42 400.65 254.70 C 411.37 254.87 422.09 254.81 432.81 254.75 C 433.12 232.18 432.91 209.59 432.91 187.01 C 422.16 186.97 411.40 187.00 400.65 187.00 C 400.65 185.46 400.65 183.92 400.65 182.39 M 439.65 186.93 C 439.46 199.95 439.63 212.97 439.57 225.98 C 439.80 235.60 439.12 245.27 439.91 254.85 C 477.50 254.67 515.11 254.94 552.70 254.71 C 552.89 232.18 552.69 209.64 552.80 187.10 C 515.09 186.82 477.37 187.16 439.65 186.93 Z" />
<path fill="#ecf0ee" opacity="1.00" d=" M 627.53 202.95 C 627.56 199.62 627.36 196.28 627.75 192.97 C 673.18 192.79 718.62 192.97 764.06 192.88 C 765.43 192.68 767.51 192.97 767.03 194.92 C 767.02 250.99 767.03 307.06 767.02 363.13 C 764.69 363.70 762.29 363.46 759.93 363.47 C 716.31 363.47 672.69 363.49 629.08 363.46 C 627.67 363.67 627.30 362.07 627.51 361.02 C 627.56 308.33 627.51 255.64 627.53 202.95 M 636.63 199.79 C 636.49 204.59 636.50 209.39 636.63 214.18 C 677.09 214.25 717.56 214.24 758.02 214.19 C 758.02 209.39 758.02 204.59 758.02 199.79 C 717.56 199.69 677.09 199.69 636.63 199.79 M 636.61 217.81 C 636.55 248.25 636.46 278.69 636.65 309.12 C 677.10 309.10 717.56 309.19 758.01 309.08 C 758.01 278.65 758.04 248.23 757.99 217.81 C 717.53 217.76 677.07 217.75 636.61 217.81 M 636.55 312.98 C 636.22 328.32 636.31 343.69 636.50 359.04 C 656.33 358.95 676.16 359.02 696.00 359.00 C 696.02 343.67 696.02 328.33 695.99 313.00 C 676.17 312.99 656.36 313.03 636.55 312.98 M 699.59 312.96 C 699.25 328.31 699.31 343.69 699.56 359.04 C 719.05 358.94 738.53 359.02 758.02 359.01 C 758.01 343.68 758.02 328.35 758.01 313.02 C 738.54 312.95 719.06 313.07 699.59 312.96 Z" />
<path fill="#ecf0ee" opacity="1.00" d=" M 797.31 238.51 C 814.57 238.33 831.83 238.49 849.09 238.43 C 854.64 238.24 860.06 241.80 861.99 247.02 C 863.33 250.17 862.81 253.66 862.91 256.99 C 862.87 295.02 862.95 333.06 862.87 371.10 C 862.69 378.59 855.42 384.58 848.05 383.82 C 831.34 383.75 814.63 383.86 797.93 383.76 C 791.20 383.64 785.26 377.71 785.13 370.99 C 785.07 331.30 785.13 291.61 785.10 251.92 C 784.91 245.18 790.57 238.93 797.31 238.51 M 814.27 247.39 C 812.23 247.62 813.27 250.15 815.03 249.54 C 821.33 249.47 827.64 249.61 833.94 249.48 C 836.03 249.11 834.28 246.84 832.93 247.34 C 826.71 247.40 820.48 247.27 814.27 247.39 M 787.99 258.89 C 788.02 293.96 787.99 329.02 788.00 364.09 C 788.59 364.73 789.19 365.37 789.80 366.01 C 812.57 365.99 835.34 365.99 858.11 366.01 C 858.69 365.36 859.28 364.70 859.88 364.05 C 859.95 329.71 859.88 295.38 859.91 261.04 C 860.22 259.28 859.11 256.75 857.04 256.97 C 834.63 256.93 812.23 257.00 789.82 256.94 C 789.20 257.58 788.58 258.23 787.99 258.89 M 822.38 369.41 C 818.13 370.50 817.17 376.88 821.00 379.08 C 824.17 381.49 829.28 378.87 829.29 374.92 C 829.75 371.34 825.75 368.18 822.38 369.41 Z" />
<path fill="#ecf0ee" opacity="1.00" d=" M 789.47 260.08 C 789.43 258.81 790.66 257.81 791.93 258.14 C 813.34 258.19 834.76 258.16 856.17 258.16 C 857.91 257.68 858.58 259.63 858.39 261.01 C 858.35 294.32 858.34 327.64 858.40 360.95 C 858.44 362.23 858.23 363.47 857.79 364.67 C 835.28 364.68 812.77 364.60 790.27 364.71 C 789.67 363.91 789.40 363.02 789.45 362.05 C 789.50 328.06 789.47 294.07 789.47 260.08 M 793.98 262.78 C 793.96 266.63 793.97 270.47 793.98 274.32 C 813.98 274.49 834.00 274.50 854.00 274.32 C 854.03 270.47 854.04 266.63 854.00 262.78 C 833.99 262.70 813.98 262.70 793.98 262.78 M 794.01 277.89 C 793.95 295.25 794.02 312.62 793.97 329.98 C 813.98 330.02 834.00 330.00 854.01 329.99 C 854.01 312.63 854.03 295.27 854.00 277.90 C 834.00 277.86 814.00 277.89 794.01 277.89 M 793.98 333.02 C 793.99 342.51 793.96 352.00 794.00 361.49 C 814.00 361.63 834.02 361.73 854.01 361.44 C 854.02 351.97 854.02 342.50 854.01 333.03 C 834.00 332.97 813.99 333.00 793.98 333.02 Z" />
<path fill="#ecf0ee" opacity="1.00" d=" M 400.63 280.95 C 471.79 281.00 542.96 280.98 614.12 280.96 C 614.09 295.95 614.09 310.94 614.12 325.93 C 542.97 325.93 471.81 325.83 400.66 325.99 C 400.62 310.97 400.68 295.96 400.63 280.95 M 492.54 294.55 C 485.48 296.45 483.25 306.57 488.79 311.30 C 493.95 316.63 504.05 313.45 505.25 306.13 C 507.12 299.03 499.46 291.97 492.54 294.55 Z" />
<path fill="#ecf0ee" opacity="1.00" d=" M 450.78 363.85 C 452.42 353.65 453.69 343.40 455.49 333.24 C 456.61 333.75 457.77 334.07 458.99 334.22 C 484.64 334.27 510.29 334.10 535.93 334.30 C 537.69 346.56 539.58 358.81 541.38 371.07 C 515.82 371.02 490.25 370.95 464.69 371.10 C 464.51 368.69 465.36 365.62 462.99 364.02 C 458.94 363.55 454.85 363.92 450.78 363.85 Z" />
<path fill="#ecf0ee" opacity="1.00" d=" M 16.90 365.97 C 80.59 365.95 144.29 365.98 207.98 365.94 C 207.99 366.68 208.02 368.15 208.03 368.88 C 208.92 369.43 209.88 369.70 210.91 369.71 C 230.30 369.70 249.69 369.70 269.08 369.71 C 270.13 369.71 271.09 369.43 271.99 368.86 C 271.99 368.13 272.01 366.67 272.02 365.94 C 335.41 365.96 398.81 366.00 462.20 365.93 C 462.31 368.89 463.82 373.78 460.05 374.98 C 313.71 375.08 167.36 374.97 21.02 375.04 C 19.40 375.22 17.18 374.75 16.82 372.88 C 16.49 370.58 16.64 368.26 16.90 365.97 Z" />
<path fill="#ecf0ee" opacity="1.00" d=" M 462.37 376.35 C 463.54 375.57 464.11 374.20 464.88 373.07 C 494.27 373.33 523.67 373.10 553.06 373.19 C 555.70 373.33 559.10 372.41 560.94 374.92 C 561.99 377.57 561.62 380.60 561.46 383.40 C 521.92 383.57 482.38 383.27 442.85 383.55 C 449.08 380.56 456.06 379.25 462.37 376.35 Z" />
</g>
<g id="#9fcce2ff">
<path fill="#9fcce2" opacity="1.00" d=" M 318.91 32.63 C 396.27 32.50 473.63 32.61 550.99 32.57 C 559.65 32.66 568.31 32.39 576.96 32.71 C 576.94 38.16 577.00 43.60 576.92 49.05 C 490.92 49.19 404.92 49.07 318.92 49.11 C 318.87 43.61 318.85 38.12 318.91 32.63 Z" />
<path fill="#9fcce2" opacity="1.00" d=" M 584.62 32.68 C 613.82 32.50 643.03 32.52 672.23 32.67 C 672.29 38.13 672.32 43.60 672.20 49.06 C 643.02 49.12 613.84 49.19 584.66 49.03 C 584.47 43.58 584.56 38.13 584.62 32.68 Z" />
<path fill="#9fcce2" opacity="1.00" d=" M 318.92 53.00 C 436.68 53.00 554.45 53.00 672.22 53.00 C 672.25 92.03 672.39 131.07 672.14 170.11 C 657.76 170.17 643.37 170.08 628.99 170.15 C 621.99 170.24 615.98 175.67 614.34 182.33 C 596.57 182.99 578.77 182.43 560.99 182.62 C 526.63 182.62 492.28 182.62 457.93 182.62 C 438.84 182.47 419.74 182.92 400.65 182.39 C 400.58 170.24 400.70 158.08 400.60 145.93 C 400.59 142.74 398.65 139.69 395.82 138.26 C 393.08 136.85 389.90 137.33 386.94 137.25 C 364.29 137.25 341.65 137.29 319.00 137.23 C 318.77 109.15 318.92 81.08 318.92 53.00 Z" />
<path fill="#9fcce2" opacity="1.00" d=" M 237.60 144.94 C 238.38 144.14 239.16 143.34 239.94 142.54 C 240.77 143.34 241.59 144.14 242.41 144.95 C 241.60 145.76 240.78 146.57 239.96 147.38 C 239.17 146.57 238.38 145.75 237.60 144.94 Z" />
<path fill="#9fcce2" opacity="1.00" d=" M 116.01 163.00 C 179.34 163.00 242.68 163.00 306.01 163.00 C 306.01 167.83 305.96 172.66 306.07 177.49 C 257.05 177.73 208.01 177.52 158.98 177.59 C 144.65 177.46 130.30 177.85 115.98 177.40 C 116.02 172.60 115.99 167.80 116.01 163.00 Z" />
<path fill="#9fcce2" opacity="1.00" d=" M 316.01 163.00 C 331.67 162.98 347.34 163.03 363.00 162.99 C 363.00 167.81 362.98 172.63 363.02 177.45 C 347.35 177.66 331.66 177.74 316.00 177.41 C 316.00 172.61 316.00 167.81 316.01 163.00 Z" />
<path fill="#9fcce2" opacity="1.00" d=" M 116.04 181.06 C 198.35 180.94 280.66 181.02 362.97 181.01 C 363.03 216.36 363.00 251.71 362.99 287.06 C 280.66 287.03 198.33 287.07 116.00 287.04 C 116.03 251.71 115.94 216.38 116.04 181.06 Z" />
<path fill="#9fcce2" opacity="1.00" d=" M 696.16 181.09 C 697.65 179.56 700.27 182.15 698.86 183.73 C 697.25 186.30 693.50 182.75 696.16 181.09 Z" />
<path fill="#9fcce2" opacity="1.00" d=" M 400.65 187.00 C 411.40 187.00 422.16 186.97 432.91 187.01 C 432.91 209.59 433.12 232.18 432.81 254.75 C 422.09 254.81 411.37 254.87 400.65 254.70 C 400.63 232.13 400.62 209.57 400.65 187.00 Z" />
<path fill="#9fcce2" opacity="1.00" d=" M 439.65 186.93 C 477.37 187.16 515.09 186.82 552.80 187.10 C 552.69 209.64 552.89 232.18 552.70 254.71 C 515.11 254.94 477.50 254.67 439.91 254.85 C 439.12 245.27 439.80 235.60 439.57 225.98 C 439.63 212.97 439.46 199.95 439.65 186.93 Z" />
<path fill="#9fcce2" opacity="1.00" d=" M 559.09 187.01 C 577.41 186.98 595.74 186.98 614.07 187.00 C 614.19 209.58 614.12 232.15 614.10 254.73 C 595.80 254.85 577.49 254.81 559.19 254.76 C 558.88 232.18 559.08 209.59 559.09 187.01 Z" />
<path fill="#9fcce2" opacity="1.00" d=" M 636.63 199.79 C 677.09 199.69 717.56 199.69 758.02 199.79 C 758.02 204.59 758.02 209.39 758.02 214.19 C 717.56 214.24 677.09 214.25 636.63 214.18 C 636.50 209.39 636.49 204.59 636.63 199.79 Z" />
<path fill="#9fcce2" opacity="1.00" d=" M 636.61 217.81 C 677.07 217.75 717.53 217.76 757.99 217.81 C 758.04 248.23 758.01 278.65 758.01 309.08 C 717.56 309.19 677.10 309.10 636.65 309.12 C 636.46 278.69 636.55 248.25 636.61 217.81 Z" />
<path fill="#9fcce2" opacity="1.00" d=" M 793.98 262.78 C 813.98 262.70 833.99 262.70 854.00 262.78 C 854.04 266.63 854.03 270.47 854.00 274.32 C 834.00 274.50 813.98 274.49 793.98 274.32 C 793.97 270.47 793.96 266.63 793.98 262.78 Z" />
<path fill="#9fcce2" opacity="1.00" d=" M 794.01 277.89 C 814.00 277.89 834.00 277.86 854.00 277.90 C 854.03 295.27 854.01 312.63 854.01 329.99 C 834.00 330.00 813.98 330.02 793.97 329.98 C 794.02 312.62 793.95 295.25 794.01 277.89 Z" />
<path fill="#9fcce2" opacity="1.00" d=" M 116.00 291.92 C 142.45 291.95 168.90 291.80 195.34 291.99 C 195.50 309.35 195.44 326.71 195.37 344.07 C 168.92 343.93 142.48 344.06 116.03 343.99 C 115.96 326.63 116.02 309.27 116.00 291.92 Z" />
<path fill="#9fcce2" opacity="1.00" d=" M 199.91 291.91 C 226.27 291.91 252.64 291.88 279.00 291.92 C 279.01 309.28 278.99 326.64 279.01 344.01 C 252.65 344.00 226.29 344.01 199.92 344.00 C 199.88 326.63 199.91 309.27 199.91 291.91 Z" />
<path fill="#9fcce2" opacity="1.00" d=" M 283.80 291.98 C 310.20 291.83 336.60 291.91 363.00 291.94 C 363.01 309.29 362.99 326.65 363.01 344.01 C 336.59 344.04 310.18 343.93 283.77 344.06 C 283.74 326.70 283.67 309.33 283.80 291.98 Z" />
<path fill="#9fcce2" opacity="1.00" d=" M 636.55 312.98 C 656.36 313.03 676.17 312.99 695.99 313.00 C 696.02 328.33 696.02 343.67 696.00 359.00 C 676.16 359.02 656.33 358.95 636.50 359.04 C 636.31 343.69 636.22 328.32 636.55 312.98 Z" />
<path fill="#9fcce2" opacity="1.00" d=" M 699.59 312.96 C 719.06 313.07 738.54 312.95 758.01 313.02 C 758.02 328.35 758.01 343.68 758.02 359.01 C 738.53 359.02 719.05 358.94 699.56 359.04 C 699.31 343.69 699.25 328.31 699.59 312.96 Z" />
<path fill="#9fcce2" opacity="1.00" d=" M 456.14 328.01 C 482.42 328.04 508.70 328.03 534.97 328.02 C 535.30 330.11 535.62 332.20 535.93 334.30 C 510.29 334.10 484.64 334.27 458.99 334.22 C 457.77 334.07 456.61 333.75 455.49 333.24 L 455.27 333.16 C 455.56 331.44 455.85 329.72 456.14 328.01 Z" />
<path fill="#9fcce2" opacity="1.00" d=" M 793.98 333.02 C 813.99 333.00 834.00 332.97 854.01 333.03 C 854.02 342.50 854.02 351.97 854.01 361.44 C 834.02 361.73 814.00 361.63 794.00 361.49 C 793.96 352.00 793.99 342.51 793.98 333.02 Z" />
</g>
</svg>
