<?xml version="1.0" encoding="UTF-8" ?>
<!DOCTYPE svg PUBLIC "-//W3C//DTD SVG 1.1//EN" "http://www.w3.org/Graphics/SVG/1.1/DTD/svg11.dtd">
<svg viewBox="0 0 804 87" version="1.1" xmlns="http://www.w3.org/2000/svg">
<g id="#359fe9ff">
<path fill="#359fe9" opacity="1.00" d=" M 515.35 0.00 L 521.57 0.00 C 529.17 0.76 536.97 3.28 542.33 8.99 C 539.69 12.67 537.03 16.34 534.44 20.05 C 531.22 17.17 527.48 14.58 523.08 14.08 C 518.26 13.38 512.33 13.87 509.17 18.08 C 506.02 22.47 507.90 28.91 512.24 31.78 C 520.95 38.09 532.57 39.75 540.10 47.85 C 548.03 56.09 547.62 70.61 539.57 78.63 C 534.53 83.65 527.54 86.28 520.56 87.00 L 515.42 87.00 C 505.74 86.25 495.19 82.66 489.92 73.93 C 492.68 70.47 495.53 67.07 498.42 63.72 C 504.18 70.71 513.95 74.64 522.87 72.45 C 527.82 71.28 531.36 65.97 529.87 60.96 C 528.33 55.54 522.84 52.88 518.18 50.60 C 510.42 46.85 501.75 43.75 496.22 36.80 C 490.02 28.62 490.56 16.10 497.38 8.45 C 501.85 3.26 508.68 0.69 515.35 0.00 Z" />
<path fill="#359fe9" opacity="1.00" d=" M 685.44 0.00 L 691.56 0.00 C 702.22 0.75 712.89 4.81 720.42 12.57 C 736.59 29.03 736.33 58.64 719.73 74.72 C 712.06 82.35 701.37 86.45 690.66 87.00 L 685.49 87.00 C 674.75 86.34 663.99 82.32 656.40 74.53 C 640.24 58.22 640.46 28.96 656.54 12.67 C 664.08 4.90 674.72 0.65 685.44 0.00 M 681.52 14.66 C 676.95 15.77 672.58 17.93 669.13 21.15 C 656.63 32.92 657.08 55.72 670.52 66.63 C 681.90 76.64 701.65 74.98 710.70 62.65 C 719.37 50.78 718.70 32.44 708.21 21.86 C 701.37 15.02 690.86 12.45 681.52 14.66 Z" />
<path fill="#359fe9" opacity="1.00" d=" M 3.46 77.42 C 14.23 51.94 24.94 26.44 35.73 0.98 C 40.05 1.01 44.37 0.98 48.69 1.02 C 60.50 29.25 72.60 57.36 84.27 85.63 C 79.03 85.56 73.79 85.62 68.55 85.59 C 65.63 78.46 62.74 71.32 59.80 64.20 C 47.75 64.22 35.70 64.15 23.66 64.23 C 20.76 71.37 17.92 78.53 14.90 85.63 C 9.94 85.84 4.84 84.98 0.00 86.19 L 0.00 84.71 C 1.55 82.48 2.40 79.89 3.46 77.42 M 41.76 20.26 C 37.71 30.27 33.52 40.21 29.43 50.20 C 37.65 50.20 45.88 50.20 54.11 50.21 C 49.97 40.23 46.00 30.19 41.76 20.26 Z" />
<path fill="#359fe9" opacity="1.00" d=" M 96.59 1.20 C 111.19 1.67 126.17 -0.76 140.41 3.46 C 149.86 6.19 158.65 12.17 163.46 20.90 C 169.49 31.69 170.27 45.01 166.73 56.74 C 163.72 66.82 156.37 75.39 147.01 80.13 C 137.82 84.92 127.25 86.18 117.01 85.93 C 110.21 85.54 103.37 86.13 96.58 85.54 C 96.61 57.43 96.57 29.31 96.59 1.20 M 111.38 15.25 C 111.43 34.08 111.42 52.91 111.39 71.74 C 121.79 72.46 133.24 72.52 142.09 66.16 C 151.05 60.03 154.33 48.27 152.80 37.92 C 151.88 30.04 147.04 22.74 140.00 19.05 C 131.28 14.33 121.00 14.39 111.38 15.25 Z" />
<path fill="#359fe9" opacity="1.00" d=" M 170.24 1.22 C 175.51 1.18 180.79 1.21 186.06 1.20 C 194.49 22.05 202.66 43.00 211.26 63.78 C 219.20 42.90 227.24 22.06 235.22 1.20 C 240.16 1.20 245.11 1.20 250.06 1.20 C 238.73 29.48 227.57 57.82 216.13 86.05 C 212.44 85.96 208.75 86.01 205.06 86.00 C 193.44 57.75 181.88 29.47 170.24 1.22 Z" />
<path fill="#359fe9" opacity="1.00" d=" M 274.80 0.99 C 279.12 1.00 283.44 1.00 287.77 1.00 C 299.68 29.15 311.46 57.37 323.47 85.48 C 318.20 85.74 312.92 85.54 307.65 85.59 C 304.72 78.46 301.84 71.31 298.89 64.19 C 286.86 64.20 274.84 64.19 262.81 64.20 C 259.82 71.34 257.08 78.59 253.93 85.66 C 248.99 85.53 244.04 85.63 239.10 85.60 C 251.01 57.40 262.89 29.19 274.80 0.99 M 268.52 50.20 C 276.74 50.20 284.97 50.20 293.20 50.20 C 289.08 40.28 285.14 30.29 280.90 20.42 C 276.64 30.29 272.67 40.29 268.52 50.20 Z" />
<path fill="#359fe9" opacity="1.00" d=" M 330.24 1.20 C 334.09 1.25 337.95 1.10 341.80 1.25 C 343.15 2.21 343.95 3.75 345.03 4.99 C 359.53 23.33 374.00 41.71 388.54 60.02 C 388.52 40.41 388.54 20.81 388.53 1.21 C 393.12 1.18 397.71 1.23 402.30 1.17 C 402.42 29.31 402.31 57.44 402.36 85.58 C 398.39 85.61 394.43 85.61 390.47 85.58 C 375.04 66.05 359.44 46.65 344.08 27.06 C 344.06 46.59 344.28 66.13 343.98 85.65 C 339.40 85.54 334.81 85.62 330.24 85.59 C 330.24 57.46 330.23 29.33 330.24 1.20 Z" />
<path fill="#359fe9" opacity="1.00" d=" M 409.18 1.20 C 432.37 1.20 455.57 1.20 478.76 1.20 C 478.77 5.85 478.73 10.49 478.79 15.14 C 469.64 15.28 460.50 15.16 451.36 15.20 C 451.35 38.66 451.35 62.12 451.36 85.58 C 446.41 85.61 441.47 85.60 436.53 85.59 C 436.54 62.13 436.53 38.67 436.53 15.21 C 427.42 15.18 418.30 15.21 409.18 15.20 C 409.18 10.53 409.18 5.87 409.18 1.20 Z" />
<path fill="#359fe9" opacity="1.00" d=" M 561.30 1.20 C 566.25 1.20 571.21 1.20 576.17 1.21 C 576.18 12.74 576.17 24.27 576.18 35.80 C 589.04 35.80 601.90 35.80 614.76 35.80 C 614.77 24.27 614.76 12.74 614.77 1.21 C 619.67 1.25 624.58 1.08 629.48 1.31 C 629.32 29.40 629.45 57.49 629.41 85.59 C 624.51 85.57 619.62 85.69 614.72 85.51 C 614.82 73.54 614.73 61.58 614.77 49.61 C 601.89 49.62 589.02 49.53 576.14 49.65 C 576.27 61.58 576.04 73.51 576.26 85.44 C 571.28 85.81 566.28 85.50 561.30 85.59 C 561.30 57.46 561.29 29.33 561.30 1.20 Z" />
<path fill="#359fe9" opacity="1.00" d=" M 746.84 1.20 C 757.73 1.61 768.67 0.27 779.51 1.68 C 787.60 2.82 795.89 6.70 800.03 14.07 C 805.00 23.10 804.70 35.05 798.73 43.56 C 793.42 51.17 784.04 55.08 774.98 55.44 C 770.50 55.88 766.02 55.19 761.55 55.33 C 761.76 65.41 761.59 75.51 761.64 85.59 C 756.74 85.62 751.83 85.55 746.93 85.64 C 746.69 57.50 746.87 29.34 746.84 1.20 M 761.70 15.19 C 761.57 23.83 761.67 32.46 761.65 41.09 C 768.07 41.20 774.95 42.84 780.97 39.80 C 788.97 36.24 790.20 23.80 783.81 18.20 C 777.48 13.44 769.05 15.27 761.70 15.19 Z" />
</g>
</svg>
