<svg viewBox="0 0 800 800" xmlns="http://www.w3.org/2000/svg"><g fill="#563d7c"><path d="M99.2 0h601.3c16.18.95 32.29 5.03 46.49 13 28.56 15.64 48.77 45.57 52.14 78.01.25 2.75.56 5.5.87 8.25v601.26c-1.25 27.66-13.41 54.86-34.36 73.17-17.6 16.18-41.14 25.02-64.87 26.31H99.48c-14.95-.89-29.82-4.42-43.19-11.25-15.98-8.12-29.73-20.52-39.55-35.51C6.47 737.71 1.13 719.29 0 700.79V101.43c.57-9.18 1.38-18.44 4.27-27.23 6.78-24.43 23.39-45.77 44.93-59 15-9.3 32.46-14.12 50-15.2m126.05 157.76c0 161.49-.01 322.99 0 484.49 63.9.01 127.8 0 191.7 0 20.39-.2 40.81.55 61.17-.72 35.18-2.68 70.83-11.86 99.96-32.44 14.82-10.34 27.24-24.03 36.22-39.71 9.88-16.73 14.84-35.99 16.15-55.27 1.46-22.42-.86-45.4-9.14-66.42-7.32-18.6-19.35-35.58-35.49-47.53-12.97-9.91-28.15-16.52-43.71-21.18 9.28-4.67 18.37-9.83 26.53-16.31 14.72-11.31 26.77-26.54 32.82-44.22 6.92-19.7 7.42-41.06 5.15-61.63-2.19-19.46-8.96-38.68-21.32-54.04-12.01-15.46-29.27-26.04-47.48-32.68-22.65-8.15-46.84-10.96-70.76-12.03-23.67-.63-47.35-.18-71.03-.32-56.92.01-113.85 0-170.77.01z"/><path d="M331.76 240.51c33.08-.01 66.15-.02 99.23 0 17.29.46 35.51 1.67 50.78 10.64 12.74 7.33 21.19 21.13 22.44 35.73 1.66 17.08-.53 36.43-13.07 49.26-12.45 12.05-30.15 17.01-47.11 17.61-37.42.01-74.85 0-112.27 0-.01-37.75-.01-75.5 0-113.24zm0 186c39.42-.02 78.85-.01 118.28-.01 19.66.3 40.29 4.85 55.62 17.84 12.02 10.28 17.11 26.3 18.3 41.62 1.14 15.4.27 32.11-8.66 45.31-7.46 11.92-20.12 19.58-33.4 23.44-13.91 4.07-28.51 4.82-42.93 4.8-35.74-.02-71.48.01-107.22-.02 0-44.33 0-88.65.01-132.98z"/></g><path fill="#fff" d="M225.25 157.76c56.92-.01 113.85 0 170.77-.01 23.68.14 47.36-.31 71.03.32 23.92 1.07 48.11 3.88 70.76 12.03 18.21 6.64 35.47 17.22 47.48 32.68 12.36 15.36 19.13 34.58 21.32 54.04 2.27 20.57 1.77 41.93-5.15 61.63-6.05 17.68-18.1 32.91-32.82 44.22-8.16 6.48-17.25 11.64-26.53 16.31 15.56 4.66 30.74 11.27 43.71 21.18 16.14 11.95 28.17 28.93 35.49 47.53 8.28 21.02 10.6 44 9.14 66.42-1.31 19.28-6.27 38.54-16.15 55.27-8.98 15.68-21.4 29.37-36.22 39.71-29.13 20.58-64.78 29.76-99.96 32.44-20.36 1.27-40.78.52-61.17.72-63.9 0-127.8.01-191.7 0-.01-161.5 0-323 0-484.49m106.51 82.75c-.01 37.74-.01 75.49 0 113.24 37.42 0 74.85.01 112.27 0 16.96-.6 34.66-5.56 47.11-17.61 12.54-12.83 14.73-32.18 13.07-49.26-1.25-14.6-9.7-28.4-22.44-35.73-15.27-8.97-33.49-10.18-50.78-10.64-33.08-.02-66.15-.01-99.23 0m0 186c-.01 44.33-.01 88.65-.01 132.98 35.74.03 71.48 0 107.22.02 14.42.02 29.02-.73 42.93-4.8 13.28-3.86 25.94-11.52 33.4-23.44 8.93-13.2 9.8-29.91 8.66-45.31-1.19-15.32-6.28-31.34-18.3-41.62-15.33-12.99-35.96-17.54-55.62-17.84-39.43 0-78.86-.01-118.28.01z"/></svg>