<?xml version="1.0" encoding="UTF-8" ?>
<!DOCTYPE svg PUBLIC "-//W3C//DTD SVG 1.1//EN" "http://www.w3.org/Graphics/SVG/1.1/DTD/svg11.dtd">
<svg viewBox="0 0 800 800" version="1.1" xmlns="http://www.w3.org/2000/svg">
<g id="#563d7cff">
<path fill="#563d7c" opacity="1.00" d=" M 99.20 0.00 L 700.50 0.00 C 716.68 0.95 732.79 5.03 746.99 13.00 C 775.55 28.64 795.76 58.57 799.13 91.01 C 799.38 93.76 799.69 96.51 800.00 99.26 L 800.00 700.52 C 798.75 728.18 786.59 755.38 765.64 773.69 C 748.04 789.87 724.50 798.71 700.77 800.00 L 99.48 800.00 C 84.53 799.11 69.66 795.58 56.29 788.75 C 40.31 780.63 26.56 768.23 16.74 753.24 C 6.47 737.71 1.13 719.29 0.00 700.79 L 0.00 101.43 C 0.57 92.25 1.38 82.99 4.27 74.20 C 11.05 49.77 27.66 28.43 49.20 15.20 C 64.20 5.90 81.66 1.08 99.20 0.00 M 225.25 157.76 C 225.25 319.25 225.24 480.75 225.25 642.25 C 289.15 642.26 353.05 642.25 416.95 642.25 C 437.34 642.05 457.76 642.80 478.12 641.53 C 513.30 638.85 548.95 629.67 578.08 609.09 C 592.90 598.75 605.32 585.06 614.30 569.38 C 624.18 552.65 629.14 533.39 630.45 514.11 C 631.91 491.69 629.59 468.71 621.31 447.69 C 613.99 429.09 601.96 412.11 585.82 400.16 C 572.85 390.25 557.67 383.64 542.11 378.98 C 551.39 374.31 560.48 369.15 568.64 362.67 C 583.36 351.36 595.41 336.13 601.46 318.45 C 608.38 298.75 608.88 277.39 606.61 256.82 C 604.42 237.36 597.65 218.14 585.29 202.78 C 573.28 187.32 556.02 176.74 537.81 170.10 C 515.16 161.95 490.97 159.14 467.05 158.07 C 443.38 157.44 419.70 157.89 396.02 157.75 C 339.10 157.76 282.17 157.75 225.25 157.76 Z" />
<path fill="#563d7c" opacity="1.00" d=" M 331.76 240.51 C 364.84 240.50 397.91 240.49 430.99 240.51 C 448.28 240.97 466.50 242.18 481.77 251.15 C 494.51 258.48 502.96 272.28 504.21 286.88 C 505.87 303.96 503.68 323.31 491.14 336.14 C 478.69 348.19 460.99 353.15 444.03 353.75 C 406.61 353.76 369.18 353.75 331.76 353.75 C 331.75 316.00 331.75 278.25 331.76 240.51 Z" />
<path fill="#563d7c" opacity="1.00" d=" M 331.76 426.51 C 371.18 426.49 410.61 426.50 450.04 426.50 C 469.70 426.80 490.33 431.35 505.66 444.34 C 517.68 454.62 522.77 470.64 523.96 485.96 C 525.10 501.36 524.23 518.07 515.30 531.27 C 507.84 543.19 495.18 550.85 481.90 554.71 C 467.99 558.78 453.39 559.53 438.97 559.51 C 403.23 559.49 367.49 559.52 331.75 559.49 C 331.75 515.16 331.75 470.84 331.76 426.51 Z" />
</g>
<g id="#ffffffff">
<path fill="#ffffff" opacity="1.00" d=" M 225.25 157.76 C 282.17 157.75 339.10 157.76 396.02 157.75 C 419.70 157.89 443.38 157.44 467.05 158.07 C 490.97 159.14 515.16 161.95 537.81 170.10 C 556.02 176.74 573.28 187.32 585.29 202.78 C 597.65 218.14 604.42 237.36 606.61 256.82 C 608.88 277.39 608.38 298.75 601.46 318.45 C 595.41 336.13 583.36 351.36 568.64 362.67 C 560.48 369.15 551.39 374.31 542.11 378.98 C 557.67 383.64 572.85 390.25 585.82 400.16 C 601.96 412.11 613.99 429.09 621.31 447.69 C 629.59 468.71 631.91 491.69 630.45 514.11 C 629.14 533.39 624.18 552.65 614.30 569.38 C 605.32 585.06 592.90 598.75 578.08 609.09 C 548.95 629.67 513.30 638.85 478.12 641.53 C 457.76 642.80 437.34 642.05 416.95 642.25 C 353.05 642.25 289.15 642.26 225.25 642.25 C 225.24 480.75 225.25 319.25 225.25 157.76 M 331.76 240.51 C 331.75 278.25 331.75 316.00 331.76 353.75 C 369.18 353.75 406.61 353.76 444.03 353.75 C 460.99 353.15 478.69 348.19 491.14 336.14 C 503.68 323.31 505.87 303.96 504.21 286.88 C 502.96 272.28 494.51 258.48 481.77 251.15 C 466.50 242.18 448.28 240.97 430.99 240.51 C 397.91 240.49 364.84 240.50 331.76 240.51 M 331.76 426.51 C 331.75 470.84 331.75 515.16 331.75 559.49 C 367.49 559.52 403.23 559.49 438.97 559.51 C 453.39 559.53 467.99 558.78 481.90 554.71 C 495.18 550.85 507.84 543.19 515.30 531.27 C 524.23 518.07 525.10 501.36 523.96 485.96 C 522.77 470.64 517.68 454.62 505.66 444.34 C 490.33 431.35 469.70 426.80 450.04 426.50 C 410.61 426.50 371.18 426.49 331.76 426.51 Z" />
</g>
</svg>
