<?xml version="1.0" encoding="UTF-8" ?>
<!DOCTYPE svg PUBLIC "-//W3C//DTD SVG 1.1//EN" "http://www.w3.org/Graphics/SVG/1.1/DTD/svg11.dtd">
<svg viewBox="0 0 791 512" version="1.1" xmlns="http://www.w3.org/2000/svg">
<g id="#000000ff">
<path fill="#000000" opacity="1.00" d=" M 85.36 0.00 L 140.37 0.00 C 140.36 7.66 140.38 15.33 140.36 22.99 C 129.69 23.02 119.03 22.97 108.36 23.02 C 108.37 30.67 108.37 38.33 108.36 45.98 C 119.03 46.03 129.70 45.98 140.36 46.01 C 140.37 53.67 140.37 61.33 140.36 68.99 C 122.03 69.00 103.69 69.02 85.36 68.98 C 85.37 45.99 85.36 22.99 85.36 0.00 Z" />
<path fill="#000000" opacity="1.00" d=" M 151.36 0.00 L 206.37 0.00 C 206.36 6.67 206.38 13.33 206.36 20.00 C 195.69 20.02 185.02 19.97 174.35 20.02 C 174.36 21.34 174.36 22.66 174.36 23.98 C 185.03 24.03 195.69 23.98 206.36 24.00 C 206.37 39.33 206.37 54.66 206.36 69.99 C 188.03 69.99 169.69 70.02 151.36 69.98 C 151.37 62.99 151.37 56.01 151.36 49.02 C 162.02 48.97 172.69 49.02 183.36 48.99 C 183.36 47.66 183.36 46.34 183.36 45.01 C 172.69 44.98 162.03 45.03 151.36 44.98 C 151.37 29.99 151.36 14.99 151.36 0.00 Z" />
<path fill="#000000" opacity="1.00" d=" M 217.36 0.00 L 272.37 0.00 C 272.36 6.66 272.38 13.33 272.36 19.99 C 261.69 20.02 251.03 19.97 240.36 20.02 C 240.36 21.34 240.36 22.66 240.36 23.98 C 251.02 24.03 261.69 23.98 272.36 24.01 C 272.37 39.34 272.37 54.66 272.36 69.99 C 254.03 70.00 235.69 70.02 217.36 69.98 C 217.37 62.99 217.37 56.01 217.36 49.02 C 228.02 48.97 238.69 49.02 249.36 48.99 C 249.36 47.66 249.36 46.34 249.36 45.01 C 238.69 44.98 228.03 45.03 217.36 44.98 C 217.37 29.99 217.36 14.99 217.36 0.00 Z" />
<path fill="#000000" opacity="1.00" d=" M 462.32 0.00 L 485.40 0.00 C 485.40 7.60 485.40 15.19 485.40 22.79 C 492.43 22.82 499.46 22.79 506.49 22.81 C 506.53 15.21 506.49 7.60 506.50 0.00 L 529.59 0.00 C 529.59 23.00 529.59 46.01 529.59 69.01 C 521.90 69.07 514.21 69.04 506.52 69.03 C 506.49 61.35 506.50 53.67 506.52 45.99 C 499.48 45.88 492.44 45.93 485.40 45.96 C 485.39 53.65 485.41 61.34 485.39 69.03 C 477.70 69.04 470.01 69.06 462.32 69.02 C 462.31 46.01 462.32 23.01 462.32 0.00 Z" />
<path fill="#000000" opacity="1.00" d=" M 539.62 0.00 L 603.34 0.00 C 603.33 7.63 603.35 15.26 603.32 22.89 C 596.55 22.91 589.79 22.89 583.02 22.90 C 582.99 38.28 583.04 53.66 583.00 69.04 C 575.31 69.05 567.62 69.05 559.94 69.03 C 559.92 53.66 559.95 38.28 559.93 22.90 C 553.16 22.89 546.39 22.91 539.63 22.90 C 539.60 15.26 539.62 7.63 539.62 0.00 Z" />
<path fill="#000000" opacity="1.00" d=" M 613.45 0.00 L 637.46 0.00 C 642.50 8.03 647.33 16.19 652.32 24.25 C 657.30 16.18 662.11 8.02 667.17 0.00 L 691.17 0.00 C 691.17 23.02 691.18 46.04 691.16 69.06 C 683.51 69.07 675.85 69.07 668.20 69.06 C 668.17 57.68 668.23 46.29 668.17 34.91 C 662.75 43.10 657.57 51.44 652.09 59.59 C 646.71 51.38 641.43 43.09 636.05 34.87 C 636.00 46.27 636.05 57.66 636.02 69.06 C 628.50 69.06 620.97 69.09 613.45 69.04 C 613.45 46.03 613.45 23.01 613.45 0.00 Z" />
<path fill="#000000" opacity="1.00" d=" M 702.66 0.00 L 725.75 0.00 C 725.75 15.40 725.73 30.81 725.76 46.21 C 736.56 46.24 747.37 46.21 758.18 46.22 C 758.21 53.83 758.20 61.43 758.19 69.03 C 739.68 69.05 721.17 69.05 702.67 69.03 C 702.65 46.02 702.66 23.01 702.66 0.00 Z" />
</g>
<g id="#264de4ff">
<path fill="#264de4" opacity="1.00" d=" M 0.00 100.61 C 120.90 100.59 241.81 100.61 362.71 100.60 C 351.73 224.02 340.69 347.44 329.67 470.86 C 280.22 484.57 230.75 498.26 181.31 512.00 L 181.05 512.00 C 131.74 498.19 82.37 484.57 33.02 470.86 C 21.97 347.76 11.17 224.62 0.00 101.53 L 0.00 100.61 M 181.32 131.16 C 181.23 146.21 181.13 161.28 181.38 176.33 C 143.42 176.34 105.46 176.30 67.50 176.35 C 68.84 191.44 70.34 206.52 71.55 221.61 C 108.15 221.90 144.75 221.63 181.35 221.75 C 181.01 237.23 181.49 252.72 181.11 268.20 C 145.97 268.19 110.84 268.21 75.71 268.19 C 76.95 283.30 78.47 298.39 79.68 313.50 C 113.58 313.75 147.47 313.50 181.37 313.63 C 181.13 337.82 181.19 362.02 181.32 386.21 C 164.40 381.63 147.46 377.12 130.56 372.48 C 129.56 360.44 128.40 348.41 127.38 336.37 C 112.15 336.39 96.91 336.13 81.70 336.50 C 84.06 360.21 85.91 383.97 88.18 407.69 C 119.28 416.21 150.35 424.82 181.39 433.57 C 181.12 449.00 181.25 464.44 181.29 479.88 C 184.34 480.16 187.21 478.91 190.09 478.13 C 226.08 468.09 262.12 458.27 298.09 448.17 C 299.65 447.72 301.81 447.01 301.65 444.98 C 310.85 340.36 320.34 235.75 329.59 131.13 C 324.38 130.73 319.15 130.95 313.94 130.93 C 271.27 130.89 228.60 130.95 185.94 130.90 C 184.39 130.93 182.86 131.05 181.32 131.16 Z" />
</g>
<g id="#e44d26ff">
<path fill="#e44d26" opacity="1.00" d=" M 428.58 100.60 C 549.38 100.60 670.19 100.60 791.00 100.60 L 791.00 104.61 C 779.97 226.67 769.20 348.76 758.24 470.83 C 708.85 484.61 659.40 498.16 610.02 512.00 L 609.67 512.00 C 560.33 498.22 510.96 484.54 461.59 470.89 C 450.57 347.46 439.57 224.03 428.58 100.60 M 610.09 131.03 C 609.84 146.12 609.93 161.23 610.04 176.32 C 572.05 176.34 534.07 176.33 496.08 176.33 C 500.15 222.09 504.23 267.84 508.33 313.60 C 542.20 313.61 576.07 313.59 609.94 313.61 C 610.00 337.81 610.02 362.01 609.94 386.21 C 593.01 381.72 576.14 377.01 559.20 372.58 C 558.04 360.50 557.06 348.40 555.91 336.32 C 540.72 336.36 525.53 336.29 510.34 336.36 C 512.50 360.12 514.56 383.89 516.73 407.65 C 547.69 416.11 578.57 424.85 609.51 433.34 C 610.37 438.53 609.85 443.80 609.96 449.04 C 610.02 459.40 609.78 469.78 610.12 480.15 C 614.24 479.71 618.11 478.17 622.10 477.19 C 657.38 467.40 692.65 457.58 727.95 447.89 C 729.99 447.69 730.08 445.53 730.25 443.95 C 738.20 355.30 746.06 266.65 754.00 178.00 C 755.12 162.35 757.23 146.76 757.91 131.09 C 738.60 130.67 719.28 131.07 699.96 130.90 C 670.01 131.00 640.04 130.75 610.09 131.03 Z" />
<path fill="#e44d26" opacity="1.00" d=" M 545.71 221.74 C 567.15 221.72 588.59 221.73 610.03 221.74 C 609.92 237.22 609.96 252.71 610.03 268.20 C 589.97 268.20 569.91 268.21 549.86 268.19 C 548.46 252.71 547.07 237.23 545.71 221.74 Z" />
</g>
<g id="#2965f1ff">
<path fill="#2965f1" opacity="1.00" d=" M 181.32 131.16 C 182.86 131.05 184.39 130.93 185.94 130.90 C 228.60 130.95 271.27 130.89 313.94 130.93 C 319.15 130.95 324.38 130.73 329.59 131.13 C 320.34 235.75 310.85 340.36 301.65 444.98 C 301.81 447.01 299.65 447.72 298.09 448.17 C 262.12 458.27 226.08 468.09 190.09 478.13 C 187.21 478.91 184.34 480.16 181.29 479.88 C 181.25 464.44 181.12 449.00 181.39 433.57 C 181.42 417.78 181.51 401.99 181.32 386.21 C 181.19 362.02 181.13 337.82 181.37 313.63 C 181.67 298.73 181.11 283.82 181.61 268.93 C 181.34 283.82 181.71 298.72 181.46 313.61 C 199.97 313.54 218.49 313.69 237.01 313.54 C 235.52 333.23 233.56 352.89 231.82 372.56 C 215.02 377.06 198.25 381.68 181.43 386.13 C 181.62 401.87 181.49 417.62 181.51 433.37 C 212.44 424.83 243.34 416.22 274.27 407.68 C 281.20 330.56 288.08 253.45 294.95 176.33 C 257.09 176.34 219.24 176.33 181.38 176.33 C 181.13 161.28 181.23 146.21 181.32 131.16 Z" />
<path fill="#2965f1" opacity="1.00" d=" M 181.39 176.96 C 181.66 191.88 181.56 206.82 181.44 221.75 C 202.69 221.74 223.94 221.70 245.19 221.76 C 243.81 237.24 242.45 252.72 241.06 268.19 C 221.25 268.21 201.44 268.19 181.63 268.20 L 181.11 268.20 C 181.49 252.72 181.01 237.23 181.35 221.75 C 181.51 206.82 181.44 191.88 181.39 176.96 Z" />
</g>
<g id="#f16529ff">
<path fill="#f16529" opacity="1.00" d=" M 610.09 131.03 C 640.04 130.75 670.01 131.00 699.96 130.90 C 719.28 131.07 738.60 130.67 757.91 131.09 C 757.23 146.76 755.12 162.35 754.00 178.00 C 746.06 266.65 738.20 355.30 730.25 443.95 C 730.08 445.53 729.99 447.69 727.95 447.89 C 692.65 457.58 657.38 467.40 622.10 477.19 C 618.11 478.17 614.24 479.71 610.12 480.15 C 609.78 469.78 610.02 459.40 609.96 449.04 C 609.85 443.80 610.37 438.53 609.51 433.34 L 610.04 433.32 C 641.01 424.90 671.91 416.20 702.85 407.67 C 707.05 361.18 711.15 314.69 715.32 268.20 C 680.22 268.19 645.13 268.21 610.03 268.20 C 609.96 252.71 609.92 237.22 610.03 221.74 C 646.51 221.71 682.99 221.76 719.47 221.72 C 720.81 206.59 722.18 191.47 723.53 176.35 C 685.70 176.30 647.87 176.36 610.04 176.32 C 609.93 161.23 609.84 146.12 610.09 131.03 Z" />
<path fill="#f16529" opacity="1.00" d=" M 609.94 313.61 C 628.52 313.59 647.10 313.60 665.69 313.60 C 663.96 333.24 662.17 352.87 660.43 372.51 C 643.62 377.16 626.75 381.57 609.94 386.21 C 610.02 362.01 610.00 337.81 609.94 313.61 Z" />
</g>
<g id="#ebebebff">
<path fill="#ebebeb" opacity="1.00" d=" M 67.50 176.35 C 105.46 176.30 143.42 176.34 181.38 176.33 L 181.39 176.96 C 181.44 191.88 181.51 206.82 181.35 221.75 C 144.75 221.63 108.15 221.90 71.55 221.61 C 70.34 206.52 68.84 191.44 67.50 176.35 Z" />
<path fill="#ebebeb" opacity="1.00" d=" M 496.08 176.33 C 534.07 176.33 572.05 176.34 610.04 176.32 C 609.98 191.46 610.07 206.60 610.03 221.74 C 588.59 221.73 567.15 221.72 545.71 221.74 C 547.07 237.23 548.46 252.71 549.86 268.19 C 569.91 268.21 589.97 268.20 610.03 268.20 C 609.97 283.33 610.13 298.47 609.94 313.61 C 576.07 313.59 542.20 313.61 508.33 313.60 C 504.23 267.84 500.15 222.09 496.08 176.33 Z" />
<path fill="#ebebeb" opacity="1.00" d=" M 75.71 268.19 C 110.84 268.21 145.97 268.19 181.11 268.20 L 181.63 268.20 L 181.61 268.93 C 181.11 283.82 181.67 298.73 181.37 313.63 C 147.47 313.50 113.58 313.75 79.68 313.50 C 78.47 298.39 76.95 283.30 75.71 268.19 Z" />
<path fill="#ebebeb" opacity="1.00" d=" M 81.70 336.50 C 96.91 336.13 112.15 336.39 127.38 336.37 C 128.40 348.41 129.56 360.44 130.56 372.48 C 147.46 377.12 164.40 381.63 181.32 386.21 C 181.51 401.99 181.42 417.78 181.39 433.57 C 150.35 424.82 119.28 416.21 88.18 407.69 C 85.91 383.97 84.06 360.21 81.70 336.50 Z" />
<path fill="#ebebeb" opacity="1.00" d=" M 510.34 336.36 C 525.53 336.29 540.72 336.36 555.91 336.32 C 557.06 348.40 558.04 360.50 559.20 372.58 C 576.14 377.01 593.01 381.72 609.94 386.21 C 610.21 401.91 609.93 417.62 610.04 433.32 L 609.51 433.34 C 578.57 424.85 547.69 416.11 516.73 407.65 C 514.56 383.89 512.50 360.12 510.34 336.36 Z" />
</g>
<g id="#ffffffff">
<path fill="#ffffff" opacity="1.00" d=" M 181.38 176.33 C 219.24 176.33 257.09 176.34 294.95 176.33 C 288.08 253.45 281.20 330.56 274.27 407.68 C 243.34 416.22 212.44 424.83 181.51 433.37 C 181.49 417.62 181.62 401.87 181.43 386.13 C 198.25 381.68 215.02 377.06 231.82 372.56 C 233.56 352.89 235.52 333.23 237.01 313.54 C 218.49 313.69 199.97 313.54 181.46 313.61 C 181.71 298.72 181.34 283.82 181.61 268.93 L 181.63 268.20 C 201.44 268.19 221.25 268.21 241.06 268.19 C 242.45 252.72 243.81 237.24 245.19 221.76 C 223.94 221.70 202.69 221.74 181.44 221.75 C 181.56 206.82 181.66 191.88 181.39 176.96 L 181.38 176.33 Z" />
<path fill="#ffffff" opacity="1.00" d=" M 610.04 176.32 C 647.87 176.36 685.70 176.30 723.53 176.35 C 722.18 191.47 720.81 206.59 719.47 221.72 C 682.99 221.76 646.51 221.71 610.03 221.74 C 610.07 206.60 609.98 191.46 610.04 176.32 Z" />
<path fill="#ffffff" opacity="1.00" d=" M 610.03 268.20 C 645.13 268.21 680.22 268.19 715.32 268.20 C 711.15 314.69 707.05 361.18 702.85 407.67 C 671.91 416.20 641.01 424.90 610.04 433.32 C 609.93 417.62 610.21 401.91 609.94 386.21 C 626.75 381.57 643.62 377.16 660.43 372.51 C 662.17 352.87 663.96 333.24 665.69 313.60 C 647.10 313.60 628.52 313.59 609.94 313.61 C 610.13 298.47 609.97 283.33 610.03 268.20 Z" />
</g>
</svg>
