<?xml version="1.0" encoding="UTF-8" ?>
<!DOCTYPE svg PUBLIC "-//W3C//DTD SVG 1.1//EN" "http://www.w3.org/Graphics/SVG/1.1/DTD/svg11.dtd">
<svg viewBox="0 0 544 767" version="1.1" xmlns="http://www.w3.org/2000/svg">
<g id="#000000ff">
<path fill="#000000" opacity="1.00" d=" M 127.94 0.00 L 210.36 0.00 C 210.35 11.48 210.38 22.96 210.34 34.44 C 194.37 34.48 178.39 34.43 162.41 34.46 C 162.39 45.94 162.41 57.42 162.40 68.89 C 178.38 68.94 194.36 68.88 210.34 68.92 C 210.37 80.40 210.37 91.87 210.34 103.35 C 182.88 103.37 155.41 103.38 127.95 103.35 C 127.92 68.90 127.94 34.45 127.94 0.00 Z" />
<path fill="#000000" opacity="1.00" d=" M 226.85 0.00 L 309.27 0.00 C 309.26 9.99 309.29 19.97 309.25 29.96 C 293.27 29.98 277.29 29.94 261.31 29.98 C 261.31 31.97 261.30 33.95 261.30 35.94 C 277.28 35.98 293.27 35.92 309.25 35.97 C 309.28 58.93 309.28 81.90 309.25 104.86 C 281.79 104.87 254.32 104.88 226.86 104.86 C 226.88 94.36 226.73 83.87 226.94 73.37 C 242.89 73.43 258.85 73.38 274.81 73.40 C 274.79 71.40 274.79 69.41 274.78 67.41 C 258.81 67.40 242.83 67.43 226.86 67.39 C 226.83 44.93 226.85 22.46 226.85 0.00 Z" />
<path fill="#000000" opacity="1.00" d=" M 325.76 0.00 L 408.18 0.00 C 408.17 9.99 408.20 19.97 408.16 29.96 C 392.18 29.98 376.20 29.95 360.22 29.97 C 360.22 31.96 360.21 33.95 360.21 35.94 C 376.20 35.98 392.18 35.92 408.16 35.97 C 408.18 58.93 408.20 81.90 408.15 104.86 C 380.69 104.87 353.23 104.87 325.77 104.86 C 325.69 94.41 325.82 83.96 325.71 73.50 C 341.66 73.30 357.63 73.38 373.59 73.47 C 373.68 71.45 373.71 69.43 373.72 67.41 C 357.74 67.40 341.75 67.44 325.77 67.40 C 325.73 44.93 325.75 22.47 325.76 0.00 Z" />
</g>
<g id="#2754e8ff">
<path fill="#2754e8" opacity="1.00" d=" M 0.00 150.74 C 181.19 150.73 362.38 150.74 543.58 150.73 C 527.13 335.57 510.53 520.39 494.11 705.23 C 419.95 725.99 345.69 746.41 271.49 767.00 L 271.36 767.00 C 197.44 746.35 123.46 725.89 49.49 705.40 C 32.95 520.76 16.65 336.10 0.00 151.48 L 0.00 150.74 M 101.24 264.14 C 103.19 286.76 105.38 309.37 107.34 331.99 C 162.02 332.26 216.71 332.03 271.40 332.10 C 271.55 309.73 271.36 287.35 271.49 264.98 C 271.65 287.38 271.59 309.79 271.52 332.19 C 303.49 332.18 335.45 332.18 367.41 332.19 C 365.32 355.37 363.29 378.57 361.21 401.76 C 278.63 401.75 196.05 401.87 113.47 401.84 C 115.46 424.48 117.55 447.11 119.53 469.74 C 198.12 469.70 276.71 469.81 355.29 469.87 C 352.76 499.19 349.94 528.50 347.51 557.83 C 323.10 564.88 298.43 571.10 273.94 577.89 C 270.98 579.17 268.04 577.52 265.16 576.85 C 242.00 570.64 218.87 564.30 195.68 558.16 C 194.02 540.07 192.49 521.98 190.80 503.90 C 168.07 503.90 145.33 503.87 122.60 503.91 C 125.80 539.49 128.91 575.08 132.16 610.65 C 178.58 623.40 224.92 636.41 271.32 649.18 C 271.68 625.77 271.18 602.36 271.54 578.95 C 271.45 602.43 271.74 625.92 271.43 649.40 C 318.01 636.53 364.58 623.66 411.13 610.68 C 421.44 495.15 431.73 379.62 442.14 264.10 C 328.51 263.96 214.87 264.33 101.24 264.14 Z" />
</g>
<g id="#f6f6f6ff">
<path fill="#f6f6f6" opacity="1.00" d=" M 101.24 264.14 C 214.87 264.33 328.51 263.96 442.14 264.10 C 431.73 379.62 421.44 495.15 411.13 610.68 C 364.58 623.66 318.01 636.53 271.43 649.40 C 271.74 625.92 271.45 602.43 271.54 578.95 C 271.18 602.36 271.68 625.77 271.32 649.18 C 224.92 636.41 178.58 623.40 132.16 610.65 C 128.91 575.08 125.80 539.49 122.60 503.91 C 145.33 503.87 168.07 503.90 190.80 503.90 C 192.49 521.98 194.02 540.07 195.68 558.16 C 218.87 564.30 242.00 570.64 265.16 576.85 C 268.04 577.52 270.98 579.17 273.94 577.89 C 298.43 571.10 323.10 564.88 347.51 557.83 C 349.94 528.50 352.76 499.19 355.29 469.87 C 276.71 469.81 198.12 469.70 119.53 469.74 C 117.55 447.11 115.46 424.48 113.47 401.84 C 196.05 401.87 278.63 401.75 361.21 401.76 C 363.29 378.57 365.32 355.37 367.41 332.19 C 335.45 332.18 303.49 332.18 271.52 332.19 C 271.59 309.79 271.65 287.38 271.49 264.98 C 271.36 287.35 271.55 309.73 271.40 332.10 C 216.71 332.03 162.02 332.26 107.34 331.99 C 105.38 309.37 103.19 286.76 101.24 264.14 Z" />
</g>
</svg>
