<svg viewBox="0 0 791 512" xmlns="http://www.w3.org/2000/svg"><path d="M85.36 0h55.01c-.01 7.66.01 15.33-.01 22.99-10.67.03-21.33-.02-32 .03.01 7.65.01 15.31 0 22.96 10.67.05 21.34 0 32 .03.01 7.66.01 15.32 0 22.98-18.33.01-36.67.03-55-.01.01-22.99 0-45.99 0-68.98zm66 0h55.01c-.01 6.67.01 13.33-.01 20-10.67.02-21.34-.03-32.01.02.01 1.32.01 2.64.01 3.96 10.67.05 21.33 0 32 .02.01 15.33.01 30.66 0 45.99-18.33 0-36.67.03-55-.01.01-6.99.01-13.97 0-20.96 10.66-.05 21.33 0 32-.03v-3.98c-10.67-.03-21.33.02-32-.03.01-14.99 0-29.99 0-44.98zm66 0h55.01c-.01 6.66.01 13.33-.01 19.99-10.67.03-21.33-.02-32 .03v3.96c10.66.05 21.33 0 32 .03.01 15.33.01 30.65 0 45.98-18.33.01-36.67.03-55-.01.01-6.99.01-13.97 0-20.96 10.66-.05 21.33 0 32-.03v-3.98c-10.67-.03-21.33.02-32-.03.01-14.99 0-29.99 0-44.98zm244.96 0h23.08v22.79c7.03.03 14.06 0 21.09.02.04-7.6 0-15.21.01-22.81h23.09v69.01c-7.69.06-15.38.03-23.07.02-.03-7.68-.02-15.36 0-23.04-7.04-.11-14.08-.06-21.12-.03-.01 7.69.01 15.38-.01 23.07-7.69.01-15.38.03-23.07-.01-.01-23.01 0-46.01 0-69.02zm77.3 0h63.72c-.01 7.63.01 15.26-.02 22.89-6.77.02-13.53 0-20.3.01-.03 15.38.02 30.76-.02 46.14-7.69.01-15.38.01-23.06-.01-.02-15.37.01-30.75-.01-46.13-6.77-.01-13.54.01-20.3 0-.03-7.64-.01-15.27-.01-22.9zm73.83 0h24.01c5.04 8.03 9.87 16.19 14.86 24.25 4.98-8.07 9.79-16.23 14.85-24.25h24c0 23.02.01 46.04-.01 69.06-7.65.01-15.31.01-22.96 0-.03-11.38.03-22.77-.03-34.15-5.42 8.19-10.6 16.53-16.08 24.68-5.38-8.21-10.66-16.5-16.04-24.72-.05 11.4 0 22.79-.03 34.19-7.52 0-15.05.03-22.57-.02V0zm89.21 0h23.09c0 15.4-.02 30.81.01 46.21 10.8.03 21.61 0 32.42.01.03 7.61.02 15.21.01 22.81-18.51.02-37.02.02-55.52 0-.02-23.01-.01-46.02-.01-69.03z"/><path fill="#264de4" d="M0 100.61c120.9-.02 241.81 0 362.71-.01-10.98 123.42-22.02 246.84-33.04 370.26-49.45 13.71-98.92 27.4-148.36 41.14h-.26c-49.31-13.81-98.68-27.43-148.03-41.14C21.97 347.76 11.17 224.62 0 101.53v-.92m181.32 30.55c-.09 15.05-.19 30.12.06 45.17-37.96.01-75.92-.03-113.88.02 1.34 15.09 2.84 30.17 4.05 45.26 36.6.29 73.2.02 109.8.14-.34 15.48.14 30.97-.24 46.45-35.14-.01-70.27.01-105.4-.01 1.24 15.11 2.76 30.2 3.97 45.31 33.9.25 67.79 0 101.69.13-.24 24.19-.18 48.39-.05 72.58-16.92-4.58-33.86-9.09-50.76-13.73-1-12.04-2.16-24.07-3.18-36.11-15.23.02-30.47-.24-45.68.13 2.36 23.71 4.21 47.47 6.48 71.19 31.1 8.52 62.17 17.13 93.21 25.88-.27 15.43-.14 30.87-.1 46.31 3.05.28 5.92-.97 8.8-1.75 35.99-10.04 72.03-19.86 108-29.96 1.56-.45 3.72-1.16 3.56-3.19 9.2-104.62 18.69-209.23 27.94-313.85-5.21-.4-10.44-.18-15.65-.2-42.67-.04-85.34.02-128-.03-1.55.03-3.08.15-4.62.26z"/><g fill="#e44d26"><path d="M428.58 100.6H791v4.01c-11.03 122.06-21.8 244.15-32.76 366.22-49.39 13.78-98.84 27.33-148.22 41.17h-.35c-49.34-13.78-98.71-27.46-148.08-41.11-11.02-123.43-22.02-246.86-33.01-370.29m181.51 30.43c-.25 15.09-.16 30.2-.05 45.29-37.99.02-75.97.01-113.96.01 4.07 45.76 8.15 91.51 12.25 137.27 33.87.01 67.74-.01 101.61.01.06 24.2.08 48.4 0 72.6-16.93-4.49-33.8-9.2-50.74-13.63-1.16-12.08-2.14-24.18-3.29-36.26-15.19.04-30.38-.03-45.57.04 2.16 23.76 4.22 47.53 6.39 71.29 30.96 8.46 61.84 17.2 92.78 25.69.86 5.19.34 10.46.45 15.7.06 10.36-.18 20.74.16 31.11 4.12-.44 7.99-1.98 11.98-2.96 35.28-9.79 70.55-19.61 105.85-29.3 2.04-.2 2.13-2.36 2.3-3.94C738.2 355.3 746.06 266.65 754 178c1.12-15.65 3.23-31.24 3.91-46.91-19.31-.42-38.63-.02-57.95-.19-29.95.1-59.92-.15-89.87.13z"/><path d="M545.71 221.74c21.44-.02 42.88-.01 64.32 0-.11 15.48-.07 30.97 0 46.46-20.06 0-40.12.01-60.17-.01-1.4-15.48-2.79-30.96-4.15-46.45z"/></g><g fill="#2965f1"><path d="M181.32 131.16c1.54-.11 3.07-.23 4.62-.26 42.66.05 85.33-.01 128 .03 5.21.02 10.44-.2 15.65.2-9.25 104.62-18.74 209.23-27.94 313.85.16 2.03-2 2.74-3.56 3.19-35.97 10.1-72.01 19.92-108 29.96-2.88.78-5.75 2.03-8.8 1.75-.04-15.44-.17-30.88.1-46.31.03-15.79.12-31.58-.07-47.36-.13-24.19-.19-48.39.05-72.58.3-14.9-.26-29.81.24-44.7-.27 14.89.1 29.79-.15 44.68 18.51-.07 37.03.08 55.55-.07-1.49 19.69-3.45 39.35-5.19 59.02-16.8 4.5-33.57 9.12-50.39 13.57.19 15.74.06 31.49.08 47.24 30.93-8.54 61.83-17.15 92.76-25.69 6.93-77.12 13.81-154.23 20.68-231.35-37.86.01-75.71 0-113.57 0-.25-15.05-.15-30.12-.06-45.17z"/><path d="M181.39 176.96c.27 14.92.17 29.86.05 44.79 21.25-.01 42.5-.05 63.75.01-1.38 15.48-2.74 30.96-4.13 46.43-19.81.02-39.62 0-59.43.01h-.52c.38-15.48-.1-30.97.24-46.45.16-14.93.09-29.87.04-44.79z"/></g><g fill="#f16529"><path d="M610.09 131.03c29.95-.28 59.92-.03 89.87-.13 19.32.17 38.64-.23 57.95.19-.68 15.67-2.79 31.26-3.91 46.91-7.94 88.65-15.8 177.3-23.75 265.95-.17 1.58-.26 3.74-2.3 3.94-35.3 9.69-70.57 19.51-105.85 29.3-3.99.98-7.86 2.52-11.98 2.96-.34-10.37-.1-20.75-.16-31.11-.11-5.24.41-10.51-.45-15.7l.53-.02c30.97-8.42 61.87-17.12 92.81-25.65 4.2-46.49 8.3-92.98 12.47-139.47-35.1-.01-70.19.01-105.29 0-.07-15.49-.11-30.98 0-46.46 36.48-.03 72.96.02 109.44-.02 1.34-15.13 2.71-30.25 4.06-45.37-37.83-.05-75.66.01-113.49-.03-.11-15.09-.2-30.2.05-45.29z"/><path d="M609.94 313.61c18.58-.02 37.16-.01 55.75-.01-1.73 19.64-3.52 39.27-5.26 58.91-16.81 4.65-33.68 9.06-50.49 13.7.08-24.2.06-48.4 0-72.6z"/></g><path d="M67.5 176.35c37.96-.05 75.92-.01 113.88-.02l.01.63c.05 14.92.12 29.86-.04 44.79-36.6-.12-73.2.15-109.8-.14-1.21-15.09-2.71-30.17-4.05-45.26zm428.58-.02c37.99 0 75.97.01 113.96-.01-.06 15.14.03 30.28-.01 45.42-21.44-.01-42.88-.02-64.32 0 1.36 15.49 2.75 30.97 4.15 46.45 20.05.02 40.11.01 60.17.01-.06 15.13.1 30.27-.09 45.41-33.87-.02-67.74 0-101.61-.01-4.1-45.76-8.18-91.51-12.25-137.27zM75.71 268.19c35.13.02 70.26 0 105.4.01h.52l-.02.73c-.5 14.89.06 29.8-.24 44.7-33.9-.13-67.79.12-101.69-.13-1.21-15.11-2.73-30.2-3.97-45.31zm5.99 68.31c15.21-.37 30.45-.11 45.68-.13 1.02 12.04 2.18 24.07 3.18 36.11 16.9 4.64 33.84 9.15 50.76 13.73.19 15.78.1 31.57.07 47.36-31.04-8.75-62.11-17.36-93.21-25.88-2.27-23.72-4.12-47.48-6.48-71.19zm428.64-.14c15.19-.07 30.38 0 45.57-.04 1.15 12.08 2.13 24.18 3.29 36.26 16.94 4.43 33.81 9.14 50.74 13.63.27 15.7-.01 31.41.1 47.11l-.53.02c-30.94-8.49-61.82-17.23-92.78-25.69-2.17-23.76-4.23-47.53-6.39-71.29z" fill="#ebebeb"/><path d="M181.38 176.33c37.86 0 75.71.01 113.57 0-6.87 77.12-13.75 154.23-20.68 231.35-30.93 8.54-61.83 17.15-92.76 25.69-.02-15.75.11-31.5-.08-47.24 16.82-4.45 33.59-9.07 50.39-13.57 1.74-19.67 3.7-39.33 5.19-59.02-18.52.15-37.04 0-55.55.07.25-14.89-.12-29.79.15-44.68l.02-.73c19.81-.01 39.62.01 59.43-.01 1.39-15.47 2.75-30.95 4.13-46.43-21.25-.06-42.5-.02-63.75-.01.12-14.93.22-29.87-.05-44.79l-.01-.63zm428.66-.01c37.83.04 75.66-.02 113.49.03-1.35 15.12-2.72 30.24-4.06 45.37-36.48.04-72.96-.01-109.44.02.04-15.14-.05-30.28.01-45.42zm-.01 91.88c35.1.01 70.19-.01 105.29 0-4.17 46.49-8.27 92.98-12.47 139.47-30.94 8.53-61.84 17.23-92.81 25.65-.11-15.7.17-31.41-.1-47.11 16.81-4.64 33.68-9.05 50.49-13.7 1.74-19.64 3.53-39.27 5.26-58.91-18.59 0-37.17-.01-55.75.01.19-15.14.03-30.28.09-45.41z" fill="#fff"/></svg>