<svg viewBox="0 0 544 767" xmlns="http://www.w3.org/2000/svg"><path d="M127.94 0h82.42c-.01 11.48.02 22.96-.02 34.44-15.97.04-31.95-.01-47.93.02-.02 11.48 0 22.96-.01 34.43 15.98.05 31.96-.01 47.94.03.03 11.48.03 22.95 0 34.43-27.46.02-54.93.03-82.39 0-.03-34.45-.01-68.9-.01-103.35zm98.91 0h82.42c-.01 9.99.02 19.97-.02 29.96-15.98.02-31.96-.02-47.94.02 0 1.99-.01 3.97-.01 5.96 15.98.04 31.97-.02 47.95.03.03 22.96.03 45.93 0 68.89-27.46.01-54.93.02-82.39 0 .02-10.5-.13-20.99.08-31.49 15.95.06 31.91.01 47.87.03-.02-2-.02-3.99-.03-5.99-15.97-.01-31.95.02-47.92-.02-.03-22.46-.01-44.93-.01-67.39zm98.91 0h82.42c-.01 9.99.02 19.97-.02 29.96-15.98.02-31.96-.01-47.94.01 0 1.99-.01 3.98-.01 5.97 15.99.04 31.97-.02 47.95.03.02 22.96.04 45.93-.01 68.89-27.46.01-54.92.01-82.38 0-.08-10.45.05-20.9-.06-31.36 15.95-.2 31.92-.12 47.88-.03.09-2.02.12-4.04.13-6.06-15.98-.01-31.97.03-47.95-.01-.04-22.47-.02-44.93-.01-67.4z"/><path fill="#2754e8" d="M0 150.74c181.19-.01 362.38 0 543.58-.01-16.45 184.84-33.05 369.66-49.47 554.5-74.16 20.76-148.42 41.18-222.62 61.77h-.13c-73.92-20.65-147.9-41.11-221.87-61.6C32.95 520.76 16.65 336.1 0 151.48v-.74m101.24 113.4c1.95 22.62 4.14 45.23 6.1 67.85 54.68.27 109.37.04 164.06.11.15-22.37-.04-44.75.09-67.12.16 22.4.1 44.81.03 67.21 31.97-.01 63.93-.01 95.89 0-2.09 23.18-4.12 46.38-6.2 69.57-82.58-.01-165.16.11-247.74.08 1.99 22.64 4.08 45.27 6.06 67.9 78.59-.04 157.18.07 235.76.13-2.53 29.32-5.35 58.63-7.78 87.96-24.41 7.05-49.08 13.27-73.57 20.06-2.96 1.28-5.9-.37-8.78-1.04-23.16-6.21-46.29-12.55-69.48-18.69-1.66-18.09-3.19-36.18-4.88-54.26-22.73 0-45.47-.03-68.2.01 3.2 35.58 6.31 71.17 9.56 106.74 46.42 12.75 92.76 25.76 139.16 38.53.36-23.41-.14-46.82.22-70.23-.09 23.48.2 46.97-.11 70.45 46.58-12.87 93.15-25.74 139.7-38.72 10.31-115.53 20.6-231.06 31.01-346.58-113.63-.14-227.27.23-340.9.04z"/><path fill="#f6f6f6" d="M101.24 264.14c113.63.19 227.27-.18 340.9-.04-10.41 115.52-20.7 231.05-31.01 346.58-46.55 12.98-93.12 25.85-139.7 38.72.31-23.48.02-46.97.11-70.45-.36 23.41.14 46.82-.22 70.23-46.4-12.77-92.74-25.78-139.16-38.53-3.25-35.57-6.36-71.16-9.56-106.74 22.73-.04 45.47-.01 68.2-.01 1.69 18.08 3.22 36.17 4.88 54.26 23.19 6.14 46.32 12.48 69.48 18.69 2.88.67 5.82 2.32 8.78 1.04 24.49-6.79 49.16-13.01 73.57-20.06 2.43-29.33 5.25-58.64 7.78-87.96-78.58-.06-157.17-.17-235.76-.13-1.98-22.63-4.07-45.26-6.06-67.9 82.58.03 165.16-.09 247.74-.08 2.08-23.19 4.11-46.39 6.2-69.57-31.96-.01-63.92-.01-95.89 0 .07-22.4.13-44.81-.03-67.21-.13 22.37.06 44.75-.09 67.12-54.69-.07-109.38.16-164.06-.11-1.96-22.62-4.15-45.23-6.1-67.85z"/></svg>