<?xml version="1.0" encoding="UTF-8" ?>
<!DOCTYPE svg PUBLIC "-//W3C//DTD SVG 1.1//EN" "http://www.w3.org/Graphics/SVG/1.1/DTD/svg11.dtd">
<svg viewBox="0 0 1200 500" version="1.1" xmlns="http://www.w3.org/2000/svg">
<g id="#ecf0f1ff">
</g>
<g id="#14161fff">
<path fill="#14161f" opacity="1.00" d=" M 742.29 117.24 C 748.81 110.94 758.57 110.78 767.04 111.54 C 770.38 111.94 773.77 112.57 776.82 114.05 C 777.01 117.55 774.99 120.89 774.98 124.47 C 768.27 123.38 760.94 121.58 754.43 124.51 C 748.39 127.45 746.75 134.91 746.63 141.03 C 746.65 147.33 746.98 154.61 751.88 159.22 C 755.89 163.08 761.84 161.63 766.84 161.60 C 766.78 157.47 766.98 153.34 766.86 149.22 C 764.12 149.25 761.39 149.26 758.67 149.28 C 758.50 145.56 758.44 141.84 758.70 138.13 C 765.52 138.27 772.34 138.17 779.17 138.19 C 777.54 140.50 777.95 143.36 777.96 146.01 C 778.19 153.95 777.68 161.92 778.31 169.85 C 773.04 172.79 767.01 173.91 761.02 173.49 C 752.61 174.00 743.23 170.97 738.75 163.40 C 734.95 157.68 734.52 150.63 733.88 144.00 C 734.34 134.68 735.11 124.10 742.29 117.24 Z" />
<path fill="#14161f" opacity="1.00" d=" M 836.08 113.64 C 840.18 113.42 844.29 113.54 848.41 113.53 C 848.48 120.90 848.38 128.28 848.46 135.65 C 854.27 135.88 860.09 135.68 865.92 135.78 C 866.22 128.40 866.18 120.99 865.92 113.61 C 870.10 113.44 874.29 113.57 878.48 113.47 C 878.57 133.17 878.63 152.87 878.44 172.56 C 874.27 172.45 870.09 172.60 865.92 172.42 C 865.99 163.96 866.05 155.51 866.11 147.06 C 860.37 147.04 854.62 146.91 848.89 147.10 L 848.49 147.49 C 848.31 155.82 848.53 164.17 848.40 172.51 C 844.28 172.46 840.17 172.67 836.06 172.34 C 836.24 152.77 836.21 133.20 836.08 113.64 Z" />
<path fill="#14161f" opacity="1.00" d=" M 789.16 115.28 C 793.95 112.96 799.94 117.72 798.69 122.93 C 798.23 128.92 789.21 130.78 786.26 125.70 C 783.69 122.25 785.33 117.01 789.16 115.28 Z" />
<path fill="#14161f" opacity="1.00" d=" M 929.15 115.00 C 932.12 114.79 935.10 114.85 938.09 115.03 C 938.74 120.86 938.07 126.72 938.38 132.57 C 938.73 132.75 939.42 133.11 939.77 133.28 L 940.66 133.72 C 946.51 130.51 954.46 129.82 960.01 134.03 C 964.91 138.13 965.63 145.08 965.88 151.05 C 965.58 157.30 965.37 164.23 961.41 169.40 C 958.52 173.21 953.42 173.72 949.01 173.47 C 945.03 173.68 941.16 172.25 937.89 170.06 C 937.59 170.13 936.98 170.28 936.68 170.35 C 934.21 171.07 931.65 171.23 929.12 171.10 C 928.89 152.40 928.91 133.70 929.15 115.00 M 939.86 143.91 C 939.68 149.68 939.95 155.46 939.74 161.23 C 943.21 163.76 949.95 165.04 952.25 160.42 C 953.56 155.58 953.81 150.27 952.37 145.42 C 950.85 140.12 942.95 140.45 939.86 143.91 Z" />
<path fill="#14161f" opacity="1.00" d=" M 809.16 120.77 C 813.23 120.57 817.32 120.74 821.40 120.61 C 821.60 124.55 821.44 128.49 821.58 132.44 C 824.59 132.41 827.61 132.40 830.63 132.46 C 830.65 135.83 830.65 139.20 830.62 142.57 C 827.59 142.63 824.57 142.62 821.55 142.62 C 821.55 148.40 821.35 154.18 821.62 159.95 C 822.22 164.18 827.49 163.78 830.67 163.40 C 830.73 166.34 830.75 169.27 830.88 172.21 C 826.86 174.00 822.22 173.61 817.98 173.01 C 813.31 172.07 809.99 167.84 809.51 163.21 C 808.81 156.39 809.39 149.51 809.18 142.66 C 806.98 142.67 804.80 142.60 802.61 142.49 C 802.67 139.79 802.68 137.10 802.62 134.41 C 804.80 133.70 807.04 133.17 809.29 132.65 C 809.15 128.69 809.21 124.73 809.16 120.77 Z" />
<path fill="#14161f" opacity="1.00" d=" M 884.22 132.74 C 888.42 132.42 892.66 132.41 896.87 132.75 C 896.86 142.12 896.29 151.59 897.16 160.92 C 899.33 165.52 905.28 163.44 908.81 161.76 C 908.89 152.52 908.96 143.27 908.78 134.03 C 912.52 133.97 916.27 133.95 920.02 134.04 C 920.09 146.39 920.44 158.75 920.04 171.09 C 917.64 171.11 915.21 171.21 912.87 170.67 C 912.56 170.56 911.94 170.34 911.63 170.23 C 906.03 173.68 899.25 174.11 892.91 173.08 C 887.92 172.15 884.51 167.29 884.46 162.35 C 884.12 152.49 884.57 142.61 884.22 132.74 Z" />
</g>
<g id="#02030aff">
<path fill="#02030a" opacity="1.00" d=" M 927.59 113.58 C 931.67 113.57 935.77 113.46 939.86 113.68 C 939.64 120.21 939.77 126.75 939.77 133.28 C 939.42 133.11 938.73 132.75 938.38 132.57 C 938.07 126.72 938.74 120.86 938.09 115.03 C 935.10 114.85 932.12 114.79 929.15 115.00 C 928.91 133.70 928.89 152.40 929.12 171.10 C 931.65 171.23 934.21 171.07 936.68 170.35 C 936.57 170.88 936.35 171.92 936.24 172.45 C 933.36 172.54 930.48 172.44 927.62 172.55 C 927.51 152.89 927.64 133.24 927.59 113.58 Z" />
<path fill="#02030a" opacity="1.00" d=" M 785.64 132.56 C 789.60 132.46 793.58 132.36 797.54 132.52 C 797.72 132.86 798.08 133.53 798.25 133.86 C 794.49 133.75 790.72 133.72 786.97 133.92 C 786.88 146.29 786.80 158.67 787.03 171.04 C 790.65 171.39 794.64 170.43 797.93 172.39 C 793.87 172.54 789.81 172.45 785.76 172.45 C 785.54 159.16 785.76 145.86 785.64 132.56 Z" />
<path fill="#02030a" opacity="1.00" d=" M 909.08 132.72 C 913.11 132.39 917.17 132.66 921.21 132.58 C 921.23 145.85 921.14 159.11 921.23 172.38 C 918.61 172.49 915.98 172.67 913.36 172.48 C 913.24 172.03 912.99 171.12 912.87 170.67 C 915.21 171.21 917.64 171.11 920.04 171.09 C 920.44 158.75 920.09 146.39 920.02 134.04 C 916.27 133.95 912.52 133.97 908.78 134.03 L 909.08 132.72 Z" />
<path fill="#02030a" opacity="1.00" d=" M 777.96 146.01 C 777.95 143.36 777.54 140.50 779.17 138.19 C 779.36 148.46 779.45 158.76 779.14 169.02 L 778.31 169.85 C 777.68 161.92 778.19 153.95 777.96 146.01 Z" />
<path fill="#02030a" opacity="1.00" d=" M 830.51 306.79 C 842.86 307.65 855.31 307.53 867.68 306.84 C 871.35 310.03 874.72 313.93 875.68 318.86 C 872.67 316.71 870.89 313.10 867.38 311.64 C 862.22 309.43 856.50 309.09 850.96 309.12 C 842.70 309.24 834.30 308.95 826.28 311.26 C 827.56 309.65 828.99 308.18 830.51 306.79 Z" />
</g>
<g id="#14161eff">
<path fill="#14161e" opacity="1.00" d=" M 786.97 133.92 C 790.72 133.72 794.49 133.75 798.25 133.86 C 797.81 146.70 798.46 159.56 797.93 172.39 C 794.64 170.43 790.65 171.39 787.03 171.04 C 786.80 158.67 786.88 146.29 786.97 133.92 Z" />
</g>
<g id="#ffffffff">
<path fill="#ffffff" opacity="1.00" d=" M 818.33 256.45 C 821.71 255.57 825.27 256.98 827.34 259.74 C 833.02 267.00 832.67 278.54 826.09 285.13 C 822.66 288.48 816.68 287.78 813.83 284.05 C 808.83 277.99 808.47 268.90 812.03 262.05 C 813.45 259.59 815.57 257.34 818.33 256.45 M 816.12 264.62 L 816.96 264.93 C 817.62 265.10 818.94 265.45 819.60 265.62 C 821.30 266.45 820.16 268.29 819.50 269.40 C 819.02 269.40 818.06 269.40 817.59 269.40 C 817.07 268.53 816.47 267.73 815.80 267.00 C 813.80 267.07 814.76 269.72 814.36 270.98 C 813.62 276.02 816.92 283.48 822.99 282.19 C 830.43 278.77 830.67 266.20 823.78 262.04 C 820.97 260.47 817.89 262.42 816.12 264.62 Z" />
<path fill="#ffffff" opacity="1.00" d=" M 876.28 256.43 C 880.76 255.12 884.79 258.36 886.85 262.06 C 890.13 268.55 890.01 276.93 885.86 283.02 C 883.47 286.46 878.53 288.69 874.64 286.35 C 868.98 283.22 867.12 276.07 867.67 270.02 C 867.95 264.50 870.81 258.43 876.28 256.43 M 874.41 262.35 C 868.11 266.98 868.48 279.03 875.95 282.32 C 882.39 283.20 885.27 275.22 884.35 270.01 C 884.09 265.36 879.45 259.24 874.41 262.35 Z" />
<path fill="#ffffff" opacity="1.00" d=" M 873.27 268.75 C 873.22 267.38 873.12 265.42 875.03 265.40 C 876.83 265.36 876.75 267.38 876.80 268.68 C 875.61 268.73 874.44 268.75 873.27 268.75 Z" />
<path fill="#ffffff" opacity="1.00" d=" M 847.71 320.85 C 848.52 318.62 850.97 320.25 850.56 322.05 C 850.58 330.42 850.55 338.80 850.55 347.18 C 849.93 347.10 848.70 346.92 848.09 346.84 C 848.14 338.17 847.52 329.51 847.71 320.85 Z" />
<path fill="#ffffff" opacity="1.00" d=" M 835.32 322.47 C 836.27 330.65 835.41 338.94 835.75 347.17 C 834.61 347.41 833.48 347.65 832.36 347.90 C 833.06 339.47 830.35 329.99 835.32 322.47 Z" />
<path fill="#ffffff" opacity="1.00" d=" M 862.55 322.78 C 864.14 324.83 865.38 327.21 865.55 329.85 C 866.14 335.88 865.73 341.94 865.82 347.99 C 864.68 347.70 863.57 347.37 862.45 347.08 C 862.54 338.98 862.36 330.87 862.55 322.78 Z" />
</g>
<g id="#3e2c00ff">
<path fill="#3e2c00" opacity="1.00" d=" M 445.52 148.68 C 451.58 147.41 458.79 147.93 463.43 152.47 C 469.87 159.90 468.78 173.68 459.65 178.48 C 453.45 181.20 445.53 181.09 439.99 176.93 C 434.48 172.15 433.52 163.65 435.91 157.06 C 437.29 152.75 441.21 149.70 445.52 148.68 Z" />
<path fill="#3e2c00" opacity="1.00" d=" M 501.88 165.56 C 507.59 165.56 513.29 165.49 519.00 165.61 C 518.88 174.68 518.73 183.77 519.08 192.83 C 527.99 193.47 536.95 192.98 545.89 193.10 C 545.91 199.12 545.91 205.14 545.88 211.17 C 536.89 211.12 527.90 211.19 518.91 211.12 C 518.89 226.09 518.89 241.06 518.91 256.02 C 519.03 260.56 519.65 266.41 524.48 268.41 C 531.48 270.91 539.16 269.02 545.99 266.77 C 547.60 272.05 549.16 277.34 550.86 282.60 C 538.46 288.11 524.53 291.52 510.98 288.89 C 505.42 287.78 499.79 285.28 496.49 280.47 C 492.90 275.04 491.86 268.35 491.74 261.96 C 491.75 245.04 491.73 228.13 491.76 211.21 C 487.01 211.08 482.26 211.17 477.52 211.16 C 477.59 205.73 477.34 200.31 477.65 194.89 C 484.80 194.46 492.38 191.46 496.28 185.14 C 499.99 179.32 501.20 172.32 501.88 165.56 Z" />
<path fill="#3e2c00" opacity="1.00" d=" M 341.03 200.99 C 354.02 193.67 369.81 193.99 384.03 196.65 C 395.67 196.64 407.31 196.57 418.95 196.68 C 418.86 201.79 418.90 206.90 418.92 212.02 C 413.43 212.48 407.94 212.88 402.45 213.22 C 404.34 216.49 406.56 219.63 407.68 223.28 C 411.02 234.30 407.83 247.40 398.80 254.84 C 386.97 264.29 370.39 265.32 356.10 262.02 C 354.08 265.23 352.09 268.45 350.00 271.63 C 365.66 273.37 381.56 272.90 397.08 275.93 C 404.48 277.47 412.72 280.81 415.65 288.42 C 418.92 297.10 418.39 307.51 413.36 315.44 C 409.56 321.38 403.42 325.44 396.93 327.95 C 386.48 331.95 375.15 332.78 364.07 332.42 C 356.36 332.48 348.63 331.66 341.17 329.71 C 335.32 328.07 329.26 325.51 325.69 320.34 C 322.59 315.60 321.71 309.43 323.51 304.03 C 324.96 298.93 328.81 295.03 332.61 291.53 C 329.67 289.84 326.64 287.81 325.57 284.40 C 323.08 278.91 325.70 272.68 329.67 268.66 C 333.41 264.92 336.99 261.00 341.08 257.66 C 338.25 255.54 335.13 253.74 332.87 250.97 C 320.46 236.36 324.03 210.57 341.03 200.99 M 363.14 213.27 C 357.49 214.29 352.70 218.79 351.61 224.47 C 350.78 229.59 350.69 235.58 354.31 239.72 C 358.44 244.42 365.32 245.36 371.21 244.62 C 376.96 243.98 382.66 240.36 384.48 234.66 C 386.47 227.92 385.12 219.23 378.77 215.24 C 374.13 212.49 368.33 212.07 363.14 213.27 M 343.94 306.98 C 344.29 311.01 348.40 313.17 351.91 314.08 C 358.76 315.80 365.92 315.81 372.93 315.37 C 378.32 314.81 384.42 314.56 388.57 310.58 C 390.82 308.61 391.40 305.23 390.44 302.48 C 388.85 299.47 385.19 298.93 382.16 298.51 C 371.03 297.57 359.87 297.09 348.75 296.05 C 346.18 299.11 343.37 302.71 343.94 306.98 Z" />
<path fill="#3e2c00" opacity="1.00" d=" M 427.54 209.40 C 428.63 204.68 428.70 199.79 429.80 195.08 C 442.17 195.18 454.54 195.08 466.91 195.12 C 466.89 220.09 466.90 245.06 466.91 270.02 C 467.13 271.15 466.63 273.10 468.04 273.60 C 471.66 274.80 475.59 274.37 479.20 275.64 C 479.02 280.21 479.13 284.78 479.16 289.36 C 461.95 289.41 444.74 289.38 427.53 289.37 C 427.53 284.75 427.52 280.14 427.47 275.53 C 431.37 274.12 436.42 275.42 439.65 272.67 C 439.89 254.48 439.64 236.27 439.77 218.07 C 439.64 216.59 440.15 214.51 438.60 213.62 C 435.06 211.85 431.16 210.99 427.54 209.40 Z" />
</g>
<g id="#f15034ff">
<path fill="#f15034" opacity="1.00" d=" M 182.54 151.57 C 187.19 147.04 195.37 147.47 199.69 152.26 C 227.15 179.81 254.62 207.35 282.08 234.89 C 286.73 239.36 286.87 247.68 282.07 252.10 C 256.02 278.37 229.83 304.52 203.72 330.74 C 200.81 333.49 198.22 337.09 194.07 337.97 C 189.65 339.13 184.87 337.47 181.92 334.05 C 154.44 306.54 126.97 279.03 99.55 251.47 C 95.04 247.16 94.89 239.66 99.17 235.15 C 113.91 220.23 128.80 205.46 143.57 190.58 C 147.99 186.36 151.99 181.69 156.69 177.78 C 163.50 185.00 170.77 191.76 177.60 198.96 C 176.61 202.64 176.18 206.67 177.71 210.28 C 179.10 213.96 182.26 216.57 185.56 218.50 C 185.70 235.74 185.80 252.98 185.51 270.21 C 179.78 273.11 175.70 279.36 176.80 285.93 C 177.50 292.98 183.97 298.64 190.98 298.76 C 198.61 299.14 205.75 292.63 206.06 284.99 C 206.65 279.14 203.17 273.51 198.09 270.77 C 197.76 253.78 197.90 236.76 198.02 219.75 C 204.67 225.84 210.96 232.34 217.18 238.86 C 213.43 247.62 220.21 259.00 229.94 258.94 C 238.98 260.04 247.23 250.97 245.48 242.08 C 244.44 233.61 234.74 227.18 226.63 230.36 C 219.37 223.88 212.76 216.68 205.85 209.84 C 205.62 206.04 206.79 201.85 204.65 198.31 C 201.69 191.60 193.65 188.59 186.78 190.57 C 179.40 183.56 172.42 176.14 165.13 169.04 C 170.90 163.19 176.68 157.33 182.54 151.57 Z" />
</g>
<g id="#21201fff">
<path fill="#21201f" opacity="1.00" d=" M 790.49 223.36 C 786.94 214.09 787.91 203.48 791.78 194.46 C 802.62 194.24 812.21 200.17 821.04 205.79 C 824.05 205.78 826.93 204.65 829.89 204.17 C 844.17 201.51 859.04 201.90 873.15 205.41 C 882.05 200.18 891.46 194.08 902.24 194.50 C 905.62 203.07 906.75 212.68 904.12 221.62 C 910.96 228.33 915.48 237.40 916.42 246.96 C 917.43 257.08 916.27 267.26 914.58 277.24 C 922.42 277.50 930.26 277.08 938.08 276.91 C 942.29 278.15 946.74 277.19 950.93 278.44 C 955.71 278.71 960.54 279.21 965.11 280.74 C 957.68 279.86 950.32 278.27 942.83 278.24 C 939.90 277.66 936.95 277.08 933.95 277.41 C 927.33 278.04 920.68 277.72 914.06 277.58 C 913.56 279.11 913.20 280.68 912.99 282.28 C 917.76 283.01 922.58 282.36 927.37 282.80 C 932.95 283.40 938.52 284.11 944.03 285.22 C 950.81 286.11 957.86 286.96 964.12 289.81 C 959.73 288.93 955.52 287.36 951.08 286.72 C 940.41 285.35 929.82 282.64 918.98 283.20 C 916.73 283.48 914.44 282.31 912.29 282.81 C 908.68 290.93 901.87 297.31 893.73 300.78 C 885.50 304.35 876.59 306.13 867.68 306.84 C 855.31 307.53 842.86 307.65 830.51 306.79 C 817.88 305.54 804.83 302.34 794.71 294.31 C 790.61 291.18 787.60 286.92 785.02 282.51 C 780.42 283.73 775.65 282.83 770.97 283.31 C 761.58 284.17 752.34 286.10 743.02 287.49 C 739.90 288.24 736.91 289.54 733.67 289.72 C 740.18 287.32 747.06 286.01 753.95 285.30 C 764.00 282.99 774.31 282.55 784.57 282.41 C 784.15 280.75 783.69 279.12 783.03 277.56 C 777.02 277.80 771.01 277.82 765.00 277.67 C 754.50 278.02 744.08 278.82 733.75 280.76 C 738.54 278.47 744.15 279.15 749.21 277.93 C 760.27 277.27 771.39 277.21 782.49 277.22 C 779.58 267.07 778.49 256.41 779.66 245.90 C 780.75 237.47 784.84 229.64 790.49 223.36 M 803.92 254.16 C 792.26 264.92 795.18 286.28 808.30 294.61 C 817.71 300.58 829.19 301.52 840.03 302.13 C 851.00 302.42 862.01 302.46 872.92 301.18 C 880.27 300.04 888.05 297.97 893.30 292.35 C 898.23 287.22 899.96 279.92 900.31 273.00 C 900.79 267.32 899.19 261.31 895.45 256.97 C 891.84 250.39 884.30 247.06 877.03 246.94 C 864.64 246.60 852.27 249.07 839.88 247.80 C 832.24 247.60 824.57 246.16 816.95 247.33 C 812.01 247.92 806.76 249.84 803.92 254.16 Z" />
<path fill="#21201f" opacity="1.00" d=" M 773.33 304.66 C 773.66 303.11 775.49 302.50 776.92 302.61 C 783.22 302.35 788.92 306.46 792.28 311.54 C 794.52 314.69 796.44 318.67 800.37 319.98 C 799.60 321.03 798.84 322.09 798.12 323.17 C 799.12 324.15 800.35 324.64 801.76 324.69 C 801.72 323.48 801.65 322.27 801.56 321.07 C 803.05 321.79 804.54 322.50 806.01 323.17 C 805.86 324.05 805.38 324.67 804.56 325.04 C 805.26 326.51 807.23 327.07 808.39 325.74 C 808.31 325.32 808.16 324.48 808.08 324.06 C 809.59 323.33 811.22 323.02 812.98 323.11 C 810.93 325.37 812.70 327.58 815.19 326.24 C 816.52 324.60 813.93 324.17 812.85 323.99 C 815.28 321.62 819.78 322.74 822.20 319.99 C 823.21 316.97 824.32 313.97 826.09 311.30 L 826.28 311.26 C 834.30 308.95 842.70 309.24 850.96 309.12 C 856.50 309.09 862.22 309.43 867.38 311.64 C 870.89 313.10 872.67 316.71 875.68 318.86 L 876.08 319.19 C 877.08 329.32 876.30 339.51 876.72 349.66 C 876.80 353.27 876.59 357.20 878.77 360.32 C 880.41 363.31 884.38 363.92 885.89 367.04 C 885.40 367.38 884.44 368.04 883.95 368.38 C 880.37 368.82 876.75 368.20 873.38 367.00 C 870.71 365.71 868.14 363.83 866.98 361.01 C 865.24 356.89 865.92 352.33 865.82 347.99 C 865.73 341.94 866.14 335.88 865.55 329.85 C 865.38 327.21 864.14 324.83 862.55 322.78 C 862.36 330.87 862.54 338.98 862.45 347.08 C 862.60 353.55 862.09 360.05 862.73 366.50 C 862.91 369.15 864.83 371.00 866.59 372.76 C 866.87 373.29 867.42 374.36 867.69 374.89 C 867.29 375.32 866.49 376.18 866.09 376.61 C 865.53 376.67 864.41 376.77 863.84 376.83 C 860.66 376.40 857.69 375.08 855.05 373.31 C 852.69 371.14 850.61 368.35 850.63 365.00 C 850.40 359.06 850.64 353.12 850.55 347.18 C 850.55 338.80 850.58 330.42 850.56 322.05 C 850.97 320.25 848.52 318.62 847.71 320.85 C 847.66 327.24 847.56 333.62 847.17 340.00 C 847.63 348.30 847.82 356.62 847.54 364.94 C 847.47 368.00 845.72 370.63 843.76 372.85 C 841.19 374.84 838.20 376.31 834.96 376.76 C 834.20 376.81 832.69 376.91 831.93 376.96 C 831.58 376.42 830.88 375.34 830.53 374.80 C 830.99 374.00 831.46 373.21 831.96 372.43 C 833.56 370.98 835.58 369.50 835.58 367.10 C 836.01 360.47 835.67 353.81 835.75 347.17 C 835.41 338.94 836.27 330.65 835.32 322.47 C 830.35 329.99 833.06 339.47 832.36 347.90 C 832.07 352.50 833.25 357.53 830.87 361.75 C 829.57 364.21 827.18 365.82 824.77 367.05 C 821.27 368.30 817.53 368.80 813.84 368.39 L 812.87 367.79 C 812.75 367.34 812.52 366.42 812.40 365.97 C 814.82 363.82 818.36 362.96 820.05 360.02 C 821.87 357.00 821.22 353.31 821.50 349.96 C 821.70 344.29 821.68 338.61 821.54 332.94 C 812.97 334.33 803.21 334.86 796.00 329.14 C 789.22 324.51 787.74 315.52 781.45 310.46 C 778.88 308.34 775.26 307.51 773.33 304.66 M 782.14 305.13 C 781.72 306.71 782.34 307.29 783.99 306.85 C 784.39 305.25 783.78 304.67 782.14 305.13 M 785.57 308.07 C 784.99 309.32 786.94 310.79 788.03 309.93 C 788.96 308.58 786.60 306.90 785.57 308.07 M 789.56 312.25 C 788.65 313.55 790.46 315.77 791.90 314.90 C 793.19 313.58 790.97 310.86 789.56 312.25 M 793.36 317.43 C 792.80 319.33 796.22 322.03 796.79 319.12 C 796.13 317.85 794.84 316.38 793.36 317.43 M 819.04 322.96 C 818.42 324.63 818.93 325.17 820.57 324.61 C 821.15 322.93 820.64 322.38 819.04 322.96 Z" />
</g>
<g id="#c79d8bff">
<path fill="#c79d8b" opacity="1.00" d=" M 803.92 254.16 C 806.76 249.84 812.01 247.92 816.95 247.33 C 824.57 246.16 832.24 247.60 839.88 247.80 C 852.27 249.07 864.64 246.60 877.03 246.94 C 884.30 247.06 891.84 250.39 895.45 256.97 C 891.99 254.70 889.23 251.14 885.02 250.22 C 878.70 248.61 872.09 249.19 865.66 249.61 C 854.82 251.07 843.80 251.12 832.95 249.77 C 827.44 249.25 821.88 248.94 816.36 249.43 C 811.85 249.84 807.83 252.06 803.92 254.16 Z" />
</g>
<g id="#f3cbb2ff">
<path fill="#f3cbb2" opacity="1.00" d=" M 816.36 249.43 C 821.88 248.94 827.44 249.25 832.95 249.77 C 843.80 251.12 854.82 251.07 865.66 249.61 C 872.09 249.19 878.70 248.61 885.02 250.22 C 889.23 251.14 891.99 254.70 895.45 256.97 C 899.19 261.31 900.79 267.32 900.31 273.00 C 899.96 279.92 898.23 287.22 893.30 292.35 C 888.05 297.97 880.27 300.04 872.92 301.18 C 862.01 302.46 851.00 302.42 840.03 302.13 C 829.19 301.52 817.71 300.58 808.30 294.61 C 795.18 286.28 792.26 264.92 803.92 254.16 C 807.83 252.06 811.85 249.84 816.36 249.43 M 818.33 256.45 C 815.57 257.34 813.45 259.59 812.03 262.05 C 808.47 268.90 808.83 277.99 813.83 284.05 C 816.68 287.78 822.66 288.48 826.09 285.13 C 832.67 278.54 833.02 267.00 827.34 259.74 C 825.27 256.98 821.71 255.57 818.33 256.45 M 876.28 256.43 C 870.81 258.43 867.95 264.50 867.67 270.02 C 867.12 276.07 868.98 283.22 874.64 286.35 C 878.53 288.69 883.47 286.46 885.86 283.02 C 890.01 276.93 890.13 268.55 886.85 262.06 C 884.79 258.36 880.76 255.12 876.28 256.43 M 847.24 283.32 C 843.86 285.11 847.87 290.40 850.46 287.56 C 852.95 285.62 849.80 281.31 847.24 283.32 M 842.15 291.09 C 842.46 293.03 843.36 294.91 845.15 295.91 C 848.75 298.55 855.58 295.76 854.73 290.86 C 852.42 292.26 851.27 296.01 847.93 294.98 C 845.19 294.99 844.65 291.53 842.15 291.09 Z" />
</g>
<g id="#ac5b50ff">
<path fill="#ac5b50" opacity="1.00" d=" M 816.12 264.62 C 817.89 262.42 820.97 260.47 823.78 262.04 C 830.67 266.20 830.43 278.77 822.99 282.19 C 816.92 283.48 813.62 276.02 814.36 270.98 C 814.76 269.72 813.80 267.07 815.80 267.00 C 816.47 267.73 817.07 268.53 817.59 269.40 C 818.06 269.40 819.02 269.40 819.50 269.40 C 820.16 268.29 821.30 266.45 819.60 265.62 C 818.94 265.45 817.62 265.10 816.96 264.93 L 816.12 264.62 Z" />
<path fill="#ac5b50" opacity="1.00" d=" M 874.41 262.35 C 879.45 259.24 884.09 265.36 884.35 270.01 C 885.27 275.22 882.39 283.20 875.95 282.32 C 868.48 279.03 868.11 266.98 874.41 262.35 M 873.27 268.75 C 874.44 268.75 875.61 268.73 876.80 268.68 C 876.75 267.38 876.83 265.36 875.03 265.40 C 873.12 265.42 873.22 267.38 873.27 268.75 Z" />
<path fill="#ac5b50" opacity="1.00" d=" M 847.24 283.32 C 849.80 281.31 852.95 285.62 850.46 287.56 C 847.87 290.40 843.86 285.11 847.24 283.32 Z" />
<path fill="#ac5b50" opacity="1.00" d=" M 842.15 291.09 C 844.65 291.53 845.19 294.99 847.93 294.98 C 851.27 296.01 852.42 292.26 854.73 290.86 C 855.58 295.76 848.75 298.55 845.15 295.91 C 843.36 294.91 842.46 293.03 842.15 291.09 Z" />
</g>
<g id="#95b5c2ff">
<path fill="#95b5c2" opacity="1.00" d=" M 782.14 305.13 C 783.78 304.67 784.39 305.25 783.99 306.85 C 782.34 307.29 781.72 306.71 782.14 305.13 Z" />
</g>
<g id="#9fddf2ff">
<path fill="#9fddf2" opacity="1.00" d=" M 785.57 308.07 C 786.60 306.90 788.96 308.58 788.03 309.93 C 786.94 310.79 784.99 309.32 785.57 308.07 Z" />
<path fill="#9fddf2" opacity="1.00" d=" M 793.36 317.43 C 794.84 316.38 796.13 317.85 796.79 319.12 C 796.22 322.03 792.80 319.33 793.36 317.43 Z" />
<path fill="#9fddf2" opacity="1.00" d=" M 819.04 322.96 C 820.64 322.38 821.15 322.93 820.57 324.61 C 818.93 325.17 818.42 324.63 819.04 322.96 Z" />
<path fill="#9fddf2" opacity="1.00" d=" M 831.93 376.96 C 832.69 376.91 834.20 376.81 834.96 376.76 C 835.68 381.54 835.75 386.37 835.88 391.19 C 834.65 391.22 833.43 391.29 832.21 391.40 C 832.34 386.59 832.71 381.74 831.93 376.96 Z" />
</g>
<g id="#a1daf0ff">
<path fill="#a1daf0" opacity="1.00" d=" M 775.44 311.51 C 776.63 311.97 777.51 315.38 775.92 316.06 C 774.08 315.49 774.46 312.70 775.44 311.51 Z" />
</g>
<g id="#9eddf5ff">
<path fill="#9eddf5" opacity="1.00" d=" M 789.56 312.25 C 790.97 310.86 793.19 313.58 791.90 314.90 C 790.46 315.77 788.65 313.55 789.56 312.25 Z" />
<path fill="#9eddf5" opacity="1.00" d=" M 862.45 347.08 C 863.57 347.37 864.68 347.70 865.82 347.99 C 865.92 352.33 865.24 356.89 866.98 361.01 C 868.14 363.83 870.71 365.71 873.38 367.00 C 870.87 368.61 868.62 370.58 866.59 372.76 C 864.83 371.00 862.91 369.15 862.73 366.50 C 862.09 360.05 862.60 353.55 862.45 347.08 Z" />
</g>
<g id="#9eddf2ff">
<path fill="#9eddf2" opacity="1.00" d=" M 847.17 340.00 C 847.56 333.62 847.66 327.24 847.71 320.85 C 847.52 329.51 848.14 338.17 848.09 346.84 C 848.70 346.92 849.93 347.10 850.55 347.18 C 850.64 353.12 850.40 359.06 850.63 365.00 C 850.61 368.35 852.69 371.14 855.05 373.31 C 850.24 378.20 850.79 385.50 850.86 391.81 C 849.67 391.80 848.48 391.82 847.31 391.85 C 847.72 385.33 847.46 378.49 843.76 372.85 C 845.72 370.63 847.47 368.00 847.54 364.94 C 847.82 356.62 847.63 348.30 847.17 340.00 Z" />
</g>
<g id="#9ddbf4ff">
<path fill="#9ddbf4" opacity="1.00" d=" M 832.36 347.90 C 833.48 347.65 834.61 347.41 835.75 347.17 C 835.67 353.81 836.01 360.47 835.58 367.10 C 835.58 369.50 833.56 370.98 831.96 372.43 C 829.77 370.37 827.36 368.56 824.77 367.05 C 827.18 365.82 829.57 364.21 830.87 361.75 C 833.25 357.53 832.07 352.50 832.36 347.90 Z" />
</g>
<g id="#9ddbf1ff">
<path fill="#9ddbf1" opacity="1.00" d=" M 791.55 360.57 C 800.43 354.55 810.99 351.56 821.50 349.96 C 821.22 353.31 821.87 357.00 820.05 360.02 C 818.36 362.96 814.82 363.82 812.40 365.97 C 812.52 366.42 812.75 367.34 812.87 367.79 L 813.84 368.39 C 817.28 370.07 820.42 372.99 821.02 376.94 C 821.55 381.25 821.13 385.62 821.63 389.94 C 811.82 387.60 801.68 385.44 793.07 379.91 C 789.63 377.58 786.06 374.46 785.57 370.07 C 785.79 366.16 788.31 362.65 791.55 360.57 Z" />
<path fill="#9ddbf1" opacity="1.00" d=" M 876.72 349.66 C 887.97 351.40 899.59 354.14 908.94 360.99 C 911.88 363.41 915.20 366.96 914.38 371.10 C 913.28 374.95 910.18 377.93 906.84 379.96 C 897.84 385.58 887.33 388.02 877.03 389.98 C 877.39 384.33 875.61 378.01 878.98 372.98 C 880.13 370.97 882.11 369.69 883.95 368.38 C 884.44 368.04 885.40 367.38 885.89 367.04 C 884.38 363.92 880.41 363.31 878.77 360.32 C 876.59 357.20 876.80 353.27 876.72 349.66 Z" />
<path fill="#9ddbf1" opacity="1.00" d=" M 863.84 376.83 C 864.41 376.77 865.53 376.67 866.09 376.61 C 865.98 381.55 866.00 386.50 865.92 391.44 C 865.14 391.36 863.59 391.19 862.81 391.11 C 862.33 386.33 862.38 381.45 863.84 376.83 Z" />
</g>
<g id="#7cbae6ff">
<path fill="#7cbae6" opacity="1.00" d=" M 813.84 368.39 C 817.53 368.80 821.27 368.30 824.77 367.05 C 827.36 368.56 829.77 370.37 831.96 372.43 C 831.46 373.21 830.99 374.00 830.53 374.80 C 830.88 375.34 831.58 376.42 831.93 376.96 C 832.71 381.74 832.34 386.59 832.21 391.40 C 828.69 390.82 825.15 390.45 821.63 389.94 C 821.13 385.62 821.55 381.25 821.02 376.94 C 820.42 372.99 817.28 370.07 813.84 368.39 Z" />
<path fill="#7cbae6" opacity="1.00" d=" M 873.38 367.00 C 876.75 368.20 880.37 368.82 883.95 368.38 C 882.11 369.69 880.13 370.97 878.98 372.98 C 875.61 378.01 877.39 384.33 877.03 389.98 C 873.33 390.54 869.64 391.12 865.92 391.44 C 866.00 386.50 865.98 381.55 866.09 376.61 C 866.49 376.18 867.29 375.32 867.69 374.89 C 867.42 374.36 866.87 373.29 866.59 372.76 C 868.62 370.58 870.87 368.61 873.38 367.00 Z" />
<path fill="#7cbae6" opacity="1.00" d=" M 834.96 376.76 C 838.20 376.31 841.19 374.84 843.76 372.85 C 847.46 378.49 847.72 385.33 847.31 391.85 C 843.50 392.42 839.70 391.40 835.89 391.71 L 835.88 391.19 C 835.75 386.37 835.68 381.54 834.96 376.76 Z" />
<path fill="#7cbae6" opacity="1.00" d=" M 850.86 391.81 C 850.79 385.50 850.24 378.20 855.05 373.31 C 857.69 375.08 860.66 376.40 863.84 376.83 C 862.38 381.45 862.33 386.33 862.81 391.11 L 862.84 391.57 C 858.85 391.79 854.84 392.55 850.86 391.81 Z" />
</g>
</svg>
