<svg viewBox="0 0 1200 500" xmlns="http://www.w3.org/2000/svg"><path d="M742.29 117.24c6.52-6.3 16.28-6.46 24.75-5.7 3.34.4 6.73 1.03 9.78 2.51.19 3.5-1.83 6.84-1.84 10.42-6.71-1.09-14.04-2.89-20.55.04-6.04 2.94-7.68 10.4-7.8 16.52.02 6.3.35 13.58 5.25 18.19 4.01 3.86 9.96 2.41 14.96 2.38-.06-4.13.14-8.26.02-12.38-2.74.03-5.47.04-8.19.06-.17-3.72-.23-7.44.03-11.15 6.82.14 13.64.04 20.47.06-1.63 2.31-1.22 5.17-1.21 7.82.23 7.94-.28 15.91.35 23.84-5.27 2.94-11.3 4.06-17.29 3.64-8.41.51-17.79-2.52-22.27-10.09-3.8-5.72-4.23-12.77-4.87-19.4.46-9.32 1.23-19.9 8.41-26.76zm93.79-3.6c4.1-.22 8.21-.1 12.33-.11.07 7.37-.03 14.75.05 22.12 5.81.23 11.63.03 17.46.13.3-7.38.26-14.79 0-22.17 4.18-.17 8.37-.04 12.56-.14.09 19.7.15 39.4-.04 59.09-4.17-.11-8.35.04-12.52-.14.07-8.46.13-16.91.19-25.36-5.74-.02-11.49-.15-17.22.04l-.4.39c-.18 8.33.04 16.68-.09 25.02-4.12-.05-8.23.16-12.34-.17.18-19.57.15-39.14.02-58.7zm-46.92 1.64c4.79-2.32 10.78 2.44 9.53 7.65-.46 5.99-9.48 7.85-12.43 2.77-2.57-3.45-.93-8.69 2.9-10.42zm139.99-.28c2.97-.21 5.95-.15 8.94.03.65 5.83-.02 11.69.29 17.54.35.18 1.04.54 1.39.71l.89.44c5.85-3.21 13.8-3.9 19.35.31 4.9 4.1 5.62 11.05 5.87 17.02-.3 6.25-.51 13.18-4.47 18.35-2.89 3.81-7.99 4.32-12.4 4.07-3.98.21-7.85-1.22-11.12-3.41-.3.07-.91.22-1.21.29-2.47.72-5.03.88-7.56.75-.23-18.7-.21-37.4.03-56.1m10.71 28.91c-.18 5.77.09 11.55-.12 17.32 3.47 2.53 10.21 3.81 12.51-.81 1.31-4.84 1.56-10.15.12-15-1.52-5.3-9.42-4.97-12.51-1.51zm-130.7-23.14c4.07-.2 8.16-.03 12.24-.16.2 3.94.04 7.88.18 11.83 3.01-.03 6.03-.04 9.05.02.02 3.37.02 6.74-.01 10.11-3.03.06-6.05.05-9.07.05 0 5.78-.2 11.56.07 17.33.6 4.23 5.87 3.83 9.05 3.45.06 2.94.08 5.87.21 8.81-4.02 1.79-8.66 1.4-12.9.8-4.67-.94-7.99-5.17-8.47-9.8-.7-6.82-.12-13.7-.33-20.55-2.2.01-4.38-.06-6.57-.17.06-2.7.07-5.39.01-8.08 2.18-.71 4.42-1.24 6.67-1.76-.14-3.96-.08-7.92-.13-11.88zm75.06 11.97c4.2-.32 8.44-.33 12.65.01-.01 9.37-.58 18.84.29 28.17 2.17 4.6 8.12 2.52 11.65.84.08-9.24.15-18.49-.03-27.73 3.74-.06 7.49-.08 11.24.01.07 12.35.42 24.71.02 37.05-2.4.02-4.83.12-7.17-.42l-1.24-.44c-5.6 3.45-12.38 3.88-18.72 2.85-4.99-.93-8.4-5.79-8.45-10.73-.34-9.86.11-19.74-.24-29.61z" fill="#14161f"/><path d="M927.59 113.58c4.08-.01 8.18-.12 12.27.1-.22 6.53-.09 13.07-.09 19.6-.35-.17-1.04-.53-1.39-.71-.31-5.85.36-11.71-.29-17.54-2.99-.18-5.97-.24-8.94-.03-.24 18.7-.26 37.4-.03 56.1 2.53.13 5.09-.03 7.56-.75-.11.53-.33 1.57-.44 2.1-2.88.09-5.76-.01-8.62.1-.11-19.66.02-39.31-.03-58.97zm-141.95 18.98c3.96-.1 7.94-.2 11.9-.04.18.34.54 1.01.71 1.34-3.76-.11-7.53-.14-11.28.06-.09 12.37-.17 24.75.06 37.12 3.62.35 7.61-.61 10.9 1.35-4.06.15-8.12.06-12.17.06-.22-13.29 0-26.59-.12-39.89zm123.44.16c4.03-.33 8.09-.06 12.13-.14.02 13.27-.07 26.53.02 39.8-2.62.11-5.25.29-7.87.1-.12-.45-.37-1.36-.49-1.81 2.34.54 4.77.44 7.17.42.4-12.34.05-24.7-.02-37.05-3.75-.09-7.5-.07-11.24-.01l.3-1.31zm-131.12 13.29c-.01-2.65-.42-5.51 1.21-7.82.19 10.27.28 20.57-.03 30.83l-.83.83c-.63-7.93-.12-15.9-.35-23.84zm52.55 160.78c12.35.86 24.8.74 37.17.05 3.67 3.19 7.04 7.09 8 12.02-3.01-2.15-4.79-5.76-8.3-7.22-5.16-2.21-10.88-2.55-16.42-2.52-8.26.12-16.66-.17-24.68 2.14 1.28-1.61 2.71-3.08 4.23-4.47z" fill="#02030a"/><path fill="#14161e" d="M786.97 133.92c3.75-.2 7.52-.17 11.28-.06-.44 12.84.21 25.7-.32 38.53-3.29-1.96-7.28-1-10.9-1.35-.23-12.37-.15-24.75-.06-37.12z"/><g fill="#fff"><path d="M818.33 256.45c3.38-.88 6.94.53 9.01 3.29 5.68 7.26 5.33 18.8-1.25 25.39-3.43 3.35-9.41 2.65-12.26-1.08-5-6.06-5.36-15.15-1.8-22 1.42-2.46 3.54-4.71 6.3-5.6m-2.21 8.17l.84.31c.66.17 1.98.52 2.64.69 1.7.83.56 2.67-.1 3.78h-1.91a14.69 14.69 0 0 0-1.79-2.4c-2 .07-1.04 2.72-1.44 3.98-.74 5.04 2.56 12.5 8.63 11.21 7.44-3.42 7.68-15.99.79-20.15-2.81-1.57-5.89.38-7.66 2.58zm60.16-8.19c4.48-1.31 8.51 1.93 10.57 5.63 3.28 6.49 3.16 14.87-.99 20.96-2.39 3.44-7.33 5.67-11.22 3.33-5.66-3.13-7.52-10.28-6.97-16.33.28-5.52 3.14-11.59 8.61-13.59m-1.87 5.92c-6.3 4.63-5.93 16.68 1.54 19.97 6.44.88 9.32-7.1 8.4-12.31-.26-4.65-4.9-10.77-9.94-7.66z"/><path d="M873.27 268.75c-.05-1.37-.15-3.33 1.76-3.35 1.8-.04 1.72 1.98 1.77 3.28-1.19.05-2.36.07-3.53.07zm-25.56 52.1c.81-2.23 3.26-.6 2.85 1.2.02 8.37-.01 16.75-.01 25.13-.62-.08-1.85-.26-2.46-.34.05-8.67-.57-17.33-.38-25.99zm-12.39 1.62c.95 8.18.09 16.47.43 24.7-1.14.24-2.27.48-3.39.73.7-8.43-2.01-17.91 2.96-25.43zm27.23.31c1.59 2.05 2.83 4.43 3 7.07.59 6.03.18 12.09.27 18.14-1.14-.29-2.25-.62-3.37-.91.09-8.1-.09-16.21.1-24.3z"/></g><path d="M445.52 148.68c6.06-1.27 13.27-.75 17.91 3.79 6.44 7.43 5.35 21.21-3.78 26.01-6.2 2.72-14.12 2.61-19.66-1.55-5.51-4.78-6.47-13.28-4.08-19.87 1.38-4.31 5.3-7.36 9.61-8.38zm56.36 16.88c5.71 0 11.41-.07 17.12.05-.12 9.07-.27 18.16.08 27.22 8.91.64 17.87.15 26.81.27.02 6.02.02 12.04-.01 18.07-8.99-.05-17.98.02-26.97-.05-.02 14.97-.02 29.94 0 44.9.12 4.54.74 10.39 5.57 12.39 7 2.5 14.68.61 21.51-1.64 1.61 5.28 3.17 10.57 4.87 15.83-12.4 5.51-26.33 8.92-39.88 6.29-5.56-1.11-11.19-3.61-14.49-8.42-3.59-5.43-4.63-12.12-4.75-18.51.01-16.92-.01-33.83.02-50.75-4.75-.13-9.5-.04-14.24-.05.07-5.43-.18-10.85.13-16.27 7.15-.43 14.73-3.43 18.63-9.75 3.71-5.82 4.92-12.82 5.6-19.58zm-160.85 35.43c12.99-7.32 28.78-7 43-4.34 11.64-.01 23.28-.08 34.92.03-.09 5.11-.05 10.22-.03 15.34-5.49.46-10.98.86-16.47 1.2 1.89 3.27 4.11 6.41 5.23 10.06 3.34 11.02.15 24.12-8.88 31.56-11.83 9.45-28.41 10.48-42.7 7.18-2.02 3.21-4.01 6.43-6.1 9.61 15.66 1.74 31.56 1.27 47.08 4.3 7.4 1.54 15.64 4.88 18.57 12.49 3.27 8.68 2.74 19.09-2.29 27.02-3.8 5.94-9.94 10-16.43 12.51-10.45 4-21.78 4.83-32.86 4.47-7.71.06-15.44-.76-22.9-2.71-5.85-1.64-11.91-4.2-15.48-9.37-3.1-4.74-3.98-10.91-2.18-16.31 1.45-5.1 5.3-9 9.1-12.5-2.94-1.69-5.97-3.72-7.04-7.13-2.49-5.49.13-11.72 4.1-15.74 3.74-3.74 7.32-7.66 11.41-11-2.83-2.12-5.95-3.92-8.21-6.69-12.41-14.61-8.84-40.4 8.16-49.98m22.11 12.28c-5.65 1.02-10.44 5.52-11.53 11.2-.83 5.12-.92 11.11 2.7 15.25 4.13 4.7 11.01 5.64 16.9 4.9 5.75-.64 11.45-4.26 13.27-9.96 1.99-6.74.64-15.43-5.71-19.42-4.64-2.75-10.44-3.17-15.63-1.97m-19.2 93.71c.35 4.03 4.46 6.19 7.97 7.1 6.85 1.72 14.01 1.73 21.02 1.29 5.39-.56 11.49-.81 15.64-4.79 2.25-1.97 2.83-5.35 1.87-8.1-1.59-3.01-5.25-3.55-8.28-3.97-11.13-.94-22.29-1.42-33.41-2.46-2.57 3.06-5.38 6.66-4.81 10.93zm83.6-97.58c1.09-4.72 1.16-9.61 2.26-14.32 12.37.1 24.74 0 37.11.04-.02 24.97-.01 49.94 0 74.9.22 1.13-.28 3.08 1.13 3.58 3.62 1.2 7.55.77 11.16 2.04-.18 4.57-.07 9.14-.04 13.72-17.21.05-34.42.02-51.63.01 0-4.62-.01-9.23-.06-13.84 3.9-1.41 8.95-.11 12.18-2.86.24-18.19-.01-36.4.12-54.6-.13-1.48.38-3.56-1.17-4.45-3.54-1.77-7.44-2.63-11.06-4.22z" fill="#3e2c00"/><path fill="#f15034" d="M182.54 151.57c4.65-4.53 12.83-4.1 17.15.69 27.46 27.55 54.93 55.09 82.39 82.63 4.65 4.47 4.79 12.79-.01 17.21-26.05 26.27-52.24 52.42-78.35 78.64-2.91 2.75-5.5 6.35-9.65 7.23-4.42 1.16-9.2-.5-12.15-3.92-27.48-27.51-54.95-55.02-82.37-82.58-4.51-4.31-4.66-11.81-.38-16.32 14.74-14.92 29.63-29.69 44.4-44.57 4.42-4.22 8.42-8.89 13.12-12.8 6.81 7.22 14.08 13.98 20.91 21.18-.99 3.68-1.42 7.71.11 11.32 1.39 3.68 4.55 6.29 7.85 8.22.14 17.24.24 34.48-.05 51.71-5.73 2.9-9.81 9.15-8.71 15.72.7 7.05 7.17 12.71 14.18 12.83 7.63.38 14.77-6.13 15.08-13.77.59-5.85-2.89-11.48-7.97-14.22-.33-16.99-.19-34.01-.07-51.02 6.65 6.09 12.94 12.59 19.16 19.11-3.75 8.76 3.03 20.14 12.76 20.08 9.04 1.1 17.29-7.97 15.54-16.86-1.04-8.47-10.74-14.9-18.85-11.72-7.26-6.48-13.87-13.68-20.78-20.52-.23-3.8.94-7.99-1.2-11.53-2.96-6.71-11-9.72-17.87-7.74-7.38-7.01-14.36-14.43-21.65-21.53 5.77-5.85 11.55-11.71 17.41-17.47z"/><path d="M790.49 223.36c-3.55-9.27-2.58-19.88 1.29-28.9 10.84-.22 20.43 5.71 29.26 11.33 3.01-.01 5.89-1.14 8.85-1.62 14.28-2.66 29.15-2.27 43.26 1.24 8.9-5.23 18.31-11.33 29.09-10.91 3.38 8.57 4.51 18.18 1.88 27.12 6.84 6.71 11.36 15.78 12.3 25.34 1.01 10.12-.15 20.3-1.84 30.28 7.84.26 15.68-.16 23.5-.33 4.21 1.24 8.66.28 12.85 1.53 4.78.27 9.61.77 14.18 2.3-7.43-.88-14.79-2.47-22.28-2.5-2.93-.58-5.88-1.16-8.88-.83-6.62.63-13.27.31-19.89.17-.5 1.53-.86 3.1-1.07 4.7 4.77.73 9.59.08 14.38.52 5.58.6 11.15 1.31 16.66 2.42 6.78.89 13.83 1.74 20.09 4.59-4.39-.88-8.6-2.45-13.04-3.09-10.67-1.37-21.26-4.08-32.1-3.52-2.25.28-4.54-.89-6.69-.39-3.61 8.12-10.42 14.5-18.56 17.97-8.23 3.57-17.14 5.35-26.05 6.06-12.37.69-24.82.81-37.17-.05-12.63-1.25-25.68-4.45-35.8-12.48-4.1-3.13-7.11-7.39-9.69-11.8-4.6 1.22-9.37.32-14.05.8-9.39.86-18.63 2.79-27.95 4.18-3.12.75-6.11 2.05-9.35 2.23 6.51-2.4 13.39-3.71 20.28-4.42 10.05-2.31 20.36-2.75 30.62-2.89-.42-1.66-.88-3.29-1.54-4.85-6.01.24-12.02.26-18.03.11-10.5.35-20.92 1.15-31.25 3.09 4.79-2.29 10.4-1.61 15.46-2.83 11.06-.66 22.18-.72 33.28-.71-2.91-10.15-4-20.81-2.83-31.32 1.09-8.43 5.18-16.26 10.83-22.54m13.43 30.8c-11.66 10.76-8.74 32.12 4.38 40.45 9.41 5.97 20.89 6.91 31.73 7.52 10.97.29 21.98.33 32.89-.95 7.35-1.14 15.13-3.21 20.38-8.83 4.93-5.13 6.66-12.43 7.01-19.35.48-5.68-1.12-11.69-4.86-16.03-3.61-6.58-11.15-9.91-18.42-10.03-12.39-.34-24.76 2.13-37.15.86-7.64-.2-15.31-1.64-22.93-.47-4.94.59-10.19 2.51-13.03 6.83zm-30.59 50.5c.33-1.55 2.16-2.16 3.59-2.05 6.3-.26 12 3.85 15.36 8.93 2.24 3.15 4.16 7.13 8.09 8.44-.77 1.05-1.53 2.11-2.25 3.19 1 .98 2.23 1.47 3.64 1.52-.04-1.21-.11-2.42-.2-3.62 1.49.72 2.98 1.43 4.45 2.1-.15.88-.63 1.5-1.45 1.87.7 1.47 2.67 2.03 3.83.7-.08-.42-.23-1.26-.31-1.68 1.51-.73 3.14-1.04 4.9-.95-2.05 2.26-.28 4.47 2.21 3.13 1.33-1.64-1.26-2.07-2.34-2.25 2.43-2.37 6.93-1.25 9.35-4 1.01-3.02 2.12-6.02 3.89-8.69l.19-.04c8.02-2.31 16.42-2.02 24.68-2.14 5.54-.03 11.26.31 16.42 2.52 3.51 1.46 5.29 5.07 8.3 7.22l.4.33c1 10.13.22 20.32.64 30.47.08 3.61-.13 7.54 2.05 10.66 1.64 2.99 5.61 3.6 7.12 6.72-.49.34-1.45 1-1.94 1.34-3.58.44-7.2-.18-10.57-1.38-2.67-1.29-5.24-3.17-6.4-5.99-1.74-4.12-1.06-8.68-1.16-13.02-.09-6.05.32-12.11-.27-18.14-.17-2.64-1.41-5.02-3-7.07-.19 8.09-.01 16.2-.1 24.3.15 6.47-.36 12.97.28 19.42.18 2.65 2.1 4.5 3.86 6.26.28.53.83 1.6 1.1 2.13l-1.6 1.72c-.56.06-1.68.16-2.25.22-3.18-.43-6.15-1.75-8.79-3.52-2.36-2.17-4.44-4.96-4.42-8.31-.23-5.94.01-11.88-.08-17.82 0-8.38.03-16.76.01-25.13.41-1.8-2.04-3.43-2.85-1.2-.05 6.39-.15 12.77-.54 19.15.46 8.3.65 16.62.37 24.94-.07 3.06-1.82 5.69-3.78 7.91-2.57 1.99-5.56 3.46-8.8 3.91l-3.03.2-1.4-2.16c.46-.8.93-1.59 1.43-2.37 1.6-1.45 3.62-2.93 3.62-5.33.43-6.63.09-13.29.17-19.93-.34-8.23.52-16.52-.43-24.7-4.97 7.52-2.26 17-2.96 25.43-.29 4.6.89 9.63-1.49 13.85-1.3 2.46-3.69 4.07-6.1 5.3-3.5 1.25-7.24 1.75-10.93 1.34l-.97-.6c-.12-.45-.35-1.37-.47-1.82 2.42-2.15 5.96-3.01 7.65-5.95 1.82-3.02 1.17-6.71 1.45-10.06.2-5.67.18-11.35.04-17.02-8.57 1.39-18.33 1.92-25.54-3.8-6.78-4.63-8.26-13.62-14.55-18.68-2.57-2.12-6.19-2.95-8.12-5.8m8.81.47c-.42 1.58.2 2.16 1.85 1.72.4-1.6-.21-2.18-1.85-1.72m3.43 2.94c-.58 1.25 1.37 2.72 2.46 1.86.93-1.35-1.43-3.03-2.46-1.86m3.99 4.18c-.91 1.3.9 3.52 2.34 2.65 1.29-1.32-.93-4.04-2.34-2.65m3.8 5.18c-.56 1.9 2.86 4.6 3.43 1.69-.66-1.27-1.95-2.74-3.43-1.69m25.68 5.53c-.62 1.67-.11 2.21 1.53 1.65.58-1.68.07-2.23-1.53-1.65z" fill="#21201f"/><path fill="#c79d8b" d="M803.92 254.16c2.84-4.32 8.09-6.24 13.03-6.83 7.62-1.17 15.29.27 22.93.47 12.39 1.27 24.76-1.2 37.15-.86 7.27.12 14.81 3.45 18.42 10.03-3.46-2.27-6.22-5.83-10.43-6.75-6.32-1.61-12.93-1.03-19.36-.61a127.45 127.45 0 0 1-32.71.16c-5.51-.52-11.07-.83-16.59-.34-4.51.41-8.53 2.63-12.44 4.73z"/><path fill="#f3cbb2" d="M816.36 249.43c5.52-.49 11.08-.18 16.59.34a127.45 127.45 0 0 0 32.71-.16c6.43-.42 13.04-1 19.36.61 4.21.92 6.97 4.48 10.43 6.75 3.74 4.34 5.34 10.35 4.86 16.03-.35 6.92-2.08 14.22-7.01 19.35-5.25 5.62-13.03 7.69-20.38 8.83-10.91 1.28-21.92 1.24-32.89.95-10.84-.61-22.32-1.55-31.73-7.52-13.12-8.33-16.04-29.69-4.38-40.45 3.91-2.1 7.93-4.32 12.44-4.73m1.97 7.02c-2.76.89-4.88 3.14-6.3 5.6-3.56 6.85-3.2 15.94 1.8 22 2.85 3.73 8.83 4.43 12.26 1.08 6.58-6.59 6.93-18.13 1.25-25.39-2.07-2.76-5.63-4.17-9.01-3.29m57.95-.02c-5.47 2-8.33 8.07-8.61 13.59-.55 6.05 1.31 13.2 6.97 16.33 3.89 2.34 8.83.11 11.22-3.33 4.15-6.09 4.27-14.47.99-20.96-2.06-3.7-6.09-6.94-10.57-5.63m-29.04 26.89c-3.38 1.79.63 7.08 3.22 4.24 2.49-1.94-.66-6.25-3.22-4.24m-5.09 7.77c.31 1.94 1.21 3.82 3 4.82 3.6 2.64 10.43-.15 9.58-5.05-2.31 1.4-3.46 5.15-6.8 4.12-2.74.01-3.28-3.45-5.78-3.89z"/><path d="M816.12 264.62c1.77-2.2 4.85-4.15 7.66-2.58 6.89 4.16 6.65 16.73-.79 20.15-6.07 1.29-9.37-6.17-8.63-11.21.4-1.26-.56-3.91 1.44-3.98.67.73 1.27 1.53 1.79 2.4h1.91c.66-1.11 1.8-2.95.1-3.78-.66-.17-1.98-.52-2.64-.69l-.84-.31zm58.29-2.27c5.04-3.11 9.68 3.01 9.94 7.66.92 5.21-1.96 13.19-8.4 12.31-7.47-3.29-7.84-15.34-1.54-19.97m-1.14 6.4c1.17 0 2.34-.02 3.53-.07-.05-1.3.03-3.32-1.77-3.28-1.91.02-1.81 1.98-1.76 3.35zm-26.03 14.57c2.56-2.01 5.71 2.3 3.22 4.24-2.59 2.84-6.6-2.45-3.22-4.24zm-5.09 7.77c2.5.44 3.04 3.9 5.78 3.89 3.34 1.03 4.49-2.72 6.8-4.12.85 4.9-5.98 7.69-9.58 5.05-1.79-1-2.69-2.88-3-4.82z" fill="#ac5b50"/><path fill="#95b5c2" d="M782.14 305.13c1.64-.46 2.25.12 1.85 1.72-1.65.44-2.27-.14-1.85-1.72z"/><path d="M785.57 308.07c1.03-1.17 3.39.51 2.46 1.86-1.09.86-3.04-.61-2.46-1.86zm7.79 9.36c1.48-1.05 2.77.42 3.43 1.69-.57 2.91-3.99.21-3.43-1.69zm25.68 5.53c1.6-.58 2.11-.03 1.53 1.65-1.64.56-2.15.02-1.53-1.65zm12.89 54l3.03-.2c.72 4.78.79 9.61.92 14.43-1.23.03-2.45.1-3.67.21.13-4.81.5-9.66-.28-14.44z" fill="#9fddf2"/><path fill="#a1daf0" d="M775.44 311.51c1.19.46 2.07 3.87.48 4.55-1.84-.57-1.46-3.36-.48-4.55z"/><path d="M789.56 312.25c1.41-1.39 3.63 1.33 2.34 2.65-1.44.87-3.25-1.35-2.34-2.65zm72.89 34.83c1.12.29 2.23.62 3.37.91.1 4.34-.58 8.9 1.16 13.02 1.16 2.82 3.73 4.7 6.4 5.99-2.51 1.61-4.76 3.58-6.79 5.76-1.76-1.76-3.68-3.61-3.86-6.26-.64-6.45-.13-12.95-.28-19.42z" fill="#9eddf5"/><path fill="#9eddf2" d="M847.17 340c.39-6.38.49-12.76.54-19.15-.19 8.66.43 17.32.38 25.99.61.08 1.84.26 2.46.34.09 5.94-.15 11.88.08 17.82-.02 3.35 2.06 6.14 4.42 8.31-4.81 4.89-4.26 12.19-4.19 18.5-1.19-.01-2.38.01-3.55.04.41-6.52.15-13.36-3.55-19 1.96-2.22 3.71-4.85 3.78-7.91.28-8.32.09-16.64-.37-24.94z"/><path fill="#9ddbf4" d="M832.36 347.9c1.12-.25 2.25-.49 3.39-.73-.08 6.64.26 13.3-.17 19.93 0 2.4-2.02 3.88-3.62 5.33-2.19-2.06-4.6-3.87-7.19-5.38 2.41-1.23 4.8-2.84 6.1-5.3 2.38-4.22 1.2-9.25 1.49-13.85z"/><path d="M791.55 360.57c8.88-6.02 19.44-9.01 29.95-10.61-.28 3.35.37 7.04-1.45 10.06-1.69 2.94-5.23 3.8-7.65 5.95.12.45.35 1.37.47 1.82l.97.6c3.44 1.68 6.58 4.6 7.18 8.55.53 4.31.11 8.68.61 13-9.81-2.34-19.95-4.5-28.56-10.03-3.44-2.33-7.01-5.45-7.5-9.84.22-3.91 2.74-7.42 5.98-9.5zm85.17-10.91c11.25 1.74 22.87 4.48 32.22 11.33 2.94 2.42 6.26 5.97 5.44 10.11-1.1 3.85-4.2 6.83-7.54 8.86-9 5.62-19.51 8.06-29.81 10.02.36-5.65-1.42-11.97 1.95-17 1.15-2.01 3.13-3.29 4.97-4.6.49-.34 1.45-1 1.94-1.34-1.51-3.12-5.48-3.73-7.12-6.72-2.18-3.12-1.97-7.05-2.05-10.66zm-12.88 27.17c.57-.06 1.69-.16 2.25-.22-.11 4.94-.09 9.89-.17 14.83-.78-.08-2.33-.25-3.11-.33-.48-4.78-.43-9.66 1.03-14.28z" fill="#9ddbf1"/><path d="M813.84 368.39c3.69.41 7.43-.09 10.93-1.34 2.59 1.51 5 3.32 7.19 5.38-.5.78-.97 1.57-1.43 2.37l1.4 2.16c.78 4.78.41 9.63.28 14.44-3.52-.58-7.06-.95-10.58-1.46-.5-4.32-.08-8.69-.61-13-.6-3.95-3.74-6.87-7.18-8.55zm59.54-1.39c3.37 1.2 6.99 1.82 10.57 1.38-1.84 1.31-3.82 2.59-4.97 4.6-3.37 5.03-1.59 11.35-1.95 17-3.7.56-7.39 1.14-11.11 1.46.08-4.94.06-9.89.17-14.83l1.6-1.72c-.27-.53-.82-1.6-1.1-2.13 2.03-2.18 4.28-4.15 6.79-5.76zm-38.42 9.76c3.24-.45 6.23-1.92 8.8-3.91 3.7 5.64 3.96 12.48 3.55 19-3.81.57-7.61-.45-11.42-.14l-.01-.52c-.13-4.82-.2-9.65-.92-14.43zm15.9 15.05c-.07-6.31-.62-13.61 4.19-18.5 2.64 1.77 5.61 3.09 8.79 3.52-1.46 4.62-1.51 9.5-1.03 14.28l.03.46c-3.99.22-8 .98-11.98.24z" fill="#7cbae6"/></svg>