<?xml version="1.0" encoding="UTF-8" ?>
<!DOCTYPE svg PUBLIC "-//W3C//DTD SVG 1.1//EN" "http://www.w3.org/Graphics/SVG/1.1/DTD/svg11.dtd">
<svg viewBox="0 0 220 92" version="1.1" xmlns="http://www.w3.org/2000/svg">
<g id="#413932ff">
<path fill="#413932" opacity="1.00" d=" M 166.51 0.00 L 175.00 0.00 C 179.13 2.22 179.71 7.43 178.28 11.47 C 176.09 16.00 169.69 16.40 165.71 14.22 C 161.01 10.94 161.57 2.84 166.51 0.00 Z" />
<path fill="#413932" opacity="1.00" d=" M 195.58 8.74 C 198.36 8.75 201.14 8.76 203.93 8.77 C 204.01 13.31 203.99 17.85 203.99 22.39 C 208.47 22.61 212.97 22.69 217.46 22.59 C 217.45 25.60 217.45 28.61 217.46 31.61 C 212.98 31.61 208.49 31.61 204.01 31.61 C 204.04 38.76 203.88 45.92 204.02 53.07 C 204.19 55.30 204.13 58.18 206.36 59.46 C 209.80 61.05 213.65 59.60 217.16 58.98 C 218.01 61.15 218.95 63.27 220.00 65.36 L 220.00 66.76 C 212.88 69.77 204.65 71.76 197.11 69.11 C 192.86 67.67 190.57 63.17 190.44 58.90 C 190.19 49.84 190.52 40.78 190.31 31.72 C 188.02 31.66 185.73 31.61 183.45 31.58 C 183.45 29.01 183.44 26.43 183.43 23.85 C 186.36 22.87 189.67 22.19 191.73 19.68 C 194.38 16.66 194.72 12.48 195.58 8.74 Z" />
<path fill="#413932" opacity="1.00" d=" M 117.14 24.99 C 122.72 21.49 129.64 21.26 136.00 22.01 C 142.83 23.08 149.76 22.47 156.64 22.57 C 156.69 25.15 156.68 27.73 156.78 30.31 C 154.15 30.44 151.53 30.56 148.90 30.67 C 151.64 35.13 152.57 40.70 150.76 45.68 C 149.10 50.08 145.05 53.18 140.65 54.55 C 135.67 56.26 130.32 55.76 125.20 55.16 C 124.35 56.58 123.51 58.00 122.68 59.42 C 129.77 59.89 136.89 60.14 143.94 61.09 C 147.87 61.71 152.32 62.86 154.48 66.56 C 157.88 72.64 155.98 81.21 150.06 85.03 C 142.47 90.24 132.78 89.67 124.02 89.30 C 118.60 88.74 111.72 87.53 109.23 81.98 C 107.26 77.35 109.74 72.63 113.01 69.38 C 110.28 67.28 108.47 63.56 110.37 60.29 C 112.24 57.38 114.93 55.07 117.34 52.60 C 107.62 46.94 107.75 30.86 117.14 24.99 M 127.29 31.31 C 121.43 33.66 121.46 44.39 128.03 45.77 C 133.23 47.82 140.41 44.06 139.66 37.98 C 139.99 31.72 132.29 28.74 127.29 31.31 M 119.36 77.01 C 120.73 80.33 124.84 80.63 127.94 80.85 C 132.08 80.92 136.52 81.16 140.33 79.27 C 142.60 78.28 143.49 74.27 140.61 73.49 C 134.43 71.89 127.91 72.72 121.63 71.67 C 120.71 73.36 119.17 74.95 119.36 77.01 Z" />
<path fill="#413932" opacity="1.00" d=" M 160.03 22.63 C 166.24 22.58 172.45 22.64 178.66 22.57 C 178.79 34.75 178.59 46.94 178.73 59.11 C 178.42 62.53 182.61 61.35 184.64 61.87 C 184.71 64.31 184.79 66.74 184.93 69.18 C 176.27 69.20 167.62 69.19 158.97 69.18 C 159.01 66.75 159.04 64.32 159.11 61.88 C 161.01 61.73 162.91 61.56 164.81 61.40 C 165.59 52.28 165.11 43.09 165.14 33.95 C 165.36 30.81 161.19 31.02 159.17 29.95 C 159.46 27.51 159.76 25.07 160.03 22.63 Z" />
</g>
<g id="#f74e28ff">
<path fill="#f74e28" opacity="1.00" d=" M 41.95 1.86 C 44.64 -0.45 48.88 0.18 51.23 2.66 C 63.50 14.75 75.59 27.01 87.85 39.10 C 89.70 40.98 91.91 43.11 91.63 46.00 C 91.82 48.33 90.16 50.09 88.66 51.62 C 76.44 63.75 64.25 75.93 52.06 88.10 C 50.43 89.72 48.42 91.34 45.98 91.26 C 43.28 91.31 41.26 89.24 39.47 87.50 C 27.20 75.15 14.79 62.94 2.55 50.57 C -0.28 47.96 -0.05 43.28 2.78 40.78 C 11.52 31.87 20.52 23.22 29.22 14.27 C 32.76 17.38 36.07 20.72 39.39 24.06 C 38.66 27.67 40.09 31.05 43.11 33.10 C 43.15 41.67 43.18 50.24 43.10 58.80 C 39.90 60.92 37.90 65.23 40.21 68.74 C 42.85 73.77 51.56 72.61 52.60 66.94 C 53.64 63.59 51.52 60.78 49.06 58.82 C 49.04 50.48 49.03 42.14 49.07 33.79 C 52.30 36.89 55.45 40.06 58.62 43.22 C 58.42 45.99 58.52 49.20 60.93 51.06 C 64.67 54.47 71.56 52.11 72.12 46.96 C 73.06 41.92 67.81 38.09 63.11 39.33 C 59.63 35.91 56.20 32.44 52.73 29.02 C 52.67 26.59 53.03 23.75 51.00 21.95 C 49.18 19.69 46.06 20.20 43.53 19.60 C 40.10 16.66 36.89 13.40 33.97 9.94 C 36.32 6.98 39.12 4.37 41.95 1.86 Z" />
</g>
</svg>
