<svg viewBox="0 0 220 92" xmlns="http://www.w3.org/2000/svg"><path d="M166.51 0H175c4.13 2.22 4.71 7.43 3.28 11.47-2.19 4.53-8.59 4.93-12.57 2.75-4.7-3.28-4.14-11.38.8-14.22zm29.07 8.74l8.35.03c.08 4.54.06 9.08.06 13.62 4.48.22 8.98.3 13.47.2-.01 3.01-.01 6.02 0 9.02h-13.45c.03 7.15-.13 14.31.01 21.46.17 2.23.11 5.11 2.34 6.39 3.44 1.59 7.29.14 10.8-.48.85 2.17 1.79 4.29 2.84 6.38v1.4c-7.12 3.01-15.35 5-22.89 2.35-4.25-1.44-6.54-5.94-6.67-10.21-.25-9.06.08-18.12-.13-27.18a526.8 526.8 0 0 0-6.86-.14c0-2.57-.01-5.15-.02-7.73 2.93-.98 6.24-1.66 8.3-4.17 2.65-3.02 2.99-7.2 3.85-10.94zm-78.44 16.25c5.58-3.5 12.5-3.73 18.86-2.98 6.83 1.07 13.76.46 20.64.56.05 2.58.04 5.16.14 7.74-2.63.13-5.25.25-7.88.36 2.74 4.46 3.67 10.03 1.86 15.01-1.66 4.4-5.71 7.5-10.11 8.87-4.98 1.71-10.33 1.21-15.45.61-.85 1.42-1.69 2.84-2.52 4.26 7.09.47 14.21.72 21.26 1.67 3.93.62 8.38 1.77 10.54 5.47 3.4 6.08 1.5 14.65-4.42 18.47-7.59 5.21-17.28 4.64-26.04 4.27-5.42-.56-12.3-1.77-14.79-7.32-1.97-4.63.51-9.35 3.78-12.6-2.73-2.1-4.54-5.82-2.64-9.09 1.87-2.91 4.56-5.22 6.97-7.69-9.72-5.66-9.59-21.74-.2-27.61m10.15 6.32c-5.86 2.35-5.83 13.08.74 14.46 5.2 2.05 12.38-1.71 11.63-7.79.33-6.26-7.37-9.24-12.37-6.67m-7.93 45.7c1.37 3.32 5.48 3.62 8.58 3.84 4.14.07 8.58.31 12.39-1.58 2.27-.99 3.16-5 .28-5.78-6.18-1.6-12.7-.77-18.98-1.82-.92 1.69-2.46 3.28-2.27 5.34zm40.67-54.38c6.21-.05 12.42.01 18.63-.06.13 12.18-.07 24.37.07 36.54-.31 3.42 3.88 2.24 5.91 2.76.07 2.44.15 4.87.29 7.31-8.66.02-17.31.01-25.96 0 .04-2.43.07-4.86.14-7.3 1.9-.15 3.8-.32 5.7-.48.78-9.12.3-18.31.33-27.45.22-3.14-3.95-2.93-5.97-4 .29-2.44.59-4.88.86-7.32z" fill="#413932"/><path fill="#f74e28" d="M41.95 1.86c2.69-2.31 6.93-1.68 9.28.8C63.5 14.75 75.59 27.01 87.85 39.1c1.85 1.88 4.06 4.01 3.78 6.9.19 2.33-1.47 4.09-2.97 5.62-12.22 12.13-24.41 24.31-36.6 36.48-1.63 1.62-3.64 3.24-6.08 3.16-2.7.05-4.72-2.02-6.51-3.76C27.2 75.15 14.79 62.94 2.55 50.57c-2.83-2.61-2.6-7.29.23-9.79 8.74-8.91 17.74-17.56 26.44-26.51 3.54 3.11 6.85 6.45 10.17 9.79-.73 3.61.7 6.99 3.72 9.04.04 8.57.07 17.14-.01 25.7-3.2 2.12-5.2 6.43-2.89 9.94 2.64 5.03 11.35 3.87 12.39-1.8 1.04-3.35-1.08-6.16-3.54-8.12-.02-8.34-.03-16.68.01-25.03 3.23 3.1 6.38 6.27 9.55 9.43-.2 2.77-.1 5.98 2.31 7.84 3.74 3.41 10.63 1.05 11.19-4.1.94-5.04-4.31-8.87-9.01-7.63-3.48-3.42-6.91-6.89-10.38-10.31-.06-2.43.3-5.27-1.73-7.07-1.82-2.26-4.94-1.75-7.47-2.35-3.43-2.94-6.64-6.2-9.56-9.66 2.35-2.96 5.15-5.57 7.98-8.08z"/></svg>