<?xml version="1.0" encoding="UTF-8" ?>
<!DOCTYPE svg PUBLIC "-//W3C//DTD SVG 1.1//EN" "http://www.w3.org/Graphics/SVG/1.1/DTD/svg11.dtd">
<svg viewBox="0 0 1101 450" version="1.1" xmlns="http://www.w3.org/2000/svg">
<g id="#ffffffff">
<path fill="#ffffff" opacity="1.00" d=" M 196.41 143.50 C 202.54 141.29 209.46 143.47 214.17 147.69 C 220.56 153.31 223.85 161.63 225.23 169.86 C 226.71 180.77 225.03 192.49 218.73 201.72 C 214.96 207.23 208.92 211.84 202.00 211.82 C 195.51 212.09 189.59 208.16 185.77 203.18 C 176.63 190.98 175.47 173.89 180.90 159.90 C 183.76 152.81 188.92 146.00 196.41 143.50 M 199.37 155.55 C 194.67 157.62 191.53 162.11 189.76 166.78 C 186.65 175.27 187.26 185.20 191.91 193.01 C 194.44 197.26 198.89 200.91 204.07 200.73 C 208.88 200.77 213.07 197.48 215.56 193.58 C 219.89 187.02 220.66 178.73 219.32 171.14 C 218.13 165.49 215.35 159.83 210.40 156.59 C 207.20 154.42 202.91 153.94 199.37 155.55 Z" />
<path fill="#ffffff" opacity="1.00" d=" M 325.38 143.48 C 331.31 141.37 338.02 143.34 342.68 147.35 C 349.55 153.17 353.00 162.04 354.27 170.76 C 355.57 181.60 353.69 193.24 347.24 202.27 C 343.51 207.51 337.61 211.79 330.97 211.82 C 324.52 212.08 318.58 208.25 314.75 203.30 C 305.81 191.46 304.50 174.98 309.32 161.21 C 312.04 153.57 317.42 146.15 325.38 143.48 M 323.46 155.62 C 313.69 160.58 311.03 173.06 312.55 183.08 C 313.60 189.24 316.49 195.62 322.00 199.00 C 326.26 201.74 332.16 201.14 335.97 197.88 C 341.78 193.09 344.06 185.27 344.25 178.00 C 344.19 170.84 342.12 163.23 336.76 158.20 C 333.31 154.90 327.88 153.45 323.46 155.62 Z" />
<path fill="#ffffff" opacity="1.00" d=" M 195.15 163.18 C 198.46 161.21 202.83 165.10 201.56 168.64 C 200.72 172.01 195.83 173.05 193.67 170.36 C 191.57 168.21 192.42 164.33 195.15 163.18 Z" />
<path fill="#ffffff" opacity="1.00" d=" M 321.42 163.63 C 323.55 162.41 326.39 163.81 327.14 166.05 C 328.54 169.33 324.07 173.02 321.14 170.88 C 318.30 169.47 318.53 164.87 321.42 163.63 Z" />
<path fill="#ffffff" opacity="1.00" d=" M 262.35 287.06 C 261.98 284.12 266.17 283.32 267.83 285.15 C 268.88 286.09 268.55 287.69 268.72 288.95 C 268.71 307.37 268.64 325.80 268.68 344.23 C 266.53 344.24 264.39 344.25 262.25 344.27 C 262.33 325.20 262.21 306.12 262.35 287.06 Z" />
<path fill="#ffffff" opacity="1.00" d=" M 228.19 312.95 C 228.50 305.01 229.07 295.61 235.69 290.17 C 235.98 308.54 235.72 326.91 235.82 345.28 C 233.27 345.50 230.72 345.72 228.17 345.94 C 228.21 334.94 228.18 323.94 228.19 312.95 Z" />
<path fill="#ffffff" opacity="1.00" d=" M 295.19 302.98 C 295.21 298.89 294.92 294.77 295.60 290.71 C 301.07 296.74 302.42 305.19 302.79 313.03 C 302.85 323.90 302.77 334.77 302.82 345.65 C 300.27 345.45 297.73 345.27 295.18 345.10 C 295.19 331.06 295.18 317.02 295.19 302.98 Z" />
</g>
<g id="#201f1fff">
<path fill="#201f1f" opacity="1.00" d=" M 136.85 5.59 C 144.11 3.98 151.46 6.05 158.49 7.81 C 174.46 12.58 189.05 21.00 202.82 30.23 C 203.82 31.11 205.13 30.43 206.23 30.21 C 225.36 25.04 245.23 23.06 265.01 22.80 C 283.25 23.13 301.60 24.76 319.27 29.48 C 333.10 20.82 347.31 12.29 363.11 7.72 C 370.01 6.00 377.14 4.15 384.29 5.42 C 392.10 24.36 394.39 45.97 388.57 65.78 C 405.73 82.52 416.09 106.01 416.69 129.99 C 416.98 149.64 416.53 169.61 411.22 188.66 C 429.42 188.02 447.65 188.18 465.85 188.91 C 465.21 189.56 464.58 190.20 463.96 190.86 C 446.21 190.14 428.44 190.00 410.69 190.69 C 409.70 193.75 408.66 196.79 407.55 199.81 C 446.29 201.29 485.20 205.55 522.57 216.19 C 522.65 216.65 522.79 217.57 522.86 218.03 C 489.92 209.28 456.03 204.29 422.00 202.49 C 416.90 202.31 411.80 202.19 406.72 201.71 C 401.94 212.25 395.10 221.97 386.07 229.30 C 371.25 241.58 352.55 247.97 333.95 251.87 C 325.27 253.73 316.45 254.75 307.66 255.96 C 279.59 256.59 251.48 256.71 223.41 255.81 C 197.40 252.61 170.67 246.77 148.90 231.41 C 137.85 223.76 129.06 213.30 122.39 201.70 C 117.29 202.52 112.11 202.25 106.97 202.57 C 74.97 204.58 42.98 208.82 11.98 217.18 C 10.69 217.51 9.38 217.76 8.06 217.98 C 8.16 217.52 8.37 216.61 8.47 216.16 C 34.67 208.63 61.75 204.50 88.86 201.95 C 99.76 201.00 110.68 200.16 121.63 200.06 C 120.28 196.85 118.86 193.68 117.42 190.52 C 80.66 189.57 43.59 190.79 7.49 198.28 C 7.37 197.74 7.14 196.66 7.02 196.12 C 43.16 189.15 80.10 187.35 116.83 188.59 C 110.03 169.10 108.58 148.21 109.32 127.72 C 110.50 106.28 119.64 85.54 134.32 69.93 C 126.30 49.24 128.89 25.88 136.85 5.59 M 180.03 126.43 C 170.21 130.29 162.77 138.36 156.92 146.89 C 153.03 153.03 149.71 159.90 149.25 167.26 C 148.25 171.80 148.62 176.51 148.90 181.12 C 149.80 194.88 154.29 208.89 163.91 219.07 C 173.90 229.96 188.04 235.90 202.14 239.36 C 225.63 245.01 249.95 245.01 273.97 244.88 C 286.02 244.74 298.09 244.77 310.09 243.52 C 326.39 241.84 343.39 238.81 356.98 229.06 C 369.06 220.59 376.06 206.43 378.15 192.09 C 380.42 179.40 381.03 165.57 375.18 153.70 C 370.36 143.90 363.03 135.15 353.87 129.17 C 339.76 120.73 322.70 122.14 306.96 122.50 C 290.33 123.76 273.68 125.13 256.98 124.59 C 241.27 124.55 225.66 122.21 209.95 122.32 C 199.86 122.06 189.49 122.59 180.03 126.43 Z" />
<path fill="#201f1f" opacity="1.00" d=" M 465.00 191.10 C 465.74 190.45 466.49 189.80 467.25 189.15 C 486.23 190.18 505.11 192.68 523.81 196.02 C 523.82 196.52 523.82 197.54 523.82 198.04 C 504.36 194.63 484.75 191.87 465.00 191.10 Z" />
<path fill="#201f1f" opacity="1.00" d=" M 96.56 250.99 C 95.31 247.22 100.25 245.75 103.08 245.50 C 118.91 244.01 133.21 254.95 140.95 267.99 C 147.28 278.82 157.50 288.07 170.12 290.45 C 181.41 292.96 192.99 290.05 203.50 285.89 C 202.36 287.16 201.29 288.48 200.15 289.74 C 199.32 290.44 198.47 291.13 197.72 291.92 C 196.98 293.39 198.43 294.44 199.31 295.41 C 200.16 296.49 201.58 297.42 201.59 298.94 C 201.91 303.83 201.63 308.74 201.84 313.64 C 187.48 316.56 171.94 317.21 158.14 311.56 C 147.18 307.13 138.23 298.60 132.30 288.46 C 126.77 279.07 121.86 268.68 112.64 262.27 C 107.46 258.28 100.20 256.80 96.56 250.99 M 116.39 251.57 C 113.62 253.87 120.27 257.53 121.34 253.90 C 120.67 251.92 118.36 250.51 116.39 251.57 M 124.60 257.58 C 122.58 260.96 128.59 264.94 130.60 261.09 C 129.58 258.92 127.31 255.89 124.60 257.58 M 133.07 266.95 C 131.08 269.89 134.73 274.75 138.10 273.31 C 140.65 270.42 136.47 264.62 133.07 266.95 M 148.29 284.23 C 149.69 281.07 146.35 278.60 143.90 277.37 C 138.01 279.21 144.45 288.22 148.29 284.23 M 154.42 288.42 C 152.92 288.48 151.85 290.22 152.53 291.57 C 153.59 293.98 156.81 295.67 159.29 294.41 C 162.51 291.74 157.50 287.55 154.42 288.42 M 168.33 293.45 C 166.97 293.91 165.84 295.53 166.84 296.90 C 168.55 299.47 173.48 300.02 174.92 296.95 C 175.01 293.74 170.88 292.53 168.33 293.45 M 183.40 294.47 C 181.85 295.34 181.98 297.59 183.54 298.38 C 185.86 300.23 190.44 299.40 190.90 296.13 C 189.89 293.18 185.61 292.54 183.40 294.47 Z" />
<path fill="#201f1f" opacity="1.00" d=" M 226.98 261.95 C 240.23 260.07 253.64 260.26 266.99 259.84 C 281.38 260.15 296.74 260.05 309.61 267.44 C 316.26 271.18 320.74 277.52 324.41 284.02 C 324.77 284.13 325.47 284.36 325.82 284.47 C 325.92 284.51 326.13 284.57 326.24 284.60 C 326.53 289.40 327.43 294.16 327.40 298.98 C 327.41 315.56 327.41 332.14 327.40 348.73 C 327.55 354.09 327.00 359.51 327.78 364.85 C 329.32 371.83 333.55 378.60 340.14 381.79 C 343.02 383.18 346.81 385.23 346.41 389.02 C 345.59 390.37 344.24 391.26 343.01 392.19 C 335.38 392.46 327.58 391.71 320.40 388.98 C 312.40 386.01 305.51 379.35 303.72 370.82 C 302.06 362.53 303.08 354.03 302.82 345.65 C 302.77 334.77 302.85 323.90 302.79 313.03 C 302.42 305.19 301.07 296.74 295.60 290.71 C 294.92 294.77 295.21 298.89 295.19 302.98 C 295.18 317.02 295.19 331.06 295.18 345.10 C 295.20 356.75 295.21 368.40 295.16 380.05 C 295.15 385.06 295.86 390.21 298.14 394.73 C 299.60 397.73 302.50 399.54 305.00 401.58 C 307.31 404.67 305.97 408.76 302.49 410.22 C 301.03 410.45 299.57 410.63 298.10 410.75 C 291.06 409.48 284.19 406.81 278.49 402.42 C 272.59 397.75 268.76 390.56 268.69 382.98 C 268.59 370.07 268.72 357.15 268.68 344.23 C 268.64 325.80 268.71 307.37 268.72 288.95 C 268.55 287.69 268.88 286.09 267.83 285.15 C 266.17 283.32 261.98 284.12 262.35 287.06 C 262.21 306.12 262.33 325.20 262.25 344.27 C 262.17 356.86 262.36 369.47 262.17 382.06 C 262.02 389.76 258.63 397.30 252.73 402.30 C 247.13 406.89 240.18 409.61 233.07 410.73 C 231.37 410.78 229.67 410.76 227.97 410.69 C 224.38 408.96 224.05 404.62 226.14 401.55 C 228.73 399.33 232.08 397.76 233.68 394.60 C 235.55 391.05 235.80 386.94 235.82 383.00 C 235.81 370.43 235.79 357.85 235.82 345.28 C 235.72 326.91 235.98 308.54 235.69 290.17 C 229.07 295.61 228.50 305.01 228.19 312.95 C 228.18 323.94 228.21 334.94 228.17 345.94 C 227.93 354.24 228.92 362.66 227.28 370.86 C 225.51 379.16 218.92 385.69 211.19 388.75 C 203.74 391.74 195.60 392.42 187.64 392.25 C 185.85 391.42 183.60 390.35 183.78 388.00 C 184.43 384.14 188.53 383.01 191.52 381.51 C 197.95 378.59 202.83 372.23 203.43 365.13 C 203.80 359.85 203.52 354.55 203.60 349.26 C 203.66 337.32 203.44 325.37 203.72 313.44 C 203.94 308.96 204.00 304.49 204.07 300.02 C 204.11 295.00 204.97 289.99 204.37 284.97 C 204.60 284.86 205.05 284.64 205.27 284.54 C 206.75 276.82 210.36 269.63 215.12 263.42 C 219.16 264.17 223.02 262.41 226.98 261.95 Z" />
</g>
<g id="#c49b86ff">
<path fill="#c49b86" opacity="1.00" d=" M 180.03 126.43 C 189.49 122.59 199.86 122.06 209.95 122.32 C 225.66 122.21 241.27 124.55 256.98 124.59 C 273.68 125.13 290.33 123.76 306.96 122.50 C 322.70 122.14 339.76 120.73 353.87 129.17 C 363.03 135.15 370.36 143.90 375.18 153.70 C 381.03 165.57 380.42 179.40 378.15 192.09 C 378.82 182.60 380.93 172.73 377.48 163.51 C 373.16 152.01 365.34 141.76 355.41 134.53 C 342.95 126.20 327.29 126.81 312.97 127.35 C 294.67 128.65 276.40 130.94 258.02 130.39 C 243.67 129.92 229.39 128.39 215.07 127.39 C 200.98 126.85 185.66 126.34 173.30 134.27 C 161.90 142.17 153.70 154.22 149.25 167.26 C 149.71 159.90 153.03 153.03 156.92 146.89 C 162.77 138.36 170.21 130.29 180.03 126.43 Z" />
</g>
<g id="#f4cab1ff">
<path fill="#f4cab1" opacity="1.00" d=" M 173.30 134.27 C 185.66 126.34 200.98 126.85 215.07 127.39 C 229.39 128.39 243.67 129.92 258.02 130.39 C 276.40 130.94 294.67 128.65 312.97 127.35 C 327.29 126.81 342.95 126.20 355.41 134.53 C 365.34 141.76 373.16 152.01 377.48 163.51 C 380.93 172.73 378.82 182.60 378.15 192.09 C 376.06 206.43 369.06 220.59 356.98 229.06 C 343.39 238.81 326.39 241.84 310.09 243.52 C 298.09 244.77 286.02 244.74 273.97 244.88 C 249.95 245.01 225.63 245.01 202.14 239.36 C 188.04 235.90 173.90 229.96 163.91 219.07 C 154.29 208.89 149.80 194.88 148.90 181.12 C 148.62 176.51 148.25 171.80 149.25 167.26 C 153.70 154.22 161.90 142.17 173.30 134.27 M 196.41 143.50 C 188.92 146.00 183.76 152.81 180.90 159.90 C 175.47 173.89 176.63 190.98 185.77 203.18 C 189.59 208.16 195.51 212.09 202.00 211.82 C 208.92 211.84 214.96 207.23 218.73 201.72 C 225.03 192.49 226.71 180.77 225.23 169.86 C 223.85 161.63 220.56 153.31 214.17 147.69 C 209.46 143.47 202.54 141.29 196.41 143.50 M 325.38 143.48 C 317.42 146.15 312.04 153.57 309.32 161.21 C 304.50 174.98 305.81 191.46 314.75 203.30 C 318.58 208.25 324.52 212.08 330.97 211.82 C 337.61 211.79 343.51 207.51 347.24 202.27 C 353.69 193.24 355.57 181.60 354.27 170.76 C 353.00 162.04 349.55 153.17 342.68 147.35 C 338.02 143.34 331.31 141.37 325.38 143.48 M 262.29 202.36 C 258.44 203.70 257.09 209.17 260.03 212.08 C 263.10 215.68 269.86 213.81 270.43 209.02 C 271.43 204.65 266.36 200.41 262.29 202.36 M 250.89 220.96 C 249.34 223.21 251.62 225.48 252.75 227.35 C 258.20 234.89 270.88 234.82 276.23 227.18 C 277.42 225.28 280.20 222.00 277.10 220.54 C 275.17 220.01 274.76 222.65 273.73 223.73 C 271.10 228.76 264.08 230.87 259.20 227.82 C 256.22 226.34 254.89 223.16 253.06 220.59 C 252.52 220.69 251.43 220.87 250.89 220.96 Z" />
</g>
<g id="#151013ff">
<path fill="#151013" opacity="1.00" d=" M 596.98 150.07 C 607.44 149.67 617.91 150.76 628.17 152.78 C 632.67 153.99 637.54 155.03 641.26 158.01 L 641.49 158.91 C 639.55 166.56 637.95 174.31 635.92 181.94 C 635.52 182.34 634.71 183.14 634.31 183.54 C 624.67 179.84 614.22 178.91 603.98 179.19 C 595.07 179.27 585.52 181.55 579.25 188.29 C 571.75 196.19 569.59 207.48 568.77 217.97 C 568.22 231.40 568.55 245.74 575.32 257.75 C 579.42 265.23 587.45 270.01 595.89 270.66 C 602.71 271.00 609.69 271.12 616.37 269.48 C 616.28 260.10 616.32 250.73 616.35 241.35 C 609.91 241.21 603.46 241.58 597.04 241.19 C 596.73 240.88 596.10 240.27 595.79 239.96 C 595.46 232.30 595.72 224.60 595.67 216.93 C 595.44 215.57 596.53 214.04 598.01 214.28 C 612.67 214.15 627.34 214.30 642.01 214.21 C 643.78 214.38 646.49 213.57 647.13 215.90 C 647.36 240.00 647.10 264.11 647.26 288.22 C 642.46 291.95 636.64 294.03 630.94 295.96 C 612.99 301.50 593.37 301.24 575.47 295.65 C 561.45 291.26 549.80 280.47 544.18 266.92 C 537.52 250.89 536.28 233.08 537.41 215.92 C 538.88 198.09 542.93 179.01 556.00 165.88 C 566.60 154.90 582.17 150.81 596.98 150.07 Z" />
<path fill="#151013" opacity="1.00" d=" M 784.40 158.06 C 784.12 156.64 785.55 155.29 786.98 155.57 C 795.99 155.65 805.03 155.35 814.03 155.73 C 814.31 156.07 814.87 156.76 815.15 157.11 C 815.36 174.17 815.23 191.25 815.20 208.32 C 828.95 208.39 842.71 208.31 856.47 208.36 C 856.53 191.16 856.28 173.94 856.59 156.76 C 856.92 156.49 857.59 155.94 857.92 155.67 C 866.94 155.44 875.99 155.58 885.03 155.60 C 886.88 155.37 887.68 157.50 887.41 159.02 C 887.39 204.03 887.43 249.03 887.39 294.04 C 887.89 296.10 885.90 297.24 884.10 297.13 C 876.71 297.19 869.31 297.10 861.92 297.17 C 860.08 297.25 858.29 296.90 856.55 296.39 C 856.22 276.33 856.56 256.26 856.44 236.19 C 842.70 236.31 828.96 236.22 815.22 236.24 C 815.25 256.22 815.28 276.21 815.21 296.20 C 811.03 297.97 806.39 296.84 802.00 297.14 C 796.21 296.84 790.28 297.85 784.60 296.47 C 784.10 279.99 784.52 263.49 784.38 247.00 C 784.39 217.36 784.36 187.71 784.40 158.06 Z" />
<path fill="#151013" opacity="1.00" d=" M 1003.81 157.05 C 1004.74 154.97 1007.17 155.71 1008.99 155.54 C 1017.01 155.65 1025.04 155.43 1033.06 155.64 C 1035.20 156.09 1034.60 158.45 1034.72 160.05 C 1034.64 174.69 1034.75 189.34 1034.66 203.98 C 1045.74 198.16 1058.88 195.85 1071.14 198.91 C 1078.79 200.69 1085.51 205.77 1089.57 212.48 C 1094.11 219.81 1095.64 228.46 1096.62 236.90 C 1097.66 248.58 1096.61 260.37 1094.28 271.84 C 1092.41 279.40 1089.23 287.03 1083.22 292.24 C 1076.35 298.21 1066.85 299.85 1058.02 299.82 C 1047.22 299.35 1036.05 296.59 1027.54 289.61 C 1027.15 291.80 1026.94 294.06 1026.18 296.16 C 1023.81 297.90 1020.67 296.91 1017.97 297.15 C 1013.25 296.83 1008.32 297.94 1003.80 296.26 C 1003.51 254.49 1003.75 212.72 1003.67 170.94 C 1003.76 166.31 1003.47 161.67 1003.81 157.05 M 1034.19 226.96 C 1034.34 241.49 1033.97 256.06 1034.37 270.58 C 1041.13 274.33 1049.37 275.84 1056.94 274.04 C 1061.98 272.77 1064.37 267.57 1065.18 262.88 C 1066.47 253.67 1066.99 244.20 1065.08 235.04 C 1064.01 230.10 1061.04 225.02 1055.98 223.40 C 1048.64 221.11 1040.80 223.63 1034.19 226.96 Z" />
<path fill="#151013" opacity="1.00" d=" M 672.36 159.60 C 682.51 155.68 694.92 164.02 694.82 174.96 C 695.72 184.30 687.32 193.15 677.96 192.74 C 668.88 193.25 660.75 185.03 660.72 176.07 C 660.53 168.83 665.49 161.85 672.36 159.60 Z" />
<path fill="#151013" opacity="1.00" d=" M 718.78 173.68 C 723.01 172.19 727.64 173.23 732.05 172.96 C 737.80 173.75 743.70 171.91 749.34 173.58 C 749.16 182.52 749.49 191.45 749.24 200.38 C 756.21 200.62 763.20 200.19 770.17 200.58 C 770.45 200.91 771.00 201.58 771.28 201.91 C 771.49 209.29 771.45 216.69 771.30 224.08 C 771.41 225.79 769.26 225.85 768.09 225.84 C 761.86 225.85 755.63 225.85 749.40 225.81 C 749.31 239.20 749.27 252.59 749.41 265.97 C 749.67 272.66 757.33 275.26 763.01 274.71 C 765.77 275.08 769.22 273.18 771.47 275.33 C 771.93 282.33 771.49 289.37 771.60 296.39 C 762.57 299.77 752.52 300.52 743.07 298.55 C 734.79 297.35 726.65 292.69 722.83 285.03 C 719.77 279.53 719.13 273.16 718.86 266.99 C 718.72 253.26 719.00 239.52 718.72 225.80 C 713.81 225.76 708.89 226.06 704.00 225.68 C 702.25 224.80 702.92 222.57 702.76 221.03 C 702.89 216.02 702.59 210.99 702.91 205.99 C 703.21 205.72 703.81 205.20 704.11 204.94 C 708.93 203.48 713.92 202.62 718.80 201.35 C 718.84 192.13 718.88 182.90 718.78 173.68 Z" />
<path fill="#151013" opacity="1.00" d=" M 664.27 200.48 C 673.16 200.41 682.05 200.38 690.94 200.49 C 692.72 200.26 693.26 202.51 693.20 203.89 C 693.20 231.28 693.20 258.67 693.20 286.06 C 693.16 289.56 693.54 293.14 692.43 296.53 C 683.64 297.53 674.77 296.63 665.94 296.85 C 664.14 297.14 662.06 296.02 662.23 294.00 C 662.13 263.97 662.22 233.94 662.18 203.92 C 661.99 202.53 662.55 200.46 664.27 200.48 Z" />
<path fill="#151013" opacity="1.00" d=" M 900.51 201.68 C 900.85 201.43 901.55 200.93 901.89 200.68 C 911.23 200.54 920.59 200.50 929.92 200.70 C 930.26 201.02 930.94 201.67 931.28 201.99 C 931.60 222.31 931.26 242.65 931.45 262.98 C 931.52 266.29 932.02 270.01 934.59 272.37 C 936.89 274.39 940.05 274.87 943.02 274.80 C 948.84 275.00 954.53 273.06 959.49 270.11 C 959.45 247.77 959.44 225.43 959.49 203.10 C 959.23 201.70 960.62 200.45 961.98 200.62 C 970.70 200.60 979.42 200.51 988.13 200.66 C 989.76 200.63 990.43 202.58 990.25 203.96 C 990.25 233.99 990.26 264.02 990.24 294.05 C 990.60 295.97 988.82 297.38 987.03 297.16 C 981.63 297.17 976.22 297.29 970.83 297.17 C 967.94 296.35 968.74 292.64 968.18 290.34 C 955.28 298.25 939.43 302.07 924.48 298.76 C 917.50 297.65 910.52 294.46 906.30 288.60 C 901.36 281.84 900.17 273.15 900.35 264.98 C 900.46 243.88 900.13 222.77 900.51 201.68 Z" />
</g>
<g id="#ac5c51ff">
<path fill="#ac5c51" opacity="1.00" d=" M 199.37 155.55 C 202.91 153.94 207.20 154.42 210.40 156.59 C 215.35 159.83 218.13 165.49 219.32 171.14 C 220.66 178.73 219.89 187.02 215.56 193.58 C 213.07 197.48 208.88 200.77 204.07 200.73 C 198.89 200.91 194.44 197.26 191.91 193.01 C 187.26 185.20 186.65 175.27 189.76 166.78 C 191.53 162.11 194.67 157.62 199.37 155.55 M 195.15 163.18 C 192.42 164.33 191.57 168.21 193.67 170.36 C 195.83 173.05 200.72 172.01 201.56 168.64 C 202.83 165.10 198.46 161.21 195.15 163.18 Z" />
<path fill="#ac5c51" opacity="1.00" d=" M 323.46 155.62 C 327.88 153.45 333.31 154.90 336.76 158.20 C 342.12 163.23 344.19 170.84 344.25 178.00 C 344.06 185.27 341.78 193.09 335.97 197.88 C 332.16 201.14 326.26 201.74 322.00 199.00 C 316.49 195.62 313.60 189.24 312.55 183.08 C 311.03 173.06 313.69 160.58 323.46 155.62 M 321.42 163.63 C 318.53 164.87 318.30 169.47 321.14 170.88 C 324.07 173.02 328.54 169.33 327.14 166.05 C 326.39 163.81 323.55 162.41 321.42 163.63 Z" />
<path fill="#ac5c51" opacity="1.00" d=" M 262.29 202.36 C 266.36 200.41 271.43 204.65 270.43 209.02 C 269.86 213.81 263.10 215.68 260.03 212.08 C 257.09 209.17 258.44 203.70 262.29 202.36 Z" />
</g>
<g id="#aa5a4fff">
<path fill="#aa5a4f" opacity="1.00" d=" M 250.89 220.96 C 251.43 220.87 252.52 220.69 253.06 220.59 C 254.89 223.16 256.22 226.34 259.20 227.82 C 264.08 230.87 271.10 228.76 273.73 223.73 C 274.76 222.65 275.17 220.01 277.10 220.54 C 280.20 222.00 277.42 225.28 276.23 227.18 C 270.88 234.82 258.20 234.89 252.75 227.35 C 251.62 225.48 249.34 223.21 250.89 220.96 Z" />
</g>
<g id="#acf1ffff">
<path fill="#acf1ff" opacity="1.00" d=" M 116.39 251.57 C 118.36 250.51 120.67 251.92 121.34 253.90 C 120.27 257.53 113.62 253.87 116.39 251.57 Z" />
</g>
<g id="#000000ff">
<path fill="#000000" opacity="1.00" d=" M 223.41 255.81 C 251.48 256.71 279.59 256.59 307.66 255.96 C 316.94 262.79 323.84 273.04 325.82 284.47 C 325.47 284.36 324.77 284.13 324.41 284.02 C 320.74 277.52 316.26 271.18 309.61 267.44 C 296.74 260.05 281.38 260.15 266.99 259.84 C 253.64 260.26 240.23 260.07 226.98 261.95 C 223.02 262.41 219.16 264.17 215.12 263.42 C 217.64 260.63 220.39 258.05 223.41 255.81 Z" />
</g>
<g id="#a1e0f8ff">
<path fill="#a1e0f8" opacity="1.00" d=" M 124.60 257.58 C 127.31 255.89 129.58 258.92 130.60 261.09 C 128.59 264.94 122.58 260.96 124.60 257.58 Z" />
</g>
<g id="#9cdaf0ff">
<path fill="#9cdaf0" opacity="1.00" d=" M 99.02 267.10 C 100.25 264.07 100.18 260.44 102.25 257.82 C 103.49 262.90 105.22 267.87 106.33 272.98 C 107.26 276.75 102.43 280.15 99.39 277.48 C 96.01 274.88 98.07 270.40 99.02 267.10 Z" />
<path fill="#9cdaf0" opacity="1.00" d=" M 148.29 284.23 C 144.45 288.22 138.01 279.21 143.90 277.37 C 146.35 278.60 149.69 281.07 148.29 284.23 Z" />
<path fill="#9cdaf0" opacity="1.00" d=" M 183.40 294.47 C 185.61 292.54 189.89 293.18 190.90 296.13 C 190.44 299.40 185.86 300.23 183.54 298.38 C 181.98 297.59 181.85 295.34 183.40 294.47 Z" />
<path fill="#9cdaf0" opacity="1.00" d=" M 262.25 344.27 C 264.39 344.25 266.53 344.24 268.68 344.23 C 268.72 357.15 268.59 370.07 268.69 382.98 C 268.76 390.56 272.59 397.75 278.49 402.42 C 274.86 406.58 272.27 411.57 271.05 416.96 C 268.38 426.37 269.83 436.21 269.20 445.83 C 262.77 445.58 256.31 446.34 249.91 445.33 C 253.77 445.13 257.88 446.04 261.58 444.85 C 261.82 430.47 263.21 413.77 252.73 402.30 C 258.63 397.30 262.02 389.76 262.17 382.06 C 262.36 369.47 262.17 356.86 262.25 344.27 Z" />
<path fill="#9cdaf0" opacity="1.00" d=" M 228.17 345.94 C 230.72 345.72 233.27 345.50 235.82 345.28 C 235.79 357.85 235.81 370.43 235.82 383.00 C 235.80 386.94 235.55 391.05 233.68 394.60 C 232.08 397.76 228.73 399.33 226.14 401.55 C 222.74 395.69 217.12 391.75 211.19 388.75 C 218.92 385.69 225.51 379.16 227.28 370.86 C 228.92 362.66 227.93 354.24 228.17 345.94 Z" />
<path fill="#9cdaf0" opacity="1.00" d=" M 295.18 345.10 C 297.73 345.27 300.27 345.45 302.82 345.65 C 303.08 354.03 302.06 362.53 303.72 370.82 C 305.51 379.35 312.40 386.01 320.40 388.98 C 314.16 391.58 308.67 395.86 305.00 401.58 C 302.50 399.54 299.60 397.73 298.14 394.73 C 295.86 390.21 295.15 385.06 295.16 380.05 C 295.21 368.40 295.20 356.75 295.18 345.10 Z" />
<path fill="#9cdaf0" opacity="1.00" d=" M 143.56 368.49 C 162.05 358.15 182.91 353.00 203.60 349.26 C 203.52 354.55 203.80 359.85 203.43 365.13 C 202.83 372.23 197.95 378.59 191.52 381.51 C 188.53 383.01 184.43 384.14 183.78 388.00 C 183.60 390.35 185.85 391.42 187.64 392.25 C 196.48 396.28 203.56 405.04 203.46 415.05 C 203.45 423.50 203.54 431.96 203.29 440.41 C 186.60 437.39 169.97 433.36 154.36 426.61 C 144.93 422.38 135.48 417.34 128.57 409.46 C 123.82 404.08 120.81 396.35 123.34 389.27 C 126.62 379.75 135.18 373.36 143.56 368.49 Z" />
<path fill="#9cdaf0" opacity="1.00" d=" M 327.40 348.73 C 341.40 350.66 355.19 353.99 368.60 358.44 C 380.48 362.61 392.40 367.63 402.08 375.87 C 407.93 380.88 413.10 387.94 412.55 396.02 C 411.89 404.53 405.68 411.30 399.17 416.21 C 386.21 425.65 370.82 430.98 355.51 435.24 C 346.21 437.57 336.85 439.71 327.35 441.07 C 328.03 432.38 327.41 423.65 327.64 414.95 C 327.67 410.04 329.72 405.42 332.40 401.41 C 335.12 397.51 339.33 395.07 343.01 392.19 C 344.24 391.26 345.59 390.37 346.41 389.02 C 346.81 385.23 343.02 383.18 340.14 381.79 C 333.55 378.60 329.32 371.83 327.78 364.85 C 327.00 359.51 327.55 354.09 327.40 348.73 Z" />
<path fill="#9cdaf0" opacity="1.00" d=" M 227.97 410.69 C 229.67 410.76 231.37 410.78 233.07 410.73 C 233.66 413.50 234.30 416.26 234.83 419.05 C 236.55 427.39 235.44 435.94 235.77 444.38 C 231.83 444.05 227.88 443.86 223.96 443.39 C 225.30 443.31 226.64 443.22 227.99 443.11 C 228.28 432.31 228.23 421.49 227.97 410.69 Z" />
<path fill="#9cdaf0" opacity="1.00" d=" M 298.10 410.75 C 299.57 410.63 301.03 410.45 302.49 410.22 C 303.82 421.42 302.79 432.76 303.11 444.01 C 299.76 444.31 296.40 444.54 293.11 445.20 C 293.85 444.18 295.33 443.47 295.28 442.05 C 295.64 437.35 295.13 432.65 295.33 427.95 C 295.38 422.10 296.98 416.44 298.10 410.75 Z" />
</g>
<g id="#a0dff7ff">
<path fill="#a0dff7" opacity="1.00" d=" M 133.07 266.95 C 136.47 264.62 140.65 270.42 138.10 273.31 C 134.73 274.75 131.08 269.89 133.07 266.95 Z" />
</g>
<g id="#070606ff">
<path fill="#070606" opacity="1.00" d=" M 203.50 285.89 L 204.37 284.97 C 204.97 289.99 204.11 295.00 204.07 300.02 C 204.00 304.49 203.94 308.96 203.72 313.44 C 203.25 313.49 202.31 313.59 201.84 313.64 C 201.63 308.74 201.91 303.83 201.59 298.94 C 201.58 297.42 200.16 296.49 199.31 295.41 C 199.91 295.46 201.11 295.57 201.72 295.62 C 202.34 293.63 202.39 291.53 202.54 289.47 C 201.94 289.54 200.74 289.67 200.15 289.74 C 201.29 288.48 202.36 287.16 203.50 285.89 Z" />
</g>
<g id="#9ddbf1ff">
<path fill="#9ddbf1" opacity="1.00" d=" M 154.42 288.42 C 157.50 287.55 162.51 291.74 159.29 294.41 C 156.81 295.67 153.59 293.98 152.53 291.57 C 151.85 290.22 152.92 288.48 154.42 288.42 Z" />
</g>
<g id="#a2e3fbff">
<path fill="#a2e3fb" opacity="1.00" d=" M 200.15 289.74 C 200.74 289.67 201.94 289.54 202.54 289.47 C 202.39 291.53 202.34 293.63 201.72 295.62 C 201.11 295.57 199.91 295.46 199.31 295.41 C 198.43 294.44 196.98 293.39 197.72 291.92 C 198.47 291.13 199.32 290.44 200.15 289.74 Z" />
</g>
<g id="#9edcf2ff">
<path fill="#9edcf2" opacity="1.00" d=" M 168.33 293.45 C 170.88 292.53 175.01 293.74 174.92 296.95 C 173.48 300.02 168.55 299.47 166.84 296.90 C 165.84 295.53 166.97 293.91 168.33 293.45 Z" />
</g>
<g id="#7cbae6ff">
<path fill="#7cbae6" opacity="1.00" d=" M 187.64 392.25 C 195.60 392.42 203.74 391.74 211.19 388.75 C 217.12 391.75 222.74 395.69 226.14 401.55 C 224.05 404.62 224.38 408.96 227.97 410.69 C 228.23 421.49 228.28 432.31 227.99 443.11 C 226.64 443.22 225.30 443.31 223.96 443.39 C 217.04 442.62 210.13 441.73 203.29 440.41 C 203.54 431.96 203.45 423.50 203.46 415.05 C 203.56 405.04 196.48 396.28 187.64 392.25 Z" />
<path fill="#7cbae6" opacity="1.00" d=" M 320.40 388.98 C 327.58 391.71 335.38 392.46 343.01 392.19 C 339.33 395.07 335.12 397.51 332.40 401.41 C 329.72 405.42 327.67 410.04 327.64 414.95 C 327.41 423.65 328.03 432.38 327.35 441.07 C 319.29 442.25 311.23 443.44 303.11 444.01 C 302.79 432.76 303.82 421.42 302.49 410.22 C 305.97 408.76 307.31 404.67 305.00 401.58 C 308.67 395.86 314.16 391.58 320.40 388.98 Z" />
<path fill="#7cbae6" opacity="1.00" d=" M 233.07 410.73 C 240.18 409.61 247.13 406.89 252.73 402.30 C 263.21 413.77 261.82 430.47 261.58 444.85 C 257.88 446.04 253.77 445.13 249.91 445.33 C 245.18 445.27 240.48 444.73 235.77 444.38 C 235.44 435.94 236.55 427.39 234.83 419.05 C 234.30 416.26 233.66 413.50 233.07 410.73 Z" />
<path fill="#7cbae6" opacity="1.00" d=" M 278.49 402.42 C 284.19 406.81 291.06 409.48 298.10 410.75 C 296.98 416.44 295.38 422.10 295.33 427.95 C 295.13 432.65 295.64 437.35 295.28 442.05 C 295.33 443.47 293.85 444.18 293.11 445.20 C 285.13 445.10 277.18 446.39 269.20 445.83 C 269.83 436.21 268.38 426.37 271.05 416.96 C 272.27 411.57 274.86 406.58 278.49 402.42 Z" />
</g>
</svg>
