<svg viewBox="0 0 1101 450" xmlns="http://www.w3.org/2000/svg"><g fill="#fff"><path d="M196.41 143.5c6.13-2.21 13.05-.03 17.76 4.19 6.39 5.62 9.68 13.94 11.06 22.17 1.48 10.91-.2 22.63-6.5 31.86-3.77 5.51-9.81 10.12-16.73 10.1-6.49.27-12.41-3.66-16.23-8.64-9.14-12.2-10.3-29.29-4.87-43.28 2.86-7.09 8.02-13.9 15.51-16.4m2.96 12.05c-4.7 2.07-7.84 6.56-9.61 11.23-3.11 8.49-2.5 18.42 2.15 26.23 2.53 4.25 6.98 7.9 12.16 7.72 4.81.04 9-3.25 11.49-7.15 4.33-6.56 5.1-14.85 3.76-22.44-1.19-5.65-3.97-11.31-8.92-14.55-3.2-2.17-7.49-2.65-11.03-1.04zm126.01-12.07c5.93-2.11 12.64-.14 17.3 3.87 6.87 5.82 10.32 14.69 11.59 23.41 1.3 10.84-.58 22.48-7.03 31.51-3.73 5.24-9.63 9.52-16.27 9.55-6.45.26-12.39-3.57-16.22-8.52-8.94-11.84-10.25-28.32-5.43-42.09 2.72-7.64 8.1-15.06 16.06-17.73m-1.92 12.14c-9.77 4.96-12.43 17.44-10.91 27.46 1.05 6.16 3.94 12.54 9.45 15.92 4.26 2.74 10.16 2.14 13.97-1.12 5.81-4.79 8.09-12.61 8.28-19.88-.06-7.16-2.13-14.77-7.49-19.8-3.45-3.3-8.88-4.75-13.3-2.58z"/><path d="M195.15 163.18c3.31-1.97 7.68 1.92 6.41 5.46-.84 3.37-5.73 4.41-7.89 1.72-2.1-2.15-1.25-6.03 1.48-7.18zm126.27.45c2.13-1.22 4.97.18 5.72 2.42 1.4 3.28-3.07 6.97-6 4.83-2.84-1.41-2.61-6.01.28-7.25zm-59.07 123.43c-.37-2.94 3.82-3.74 5.48-1.91 1.05.94.72 2.54.89 3.8-.01 18.42-.08 36.85-.04 55.28-2.15.01-4.29.02-6.43.04.08-19.07-.04-38.15.1-57.21zm-34.16 25.89c.31-7.94.88-17.34 7.5-22.78.29 18.37.03 36.74.13 55.11l-7.65.66c.04-11 .01-22 .02-32.99zm67-9.97c.02-4.09-.27-8.21.41-12.27 5.47 6.03 6.82 14.48 7.19 22.32.06 10.87-.02 21.74.03 32.62-2.55-.2-5.09-.38-7.64-.55.01-14.04 0-28.08.01-42.12z"/></g><g fill="#201f1f"><path d="M136.85 5.59c7.26-1.61 14.61.46 21.64 2.22 15.97 4.77 30.56 13.19 44.33 22.42 1 .88 2.31.2 3.41-.02 19.13-5.17 39-7.15 58.78-7.41 18.24.33 36.59 1.96 54.26 6.68 13.83-8.66 28.04-17.19 43.84-21.76 6.9-1.72 14.03-3.57 21.18-2.3 7.81 18.94 10.1 40.55 4.28 60.36 17.16 16.74 27.52 40.23 28.12 64.21.29 19.65-.16 39.62-5.47 58.67 18.2-.64 36.43-.48 54.63.25-.64.65-1.27 1.29-1.89 1.95-17.75-.72-35.52-.86-53.27-.17-.99 3.06-2.03 6.1-3.14 9.12 38.74 1.48 77.65 5.74 115.02 16.38.08.46.22 1.38.29 1.84-32.94-8.75-66.83-13.74-100.86-15.54-5.1-.18-10.2-.3-15.28-.78-4.78 10.54-11.62 20.26-20.65 27.59-14.82 12.28-33.52 18.67-52.12 22.57-8.68 1.86-17.5 2.88-26.29 4.09-28.07.63-56.18.75-84.25-.15-26.01-3.2-52.74-9.04-74.51-24.4-11.05-7.65-19.84-18.11-26.51-29.71-5.1.82-10.28.55-15.42.87-32 2.01-63.99 6.25-94.99 14.61-1.29.33-2.6.58-3.92.8.1-.46.31-1.37.41-1.82 26.2-7.53 53.28-11.66 80.39-14.21 10.9-.95 21.82-1.79 32.77-1.89-1.35-3.21-2.77-6.38-4.21-9.54-36.76-.95-73.83.27-109.93 7.76-.12-.54-.35-1.62-.47-2.16 36.14-6.97 73.08-8.77 109.81-7.53-6.8-19.49-8.25-40.38-7.51-60.87 1.18-21.44 10.32-42.18 25-57.79-8.02-20.69-5.43-44.05 2.53-64.34m43.18 120.84c-9.82 3.86-17.26 11.93-23.11 20.46-3.89 6.14-7.21 13.01-7.67 20.37-1 4.54-.63 9.25-.35 13.86.9 13.76 5.39 27.77 15.01 37.95 9.99 10.89 24.13 16.83 38.23 20.29 23.49 5.65 47.81 5.65 71.83 5.52 12.05-.14 24.12-.11 36.12-1.36 16.3-1.68 33.3-4.71 46.89-14.46 12.08-8.47 19.08-22.63 21.17-36.97 2.27-12.69 2.88-26.52-2.97-38.39-4.82-9.8-12.15-18.55-21.31-24.53-14.11-8.44-31.17-7.03-46.91-6.67-16.63 1.26-33.28 2.63-49.98 2.09-15.71-.04-31.32-2.38-47.03-2.27-10.09-.26-20.46.27-29.92 4.11z"/><path d="M465 191.1c.74-.65 1.49-1.3 2.25-1.95 18.98 1.03 37.86 3.53 56.56 6.87.01.5.01 1.52.01 2.02-19.46-3.41-39.07-6.17-58.82-6.94zM96.56 250.99c-1.25-3.77 3.69-5.24 6.52-5.49 15.83-1.49 30.13 9.45 37.87 22.49 6.33 10.83 16.55 20.08 29.17 22.46 11.29 2.51 22.87-.4 33.38-4.56-1.14 1.27-2.21 2.59-3.35 3.85-.83.7-1.68 1.39-2.43 2.18-.74 1.47.71 2.52 1.59 3.49.85 1.08 2.27 2.01 2.28 3.53.32 4.89.04 9.8.25 14.7-14.36 2.92-29.9 3.57-43.7-2.08-10.96-4.43-19.91-12.96-25.84-23.1-5.53-9.39-10.44-19.78-19.66-26.19-5.18-3.99-12.44-5.47-16.08-11.28m19.83.58c-2.77 2.3 3.88 5.96 4.95 2.33-.67-1.98-2.98-3.39-4.95-2.33m8.21 6.01c-2.02 3.38 3.99 7.36 6 3.51-1.02-2.17-3.29-5.2-6-3.51m8.47 9.37c-1.99 2.94 1.66 7.8 5.03 6.36 2.55-2.89-1.63-8.69-5.03-6.36m15.22 17.28c1.4-3.16-1.94-5.63-4.39-6.86-5.89 1.84.55 10.85 4.39 6.86m6.13 4.19c-1.5.06-2.57 1.8-1.89 3.15 1.06 2.41 4.28 4.1 6.76 2.84 3.22-2.67-1.79-6.86-4.87-5.99m13.91 5.03c-1.36.46-2.49 2.08-1.49 3.45 1.71 2.57 6.64 3.12 8.08.05.09-3.21-4.04-4.42-6.59-3.5m15.07 1.02c-1.55.87-1.42 3.12.14 3.91 2.32 1.85 6.9 1.02 7.36-2.25-1.01-2.95-5.29-3.59-7.5-1.66z"/><path d="M226.98 261.95c13.25-1.88 26.66-1.69 40.01-2.11 14.39.31 29.75.21 42.62 7.6 6.65 3.74 11.13 10.08 14.8 16.58.36.11 1.06.34 1.41.45.1.04.31.1.42.13.29 4.8 1.19 9.56 1.16 14.38.01 16.58.01 33.16 0 49.75.15 5.36-.4 10.78.38 16.12 1.54 6.98 5.77 13.75 12.36 16.94 2.88 1.39 6.67 3.44 6.27 7.23-.82 1.35-2.17 2.24-3.4 3.17-7.63.27-15.43-.48-22.61-3.21-8-2.97-14.89-9.63-16.68-18.16-1.66-8.29-.64-16.79-.9-25.17-.05-10.88.03-21.75-.03-32.62-.37-7.84-1.72-16.29-7.19-22.32-.68 4.06-.39 8.18-.41 12.27-.01 14.04 0 28.08-.01 42.12.02 11.65.03 23.3-.02 34.95-.01 5.01.7 10.16 2.98 14.68 1.46 3 4.36 4.81 6.86 6.85 2.31 3.09.97 7.18-2.51 8.64-1.46.23-2.92.41-4.39.53-7.04-1.27-13.91-3.94-19.61-8.33-5.9-4.67-9.73-11.86-9.8-19.44-.1-12.91.03-25.83-.01-38.75-.04-18.43.03-36.86.04-55.28-.17-1.26.16-2.86-.89-3.8-1.66-1.83-5.85-1.03-5.48 1.91-.14 19.06-.02 38.14-.1 57.21-.08 12.59.11 25.2-.08 37.79-.15 7.7-3.54 15.24-9.44 20.24-5.6 4.59-12.55 7.31-19.66 8.43-1.7.05-3.4.03-5.1-.04-3.59-1.73-3.92-6.07-1.83-9.14 2.59-2.22 5.94-3.79 7.54-6.95 1.87-3.55 2.12-7.66 2.14-11.6-.01-12.57-.03-25.15 0-37.72-.1-18.37.16-36.74-.13-55.11-6.62 5.44-7.19 14.84-7.5 22.78-.01 10.99.02 21.99-.02 32.99-.24 8.3.75 16.72-.89 24.92-1.77 8.3-8.36 14.83-16.09 17.89-7.45 2.99-15.59 3.67-23.55 3.5-1.79-.83-4.04-1.9-3.86-4.25.65-3.86 4.75-4.99 7.74-6.49 6.43-2.92 11.31-9.28 11.91-16.38.37-5.28.09-10.58.17-15.87.06-11.94-.16-23.89.12-35.82.22-4.48.28-8.95.35-13.42.04-5.02.9-10.03.3-15.05.23-.11.68-.33.9-.43 1.48-7.72 5.09-14.91 9.85-21.12 4.04.75 7.9-1.01 11.86-1.47z"/></g><path fill="#c49b86" d="M180.03 126.43c9.46-3.84 19.83-4.37 29.92-4.11 15.71-.11 31.32 2.23 47.03 2.27 16.7.54 33.35-.83 49.98-2.09 15.74-.36 32.8-1.77 46.91 6.67 9.16 5.98 16.49 14.73 21.31 24.53 5.85 11.87 5.24 25.7 2.97 38.39.67-9.49 2.78-19.36-.67-28.58-4.32-11.5-12.14-21.75-22.07-28.98-12.46-8.33-28.12-7.72-42.44-7.18-18.3 1.3-36.57 3.59-54.95 3.04-14.35-.47-28.63-2-42.95-3-14.09-.54-29.41-1.05-41.77 6.88-11.4 7.9-19.6 19.95-24.05 32.99.46-7.36 3.78-14.23 7.67-20.37 5.85-8.53 13.29-16.6 23.11-20.46z"/><path fill="#f4cab1" d="M173.3 134.27c12.36-7.93 27.68-7.42 41.77-6.88 14.32 1 28.6 2.53 42.95 3 18.38.55 36.65-1.74 54.95-3.04 14.32-.54 29.98-1.15 42.44 7.18 9.93 7.23 17.75 17.48 22.07 28.98 3.45 9.22 1.34 19.09.67 28.58-2.09 14.34-9.09 28.5-21.17 36.97-13.59 9.75-30.59 12.78-46.89 14.46-12 1.25-24.07 1.22-36.12 1.36-24.02.13-48.34.13-71.83-5.52-14.1-3.46-28.24-9.4-38.23-20.29-9.62-10.18-14.11-24.19-15.01-37.95-.28-4.61-.65-9.32.35-13.86 4.45-13.04 12.65-25.09 24.05-32.99m23.11 9.23c-7.49 2.5-12.65 9.31-15.51 16.4-5.43 13.99-4.27 31.08 4.87 43.28 3.82 4.98 9.74 8.91 16.23 8.64 6.92.02 12.96-4.59 16.73-10.1 6.3-9.23 7.98-20.95 6.5-31.86-1.38-8.23-4.67-16.55-11.06-22.17-4.71-4.22-11.63-6.4-17.76-4.19m128.97-.02c-7.96 2.67-13.34 10.09-16.06 17.73-4.82 13.77-3.51 30.25 5.43 42.09 3.83 4.95 9.77 8.78 16.22 8.52 6.64-.03 12.54-4.31 16.27-9.55 6.45-9.03 8.33-20.67 7.03-31.51-1.27-8.72-4.72-17.59-11.59-23.41-4.66-4.01-11.37-5.98-17.3-3.87m-63.09 58.88c-3.85 1.34-5.2 6.81-2.26 9.72 3.07 3.6 9.83 1.73 10.4-3.06 1-4.37-4.07-8.61-8.14-6.66m-11.4 18.6c-1.55 2.25.73 4.52 1.86 6.39 5.45 7.54 18.13 7.47 23.48-.17 1.19-1.9 3.97-5.18.87-6.64-1.93-.53-2.34 2.11-3.37 3.19-2.63 5.03-9.65 7.14-14.53 4.09-2.98-1.48-4.31-4.66-6.14-7.23-.54.1-1.63.28-2.17.37z"/><path d="M596.98 150.07c10.46-.4 20.93.69 31.19 2.71 4.5 1.21 9.37 2.25 13.09 5.23l.23.9c-1.94 7.65-3.54 15.4-5.57 23.03-.4.4-1.21 1.2-1.61 1.6-9.64-3.7-20.09-4.63-30.33-4.35-8.91.08-18.46 2.36-24.73 9.1-7.5 7.9-9.66 19.19-10.48 29.68-.55 13.43-.22 27.77 6.55 39.78 4.1 7.48 12.13 12.26 20.57 12.91 6.82.34 13.8.46 20.48-1.18-.09-9.38-.05-18.75-.02-28.13-6.44-.14-12.89.23-19.31-.16-.31-.31-.94-.92-1.25-1.23-.33-7.66-.07-15.36-.12-23.03-.23-1.36.86-2.89 2.34-2.65 14.66-.13 29.33.02 44-.07 1.77.17 4.48-.64 5.12 1.69.23 24.1-.03 48.21.13 72.32-4.8 3.73-10.62 5.81-16.32 7.74-17.95 5.54-37.57 5.28-55.47-.31-14.02-4.39-25.67-15.18-31.29-28.73-6.66-16.03-7.9-33.84-6.77-51 1.47-17.83 5.52-36.91 18.59-50.04 10.6-10.98 26.17-15.07 40.98-15.81zm187.42 7.99c-.28-1.42 1.15-2.77 2.58-2.49 9.01.08 18.05-.22 27.05.16.28.34.84 1.03 1.12 1.38.21 17.06.08 34.14.05 51.21 13.75.07 27.51-.01 41.27.04.06-17.2-.19-34.42.12-51.6l1.33-1.09c9.02-.23 18.07-.09 27.11-.07 1.85-.23 2.65 1.9 2.38 3.42-.02 45.01.02 90.01-.02 135.02.5 2.06-1.49 3.2-3.29 3.09-7.39.06-14.79-.03-22.18.04-1.84.08-3.63-.27-5.37-.78-.33-20.06.01-40.13-.11-60.2-13.74.12-27.48.03-41.22.05.03 19.98.06 39.97-.01 59.96-4.18 1.77-8.82.64-13.21.94-5.79-.3-11.72.71-17.4-.67-.5-16.48-.08-32.98-.22-49.47.01-29.64-.02-59.29.02-88.94zm219.41-1.01c.93-2.08 3.36-1.34 5.18-1.51 8.02.11 16.05-.11 24.07.1 2.14.45 1.54 2.81 1.66 4.41-.08 14.64.03 29.29-.06 43.93 11.08-5.82 24.22-8.13 36.48-5.07 7.65 1.78 14.37 6.86 18.43 13.57 4.54 7.33 6.07 15.98 7.05 24.42 1.04 11.68-.01 23.47-2.34 34.94-1.87 7.56-5.05 15.19-11.06 20.4-6.87 5.97-16.37 7.61-25.2 7.58-10.8-.47-21.97-3.23-30.48-10.21-.39 2.19-.6 4.45-1.36 6.55-2.37 1.74-5.51.75-8.21.99-4.72-.32-9.65.79-14.17-.89-.29-41.77-.05-83.54-.13-125.32.09-4.63-.2-9.27.14-13.89m30.38 69.91c.15 14.53-.22 29.1.18 43.62 6.76 3.75 15 5.26 22.57 3.46 5.04-1.27 7.43-6.47 8.24-11.16 1.29-9.21 1.81-18.68-.1-27.84-1.07-4.94-4.04-10.02-9.1-11.64-7.34-2.29-15.18.23-21.79 3.56zM672.36 159.6c10.15-3.92 22.56 4.42 22.46 15.36.9 9.34-7.5 18.19-16.86 17.78-9.08.51-17.21-7.71-17.24-16.67-.19-7.24 4.77-14.22 11.64-16.47zm46.42 14.08c4.23-1.49 8.86-.45 13.27-.72 5.75.79 11.65-1.05 17.29.62-.18 8.94.15 17.87-.1 26.8 6.97.24 13.96-.19 20.93.2.28.33.83 1 1.11 1.33.21 7.38.17 14.78.02 22.17.11 1.71-2.04 1.77-3.21 1.76-6.23.01-12.46.01-18.69-.03-.09 13.39-.13 26.78.01 40.16.26 6.69 7.92 9.29 13.6 8.74 2.76.37 6.21-1.53 8.46.62.46 7 .02 14.04.13 21.06-9.03 3.38-19.08 4.13-28.53 2.16-8.28-1.2-16.42-5.86-20.24-13.52-3.06-5.5-3.7-11.87-3.97-18.04-.14-13.73.14-27.47-.14-41.19-4.91-.04-9.83.26-14.72-.12-1.75-.88-1.08-3.11-1.24-4.65.13-5.01-.17-10.04.15-15.04.3-.27.9-.79 1.2-1.05 4.82-1.46 9.81-2.32 14.69-3.59.04-9.22.08-18.45-.02-27.67zm-54.51 26.8c8.89-.07 17.78-.1 26.67.01 1.78-.23 2.32 2.02 2.26 3.4v82.17c-.04 3.5.34 7.08-.77 10.47-8.79 1-17.66.1-26.49.32-1.8.29-3.88-.83-3.71-2.85-.1-30.03-.01-60.06-.05-90.08-.19-1.39.37-3.46 2.09-3.44zm236.24 1.2c.34-.25 1.04-.75 1.38-1 9.34-.14 18.7-.18 28.03.02.34.32 1.02.97 1.36 1.29.32 20.32-.02 40.66.17 60.99.07 3.31.57 7.03 3.14 9.39 2.3 2.02 5.46 2.5 8.43 2.43 5.82.2 11.51-1.74 16.47-4.69-.04-22.34-.05-44.68 0-67.01-.26-1.4 1.13-2.65 2.49-2.48 8.72-.02 17.44-.11 26.15.04 1.63-.03 2.3 1.92 2.12 3.3 0 30.03.01 60.06-.01 90.09.36 1.92-1.42 3.33-3.21 3.11-5.4.01-10.81.13-16.2.01-2.89-.82-2.09-4.53-2.65-6.83-12.9 7.91-28.75 11.73-43.7 8.42-6.98-1.11-13.96-4.3-18.18-10.16-4.94-6.76-6.13-15.45-5.95-23.62.11-21.1-.22-42.21.16-63.3z" fill="#151013"/><path d="M199.37 155.55c3.54-1.61 7.83-1.13 11.03 1.04 4.95 3.24 7.73 8.9 8.92 14.55 1.34 7.59.57 15.88-3.76 22.44-2.49 3.9-6.68 7.19-11.49 7.15-5.18.18-9.63-3.47-12.16-7.72-4.65-7.81-5.26-17.74-2.15-26.23 1.77-4.67 4.91-9.16 9.61-11.23m-4.22 7.63c-2.73 1.15-3.58 5.03-1.48 7.18 2.16 2.69 7.05 1.65 7.89-1.72 1.27-3.54-3.1-7.43-6.41-5.46zm128.31-7.56c4.42-2.17 9.85-.72 13.3 2.58 5.36 5.03 7.43 12.64 7.49 19.8-.19 7.27-2.47 15.09-8.28 19.88-3.81 3.26-9.71 3.86-13.97 1.12-5.51-3.38-8.4-9.76-9.45-15.92-1.52-10.02 1.14-22.5 10.91-27.46m-2.04 8.01c-2.89 1.24-3.12 5.84-.28 7.25 2.93 2.14 7.4-1.55 6-4.83-.75-2.24-3.59-3.64-5.72-2.42zm-59.13 38.73c4.07-1.95 9.14 2.29 8.14 6.66-.57 4.79-7.33 6.66-10.4 3.06-2.94-2.91-1.59-8.38 2.26-9.72z" fill="#ac5c51"/><path fill="#aa5a4f" d="M250.89 220.96c.54-.09 1.63-.27 2.17-.37 1.83 2.57 3.16 5.75 6.14 7.23 4.88 3.05 11.9.94 14.53-4.09 1.03-1.08 1.44-3.72 3.37-3.19 3.1 1.46.32 4.74-.87 6.64-5.35 7.64-18.03 7.71-23.48.17-1.13-1.87-3.41-4.14-1.86-6.39z"/><path fill="#acf1ff" d="M116.39 251.57c1.97-1.06 4.28.35 4.95 2.33-1.07 3.63-7.72-.03-4.95-2.33z"/><path d="M223.41 255.81c28.07.9 56.18.78 84.25.15 9.28 6.83 16.18 17.08 18.16 28.51-.35-.11-1.05-.34-1.41-.45-3.67-6.5-8.15-12.84-14.8-16.58-12.87-7.39-28.23-7.29-42.62-7.6-13.35.42-26.76.23-40.01 2.11-3.96.46-7.82 2.22-11.86 1.47 2.52-2.79 5.27-5.37 8.29-7.61z"/><path fill="#a1e0f8" d="M124.6 257.58c2.71-1.69 4.98 1.34 6 3.51-2.01 3.85-8.02-.13-6-3.51z"/><path d="M99.02 267.1c1.23-3.03 1.16-6.66 3.23-9.28 1.24 5.08 2.97 10.05 4.08 15.16.93 3.77-3.9 7.17-6.94 4.5-3.38-2.6-1.32-7.08-.37-10.38zm49.27 17.13c-3.84 3.99-10.28-5.02-4.39-6.86 2.45 1.23 5.79 3.7 4.39 6.86zm35.11 10.24c2.21-1.93 6.49-1.29 7.5 1.66-.46 3.27-5.04 4.1-7.36 2.25-1.56-.79-1.69-3.04-.14-3.91zm78.85 49.8c2.14-.02 4.28-.03 6.43-.04.04 12.92-.09 25.84.01 38.75.07 7.58 3.9 14.77 9.8 19.44-3.63 4.16-6.22 9.15-7.44 14.54-2.67 9.41-1.22 19.25-1.85 28.87-6.43-.25-12.89.51-19.29-.5 3.86-.2 7.97.71 11.67-.48.24-14.38 1.63-31.08-8.85-42.55 5.9-5 9.29-12.54 9.44-20.24.19-12.59 0-25.2.08-37.79zm-34.08 1.67l7.65-.66c-.03 12.57-.01 25.15 0 37.72-.02 3.94-.27 8.05-2.14 11.6-1.6 3.16-4.95 4.73-7.54 6.95-3.4-5.86-9.02-9.8-14.95-12.8 7.73-3.06 14.32-9.59 16.09-17.89 1.64-8.2.65-16.62.89-24.92zm67.01-.84c2.55.17 5.09.35 7.64.55.26 8.38-.76 16.88.9 25.17 1.79 8.53 8.68 15.19 16.68 18.16-6.24 2.6-11.73 6.88-15.4 12.6-2.5-2.04-5.4-3.85-6.86-6.85-2.28-4.52-2.99-9.67-2.98-14.68.05-11.65.04-23.3.02-34.95zm-151.62 23.39c18.49-10.34 39.35-15.49 60.04-19.23-.08 5.29.2 10.59-.17 15.87-.6 7.1-5.48 13.46-11.91 16.38-2.99 1.5-7.09 2.63-7.74 6.49-.18 2.35 2.07 3.42 3.86 4.25 8.84 4.03 15.92 12.79 15.82 22.8-.01 8.45.08 16.91-.17 25.36-16.69-3.02-33.32-7.05-48.93-13.8-9.43-4.23-18.88-9.27-25.79-17.15-4.75-5.38-7.76-13.11-5.23-20.19 3.28-9.52 11.84-15.91 20.22-20.78zm183.84-19.76c14 1.93 27.79 5.26 41.2 9.71 11.88 4.17 23.8 9.19 33.48 17.43 5.85 5.01 11.02 12.07 10.47 20.15-.66 8.51-6.87 15.28-13.38 20.19-12.96 9.44-28.35 14.77-43.66 19.03-9.3 2.33-18.66 4.47-28.16 5.83.68-8.69.06-17.42.29-26.12.03-4.91 2.08-9.53 4.76-13.54 2.72-3.9 6.93-6.34 10.61-9.22 1.23-.93 2.58-1.82 3.4-3.17.4-3.79-3.39-5.84-6.27-7.23-6.59-3.19-10.82-9.96-12.36-16.94-.78-5.34-.23-10.76-.38-16.12zm-99.43 61.96c1.7.07 3.4.09 5.1.04.59 2.77 1.23 5.53 1.76 8.32 1.72 8.34.61 16.89.94 25.33-3.94-.33-7.89-.52-11.81-.99 1.34-.08 2.68-.17 4.03-.28.29-10.8.24-21.62-.02-32.42zm70.13.06c1.47-.12 2.93-.3 4.39-.53 1.33 11.2.3 22.54.62 33.79-3.35.3-6.71.53-10 1.19.74-1.02 2.22-1.73 2.17-3.15.36-4.7-.15-9.4.05-14.1.05-5.85 1.65-11.51 2.77-17.2z" fill="#9cdaf0"/><path fill="#a0dff7" d="M133.07 266.95c3.4-2.33 7.58 3.47 5.03 6.36-3.37 1.44-7.02-3.42-5.03-6.36z"/><path fill="#070606" d="M203.5 285.89l.87-.92c.6 5.02-.26 10.03-.3 15.05-.07 4.47-.13 8.94-.35 13.42l-1.88.2c-.21-4.9.07-9.81-.25-14.7-.01-1.52-1.43-2.45-2.28-3.53.6.05 1.8.16 2.41.21.62-1.99.67-4.09.82-6.15-.6.07-1.8.2-2.39.27 1.14-1.26 2.21-2.58 3.35-3.85z"/><path fill="#9ddbf1" d="M154.42 288.42c3.08-.87 8.09 3.32 4.87 5.99-2.48 1.26-5.7-.43-6.76-2.84-.68-1.35.39-3.09 1.89-3.15z"/><path fill="#a2e3fb" d="M200.15 289.74c.59-.07 1.79-.2 2.39-.27-.15 2.06-.2 4.16-.82 6.15-.61-.05-1.81-.16-2.41-.21-.88-.97-2.33-2.02-1.59-3.49.75-.79 1.6-1.48 2.43-2.18z"/><path fill="#9edcf2" d="M168.33 293.45c2.55-.92 6.68.29 6.59 3.5-1.44 3.07-6.37 2.52-8.08-.05-1-1.37.13-2.99 1.49-3.45z"/><path d="M187.64 392.25c7.96.17 16.1-.51 23.55-3.5 5.93 3 11.55 6.94 14.95 12.8-2.09 3.07-1.76 7.41 1.83 9.14.26 10.8.31 21.62.02 32.42-1.35.11-2.69.2-4.03.28-6.92-.77-13.83-1.66-20.67-2.98.25-8.45.16-16.91.17-25.36.1-10.01-6.98-18.77-15.82-22.8zm132.76-3.27c7.18 2.73 14.98 3.48 22.61 3.21-3.68 2.88-7.89 5.32-10.61 9.22-2.68 4.01-4.73 8.63-4.76 13.54-.23 8.7.39 17.43-.29 26.12-8.06 1.18-16.12 2.37-24.24 2.94-.32-11.25.71-22.59-.62-33.79 3.48-1.46 4.82-5.55 2.51-8.64 3.67-5.72 9.16-10 15.4-12.6zm-87.33 21.75c7.11-1.12 14.06-3.84 19.66-8.43 10.48 11.47 9.09 28.17 8.85 42.55-3.7 1.19-7.81.28-11.67.48-4.73-.06-9.43-.6-14.14-.95-.33-8.44.78-16.99-.94-25.33-.53-2.79-1.17-5.55-1.76-8.32zm45.42-8.31c5.7 4.39 12.57 7.06 19.61 8.33-1.12 5.69-2.72 11.35-2.77 17.2-.2 4.7.31 9.4-.05 14.1.05 1.42-1.43 2.13-2.17 3.15-7.98-.1-15.93 1.19-23.91.63.63-9.62-.82-19.46 1.85-28.87 1.22-5.39 3.81-10.38 7.44-14.54z" fill="#7cbae6"/></svg>