<?xml version="1.0" encoding="UTF-8" ?>
<!DOCTYPE svg PUBLIC "-//W3C//DTD SVG 1.1//EN" "http://www.w3.org/Graphics/SVG/1.1/DTD/svg11.dtd">
<svg viewBox="0 0 362 800" version="1.1" xmlns="http://www.w3.org/2000/svg">
<g id="#d34a47ff">
<path fill="#d34a47" opacity="1.00" d=" M 338.15 0.00 L 339.51 0.00 C 348.10 1.59 355.35 7.98 359.58 15.41 C 361.40 18.32 360.54 21.89 357.83 23.85 C 330.47 52.49 303.26 81.27 275.92 109.94 C 273.71 112.38 270.78 114.58 270.19 118.03 C 265.14 138.26 259.94 158.45 254.90 178.67 C 279.64 180.17 304.39 182.50 328.74 187.19 C 338.12 189.21 347.75 191.15 356.27 195.74 C 358.78 197.21 361.97 199.51 361.19 202.86 C 360.36 205.59 357.71 207.08 355.41 208.41 C 350.11 211.17 344.31 212.78 338.55 214.29 C 322.97 218.12 307.02 220.22 291.09 222.01 C 250.55 226.31 209.73 227.46 168.98 227.26 C 129.03 226.64 88.99 224.98 49.42 219.23 C 36.91 217.26 24.31 215.14 12.36 210.84 C 8.53 209.28 4.29 207.74 1.71 204.31 C -0.14 201.76 1.70 198.50 4.03 197.02 C 9.86 193.01 16.84 191.23 23.58 189.42 C 39.84 185.43 56.48 183.25 73.11 181.45 C 122.98 176.29 173.20 175.79 223.27 177.00 C 229.31 152.36 235.41 127.75 241.41 103.11 C 241.69 101.98 242.11 100.86 242.94 100.01 C 271.94 69.33 300.93 38.63 329.93 7.95 C 332.56 5.20 334.95 2.14 338.15 0.00 M 210.72 212.37 C 213.77 215.03 218.19 214.92 222.00 215.22 C 230.73 215.15 239.58 215.80 248.20 214.05 C 250.42 213.68 252.99 212.52 253.30 209.99 C 253.39 207.71 251.29 206.53 249.76 205.30 C 249.21 205.81 248.11 206.82 247.55 207.33 C 248.19 208.12 248.82 208.91 249.44 209.72 C 237.91 211.69 226.03 211.77 214.48 209.88 C 214.29 208.17 213.81 206.55 212.44 205.43 C 210.10 206.95 208.74 209.95 210.72 212.37 Z" />
<path fill="#d34a47" opacity="1.00" d=" M 338.77 222.78 C 345.36 220.94 352.11 219.13 357.92 215.40 C 349.94 287.30 341.92 359.20 333.95 431.09 C 333.95 433.44 332.08 435.03 330.67 436.66 C 324.09 443.65 316.15 449.29 307.69 453.79 C 301.91 456.67 295.79 459.49 289.20 459.55 C 289.77 456.22 292.60 454.11 294.71 451.71 C 304.32 441.91 314.92 432.41 320.74 419.71 C 323.57 413.70 324.05 405.85 319.36 400.63 C 315.04 395.62 307.60 396.26 301.91 398.17 C 292.06 401.53 283.05 407.42 275.88 414.95 C 276.91 411.49 278.27 407.73 277.10 404.14 C 276.29 401.61 273.44 400.52 271.00 400.46 C 268.24 400.72 266.83 403.48 265.81 405.72 C 262.92 412.73 261.34 420.22 258.21 427.14 C 254.65 435.58 248.38 442.60 241.26 448.23 C 235.68 452.69 228.70 454.60 222.07 456.88 C 220.42 457.44 218.69 457.72 216.97 457.91 C 215.12 452.54 217.33 446.96 218.73 441.76 C 227.40 414.96 239.64 389.51 250.52 363.58 C 252.91 357.31 255.07 350.79 255.28 344.03 C 255.38 340.62 253.91 336.13 249.97 335.70 C 247.39 336.04 245.73 338.31 244.21 340.19 C 240.20 345.87 237.51 352.33 234.76 358.68 C 228.49 373.62 223.13 388.92 216.87 403.86 C 211.84 415.76 207.46 427.97 204.32 440.51 C 203.16 444.79 202.42 449.71 198.67 452.60 C 194.28 456.24 188.87 459.34 183.01 459.28 C 181.30 459.46 180.17 457.94 179.35 456.68 C 177.60 452.96 178.39 448.72 179.22 444.88 C 182.50 430.97 190.07 418.55 193.75 404.78 C 194.56 402.26 194.64 397.83 191.04 397.70 C 187.50 398.30 185.14 401.36 183.18 404.10 C 177.31 412.77 173.64 422.65 169.11 432.04 C 167.18 435.93 164.16 439.11 161.45 442.45 C 156.36 448.34 151.08 454.29 144.38 458.39 C 141.96 459.89 138.42 460.98 135.95 459.05 C 133.95 456.44 134.81 452.87 135.28 449.90 C 137.29 440.79 141.13 432.23 144.82 423.71 C 147.79 416.98 152.42 410.59 152.79 403.02 C 153.17 400.30 151.01 398.42 148.97 397.10 C 143.79 399.38 140.87 404.52 137.86 409.02 C 130.90 420.56 125.43 433.07 122.14 446.16 C 120.53 453.54 118.86 461.66 121.93 468.89 C 124.77 475.25 132.90 476.53 139.06 475.61 C 150.97 473.42 159.63 463.59 165.50 453.62 C 165.31 458.70 165.09 464.36 168.38 468.62 C 171.22 472.51 176.43 473.67 181.00 473.20 C 188.04 472.43 194.71 469.29 200.19 464.87 C 201.68 468.08 203.72 471.41 207.15 472.81 C 211.28 474.53 215.91 473.57 219.98 472.16 C 229.19 468.99 237.00 463.00 244.91 457.51 C 239.09 476.21 228.56 493.06 222.76 511.77 C 221.83 515.55 220.51 519.88 222.51 523.55 C 223.78 525.56 226.63 526.04 228.54 524.62 C 233.16 521.44 235.87 516.30 238.62 511.57 C 247.33 495.49 252.79 477.95 260.49 461.41 C 266.40 448.38 272.67 435.14 282.54 424.58 C 289.46 417.45 299.12 411.82 309.36 412.84 C 309.28 416.41 306.42 418.81 304.25 421.29 C 296.59 429.26 288.26 436.67 281.72 445.63 C 278.08 450.74 274.38 456.54 274.74 463.07 C 274.95 467.66 277.47 472.55 282.12 473.97 C 288.94 476.06 296.13 473.72 302.56 471.33 C 313.08 466.94 323.11 461.05 331.46 453.25 C 326.19 500.57 320.96 547.89 315.67 595.21 C 315.62 596.99 313.54 597.45 312.36 598.35 C 297.09 606.74 280.12 611.47 263.16 615.08 C 236.17 620.63 208.56 622.46 181.05 622.75 C 156.34 622.77 131.56 621.51 107.14 617.57 C 90.58 614.82 74.11 611.00 58.52 604.70 C 52.62 602.25 46.78 599.56 41.55 595.86 C 37.44 554.73 33.03 513.63 28.82 472.50 C 36.29 476.27 45.27 476.92 53.10 473.85 C 65.32 469.26 74.13 459.21 83.34 450.45 C 81.53 463.95 74.22 476.25 73.47 489.99 C 73.41 492.35 73.49 494.98 75.09 496.87 C 77.06 499.04 80.71 498.61 82.59 496.55 C 85.93 493.15 87.62 488.54 89.24 484.15 C 94.17 469.89 97.26 455.08 101.80 440.70 C 105.67 427.97 110.39 415.47 113.30 402.47 C 114.24 397.77 115.27 392.77 113.93 388.05 C 113.17 385.25 109.88 383.51 107.14 384.47 C 104.94 385.33 103.37 387.24 102.20 389.23 C 96.40 399.17 95.75 411.19 90.14 421.19 C 82.80 432.23 73.60 442.09 63.03 450.10 C 58.03 453.58 52.32 457.35 45.94 456.69 C 41.83 456.33 39.17 452.48 38.15 448.80 C 35.60 439.82 37.26 430.29 39.53 421.43 C 44.19 404.56 51.71 388.60 60.54 373.55 C 67.53 362.03 75.01 349.78 87.24 343.18 C 92.48 340.33 99.18 337.91 104.87 340.94 C 111.33 344.84 112.87 352.93 117.71 358.28 C 121.53 362.73 130.63 360.11 130.78 353.99 C 130.85 348.48 127.87 343.47 124.76 339.12 C 119.42 332.19 112.56 325.78 103.96 323.34 C 96.69 321.77 89.03 323.38 82.32 326.36 C 71.36 331.27 62.71 340.07 55.47 349.45 C 40.78 368.91 31.36 391.64 22.94 414.34 C 15.66 348.28 9.24 282.11 2.14 216.02 C 13.45 222.30 26.40 224.63 38.98 227.02 C 75.31 233.15 112.24 234.54 149.01 235.48 C 196.72 236.13 244.57 235.63 292.08 230.68 C 307.77 228.93 323.46 226.71 338.77 222.78 Z" />
<path fill="#d34a47" opacity="1.00" d=" M 50.38 611.85 C 70.76 619.20 92.07 623.66 113.47 626.76 C 158.72 633.03 204.90 632.80 250.05 625.82 C 269.76 622.63 289.38 618.29 308.15 611.37 C 301.71 622.20 295.42 633.13 288.99 643.96 C 287.92 645.80 286.60 647.66 286.57 649.88 C 284.06 691.97 281.56 734.05 278.98 776.13 C 277.75 782.95 270.24 785.83 264.60 788.33 C 242.39 796.56 218.45 798.47 194.98 799.61 C 166.50 800.30 137.68 799.22 109.90 792.42 C 102.63 790.53 95.32 788.25 88.90 784.24 C 86.04 782.36 82.91 779.77 82.67 776.08 C 79.71 734.64 77.27 693.14 74.08 651.73 C 66.57 638.23 58.10 625.24 50.38 611.85 Z" />
</g>
<g id="#ffffffff">
<path fill="#ffffff" opacity="1.00" d=" M 210.72 212.37 C 208.74 209.95 210.10 206.95 212.44 205.43 C 213.81 206.55 214.29 208.17 214.48 209.88 C 226.03 211.77 237.91 211.69 249.44 209.72 C 248.82 208.91 248.19 208.12 247.55 207.33 C 248.11 206.82 249.21 205.81 249.76 205.30 C 251.29 206.53 253.39 207.71 253.30 209.99 C 252.99 212.52 250.42 213.68 248.20 214.05 C 239.58 215.80 230.73 215.15 222.00 215.22 C 218.19 214.92 213.77 215.03 210.72 212.37 Z" />
</g>
</svg>
