<svg viewBox="0 0 362 800" xmlns="http://www.w3.org/2000/svg"><g fill="#d34a47"><path d="M338.15 0h1.36c8.59 1.59 15.84 7.98 20.07 15.41 1.82 2.91.96 6.48-1.75 8.44-27.36 28.64-54.57 57.42-81.91 86.09-2.21 2.44-5.14 4.64-5.73 8.09-5.05 20.23-10.25 40.42-15.29 60.64 24.74 1.5 49.49 3.83 73.84 8.52 9.38 2.02 19.01 3.96 27.53 8.55 2.51 1.47 5.7 3.77 4.92 7.12-.83 2.73-3.48 4.22-5.78 5.55-5.3 2.76-11.1 4.37-16.86 5.88-15.58 3.83-31.53 5.93-47.46 7.72-40.54 4.3-81.36 5.45-122.11 5.25-39.95-.62-79.99-2.28-119.56-8.03-12.51-1.97-25.11-4.09-37.06-8.39-3.83-1.56-8.07-3.1-10.65-6.53-1.85-2.55-.01-5.81 2.32-7.29 5.83-4.01 12.81-5.79 19.55-7.6 16.26-3.99 32.9-6.17 49.53-7.97 49.87-5.16 100.09-5.66 150.16-4.45 6.04-24.64 12.14-49.25 18.14-73.89.28-1.13.7-2.25 1.53-3.1 29-30.68 57.99-61.38 86.99-92.06 2.63-2.75 5.02-5.81 8.22-7.95M210.72 212.37c3.05 2.66 7.47 2.55 11.28 2.85 8.73-.07 17.58.58 26.2-1.17 2.22-.37 4.79-1.53 5.1-4.06.09-2.28-2.01-3.46-3.54-4.69-.55.51-1.65 1.52-2.21 2.03.64.79 1.27 1.58 1.89 2.39-11.53 1.97-23.41 2.05-34.96.16-.19-1.71-.67-3.33-2.04-4.45-2.34 1.52-3.7 4.52-1.72 6.94z"/><path d="M338.77 222.78c6.59-1.84 13.34-3.65 19.15-7.38-7.98 71.9-16 143.8-23.97 215.69 0 2.35-1.87 3.94-3.28 5.57-6.58 6.99-14.52 12.63-22.98 17.13-5.78 2.88-11.9 5.7-18.49 5.76.57-3.33 3.4-5.44 5.51-7.84 9.61-9.8 20.21-19.3 26.03-32 2.83-6.01 3.31-13.86-1.38-19.08-4.32-5.01-11.76-4.37-17.45-2.46-9.85 3.36-18.86 9.25-26.03 16.78 1.03-3.46 2.39-7.22 1.22-10.81-.81-2.53-3.66-3.62-6.1-3.68-2.76.26-4.17 3.02-5.19 5.26-2.89 7.01-4.47 14.5-7.6 21.42-3.56 8.44-9.83 15.46-16.95 21.09-5.58 4.46-12.56 6.37-19.19 8.65-1.65.56-3.38.84-5.1 1.03-1.85-5.37.36-10.95 1.76-16.15 8.67-26.8 20.91-52.25 31.79-78.18 2.39-6.27 4.55-12.79 4.76-19.55.1-3.41-1.37-7.9-5.31-8.33-2.58.34-4.24 2.61-5.76 4.49-4.01 5.68-6.7 12.14-9.45 18.49-6.27 14.94-11.63 30.24-17.89 45.18-5.03 11.9-9.41 24.11-12.55 36.65-1.16 4.28-1.9 9.2-5.65 12.09-4.39 3.64-9.8 6.74-15.66 6.68-1.71.18-2.84-1.34-3.66-2.6-1.75-3.72-.96-7.96-.13-11.8 3.28-13.91 10.85-26.33 14.53-40.1.81-2.52.89-6.95-2.71-7.08-3.54.6-5.9 3.66-7.86 6.4-5.87 8.67-9.54 18.55-14.07 27.94-1.93 3.89-4.95 7.07-7.66 10.41-5.09 5.89-10.37 11.84-17.07 15.94-2.42 1.5-5.96 2.59-8.43.66-2-2.61-1.14-6.18-.67-9.15 2.01-9.11 5.85-17.67 9.54-26.19 2.97-6.73 7.6-13.12 7.97-20.69.38-2.72-1.78-4.6-3.82-5.92-5.18 2.28-8.1 7.42-11.11 11.92-6.96 11.54-12.43 24.05-15.72 37.14-1.61 7.38-3.28 15.5-.21 22.73 2.84 6.36 10.97 7.64 17.13 6.72 11.91-2.19 20.57-12.02 26.44-21.99-.19 5.08-.41 10.74 2.88 15 2.84 3.89 8.05 5.05 12.62 4.58 7.04-.77 13.71-3.91 19.19-8.33 1.49 3.21 3.53 6.54 6.96 7.94 4.13 1.72 8.76.76 12.83-.65 9.21-3.17 17.02-9.16 24.93-14.65-5.82 18.7-16.35 35.55-22.15 54.26-.93 3.78-2.25 8.11-.25 11.78 1.27 2.01 4.12 2.49 6.03 1.07 4.62-3.18 7.33-8.32 10.08-13.05 8.71-16.08 14.17-33.62 21.87-50.16 5.91-13.03 12.18-26.27 22.05-36.83 6.92-7.13 16.58-12.76 26.82-11.74-.08 3.57-2.94 5.97-5.11 8.45-7.66 7.97-15.99 15.38-22.53 24.34-3.64 5.11-7.34 10.91-6.98 17.44.21 4.59 2.73 9.48 7.38 10.9 6.82 2.09 14.01-.25 20.44-2.64 10.52-4.39 20.55-10.28 28.9-18.08-5.27 47.32-10.5 94.64-15.79 141.96-.05 1.78-2.13 2.24-3.31 3.14-15.27 8.39-32.24 13.12-49.2 16.73-26.99 5.55-54.6 7.38-82.11 7.67-24.71.02-49.49-1.24-73.91-5.18-16.56-2.75-33.03-6.57-48.62-12.87-5.9-2.45-11.74-5.14-16.97-8.84-4.11-41.13-8.52-82.23-12.73-123.36 7.47 3.77 16.45 4.42 24.28 1.35 12.22-4.59 21.03-14.64 30.24-23.4-1.81 13.5-9.12 25.8-9.87 39.54-.06 2.36.02 4.99 1.62 6.88 1.97 2.17 5.62 1.74 7.5-.32 3.34-3.4 5.03-8.01 6.65-12.4 4.93-14.26 8.02-29.07 12.56-43.45 3.87-12.73 8.59-25.23 11.5-38.23.94-4.7 1.97-9.7.63-14.42-.76-2.8-4.05-4.54-6.79-3.58-2.2.86-3.77 2.77-4.94 4.76-5.8 9.94-6.45 21.96-12.06 31.96-7.34 11.04-16.54 20.9-27.11 28.91-5 3.48-10.71 7.25-17.09 6.59-4.11-.36-6.77-4.21-7.79-7.89-2.55-8.98-.89-18.51 1.38-27.37 4.66-16.87 12.18-32.83 21.01-47.88 6.99-11.52 14.47-23.77 26.7-30.37 5.24-2.85 11.94-5.27 17.63-2.24 6.46 3.9 8 11.99 12.84 17.34 3.82 4.45 12.92 1.83 13.07-4.29.07-5.51-2.91-10.52-6.02-14.87-5.34-6.93-12.2-13.34-20.8-15.78-7.27-1.57-14.93.04-21.64 3.02-10.96 4.91-19.61 13.71-26.85 23.09-14.69 19.46-24.11 42.19-32.53 64.89-7.28-66.06-13.7-132.23-20.8-198.32 11.31 6.28 24.26 8.61 36.84 11 36.33 6.13 73.26 7.52 110.03 8.46 47.71.65 95.56.15 143.07-4.8 15.69-1.75 31.38-3.97 46.69-7.9z"/><path d="M50.38 611.85c20.38 7.35 41.69 11.81 63.09 14.91 45.25 6.27 91.43 6.04 136.58-.94 19.71-3.19 39.33-7.53 58.1-14.45-6.44 10.83-12.73 21.76-19.16 32.59-1.07 1.84-2.39 3.7-2.42 5.92-2.51 42.09-5.01 84.17-7.59 126.25-1.23 6.82-8.74 9.7-14.38 12.2-22.21 8.23-46.15 10.14-69.62 11.28-28.48.69-57.3-.39-85.08-7.19-7.27-1.89-14.58-4.17-21-8.18-2.86-1.88-5.99-4.47-6.23-8.16-2.96-41.44-5.4-82.94-8.59-124.35-7.51-13.5-15.98-26.49-23.7-39.88z"/></g><path fill="#fff" d="M210.72 212.37c-1.98-2.42-.62-5.42 1.72-6.94 1.37 1.12 1.85 2.74 2.04 4.45 11.55 1.89 23.43 1.81 34.96-.16-.62-.81-1.25-1.6-1.89-2.39.56-.51 1.66-1.52 2.21-2.03 1.53 1.23 3.63 2.41 3.54 4.69-.31 2.53-2.88 3.69-5.1 4.06-8.62 1.75-17.47 1.1-26.2 1.17-3.81-.3-8.23-.19-11.28-2.85z"/></svg>