<svg viewBox="0 0 364 512" xmlns="http://www.w3.org/2000/svg"><path d="M34.26 0H57.5c-.03 7.54.07 15.08-.06 22.62 7 .3 14.02.04 21.02.14.09-7.58 0-15.17.05-22.76h23.24c0 23.07-.01 46.14 0 69.2-7.74.1-15.49.04-23.23.04-.03-7.72-.06-15.44.02-23.15-7.02-.16-14.05-.12-21.07-.02.05 7.72.04 15.45.01 23.17-7.74.01-15.48.03-23.22-.01-.02-23.08-.01-46.15 0-69.23zm77.25 0h63.99c.01 7.64-.03 15.29.03 22.93-6.76.17-13.52 0-20.28.09-.01 15.41.02 30.81-.01 46.21-7.83.03-15.65.03-23.48.01-.03-15.41 0-30.82-.01-46.22-6.76-.08-13.52.07-20.28-.08.06-7.65 0-15.29.04-22.94zm74 0h24.21c4.91 7.9 9.74 15.85 14.56 23.81C229.43 16.04 233.99 7.87 239 0h24.25c-.01 23.08.02 46.16-.01 69.24-7.67.02-15.33.03-22.98-.01-.06-11.21.08-22.42-.08-33.63-5.71 7.83-10.4 16.36-16.09 24.21-5.35-8.07-10.44-16.3-15.86-24.32.03 11.25.03 22.5.01 33.75-7.51.07-15.02-.07-22.53.07-.49-23.08-.08-46.21-.2-69.31zm88.98 0H298c.01 15.33-.01 30.66.01 45.99 10.82.03 21.65-.01 32.48.02.02 7.74.03 15.49-.01 23.23-18.65.02-37.31.02-55.96 0-.05-23.08 0-46.16-.03-69.24z"/><path fill="#e85427" d="M.45 100.54c121.03-.06 242.07-.05 363.1 0-11.13 123.44-22.06 246.91-33.1 370.36-49.31 13.77-98.68 27.32-147.98 41.1h-1.45c-49.15-13.88-98.47-27.17-147.58-41.16C22.56 347.39 11.52 223.96.45 100.54m67.57 75.73c4.15 45.81 8.11 91.64 12.32 137.45 52.38-.09 104.75.07 157.13.1-1.53 19.51-3.5 38.99-5.12 58.5-16.83 4.58-33.67 9.13-50.52 13.64-16.89-4.24-33.65-9.06-50.5-13.48-1.11-12.06-2.17-24.13-3.24-36.2-15.29.06-30.57-.05-45.86.06 2.26 23.75 4.35 47.52 6.39 71.3 31.09 8.74 62.22 17.4 93.38 25.92 31.02-8.44 61.96-17.24 92.99-25.66 4.42-46.62 8.37-93.31 12.6-139.95-55.19-.07-110.38.12-165.58.1-1.42-15.45-2.77-30.89-4.15-46.34 57.95-.02 115.89.17 173.84.1 1.27-15.23 2.96-30.44 3.93-45.69-75.87.08-151.74.23-227.61.15z"/><path fill="#f5f5f5" d="M68.02 176.27c75.87.08 151.74-.07 227.61-.15-.97 15.25-2.66 30.46-3.93 45.69-57.95.07-115.89-.12-173.84-.1 1.38 15.45 2.73 30.89 4.15 46.34 55.2.02 110.39-.17 165.58-.1-4.23 46.64-8.18 93.33-12.6 139.95-31.03 8.42-61.97 17.22-92.99 25.66-31.16-8.52-62.29-17.18-93.38-25.92-2.04-23.78-4.13-47.55-6.39-71.3 15.29-.11 30.57 0 45.86-.06 1.07 12.07 2.13 24.14 3.24 36.2 16.85 4.42 33.61 9.24 50.5 13.48 16.85-4.51 33.69-9.06 50.52-13.64 1.62-19.51 3.59-38.99 5.12-58.5-52.38-.03-104.75-.19-157.13-.1-4.21-45.81-8.17-91.64-12.32-137.45z"/></svg>