<?xml version="1.0" encoding="UTF-8" ?>
<!DOCTYPE svg PUBLIC "-//W3C//DTD SVG 1.1//EN" "http://www.w3.org/Graphics/SVG/1.1/DTD/svg11.dtd">
<svg viewBox="0 0 364 512" version="1.1" xmlns="http://www.w3.org/2000/svg">
<g id="#000000ff">
<path fill="#000000" opacity="1.00" d=" M 34.26 0.00 L 57.50 0.00 C 57.47 7.54 57.57 15.08 57.44 22.62 C 64.44 22.92 71.46 22.66 78.46 22.76 C 78.55 15.18 78.46 7.59 78.51 0.00 L 101.75 0.00 C 101.75 23.07 101.74 46.14 101.75 69.20 C 94.01 69.30 86.26 69.24 78.52 69.24 C 78.49 61.52 78.46 53.80 78.54 46.09 C 71.52 45.93 64.49 45.97 57.47 46.07 C 57.52 53.79 57.51 61.52 57.48 69.24 C 49.74 69.25 42.00 69.27 34.26 69.23 C 34.24 46.15 34.25 23.08 34.26 0.00 Z" />
<path fill="#000000" opacity="1.00" d=" M 111.51 0.00 L 175.50 0.00 C 175.51 7.64 175.47 15.29 175.53 22.93 C 168.77 23.10 162.01 22.93 155.25 23.02 C 155.24 38.43 155.27 53.83 155.24 69.23 C 147.41 69.26 139.59 69.26 131.76 69.24 C 131.73 53.83 131.76 38.42 131.75 23.02 C 124.99 22.94 118.23 23.09 111.47 22.94 C 111.53 15.29 111.47 7.65 111.51 0.00 Z" />
<path fill="#000000" opacity="1.00" d=" M 185.51 0.00 L 209.72 0.00 C 214.63 7.90 219.46 15.85 224.28 23.81 C 229.43 16.04 233.99 7.87 239.00 0.00 L 263.25 0.00 C 263.24 23.08 263.27 46.16 263.24 69.24 C 255.57 69.26 247.91 69.27 240.26 69.23 C 240.20 58.02 240.34 46.81 240.18 35.60 C 234.47 43.43 229.78 51.96 224.09 59.81 C 218.74 51.74 213.65 43.51 208.23 35.49 C 208.26 46.74 208.26 57.99 208.24 69.24 C 200.73 69.31 193.22 69.17 185.71 69.31 C 185.22 46.23 185.63 23.10 185.51 0.00 Z" />
<path fill="#000000" opacity="1.00" d=" M 274.49 0.00 L 298.00 0.00 C 298.01 15.33 297.99 30.66 298.01 45.99 C 308.83 46.02 319.66 45.98 330.49 46.01 C 330.51 53.75 330.52 61.50 330.48 69.24 C 311.83 69.26 293.17 69.26 274.52 69.24 C 274.47 46.16 274.52 23.08 274.49 0.00 Z" />
</g>
<g id="#e85427ff">
<path fill="#e85427" opacity="1.00" d=" M 0.45 100.54 C 121.48 100.48 242.52 100.49 363.55 100.54 C 352.42 223.98 341.49 347.45 330.45 470.90 C 281.14 484.67 231.77 498.22 182.47 512.00 L 181.02 512.00 C 131.87 498.12 82.55 484.83 33.44 470.84 C 22.56 347.39 11.52 223.96 0.45 100.54 M 68.02 176.27 C 72.17 222.08 76.13 267.91 80.34 313.72 C 132.72 313.63 185.09 313.79 237.47 313.82 C 235.94 333.33 233.97 352.81 232.35 372.32 C 215.52 376.90 198.68 381.45 181.83 385.96 C 164.94 381.72 148.18 376.90 131.33 372.48 C 130.22 360.42 129.16 348.35 128.09 336.28 C 112.80 336.34 97.52 336.23 82.23 336.34 C 84.49 360.09 86.58 383.86 88.62 407.64 C 119.71 416.38 150.84 425.04 182.00 433.56 C 213.02 425.12 243.96 416.32 274.99 407.90 C 279.41 361.28 283.36 314.59 287.59 267.95 C 232.40 267.88 177.21 268.07 122.01 268.05 C 120.59 252.60 119.24 237.16 117.86 221.71 C 175.81 221.69 233.75 221.88 291.70 221.81 C 292.97 206.58 294.66 191.37 295.63 176.12 C 219.76 176.20 143.89 176.35 68.02 176.27 Z" />
</g>
<g id="#f5f5f5ff">
<path fill="#f5f5f5" opacity="1.00" d=" M 68.02 176.27 C 143.89 176.35 219.76 176.20 295.63 176.12 C 294.66 191.37 292.97 206.58 291.70 221.81 C 233.75 221.88 175.81 221.69 117.86 221.71 C 119.24 237.16 120.59 252.60 122.01 268.05 C 177.21 268.07 232.40 267.88 287.59 267.95 C 283.36 314.59 279.41 361.28 274.99 407.90 C 243.96 416.32 213.02 425.12 182.00 433.56 C 150.84 425.04 119.71 416.38 88.62 407.64 C 86.58 383.86 84.49 360.09 82.23 336.34 C 97.52 336.23 112.80 336.34 128.09 336.28 C 129.16 348.35 130.22 360.42 131.33 372.48 C 148.18 376.90 164.94 381.72 181.83 385.96 C 198.68 381.45 215.52 376.90 232.35 372.32 C 233.97 352.81 235.94 333.33 237.47 313.82 C 185.09 313.79 132.72 313.63 80.34 313.72 C 76.13 267.91 72.17 222.08 68.02 176.27 Z" />
</g>
</svg>
