<svg viewBox="0 0 960 489" xmlns="http://www.w3.org/2000/svg"><path d="M822.16 70.35c6.83-1.95 14.06-.92 20.95.22 14.26 2.74 28.04 7.83 40.84 14.64 7.21 4.04 14.53 8.41 19.86 14.86 2.82 3.27 4.46 8.52 1.55 12.25-4.78 5.17-11.01 9.4-13.9 16.03-32.94 85.76-65.99 171.48-98.91 257.25-3.66 10.5-11.85 19.26-21.96 23.83-10.18 4.61-22.26 4.83-32.6.58-9.43-3.82-17.23-11.39-21.45-20.63-4.99-10.63-5.05-23.39-.28-34.11 8.67-22.55 17.4-45.08 26.03-67.65-12.25 12.41-25.13 24.53-40.33 33.28-9.06 5.12-19.43 9.06-30.01 7.65-5.12-.63-10.43-2.61-13.55-6.94-3.93-5.31-3.88-12.39-2.87-18.64 1.31-8.16 4.57-15.82 7.95-23.31-13.9 13.83-28.24 27.81-45.87 36.81-9.95 5.05-22.02 8.07-32.76 3.67-6.17-2.35-9.87-8.79-10.04-15.21-.44-11.19 3.91-21.87 8.51-31.85-4.61 4.21-8.56 9.6-14.38 12.17-2.85.7-2.31-2.91-.62-3.94 10.66-9 19.95-19.51 28.45-30.56 15.5-20.4 30.37-41.31 43.83-63.12 2.75-4.57 5.9-9.2 6.5-14.64.2-1.52-.28-3.27-1.99-3.56-4.7.96-8.53 4.43-13.41 4.77.38-3.05 3.39-4.37 5.66-5.87 8.19-4.85 17.14-8.41 26.37-10.71 5.74-1.35 12.05-2.31 17.65.06 3.22 1.27 4.71 5.04 4.01 8.3-1.39 7.22-6.14 13.12-10.62 18.72-13.37 16.28-28.53 31-41.96 47.24-9.91 12.92-19.12 26.39-27.5 40.36-4.9 8.49-9.77 17.12-12.7 26.52-1.04 3.84-2.25 8.18-.41 11.97 1.9 3.47 6.44 3.83 9.92 3.11 12.21-2.12 22.83-9.08 32.75-16.14 14.01-10.41 27.54-21.77 38.27-35.64 17.49-22.51 34.03-45.81 48.93-70.12 2.66-4.53 5.84-9.47 5.07-14.98-.75-.99-1.7-1.29-2.86-.9-4.37.98-8 4.79-12.7 4.18 1.83-3.79 5.96-5.4 9.36-7.45 9.42-4.85 19.54-8.77 30.11-10.04 5.07-.32 12.39-.24 14.38 5.53 1.21 6.33-2.68 12.24-6.11 17.23-10.81 14.32-23.53 27.05-35.42 40.45-12.32 13.3-22.54 28.35-32.43 43.49-6.98 11.1-13.89 22.42-18.23 34.86-1.25 4.23-2.79 9-.82 13.25 1.78 3.4 6.25 3.71 9.62 3.17 11.93-2.04 22.38-8.71 32.12-15.56 9.86-7.04 19.07-14.95 27.91-23.23 1.66-1.61 3.64-3.1 4.46-5.35 22.82-59.23 45.61-118.47 68.43-177.7 2.4-6.42.96-13.37.41-19.98-.49-4.15 3-7.64 6.79-8.62m.27 7.45c.89 7.61 1.95 15.6-.53 23.03C789 186.4 756.19 272 723.28 357.56c-2.49 5.84-3.93 12.28-2.98 18.64 1.52 13.07 11.4 24.71 24.11 28.21 10.43 3.07 22.26.49 30.56-6.5 5.18-4.17 8.6-10.09 10.84-16.26 32.87-85.51 65.75-171.02 98.63-256.53 3.19-7.25 9.56-12.36 15.1-17.77-3.84-6.7-10.69-10.8-17.15-14.62-13.46-7.45-28.1-13-43.29-15.58-5.51-.74-11.38-1.51-16.67.65z"/><path d="M835.25 84.21c2.74-1.04 5.76-.76 8.62-.43 7.84 1.03 15.41 3.56 22.67 6.63 5.81 2.58 11.58 5.51 16.4 9.71 1.6 1.49 3.4 3.4 3.01 5.78-2.47 2.85-6.75 2.07-10.07 1.82-11.11-1.57-21.83-5.56-31.61-10.99-3.87-2.39-8.17-4.77-10.44-8.87-.99-1.28.04-3.17 1.42-3.65zm-356.43 52.62c7.28-2.84 15.41-4.5 23.13-2.54 5.95 1.46 10.95 6.51 11.87 12.64 1.4 8.13-1.9 16.16-5.97 23.03-7.93 13.01-19.87 22.85-31.82 32-13.24 9.85-27.17 18.89-42.15 25.87-1.89.78-4.64 2.19-6.26.2-.12-2.19 2.08-2.94 3.66-3.79 16.31-7.76 31.2-18.24 45.16-29.64 9.84-8.16 19.06-17.27 26.17-27.95 2.11-3.5 4.5-7.32 4.17-11.56-.41-3.08-4.23-3.82-6.76-3.2-8.91 1.84-16.58 7.15-23.88 12.32-17.22 12.94-31.88 28.9-45.8 45.24-15.55 18.54-29.92 38.09-42.83 58.56 9.71-11.43 20.41-22.51 33.87-29.49 7.93-4.22 17.22-6.85 26.2-4.94 5.51 1.14 10.71 5.42 11.31 11.27.6 6.55-2.1 12.96-5.81 18.23-7.67 10.66-19.71 17.17-32.1 20.77-10.42 3-21.76 5.32-32.44 2.21 10.08 11.86 23.13 21.31 37.68 26.89 7.01 2.67 16.05 4 21.96-1.71 2.29-1.35 1.31-5.22 4.16-5.81.67 7.1-5.69 12.06-11.74 14.08-11.49 3.83-24.18 3.11-35.64-.48-12.82-4.25-25.23-11.91-32.32-23.71-4.18 11.09-7.37 22.73-7.64 34.66.07 4.79.4 9.87 2.98 14.07.45 1.06 2.13 3.17 0 3.63-6.51-3.88-11.1-10.95-11.75-18.54-1.52-16.5 3.45-32.73 9.26-47.97-14.33 13.26-28.73 26.77-45.49 36.96-12.86 7.78-27.7 13.39-42.95 12.32-8.49-.54-17.47-3.76-22.52-10.97-4.89-6.87-4.68-15.9-3.07-23.82 3.44-15.97 14.51-29.35 27.8-38.39 14.16-9.54 31.58-15.2 48.73-12.88 5.76.91 12.14 3.14 15.08 8.57 2.6 4.93 1.1 10.87-1.8 15.3-4.76 7.34-12.42 12.24-20.28 15.72-8.56 3.58-17.67 6.13-26.97 6.56-2.21.22-4.32-.46-6.22-1.52 3.6-2.11 7.99-1.19 11.91-2.31 11.43-2.69 23.18-6.79 31.65-15.28 3.12-3.3 6.24-8.26 4.08-12.86-2.14-4.5-7.86-5.6-12.36-4.9-9.05 1.43-16.69 7.12-23.37 13.07-9.91 9.27-18.54 20.66-22.02 33.97-1.68 6.29-1.39 14.18 3.93 18.71 5.18 4.22 12.5 3.47 18.5 1.7 12.24-3.87 23.05-11.09 33.46-18.42 10.65-7.86 21.27-16.04 29.72-26.32 2.44-2.94 4.87-5.86 7.27-8.83 2.36-2.89 3.53-6.5 5.19-9.79 12.59-26.72 28.21-52.11 47.53-74.51 7.33-8.64 15.34-16.67 23.48-24.55 9.39-8.95 19.94-16.99 32.05-21.87m-59.42 110.6c-8.64 3.7-15.77 10.04-22.53 16.42-4.71 4.52-9.39 9.11-13.59 14.12 1.23 3.37 3.91 6.26 7.74 6.26 10.8.51 21.32-3.51 30.75-8.44 6.83-3.79 13.32-9.45 15.53-17.2 1.14-3.98.41-9.09-3.32-11.45-4.43-2.86-10.04-1.58-14.58.29zm-157.96-42.69c3.52-1.07 8.01-.58 10.29 2.61 2.68 3.84 1.46 8.97-.65 12.77-3.39 5.95-10.1 10.84-17.21 9.75-4.14-.53-6.96-4.72-6.39-8.76.87-7.52 6.86-14.07 13.96-16.37z"/><path d="M579.61 216.51c4.25-4.6 12.8-5.01 16.95-.09 1.88 2.08 2.2 6.04-.52 7.56-4.09 2.12-9.12-.6-13.06 2.04-5.38 3.4-8.23 9.48-10.61 15.14-7.05 17.88-11.46 36.68-18.68 54.51-12.02 31.27-31.38 60.32-58.25 80.69-17.19 12.94-37.72 22.42-59.45 23.45-14.64.58-30.21-1.72-42.36-10.46-10.16-7.26-16.45-19.02-18.25-31.24-.74-1.66.86-4.21 2.57-2.32 1.7 7 3.92 14.03 8.36 19.83 9.28 13.04 25.8 20.14 41.64 18.66 15.86-1.35 30.42-8.99 43.04-18.29 26.03-19.56 45.34-46.45 61.92-74.13 9.07-15.18 17.44-30.79 25.45-46.56-11.64 17.04-24.72 33.2-39.86 47.26-6.89 6.25-14.22 12.35-22.9 15.93-5.95 2.44-13.45 2.75-18.78-1.27-5-3.91-5.41-11-4.28-16.76 1.31-8.56 6.09-15.98 11.02-22.89 6.4-8.83 13.5-17.11 20.64-25.35 1.54-1.8 3.02-3.84 3.28-6.27 0-1.61-1.26-2.51-2.73-2.68-3.97.3-7.31 2.74-10.41 5.02-13.86 10.36-25.71 23.06-38.76 34.36-1.14.65-2.33 2.39-3.78 1.41-1.15-1.66.47-3.54 1.67-4.64 9.84-8.47 18.56-18.13 27.91-27.13 6.35-5.92 12.86-12.43 21.51-14.72 5.78-1.46 12.48-1.43 17.54 2.1 4.35 2.9 6.51 8.32 6.24 13.44-.32 6.99-3.71 13.36-7.47 19.09-5.81 9.09-13.07 17.17-18.67 26.39-1.63 2.89-3.49 5.92-3.55 9.34 1.14 2.53 4.33 1.07 6.21.3 9.89-4.89 17.48-13.18 24.94-21.09 12.73-13.76 24.49-28.41 35.35-43.69 6.49-8.31 8.64-19.3 16.13-26.94zm-344.7 25.53c.7-1.14 1.24-2.6 2.85-2.59 5.25-.24 9.78 3.69 11.27 8.55 2.64 8.42 1.37 17.47-.58 25.9-3.09 12.07-8.17 23.54-14.19 34.41-8.47 15.31-18.72 29.59-30 42.94-11.71 14.17-26.46 25.66-42.52 34.51-15.53 8.37-32.93 14.55-50.8 13.75-15.42-.32-31.87-4.96-42.28-16.99-6.53-7.69-10.97-17.69-11.03-27.85.63.27 1.89.82 2.53 1.09 1.23 3.52 1.72 7.28 3.31 10.69 6.05 14.85 20.61 25.65 36.53 27.34 11.04 1.56 21.95-2.25 31.68-7.15 16.11-8.42 30.19-20.23 42.97-33.06 10.88-10.91 20.63-22.91 29.45-35.54 10.85-15.62 20.99-31.79 29.24-48.95-4.8 5.27-9.96 10.2-15.68 14.46-1.57-1.01-2.96-3.48-.91-4.8 8.9-7.77 17.94-16.46 21.97-27.86 1.66-3.57-.37-7.39-3.81-8.85z"/><path fill="#c00" d="M825.66 215.56c9.71-5.18 17.54-13.14 25.04-21.06-23.42 61.27-47.04 122.47-70.52 183.72-1.31 3.48-2.59 7.06-4.82 10.09-6.15 8.67-17.75 13.06-28.09 10.46-11.33-2.54-20.21-12.99-21.14-24.53-.68-5.3.95-10.5 2.97-15.32 14.65-37.96 29.22-75.95 43.81-113.94 1.07-2.99 3.26-5.37 5.36-7.69 6.19-6.66 13.99-12.04 22.84-14.41 8.23-2.24 16.92-3.25 24.55-7.32m-40.11 29.07c-3.51 1.65-.26 6.98 2.79 4.67 2.94-1.71-.03-6.4-2.79-4.67m18.63 19.58c-2.8.96-3.52 5-1.24 6.89 1.92 2.14 5.73 1.17 6.75-1.42 1.67-3.18-2.36-7.24-5.51-5.47m-29 20.94c-5.41 1.01-8.41 8.09-4.91 12.51 3.23 5.1 11.78 4.16 13.91-1.47 2.78-5.64-2.97-12.56-9-11.04m-13.02 19.04c-2.84.88-3.78 5.09-1.4 7 2.22 2.46 6.57.8 6.98-2.37.59-3.01-2.69-5.8-5.58-4.63m17.15 34.15c-2.92 2.1.56 6.67 3.42 4.42 2.73-2.14-.67-6.64-3.42-4.42z"/></svg>