<?xml version="1.0" encoding="UTF-8" ?>
<!DOCTYPE svg PUBLIC "-//W3C//DTD SVG 1.1//EN" "http://www.w3.org/Graphics/SVG/1.1/DTD/svg11.dtd">
<svg viewBox="0 0 960 489" version="1.1" xmlns="http://www.w3.org/2000/svg">
<g id="#000000ff">
<path fill="#000000" opacity="1.00" d=" M 822.16 70.35 C 828.99 68.40 836.22 69.43 843.11 70.57 C 857.37 73.31 871.15 78.40 883.95 85.21 C 891.16 89.25 898.48 93.62 903.81 100.07 C 906.63 103.34 908.27 108.59 905.36 112.32 C 900.58 117.49 894.35 121.72 891.46 128.35 C 858.52 214.11 825.47 299.83 792.55 385.60 C 788.89 396.10 780.70 404.86 770.59 409.43 C 760.41 414.04 748.33 414.26 737.99 410.01 C 728.56 406.19 720.76 398.62 716.54 389.38 C 711.55 378.75 711.49 365.99 716.26 355.27 C 724.93 332.72 733.66 310.19 742.29 287.62 C 730.04 300.03 717.16 312.15 701.96 320.90 C 692.90 326.02 682.53 329.96 671.95 328.55 C 666.83 327.92 661.52 325.94 658.40 321.61 C 654.47 316.30 654.52 309.22 655.53 302.97 C 656.84 294.81 660.10 287.15 663.48 279.66 C 649.58 293.49 635.24 307.47 617.61 316.47 C 607.66 321.52 595.59 324.54 584.85 320.14 C 578.68 317.79 574.98 311.35 574.81 304.93 C 574.37 293.74 578.72 283.06 583.32 273.08 C 578.71 277.29 574.76 282.68 568.94 285.25 C 566.09 285.95 566.63 282.34 568.32 281.31 C 578.98 272.31 588.27 261.80 596.77 250.75 C 612.27 230.35 627.14 209.44 640.60 187.63 C 643.35 183.06 646.50 178.43 647.10 172.99 C 647.30 171.47 646.82 169.72 645.11 169.43 C 640.41 170.39 636.58 173.86 631.70 174.20 C 632.08 171.15 635.09 169.83 637.36 168.33 C 645.55 163.48 654.50 159.92 663.73 157.62 C 669.47 156.27 675.78 155.31 681.38 157.68 C 684.60 158.95 686.09 162.72 685.39 165.98 C 684.00 173.20 679.25 179.10 674.77 184.70 C 661.40 200.98 646.24 215.70 632.81 231.94 C 622.90 244.86 613.69 258.33 605.31 272.30 C 600.41 280.79 595.54 289.42 592.61 298.82 C 591.57 302.66 590.36 307.00 592.20 310.79 C 594.10 314.26 598.64 314.62 602.12 313.90 C 614.33 311.78 624.95 304.82 634.87 297.76 C 648.88 287.35 662.41 275.99 673.14 262.12 C 690.63 239.61 707.17 216.31 722.07 192.00 C 724.73 187.47 727.91 182.53 727.14 177.02 C 726.39 176.03 725.44 175.73 724.28 176.12 C 719.91 177.10 716.28 180.91 711.58 180.30 C 713.41 176.51 717.54 174.90 720.94 172.85 C 730.36 168.00 740.48 164.08 751.05 162.81 C 756.12 162.49 763.44 162.57 765.43 168.34 C 766.64 174.67 762.75 180.58 759.32 185.57 C 748.51 199.89 735.79 212.62 723.90 226.02 C 711.58 239.32 701.36 254.37 691.47 269.51 C 684.49 280.61 677.58 291.93 673.24 304.37 C 671.99 308.60 670.45 313.37 672.42 317.62 C 674.20 321.02 678.67 321.33 682.04 320.79 C 693.97 318.75 704.42 312.08 714.16 305.23 C 724.02 298.19 733.23 290.28 742.07 282.00 C 743.73 280.39 745.71 278.90 746.53 276.65 C 769.35 217.42 792.14 158.18 814.96 98.95 C 817.36 92.53 815.92 85.58 815.37 78.97 C 814.88 74.82 818.37 71.33 822.16 70.35 M 822.43 77.80 C 823.32 85.41 824.38 93.40 821.90 100.83 C 789.00 186.40 756.19 272.00 723.28 357.56 C 720.79 363.40 719.35 369.84 720.30 376.20 C 721.82 389.27 731.70 400.91 744.41 404.41 C 754.84 407.48 766.67 404.90 774.97 397.91 C 780.15 393.74 783.57 387.82 785.81 381.65 C 818.68 296.14 851.56 210.63 884.44 125.12 C 887.63 117.87 894.00 112.76 899.54 107.35 C 895.70 100.65 888.85 96.55 882.39 92.73 C 868.93 85.28 854.29 79.73 839.10 77.15 C 833.59 76.41 827.72 75.64 822.43 77.80 Z" />
<path fill="#000000" opacity="1.00" d=" M 835.25 84.21 C 837.99 83.17 841.01 83.45 843.87 83.78 C 851.71 84.81 859.28 87.34 866.54 90.41 C 872.35 92.99 878.12 95.92 882.94 100.12 C 884.54 101.61 886.34 103.52 885.95 105.90 C 883.48 108.75 879.20 107.97 875.88 107.72 C 864.77 106.15 854.05 102.16 844.27 96.73 C 840.40 94.34 836.10 91.96 833.83 87.86 C 832.84 86.58 833.87 84.69 835.25 84.21 Z" />
<path fill="#000000" opacity="1.00" d=" M 478.82 136.83 C 486.10 133.99 494.23 132.33 501.95 134.29 C 507.90 135.75 512.90 140.80 513.82 146.93 C 515.22 155.06 511.92 163.09 507.85 169.96 C 499.92 182.97 487.98 192.81 476.03 201.96 C 462.79 211.81 448.86 220.85 433.88 227.83 C 431.99 228.61 429.24 230.02 427.62 228.03 C 427.50 225.84 429.70 225.09 431.28 224.24 C 447.59 216.48 462.48 206.00 476.44 194.60 C 486.28 186.44 495.50 177.33 502.61 166.65 C 504.72 163.15 507.11 159.33 506.78 155.09 C 506.37 152.01 502.55 151.27 500.02 151.89 C 491.11 153.73 483.44 159.04 476.14 164.21 C 458.92 177.15 444.26 193.11 430.34 209.45 C 414.79 227.99 400.42 247.54 387.51 268.01 C 397.22 256.58 407.92 245.50 421.38 238.52 C 429.31 234.30 438.60 231.67 447.58 233.58 C 453.09 234.72 458.29 239.00 458.89 244.85 C 459.49 251.40 456.79 257.81 453.08 263.08 C 445.41 273.74 433.37 280.25 420.98 283.85 C 410.56 286.85 399.22 289.17 388.54 286.06 C 398.62 297.92 411.67 307.37 426.22 312.95 C 433.23 315.62 442.27 316.95 448.18 311.24 C 450.47 309.89 449.49 306.02 452.34 305.43 C 453.01 312.53 446.65 317.49 440.60 319.51 C 429.11 323.34 416.42 322.62 404.96 319.03 C 392.14 314.78 379.73 307.12 372.64 295.32 C 368.46 306.41 365.27 318.05 365.00 329.98 C 365.07 334.77 365.40 339.85 367.98 344.05 C 368.43 345.11 370.11 347.22 367.98 347.68 C 361.47 343.80 356.88 336.73 356.23 329.14 C 354.71 312.64 359.68 296.41 365.49 281.17 C 351.16 294.43 336.76 307.94 320.00 318.13 C 307.14 325.91 292.30 331.52 277.05 330.45 C 268.56 329.91 259.58 326.69 254.53 319.48 C 249.64 312.61 249.85 303.58 251.46 295.66 C 254.90 279.69 265.97 266.31 279.26 257.27 C 293.42 247.73 310.84 242.07 327.99 244.39 C 333.75 245.30 340.13 247.53 343.07 252.96 C 345.67 257.89 344.17 263.83 341.27 268.26 C 336.51 275.60 328.85 280.50 320.99 283.98 C 312.43 287.56 303.32 290.11 294.02 290.54 C 291.81 290.76 289.70 290.08 287.80 289.02 C 291.40 286.91 295.79 287.83 299.71 286.71 C 311.14 284.02 322.89 279.92 331.36 271.43 C 334.48 268.13 337.60 263.17 335.44 258.57 C 333.30 254.07 327.58 252.97 323.08 253.67 C 314.03 255.10 306.39 260.79 299.71 266.74 C 289.80 276.01 281.17 287.40 277.69 300.71 C 276.01 307.00 276.30 314.89 281.62 319.42 C 286.80 323.64 294.12 322.89 300.12 321.12 C 312.36 317.25 323.17 310.03 333.58 302.70 C 344.23 294.84 354.85 286.66 363.30 276.38 C 365.74 273.44 368.17 270.52 370.57 267.55 C 372.93 264.66 374.10 261.05 375.76 257.76 C 388.35 231.04 403.97 205.65 423.29 183.25 C 430.62 174.61 438.63 166.58 446.77 158.70 C 456.16 149.75 466.71 141.71 478.82 136.83 M 419.40 247.43 C 410.76 251.13 403.63 257.47 396.87 263.85 C 392.16 268.37 387.48 272.96 383.28 277.97 C 384.51 281.34 387.19 284.23 391.02 284.23 C 401.82 284.74 412.34 280.72 421.77 275.79 C 428.60 272.00 435.09 266.34 437.30 258.59 C 438.44 254.61 437.71 249.50 433.98 247.14 C 429.55 244.28 423.94 245.56 419.40 247.43 Z" />
<path fill="#000000" opacity="1.00" d=" M 261.44 204.74 C 264.96 203.67 269.45 204.16 271.73 207.35 C 274.41 211.19 273.19 216.32 271.08 220.12 C 267.69 226.07 260.98 230.96 253.87 229.87 C 249.73 229.34 246.91 225.15 247.48 221.11 C 248.35 213.59 254.34 207.04 261.44 204.74 Z" />
<path fill="#000000" opacity="1.00" d=" M 579.61 216.51 C 583.86 211.91 592.41 211.50 596.56 216.42 C 598.44 218.50 598.76 222.46 596.04 223.98 C 591.95 226.10 586.92 223.38 582.98 226.02 C 577.60 229.42 574.75 235.50 572.37 241.16 C 565.32 259.04 560.91 277.84 553.69 295.67 C 541.67 326.94 522.31 355.99 495.44 376.36 C 478.25 389.30 457.72 398.78 435.99 399.81 C 421.35 400.39 405.78 398.09 393.63 389.35 C 383.47 382.09 377.18 370.33 375.38 358.11 C 374.64 356.45 376.24 353.90 377.95 355.79 C 379.65 362.79 381.87 369.82 386.31 375.62 C 395.59 388.66 412.11 395.76 427.95 394.28 C 443.81 392.93 458.37 385.29 470.99 375.99 C 497.02 356.43 516.33 329.54 532.91 301.86 C 541.98 286.68 550.35 271.07 558.36 255.30 C 546.72 272.34 533.64 288.50 518.50 302.56 C 511.61 308.81 504.28 314.91 495.60 318.49 C 489.65 320.93 482.15 321.24 476.82 317.22 C 471.82 313.31 471.41 306.22 472.54 300.46 C 473.85 291.90 478.63 284.48 483.56 277.57 C 489.96 268.74 497.06 260.46 504.20 252.22 C 505.74 250.42 507.22 248.38 507.48 245.95 C 507.48 244.34 506.22 243.44 504.75 243.27 C 500.78 243.57 497.44 246.01 494.34 248.29 C 480.48 258.65 468.63 271.35 455.58 282.65 C 454.44 283.30 453.25 285.04 451.80 284.06 C 450.65 282.40 452.27 280.52 453.47 279.42 C 463.31 270.95 472.03 261.29 481.38 252.29 C 487.73 246.37 494.24 239.86 502.89 237.57 C 508.67 236.11 515.37 236.14 520.43 239.67 C 524.78 242.57 526.94 247.99 526.67 253.11 C 526.35 260.10 522.96 266.47 519.20 272.20 C 513.39 281.29 506.13 289.37 500.53 298.59 C 498.90 301.48 497.04 304.51 496.98 307.93 C 498.12 310.46 501.31 309.00 503.19 308.23 C 513.08 303.34 520.67 295.05 528.13 287.14 C 540.86 273.38 552.62 258.73 563.48 243.45 C 569.97 235.14 572.12 224.15 579.61 216.51 Z" />
<path fill="#000000" opacity="1.00" d=" M 234.91 242.04 C 235.61 240.90 236.15 239.44 237.76 239.45 C 243.01 239.21 247.54 243.14 249.03 248.00 C 251.67 256.42 250.40 265.47 248.45 273.90 C 245.36 285.97 240.28 297.44 234.26 308.31 C 225.79 323.62 215.54 337.90 204.26 351.25 C 192.55 365.42 177.80 376.91 161.74 385.76 C 146.21 394.13 128.81 400.31 110.94 399.51 C 95.52 399.19 79.07 394.55 68.66 382.52 C 62.13 374.83 57.69 364.83 57.63 354.67 C 58.26 354.94 59.52 355.49 60.16 355.76 C 61.39 359.28 61.88 363.04 63.47 366.45 C 69.52 381.30 84.08 392.10 100.00 393.79 C 111.04 395.35 121.95 391.54 131.68 386.64 C 147.79 378.22 161.87 366.41 174.65 353.58 C 185.53 342.67 195.28 330.67 204.10 318.04 C 214.95 302.42 225.09 286.25 233.34 269.09 C 228.54 274.36 223.38 279.29 217.66 283.55 C 216.09 282.54 214.70 280.07 216.75 278.75 C 225.65 270.98 234.69 262.29 238.72 250.89 C 240.38 247.32 238.35 243.50 234.91 242.04 Z" />
</g>
<g id="#cc0000ff">
<path fill="#cc0000" opacity="1.00" d=" M 825.66 215.56 C 835.37 210.38 843.20 202.42 850.70 194.50 C 827.28 255.77 803.66 316.97 780.18 378.22 C 778.87 381.70 777.59 385.28 775.36 388.31 C 769.21 396.98 757.61 401.37 747.27 398.77 C 735.94 396.23 727.06 385.78 726.13 374.24 C 725.45 368.94 727.08 363.74 729.10 358.92 C 743.75 320.96 758.32 282.97 772.91 244.98 C 773.98 241.99 776.17 239.61 778.27 237.29 C 784.46 230.63 792.26 225.25 801.11 222.88 C 809.34 220.64 818.03 219.63 825.66 215.56 M 785.55 244.63 C 782.04 246.28 785.29 251.61 788.34 249.30 C 791.28 247.59 788.31 242.90 785.55 244.63 M 804.18 264.21 C 801.38 265.17 800.66 269.21 802.94 271.10 C 804.86 273.24 808.67 272.27 809.69 269.68 C 811.36 266.50 807.33 262.44 804.18 264.21 M 775.18 285.15 C 769.77 286.16 766.77 293.24 770.27 297.66 C 773.50 302.76 782.05 301.82 784.18 296.19 C 786.96 290.55 781.21 283.63 775.18 285.15 M 762.16 304.19 C 759.32 305.07 758.38 309.28 760.76 311.19 C 762.98 313.65 767.33 311.99 767.74 308.82 C 768.33 305.81 765.05 303.02 762.16 304.19 M 779.31 338.34 C 776.39 340.44 779.87 345.01 782.73 342.76 C 785.46 340.62 782.06 336.12 779.31 338.34 Z" />
</g>
</svg>
