<?xml version="1.0" encoding="UTF-8" ?>
<!DOCTYPE svg PUBLIC "-//W3C//DTD SVG 1.1//EN" "http://www.w3.org/Graphics/SVG/1.1/DTD/svg11.dtd">
<svg viewBox="0 0 428 226" version="1.1" xmlns="http://www.w3.org/2000/svg">
<g id="#146bb2ff">
<path fill="#146bb2" opacity="1.00" d=" M 218.97 15.03 C 218.81 9.68 219.89 3.38 224.48 0.01 C 222.63 5.51 222.23 11.75 224.84 17.08 C 228.09 25.30 236.38 30.75 244.95 31.93 C 251.54 32.72 257.56 29.44 263.03 26.22 C 258.69 32.32 251.86 37.55 244.03 37.27 C 231.52 38.26 219.25 27.68 218.97 15.03 Z" />
<path fill="#146bb2" opacity="1.00" d=" M 195.38 17.16 C 197.29 12.36 200.30 8.09 203.60 4.15 C 198.20 13.85 199.02 26.07 204.32 35.62 C 212.09 49.79 228.90 59.29 245.11 56.79 C 252.19 55.58 258.72 52.02 263.83 47.01 C 260.21 57.02 250.29 63.53 240.03 65.05 C 232.16 66.12 223.77 65.87 216.50 62.34 C 206.54 57.44 198.56 48.52 195.04 37.97 C 192.97 31.24 192.85 23.78 195.38 17.16 Z" />
<path fill="#146bb2" opacity="1.00" d=" M 164.85 50.95 C 162.87 37.68 167.46 23.32 177.77 14.51 C 171.18 26.59 171.64 41.89 177.79 54.07 C 184.99 68.25 198.68 78.58 213.87 82.86 C 224.32 85.75 235.86 86.17 246.03 81.99 C 251.81 79.87 256.94 76.36 261.56 72.34 C 257.02 82.57 248.47 91.07 237.90 94.93 C 222.39 100.55 204.28 98.50 190.43 89.52 C 177.15 80.89 166.92 66.87 164.85 50.95 Z" />
</g>
<g id="#231f20ff">
<path fill="#231f20" opacity="1.00" d=" M 78.27 115.29 C 89.45 105.18 105.68 102.59 120.12 105.36 C 126.14 106.72 132.22 108.89 136.78 113.21 C 143.56 119.85 147.15 129.55 146.46 139.01 C 145.63 152.81 139.56 165.45 134.79 178.20 C 138.44 178.54 142.11 178.55 145.77 178.48 C 144.69 184.53 143.14 190.53 140.78 196.22 C 125.20 196.68 109.60 196.49 94.02 196.46 C 84.51 195.99 73.90 195.18 66.53 188.41 C 58.86 180.52 57.22 168.69 58.73 158.18 C 60.86 142.49 66.10 126.11 78.27 115.29 M 92.25 129.13 C 86.02 134.62 83.85 143.04 82.29 150.87 C 81.14 157.08 79.52 163.81 82.07 169.89 C 84.04 174.62 89.32 176.58 94.06 177.06 C 100.92 177.79 107.86 177.60 114.73 177.19 C 117.83 168.57 120.01 159.66 122.70 150.91 C 124.06 146.12 125.44 141.09 124.48 136.09 C 123.28 131.49 120.31 127.19 116.09 124.90 C 108.21 121.52 98.67 123.71 92.25 129.13 Z" />
<path fill="#231f20" opacity="1.00" d=" M 405.48 113.28 C 412.99 113.09 420.49 113.70 428.00 113.49 L 428.00 113.79 C 412.16 135.35 396.30 156.89 380.31 178.33 C 377.34 183.68 376.56 189.89 375.04 195.74 C 368.11 195.83 361.18 195.54 354.26 195.98 C 355.62 190.40 357.16 184.78 357.34 179.00 C 357.43 173.53 354.93 168.56 353.37 163.46 C 351.64 157.83 350.56 152.04 349.39 146.27 C 356.51 146.23 363.63 146.25 370.74 146.26 C 371.68 149.99 372.61 153.73 373.55 157.46 C 384.23 142.76 394.85 128.02 405.48 113.28 Z" />
<path fill="#231f20" opacity="1.00" d=" M 232.49 138.44 C 238.86 128.58 250.73 123.77 262.06 122.85 C 271.07 122.40 281.07 122.55 288.52 128.35 C 292.17 131.01 292.80 135.81 293.57 139.93 C 294.36 148.95 292.74 157.95 290.96 166.76 C 279.98 166.92 269.01 166.15 258.04 166.76 C 253.40 167.16 248.15 165.70 243.92 167.94 C 241.42 172.51 246.30 178.14 251.08 178.41 C 263.15 180.17 275.43 179.49 287.58 179.22 C 286.34 184.99 284.97 190.74 283.70 196.51 C 269.52 197.15 255.24 197.21 241.13 195.33 C 235.80 194.61 229.80 193.13 226.79 188.20 C 222.42 182.48 223.05 174.87 223.52 168.11 C 224.81 157.82 227.56 147.60 232.49 138.44 M 251.69 142.69 C 248.84 144.57 247.53 147.96 247.04 151.21 C 256.42 151.39 265.82 150.99 275.20 151.53 C 275.12 146.96 272.86 141.43 267.94 140.35 C 262.52 139.26 256.39 139.47 251.69 142.69 Z" />
<path fill="#231f20" opacity="1.00" d=" M 32.52 141.25 C 33.93 135.31 35.23 129.34 36.92 123.46 C 43.57 123.82 50.23 123.74 56.88 123.78 C 55.63 129.60 54.47 135.44 53.14 141.24 C 46.27 141.26 39.39 141.25 32.52 141.25 Z" />
<path fill="#231f20" opacity="1.00" d=" M 162.12 123.77 C 168.53 123.62 174.94 123.37 181.36 123.52 C 178.27 138.69 175.28 153.88 172.44 169.10 C 171.59 172.55 173.27 176.98 177.11 177.60 C 182.40 178.42 187.79 177.83 193.12 178.00 C 197.56 159.86 201.86 141.70 206.22 123.54 C 212.42 123.45 218.62 123.51 224.82 123.51 C 219.78 147.60 214.57 171.66 209.42 195.73 C 198.59 195.84 187.75 195.54 176.92 195.98 C 171.22 195.73 165.12 195.79 160.03 192.83 C 155.52 190.23 153.11 185.11 152.52 180.10 C 151.62 172.67 153.03 165.22 154.61 157.98 C 157.24 146.60 159.57 135.16 162.12 123.77 Z" />
<path fill="#231f20" opacity="1.00" d=" M 309.06 127.94 C 309.18 125.32 311.55 123.74 314.03 123.83 C 324.68 123.54 335.33 124.03 345.97 123.50 C 351.20 123.63 356.58 122.95 361.67 124.47 C 363.84 125.03 365.16 127.00 366.11 128.90 C 368.13 132.93 369.07 137.39 370.05 141.77 C 355.49 141.82 340.93 142.14 326.36 142.01 C 322.26 159.93 318.18 177.85 314.00 195.75 C 307.63 195.75 301.26 195.76 294.89 195.74 C 299.39 173.10 303.95 150.46 309.06 127.94 Z" />
<path fill="#231f20" opacity="1.00" d=" M 31.68 146.33 C 38.35 146.18 45.02 146.25 51.69 146.28 C 47.89 166.42 43.40 186.43 38.27 206.27 C 36.51 212.80 33.53 219.95 27.07 223.06 C 18.59 226.90 9.02 225.70 0.00 225.44 L 0.00 224.75 C 1.64 218.69 3.25 212.62 4.88 206.56 C 8.39 206.55 12.31 206.61 15.15 204.19 C 19.30 200.69 20.61 195.13 21.75 190.06 C 24.46 175.36 28.08 160.84 31.68 146.33 Z" />
</g>
</svg>
