<svg viewBox="0 0 428 226" xmlns="http://www.w3.org/2000/svg"><g fill="#146bb2"><path d="M218.97 15.03c-.16-5.35.92-11.65 5.51-15.02-1.85 5.5-2.25 11.74.36 17.07 3.25 8.22 11.54 13.67 20.11 14.85 6.59.79 12.61-2.49 18.08-5.71-4.34 6.1-11.17 11.33-19 11.05-12.51.99-24.78-9.59-25.06-22.24z"/><path d="M195.38 17.16c1.91-4.8 4.92-9.07 8.22-13.01-5.4 9.7-4.58 21.92.72 31.47 7.77 14.17 24.58 23.67 40.79 21.17 7.08-1.21 13.61-4.77 18.72-9.78-3.62 10.01-13.54 16.52-23.8 18.04-7.87 1.07-16.26.82-23.53-2.71-9.96-4.9-17.94-13.82-21.46-24.37-2.07-6.73-2.19-14.19.34-20.81z"/><path d="M164.85 50.95c-1.98-13.27 2.61-27.63 12.92-36.44-6.59 12.08-6.13 27.38.02 39.56 7.2 14.18 20.89 24.51 36.08 28.79 10.45 2.89 21.99 3.31 32.16-.87 5.78-2.12 10.91-5.63 15.53-9.65-4.54 10.23-13.09 18.73-23.66 22.59-15.51 5.62-33.62 3.57-47.47-5.41-13.28-8.63-23.51-22.65-25.58-38.57z"/></g><g fill="#231f20"><path d="M78.27 115.29c11.18-10.11 27.41-12.7 41.85-9.93 6.02 1.36 12.1 3.53 16.66 7.85 6.78 6.64 10.37 16.34 9.68 25.8-.83 13.8-6.9 26.44-11.67 39.19 3.65.34 7.32.35 10.98.28-1.08 6.05-2.63 12.05-4.99 17.74-15.58.46-31.18.27-46.76.24-9.51-.47-20.12-1.28-27.49-8.05-7.67-7.89-9.31-19.72-7.8-30.23 2.13-15.69 7.37-32.07 19.54-42.89m13.98 13.84c-6.23 5.49-8.4 13.91-9.96 21.74-1.15 6.21-2.77 12.94-.22 19.02 1.97 4.73 7.25 6.69 11.99 7.17 6.86.73 13.8.54 20.67.13 3.1-8.62 5.28-17.53 7.97-26.28 1.36-4.79 2.74-9.82 1.78-14.82-1.2-4.6-4.17-8.9-8.39-11.19-7.88-3.38-17.42-1.19-23.84 4.23zm313.23-15.85c7.51-.19 15.01.42 22.52.21v.3c-15.84 21.56-31.7 43.1-47.69 64.54-2.97 5.35-3.75 11.56-5.27 17.41-6.93.09-13.86-.2-20.78.24 1.36-5.58 2.9-11.2 3.08-16.98.09-5.47-2.41-10.44-3.97-15.54-1.73-5.63-2.81-11.42-3.98-17.19 7.12-.04 14.24-.02 21.35-.01.94 3.73 1.87 7.47 2.81 11.2 10.68-14.7 21.3-29.44 31.93-44.18zm-172.99 25.16c6.37-9.86 18.24-14.67 29.57-15.59 9.01-.45 19.01-.3 26.46 5.5 3.65 2.66 4.28 7.46 5.05 11.58.79 9.02-.83 18.02-2.61 26.83-10.98.16-21.95-.61-32.92 0-4.64.4-9.89-1.06-14.12 1.18-2.5 4.57 2.38 10.2 7.16 10.47 12.07 1.76 24.35 1.08 36.5.81-1.24 5.77-2.61 11.52-3.88 17.29-14.18.64-28.46.7-42.57-1.18-5.33-.72-11.33-2.2-14.34-7.13-4.37-5.72-3.74-13.33-3.27-20.09 1.29-10.29 4.04-20.51 8.97-29.67m19.2 4.25c-2.85 1.88-4.16 5.27-4.65 8.52 9.38.18 18.78-.22 28.16.32-.08-4.57-2.34-10.1-7.26-11.18-5.42-1.09-11.55-.88-16.25 2.34zm-219.17-1.44c1.41-5.94 2.71-11.91 4.4-17.79 6.65.36 13.31.28 19.96.32-1.25 5.82-2.41 11.66-3.74 17.46-6.87.02-13.75.01-20.62.01zm129.6-17.48c6.41-.15 12.82-.4 19.24-.25-3.09 15.17-6.08 30.36-8.92 45.58-.85 3.45.83 7.88 4.67 8.5 5.29.82 10.68.23 16.01.4 4.44-18.14 8.74-36.3 13.1-54.46 6.2-.09 12.4-.03 18.6-.03-5.04 24.09-10.25 48.15-15.4 72.22-10.83.11-21.67-.19-32.5.25-5.7-.25-11.8-.19-16.89-3.15-4.51-2.6-6.92-7.72-7.51-12.73-.9-7.43.51-14.88 2.09-22.12 2.63-11.38 4.96-22.82 7.51-34.21z"/><path d="M309.06 127.94c.12-2.62 2.49-4.2 4.97-4.11 10.65-.29 21.3.2 31.94-.33 5.23.13 10.61-.55 15.7.97 2.17.56 3.49 2.53 4.44 4.43 2.02 4.03 2.96 8.49 3.94 12.87-14.56.05-29.12.37-43.69.24-4.1 17.92-8.18 35.84-12.36 53.74-6.37 0-12.74.01-19.11-.01 4.5-22.64 9.06-45.28 14.17-67.8zM31.68 146.33c6.67-.15 13.34-.08 20.01-.05-3.8 20.14-8.29 40.15-13.42 59.99-1.76 6.53-4.74 13.68-11.2 16.79-8.48 3.84-18.05 2.64-27.07 2.38v-.69c1.64-6.06 3.25-12.13 4.88-18.19 3.51-.01 7.43.05 10.27-2.37 4.15-3.5 5.46-9.06 6.6-14.13 2.71-14.7 6.33-29.22 9.93-43.73z"/></g></svg>