<svg viewBox="0 0 350 280" xmlns="http://www.w3.org/2000/svg"><path fill="#fff" d="M257.99 166.3c.55.11 1.64.31 2.19.42 3.72 8 .66 16.96 2.77 25.25.92 3.99 4.88 5.84 8.32 7.25-.1 1.54-.19 3.09-.28 4.63-1.62.77-3.23 1.53-4.8 2.39 1.44-1.56 2.93-3.07 4.41-4.58-2.97-2.8-7.19-4.58-8.69-8.65-1.93-5.13-.77-10.74-1.11-16.08-.02-3.73-1.45-7.22-2.81-10.63z"/><path fill="#e7669c" d="M150.22 44.25c10.74-4.01 22.82-5.65 33.96-2.35 5.99 1.77 11.98 6.06 13.19 12.55 1.73 9.4-3.39 18.59-10.06 24.85-6.8 6.58-16.12 9.86-25.35 11.14-5.01.44-10.29.78-15.1-1.02-3.85-1.58-7.89-4.56-8.15-9.09 3.18 2.08 6.18 4.83 10.16 5.19 8.68 1.1 17.56-1.39 25.12-5.6 6.44-3.65 12.25-9.03 14.96-16.06 1.3-3.6 1.46-8.38-1.78-11.03-3.89-3.27-9.25-3.75-14.13-3.73-12.7-.06-24.68 5.22-35.46 11.49-7.15 4.25-14.21 9.27-18.72 16.41-3.31 5.07-3.92 12.29-.17 17.3 5.5 7.57 14.23 11.75 20.57 18.5 4.74-2.8 9.82-5.07 14.38-8.15 3.25-3.44 6.64-7.22 11.42-8.41 1.83-.31 4.22-.43 5.41 1.3 1.63 2.03 1.02 4.78 1 7.17 1.83-.33 3.57.1 5.14 1.08-1.31 6.9-4.44 13.53-4.1 20.67 3.14-4.53 5.02-9.76 7.33-14.73 2.57-6.03 5.72-11.84 7.54-18.16.74-4.09 6.47-3.48 9.33-2.31.15 1.99-.84 3.83-1.2 5.76-.99 3.99.01 8.14 1.63 11.83 5-6.45 8.86-14.03 10.72-22.03 2.98-.66 6.08-.95 9.06-.08-.92 3.69-2.56 7.42-1.88 11.31.29 3.05 1.83 5.73 3.14 8.43 7.56-3.24 16.5-4.33 24.16-.82 5.49 2.5 10.25 8.06 9.66 14.4.08 4.57-4.04 8.52-8.48 8.88 1.96-2.58 5.35-4.31 5.68-7.86.07-4.76-3.54-8.81-7.74-10.6-6.69-2.94-14.52-2.82-21.36-.45.65 3.04 1.95 6.38.33 9.34-2.55 5.2-8.23 7.73-13.56 9.07-1.49-1.03-3.26-2.34-3.02-4.41.58-5.7 4.64-10.14 8.68-13.84-1.98-3.58-3.18-7.5-4.11-11.47-2.66 5.13-5.6 10.09-8.73 14.94 1.8 3.99 2.64 9.02-.15 12.79-3.41 4.32-9.17 6.65-14.63 6.26-1.69.16-3.27-1.65-2.45-3.26 2.8-5.01 7.5-8.66 10.42-13.6-1.36-4.23-3.63-8.21-4.15-12.73-2.91 6.02-5.17 12.35-8.44 18.2-2.41 4.19-4.09 9.01-7.72 12.35-1.38 1.42-4.03 1.69-5.32.02-1.99-2.66-1.31-6.24-1.55-9.34-1.93 3.56-3.07 7.6-5.69 10.74-2.04 2.61-6.77 2.32-8.37-.63-4.46-6.67-3.64-15.2-1.55-22.56-2.66 1.47-5.31 2.95-7.96 4.45 3.33 8.92 1.77 19.84-5.12 26.68-5.57 6.18-14.59 8.5-22.54 6.31-4.18-2.42-5.51-7.94-4.33-12.39.88-4.32 3.81-7.87 7.1-10.65 5-4.29 10.76-7.56 16.62-10.51-8.91-7.57-20.42-12.67-26.5-23.13-2.54-4.02-2.92-9.15-1.12-13.53 2.83-7.71 8.74-13.8 14.95-18.95 8.67-6.92 18.69-11.99 29.03-15.93m7.99 66.01c-2.73 5.66-4.37 12.83-1.37 18.69 3.01-2.79 4.14-6.85 5.67-10.52 1.95-5.37 4.36-10.72 4.8-16.49-4.61.23-7.22 4.66-9.1 8.32m49.78 13.94c4.86-.65 7.43-5.85 6.38-10.37-3.46 2.42-5.32 6.39-6.38 10.37m-87.43 8.32c-1.71 2.78-3.68 7.2-.91 9.91 5.56 1.69 11.02-2.3 14.24-6.54 3.69-4.56 4.34-10.75 3.2-16.34-6.03 3.51-12.42 7.17-16.53 12.97m66.7-3.2c3.88-1.22 6.76-4.59 7.75-8.48-3.16 2.21-5.22 5.62-7.75 8.48z"/><path fill="#f1f1f1" d="M83.49 172.53c1.55-5.95 7.11-11.4 13.53-11.32 6.82-.14 13.65.01 20.47.19-.16 15.54-.01 31.09-.11 46.63.06 2.52 0 5.62 2.31 7.23 2.13.66 4.41.29 6.61.32.53 3.21.85 6.46.91 9.72-5.74.61-12.41 1.69-17.31-2.14-3.85-2.74-5.24-7.67-5.2-12.18-.01-14.36.04-28.71-.04-43.06l-.64-.36c-3.07.28-6.32 1.07-8.24 3.69-1.63 7.16.48 14.71-1.72 21.79-1.3 4.15-5.11 6.6-8.67 8.64 3.75 1.57 7.75 3.94 8.82 8.17 1.66 6.81-.38 13.97 1.36 20.76.76 2.83 3.75 3.81 6.12 4.91.02 2.27.03 4.54.05 6.81-6.28.7-12.43-1.65-16.98-5.93-.5-.51-1.36-.97-1.29-1.78.59-5.52.6-11.07.52-16.61.03-1.51-.27-3.01-.95-4.36l-.13-.3-.03-.23c.34-4.46-3.33-7.39-7.03-8.98-.01-1.73-.01-3.47-.01-5.2 2.61-1.97 7.62-3.8 6.17-7.95.26-.42.78-1.26 1.03-1.68 1.93-5.35.48-11.23.45-16.78z"/><g fill="#06416e"><path d="M117.49 161.4l.4-.58.6.41.71.52.01 1.1c-.05 4.18-.07 8.36-.18 12.54-.15 6.88.3 13.75.14 20.63.08 5.11-.4 10.3.55 15.35.23 1.71 2.03 2.56 3.6 2.27 1.21-1.01 2.03-2.39 2.98-3.63 1.28 7.76 7.51 14.13 15.2 15.69 7.92 1.57 16.57 1.22 23.99-2.18-.66-3.09-1.43-6.15-2.27-9.19 3.08 2.2 3.54 6.08 4.32 9.49.6-2.73 1.26-5.46 2.39-8.02.51-.06 1.52-.19 2.02-.25-1.09 2.77-1.61 5.7-1.96 8.65 7.23 2.42 15.21 3.4 22.61 1.13 5.01-1.56 9.73-5.23 11.03-10.52 1.66-5.61-.29-12.04-5.19-15.39 3.47.07 5.17 3.07 6.79 5.66 1.9-.08 3.73.45 5.52 1.08-1.17-2.04-2.15-4.19-2.81-6.44 3.98 5.56 11.16 6.07 17.03 8.38 2.92.87 3.75 5.17 1.05 6.79-5.34 3.29-12.12 1.49-17.59-.59-1.4 3.14-2.23 6.48-2.59 9.9 2.42.71 4.83 1.43 7.3 1.96l-2.17 1.65c6.45.32 13.39 1.46 19.44-1.41 1.08-.34 1.25-1.46 1.52-2.38 2.39-1.59 4.83-3.36 6.21-5.96 2.39-3.81 1.71-8.53 1.23-12.75.83.43 1.67.84 2.53 1.24.36-1.53.57-3.12 1.23-4.56 2.87-1.86 6.21-2.9 9.56-3.48-1.68-3.28-3.77-6.64-3.55-10.49.13-5.22-.31-10.55 1.14-15.64 1.32 6.9-.73 14.14 1.6 20.89 1.31 3.97 4.99 6.29 8.34 8.39-3.41 1.78-7.25 3.86-8.51 7.78-2.04 6.67-.11 13.74-1.31 20.52-.56 3.1-3.64 4.34-6.15 5.56-.02 2.2-.06 4.4-.14 6.6-47.46.32-94.92-.11-142.37.21-.02-2.27-.03-4.54-.05-6.81-2.37-1.1-5.36-2.08-6.12-4.91-1.74-6.79.3-13.95-1.36-20.76-1.07-4.23-5.07-6.6-8.82-8.17 3.56-2.04 7.37-4.49 8.67-8.64 2.2-7.08.09-14.63 1.72-21.79.81 6.88.85 13.87.18 20.77-.3 3.47-2.74 6.12-4.77 8.74 2.44 1.09 4.99 1.9 7.57 2.59-.89.47-1.78.95-2.66 1.43 1.79.19 3.58.39 5.37.59.36 1.22.72 2.43 1.08 3.66.36-13.83 1.43-27.63 1.47-41.47l.64.36c.08 14.35.03 28.7.04 43.06-.04 4.51 1.35 9.44 5.2 12.18 4.9 3.83 11.57 2.75 17.31 2.14-.06-3.26-.38-6.51-.91-9.72-2.2-.03-4.48.34-6.61-.32-2.31-1.61-2.25-4.71-2.31-7.23.1-15.54-.05-31.09.11-46.63z"/><path d="M138.09 197.58c.5-3.59 2.17-7.26 5.79-8.6-1.35 2.22-2.35 4.63-3.33 7.03 4.14.28 8.29.32 12.43.19.76-.79 1.53-1.57 2.3-2.35.17 1.24.36 2.47.55 3.71-5.92-.02-11.83-.02-17.74.02z"/></g><path fill="#004d85" d="M118.49 161.23c41.92-.24 83.84-.03 125.77-.12-.02 2.33 0 4.66.13 6.99l3.17.6c.99 1.13 2.47 2.09 2.72 3.68-1.45 5.09-1.01 10.42-1.14 15.64-.22 3.85 1.87 7.21 3.55 10.49-3.35.58-6.69 1.62-9.56 3.48-.66 1.44-.87 3.03-1.23 4.56-.86-.4-1.7-.81-2.53-1.24-1.32-1.87-2.51-3.94-4.48-5.21-4.19-2.68-9.36-2.98-13.74-5.23-2.63-1.13-2.03-5.36.66-6.04 4.73-1.48 9.74 0 14.25 1.59 1.26-3.03 2.1-6.21 2.54-9.46-8.53-2.51-18.66-4.22-26.49 1.11-5.64 3.82-6.49 11.66-4.17 17.65.66 2.25 1.64 4.4 2.81 6.44-1.79-.63-3.62-1.16-5.52-1.08-1.62-2.59-3.32-5.59-6.79-5.66-4.36-1.71-9.04-2.58-13.25-4.64-2.55-1.25-1.85-5.07.68-5.89 4.74-1.56 9.81-.04 14.33 1.57 1.22-3.03 2.15-6.17 2.54-9.42.44.16 1.33.46 1.78.61-.07 2.82-.57 5.61-1.11 8.37 2.04-2.8 3.81-5.83 6.22-8.34 4.28-3.85 10.2-5.14 15.82-5.29 1.77-.17 4.14 0 5.05-1.93 1.05-1.93 2.16-3.84 3.94-5.2-.84-.38-1.69-.75-2.53-1.13 3.15-1.06 7.41-.5 9.43-3.62-4.68-.2-9.36-.56-13.91-1.72-1.79-.38-3.61-.67-5.43-.73-26.02-.28-52.03-.59-78.05-.16-8.25-.22-16.53.7-24.75-.15l-.71-.52z"/><path fill="#eee" d="M246.07 161.34c3.58-.47 7.34-.93 10.69.78l-.19.65c-.8 1.43.92 2.63 2.25 2.26l.98-.03.14.65.24 1.07c-.55-.11-1.64-.31-2.19-.42 1.36 3.41 2.79 6.9 2.81 10.63.34 5.34-.82 10.95 1.11 16.08 1.5 4.07 5.72 5.85 8.69 8.65-1.48 1.51-2.97 3.02-4.41 4.58-4.97 4.49-4.08 11.64-4.06 17.66-.09 4.29.75 9.3-2.41 12.77-3.74 4.6-10.01 5.62-15.61 5.45.08-2.2.12-4.4.14-6.6 2.51-1.22 5.59-2.46 6.15-5.56 1.2-6.78-.73-13.85 1.31-20.52 1.26-3.92 5.1-6 8.51-7.78-3.35-2.1-7.03-4.42-8.34-8.39-2.33-6.75-.28-13.99-1.6-20.89-.25-1.59-1.73-2.55-2.72-3.68-1.26-2.23-1.75-4.82-1.49-7.36z"/><path fill="#1167a8" d="M119.2 161.75c8.22.85 16.5-.07 24.75.15 26.02-.43 52.03-.12 78.05.16 1.82.06 3.64.35 5.43.73-36.07.63-72.15.4-108.22.06l-.01-1.1z"/><path fill="#005a99" d="M119.21 162.85c36.07.34 72.15.57 108.22-.06 4.55 1.16 9.23 1.52 13.91 1.72-2.02 3.12-6.28 2.56-9.43 3.62.84.38 1.69.75 2.53 1.13-1.78 1.36-2.89 3.27-3.94 5.2-.91 1.93-3.28 1.76-5.05 1.93-5.62.15-11.54 1.44-15.82 5.29-2.41 2.51-4.18 5.54-6.22 8.34.54-2.76 1.04-5.55 1.11-8.37-.45-.15-1.34-.45-1.78-.61-8.15-2.55-17.6-4.08-25.4.31-3.77 2-5.7 6.04-6.61 10.03-.31-.25-.92-.76-1.22-1.01-.82 1.05-1.62 2.12-2.41 3.2-1.35-4.61-3.9-9.06-8.03-11.69-5.01-3.48-11.47-3.83-17.3-2.72-3.97-2.68-7.09 2.57-11.07 2.5-2.96.27-3.28-3.92-5.88-4.49-1.95-.53-3.92-1.02-5.79-1.78.11-4.18.13-8.36.18-12.54z"/><path fill="#d4d4d4" d="M258.82 165.03c-1.33.37-3.05-.83-2.25-2.26 1.54.08 2.29.84 2.25 2.26z"/><path fill="#aaa" d="M259.94 165.65c1.94 2.44 3.6 5.21 4.24 8.3.95 6.3-.48 12.78.82 19.03.69 3.42 4.17 4.73 7.01 5.94.43.98.82 1.97 1.18 2.98-.14 1.22-.29 2.45-.45 3.67-3.2 1.16-6.91 2.53-7.9 6.2-2.19 7.47.55 15.53-1.77 22.98-2.8 7.22-11.61 10.22-18.78 8.81l-.18-1.44c5.6.17 11.87-.85 15.61-5.45 3.16-3.47 2.32-8.48 2.41-12.77-.02-6.02-.91-13.17 4.06-17.66 1.57-.86 3.18-1.62 4.8-2.39.09-1.54.18-3.09.28-4.63-3.44-1.41-7.4-3.26-8.32-7.25-2.11-8.29.95-17.25-2.77-25.25l-.24-1.07z"/><path fill="#014c83" d="M95.78 171.25c1.92-2.62 5.17-3.41 8.24-3.69-.04 13.84-1.11 27.64-1.47 41.47-.36-1.23-.72-2.44-1.08-3.66-1.79-.2-3.58-.4-5.37-.59.88-.48 1.77-.96 2.66-1.43-2.58-.69-5.13-1.5-7.57-2.59 2.03-2.62 4.47-5.27 4.77-8.74.67-6.9.63-13.89-.18-20.77z"/><path fill="#d7d7d7" d="M83.49 172.53c.03 5.55 1.48 11.43-.45 16.78-.08-5.58-.74-11.27.45-16.78z"/><path fill="#00508b" d="M119.03 175.39c1.87.76 3.84 1.25 5.79 1.78 2.6.57 2.92 4.76 5.88 4.49 3.98.07 7.1-5.18 11.07-2.5-6.21 1.55-11.14 6.11-14.01 11.72-2.25 2.61-5.09 4.72-8.59 5.14.16-6.88-.29-13.75-.14-20.63z"/><path fill="#f5f5f5" d="M127.76 190.88c2.87-5.61 7.8-10.17 14.01-11.72 5.83-1.11 12.29-.76 17.3 2.72 4.13 2.63 6.68 7.08 8.03 11.69.83 4.33.71 8.77.38 13.15-9.82-.21-19.65-.1-29.47-.06.19 1.06.4 2.12.62 3.18 1.32 3.06 4.07 5.42 7.36 6.08 5.78 1.55 11.59-.44 17.23-1.59.84 3.04 1.61 6.1 2.27 9.19-7.42 3.4-16.07 3.75-23.99 2.18-7.69-1.56-13.92-7.93-15.2-15.69-1.48-6.36-.75-13.04 1.46-19.13m10.33 6.7c5.91-.04 11.82-.04 17.74-.02-.19-1.24-.38-2.47-.55-3.71-1.73-4.51-6.98-6.84-11.4-4.87-3.62 1.34-5.29 5.01-5.79 8.6z"/><path fill="#f4f4f4" d="M177.34 181.35c7.8-4.39 17.25-2.86 25.4-.31-.39 3.25-1.32 6.39-2.54 9.42-4.52-1.61-9.59-3.13-14.33-1.57-2.53.82-3.23 4.64-.68 5.89 4.21 2.06 8.89 2.93 13.25 4.64 4.9 3.35 6.85 9.78 5.19 15.39-1.3 5.29-6.02 8.96-11.03 10.52-7.4 2.27-15.38 1.29-22.61-1.13.35-2.95.87-5.88 1.96-8.65.18-.29.54-.87.73-1.16 4.8 1.8 10.12 3.11 15.2 1.69 2.07-.66 4.39-2.44 3.83-4.9-.02-2.05-2.13-2.93-3.74-3.55-4.68-1.71-10.06-2.19-13.85-5.76-3-2.59-3.26-6.8-3.39-10.49.91-3.99 2.84-8.03 6.61-10.03z"/><path fill="#f1f1f0" d="M212.11 182.07c7.83-5.33 17.96-3.62 26.49-1.11-.44 3.25-1.28 6.43-2.54 9.46-4.51-1.59-9.52-3.07-14.25-1.59-2.69.68-3.29 4.91-.66 6.04 4.38 2.25 9.55 2.55 13.74 5.23 1.97 1.27 3.16 3.34 4.48 5.21.48 4.22 1.16 8.94-1.23 12.75-1.38 2.6-3.82 4.37-6.21 5.96-5.85 2.77-12.48 3.01-18.79 2.14-2.47-.53-4.88-1.25-7.3-1.96.36-3.42 1.19-6.76 2.59-9.9 5.47 2.08 12.25 3.88 17.59.59 2.7-1.62 1.87-5.92-1.05-6.79-5.87-2.31-13.05-2.82-17.03-8.38-2.32-5.99-1.47-13.83 4.17-17.65z"/><path fill="#00518b" d="M143.88 188.98c4.42-1.97 9.67.36 11.4 4.87-.77.78-1.54 1.56-2.3 2.35-4.14.13-8.29.09-12.43-.19.98-2.4 1.98-4.81 3.33-7.03z"/><path fill="#02487d" d="M169.51 190.37c.3.25.91.76 1.22 1.01.13 3.69.39 7.9 3.39 10.49 3.79 3.57 9.17 4.05 13.85 5.76 1.61.62 3.72 1.5 3.74 3.55.56 2.46-1.76 4.24-3.83 4.9-5.08 1.42-10.4.11-15.2-1.69-.19.29-.55.87-.73 1.16-.5.06-1.51.19-2.02.25-1.13 2.56-1.79 5.29-2.39 8.02-.78-3.41-1.24-7.29-4.32-9.49-5.64 1.15-11.45 3.14-17.23 1.59-3.29-.66-6.04-3.02-7.36-6.08 3.22-2.62 7.55-1.58 11.36-1.75 5.28-.18 10.64.56 15.87-.3.41-.26 1.22-.8 1.62-1.07.33-4.38.45-8.82-.38-13.15.79-1.08 1.59-2.15 2.41-3.2z"/><path fill="#02497e" d="M119.17 196.02c3.5-.42 6.34-2.53 8.59-5.14-2.21 6.09-2.94 12.77-1.46 19.13-.95 1.24-1.77 2.62-2.98 3.63-1.57.29-3.37-.56-3.6-2.27-.95-5.05-.47-10.24-.55-15.35z"/><path fill="#c6c6c6" d="M73.54 204.36c-.65-1.81-1.2-5.09 1.26-5.74.11 1.7.2 3.41.29 5.12l.76.4c3.7 1.59 7.37 4.52 7.03 8.98-1.4-4.52-6.01-6.04-9.34-8.76z"/><path fill="#ccc" d="M273.19 201.9l1.17 3.06c-.26.58-.77 1.75-1.03 2.34-2.29 1.31-4.95 2.38-6.36 4.76-2.43 3.5-1.34 7.97-1.56 11.94-.1 5.15.73 10.86-2.12 15.45-2.91 3.67-7.55 6.16-12.28 6.12-50.66-.06-101.32 0-151.98-.03-3.36.1-6.59-1.26-9.24-3.23-.1-.43-.31-1.3-.42-1.74 3.07 1.34 6.29 2.53 9.66 2.74 46.65-.2 93.31 0 139.97-.11 1.76.02 3.53.14 5.29.36 7.17 1.41 15.98-1.59 18.78-8.81 2.32-7.45-.42-15.51 1.77-22.98.99-3.67 4.7-5.04 7.9-6.2.16-1.22.31-2.45.45-3.67z"/><path fill="#0b3a68" d="M138.01 206.66c9.82-.04 19.65-.15 29.47.06-.4.27-1.21.81-1.62 1.07-5.23.86-10.59.12-15.87.3-3.81.17-8.14-.87-11.36 1.75-.22-1.06-.43-2.12-.62-3.18z"/><path fill="#d5d5d5" d="M83.04 213.65c.68 1.35.98 2.85.95 4.36.08 5.54.07 11.09-.52 16.61-1.15-6.91-.56-13.99-.43-20.97z"/><path fill="#09325d" d="M213.14 226.16c6.31.87 12.94.63 18.79-2.14-.27.92-.44 2.04-1.52 2.38-6.05 2.87-12.99 1.73-19.44 1.41l2.17-1.65z"/><path fill="#c2c2c2" d="M270.26 234.3c.5.52.5.52 0 0z"/><path fill="#616c79" d="M84.76 236.4c4.55 4.28 10.7 6.63 16.98 5.93 47.45-.32 94.91.11 142.37-.21l.18 1.44c-1.76-.22-3.53-.34-5.29-.36-46.66.11-93.32-.09-139.97.11-3.37-.21-6.59-1.4-9.66-2.74-1.84-1-3.22-2.64-4.61-4.17z"/></svg>