<svg viewBox="0 0 300 300" xmlns="http://www.w3.org/2000/svg"><g fill="#0777bc"><path d="M12.85 94.75c1.86-6.49 8.75-9.72 15.08-9.68 12.55-.16 25.09-.03 37.64-.06-.03 27.34.02 54.67-.03 82.01.09 2.26 0 4.97 1.86 6.6 1.44 1.14 3.4.56 5.08.69.8 5.3 1.62 10.61 2.46 15.91-7.6 2.18-16.61 2.92-23.47-1.71-6.39-4.62-7.77-13.14-7.89-20.5-.05-23.81.01-47.63-.03-71.45-3.47.05-7.01-.26-10.43.47-2.24.48-3.59 2.66-3.87 4.8-1.47 12.31 1.82 24.84-.53 37.08-.97 5.32-5.76 8.59-10.68 9.87 2.58.97 5.4 1.75 7.39 3.79 3.04 2.98 3.86 7.41 4.06 11.5.36 9.31-.78 18.61-.59 27.93.14 2.85.32 6.37 2.99 8.1 2.44 1.33 5.37.96 8.05 1.15.01 3.77 0 7.54-.01 11.32-6.62-.22-13.56.79-19.86-1.73-4.46-1.79-7.15-6.29-7.98-10.86-2.37-11.82 1.23-23.76.49-35.62-.71-6.09-7.16-8.77-12.58-8.95v-12.6c5.44-.29 11.83-3.08 12.58-9.15.86-12.94-3.56-26.18.27-38.91zM260.06 85c6.75.27 13.91-.97 20.28 1.86 4.39 1.93 6.9 6.53 7.65 11.09 2.22 11.88-1.37 23.85-.56 35.76.75 6.05 7.18 8.69 12.57 8.89v12.58c-5.42.31-11.8 3.07-12.57 9.11-.73 10.69 2.08 21.34 1.09 32.05-.41 5.32-2.08 11.3-6.99 14.17-6.54 3.67-14.32 2.19-21.47 2.49 0-3.9 0-7.79-.02-11.69 3.74-.42 9.39.08 10.47-4.65 2.08-12.77-1.82-25.9.86-38.62 1.06-5.17 5.78-8.33 10.62-9.52-2.67-.99-5.56-1.85-7.58-3.97-2.73-2.82-3.62-6.86-3.86-10.65-.52-10 .89-19.98.49-29.98-.15-2.5-.56-5.69-3.19-6.82-2.47-.97-5.2-.69-7.79-.85V85z"/><path d="M83 123.08c11.88-10.92 32.52-11.97 44.23-.28 9.25 9.41 10.68 23.72 8.77 36.2-14.88.02-29.76-.03-44.63.02 1.04 5.44 3.87 10.92 9 13.51 8.42 4.24 18.67 2.36 26.51-2.31 2.48 4.33 4.88 8.69 7.41 12.99-10.2 6.95-23.23 10.12-35.41 7.5-8.39-1.66-16.21-6.42-21.16-13.46-5.44-7.54-7.36-17.09-7.04-26.25.1-10.45 4.4-20.98 12.32-27.92m13.04 11.95c-2.73 2.8-3.94 6.64-4.69 10.39 8.88.03 17.77.01 26.65.01-.14-4.47-1.05-9.57-4.95-12.35-5.14-3.45-12.78-2.63-17.01 1.95zm51.77-10.16c4.71-6.26 12.55-9.38 20.18-9.99 10.67-1.15 21.48 2.78 29.62 9.6-3.46 4.17-6.58 8.6-9.89 12.88-5.83-4.19-13.39-7.85-20.63-5.29-3.29 1-4.71 5.59-2.31 8.15 2.7 2.78 6.61 3.79 10.09 5.21 6.4 2.32 13.23 4.51 18.03 9.61 7.5 7.64 6.98 21.04-.08 28.79-4.57 5.08-11.28 7.67-17.92 8.57-12.4 1.92-25.27-2.17-35.07-9.8 3.19-4.81 6.43-9.57 9.65-14.35 6.63 5.13 15.19 9.17 23.73 7.04 2.89-.57 5.4-3.27 4.77-6.36-.85-3.45-4.46-5.01-7.37-6.41-7.89-3.36-16.73-5.83-22.51-12.59-6.2-6.84-5.77-17.93-.29-25.06zm62.87-3.25c6.58-5.74 15.78-7.46 24.28-6.76 8.29.64 15.95 4.48 22.5 9.42-3.28 4.37-6.6 8.72-9.89 13.08-5.82-4.18-13.34-7.82-20.58-5.31-3.99 1.15-4.82 7.09-1.21 9.23 7.95 5.19 18.27 5.93 25.44 12.5 6.36 5.32 8.1 14.62 5.62 22.3-2.03 6.82-7.83 11.99-14.41 14.35-14.43 5.32-31.14 1.57-43-7.87 3.31-4.77 6.59-9.56 9.92-14.32 6.16 4.77 13.81 8.54 21.81 7.44 2.74-.33 6.03-1.63 6.59-4.67.75-2.64-1.18-5.04-3.28-6.35-4.97-3.17-10.81-4.52-16.05-7.14-5.56-2.66-10.98-6.57-13.51-12.38-3.38-8-.81-17.93 5.77-23.52z"/></g></svg>