<?xml version="1.0" encoding="UTF-8" ?>
<!DOCTYPE svg PUBLIC "-//W3C//DTD SVG 1.1//EN" "http://www.w3.org/Graphics/SVG/1.1/DTD/svg11.dtd">
<svg viewBox="0 0 300 300" version="1.1" xmlns="http://www.w3.org/2000/svg">
<g id="#0777bcff">
<path fill="#0777bc" opacity="1.00" d=" M 12.85 94.75 C 14.71 88.26 21.60 85.03 27.93 85.07 C 40.48 84.91 53.02 85.04 65.57 85.01 C 65.54 112.35 65.59 139.68 65.54 167.02 C 65.63 169.28 65.54 171.99 67.40 173.62 C 68.84 174.76 70.80 174.18 72.48 174.31 C 73.28 179.61 74.10 184.92 74.94 190.22 C 67.34 192.40 58.33 193.14 51.47 188.51 C 45.08 183.89 43.70 175.37 43.58 168.01 C 43.53 144.20 43.59 120.38 43.55 96.56 C 40.08 96.61 36.54 96.30 33.12 97.03 C 30.88 97.51 29.53 99.69 29.25 101.83 C 27.78 114.14 31.07 126.67 28.72 138.91 C 27.75 144.23 22.96 147.50 18.04 148.78 C 20.62 149.75 23.44 150.53 25.43 152.57 C 28.47 155.55 29.29 159.98 29.49 164.07 C 29.85 173.38 28.71 182.68 28.90 192.00 C 29.04 194.85 29.22 198.37 31.89 200.10 C 34.33 201.43 37.26 201.06 39.94 201.25 C 39.95 205.02 39.94 208.79 39.93 212.57 C 33.31 212.35 26.37 213.36 20.07 210.84 C 15.61 209.05 12.92 204.55 12.09 199.98 C 9.72 188.16 13.32 176.22 12.58 164.36 C 11.87 158.27 5.42 155.59 0.00 155.41 L 0.00 142.81 C 5.44 142.52 11.83 139.73 12.58 133.66 C 13.44 120.72 9.02 107.48 12.85 94.75 Z" />
<path fill="#0777bc" opacity="1.00" d=" M 260.06 85.00 C 266.81 85.27 273.97 84.03 280.34 86.86 C 284.73 88.79 287.24 93.39 287.99 97.95 C 290.21 109.83 286.62 121.80 287.43 133.71 C 288.18 139.76 294.61 142.40 300.00 142.60 L 300.00 155.18 C 294.58 155.49 288.20 158.25 287.43 164.29 C 286.70 174.98 289.51 185.63 288.52 196.34 C 288.11 201.66 286.44 207.64 281.53 210.51 C 274.99 214.18 267.21 212.70 260.06 213.00 C 260.06 209.10 260.06 205.21 260.04 201.31 C 263.78 200.89 269.43 201.39 270.51 196.66 C 272.59 183.89 268.69 170.76 271.37 158.04 C 272.43 152.87 277.15 149.71 281.99 148.52 C 279.32 147.53 276.43 146.67 274.41 144.55 C 271.68 141.73 270.79 137.69 270.55 133.90 C 270.03 123.90 271.44 113.92 271.04 103.92 C 270.89 101.42 270.48 98.23 267.85 97.10 C 265.38 96.13 262.65 96.41 260.06 96.25 C 260.06 92.50 260.06 88.75 260.06 85.00 Z" />
<path fill="#0777bc" opacity="1.00" d=" M 83.00 123.08 C 94.88 112.16 115.52 111.11 127.23 122.80 C 136.48 132.21 137.91 146.52 136.00 159.00 C 121.12 159.02 106.24 158.97 91.37 159.02 C 92.41 164.46 95.24 169.94 100.37 172.53 C 108.79 176.77 119.04 174.89 126.88 170.22 C 129.36 174.55 131.76 178.91 134.29 183.21 C 124.09 190.16 111.06 193.33 98.88 190.71 C 90.49 189.05 82.67 184.29 77.72 177.25 C 72.28 169.71 70.36 160.16 70.68 151.00 C 70.78 140.55 75.08 130.02 83.00 123.08 M 96.04 135.03 C 93.31 137.83 92.10 141.67 91.35 145.42 C 100.23 145.45 109.12 145.43 118.00 145.43 C 117.86 140.96 116.95 135.86 113.05 133.08 C 107.91 129.63 100.27 130.45 96.04 135.03 Z" />
<path fill="#0777bc" opacity="1.00" d=" M 147.81 124.87 C 152.52 118.61 160.36 115.49 167.99 114.88 C 178.66 113.73 189.47 117.66 197.61 124.48 C 194.15 128.65 191.03 133.08 187.72 137.36 C 181.89 133.17 174.33 129.51 167.09 132.07 C 163.80 133.07 162.38 137.66 164.78 140.22 C 167.48 143.00 171.39 144.01 174.87 145.43 C 181.27 147.75 188.10 149.94 192.90 155.04 C 200.40 162.68 199.88 176.08 192.82 183.83 C 188.25 188.91 181.54 191.50 174.90 192.40 C 162.50 194.32 149.63 190.23 139.83 182.60 C 143.02 177.79 146.26 173.03 149.48 168.25 C 156.11 173.38 164.67 177.42 173.21 175.29 C 176.10 174.72 178.61 172.02 177.98 168.93 C 177.13 165.48 173.52 163.92 170.61 162.52 C 162.72 159.16 153.88 156.69 148.10 149.93 C 141.90 143.09 142.33 132.00 147.81 124.87 Z" />
<path fill="#0777bc" opacity="1.00" d=" M 210.68 121.62 C 217.26 115.88 226.46 114.16 234.96 114.86 C 243.25 115.50 250.91 119.34 257.46 124.28 C 254.18 128.65 250.86 133.00 247.57 137.36 C 241.75 133.18 234.23 129.54 226.99 132.05 C 223.00 133.20 222.17 139.14 225.78 141.28 C 233.73 146.47 244.05 147.21 251.22 153.78 C 257.58 159.10 259.32 168.40 256.84 176.08 C 254.81 182.90 249.01 188.07 242.43 190.43 C 228.00 195.75 211.29 192.00 199.43 182.56 C 202.74 177.79 206.02 173.00 209.35 168.24 C 215.51 173.01 223.16 176.78 231.16 175.68 C 233.90 175.35 237.19 174.05 237.75 171.01 C 238.50 168.37 236.57 165.97 234.47 164.66 C 229.50 161.49 223.66 160.14 218.42 157.52 C 212.86 154.86 207.44 150.95 204.91 145.14 C 201.53 137.14 204.10 127.21 210.68 121.62 Z" />
</g>
</svg>
