<?xml version="1.0" encoding="UTF-8" ?>
<!DOCTYPE svg PUBLIC "-//W3C//DTD SVG 1.1//EN" "http://www.w3.org/Graphics/SVG/1.1/DTD/svg11.dtd">
<svg viewBox="0 0 350 280" version="1.1" xmlns="http://www.w3.org/2000/svg">
<g id="#ffffffff">
<path fill="#ffffff" opacity="1.00" d=" M 257.99 166.30 C 258.54 166.41 259.63 166.61 260.18 166.72 C 263.90 174.72 260.84 183.68 262.95 191.97 C 263.87 195.96 267.83 197.81 271.27 199.22 C 271.17 200.76 271.08 202.31 270.99 203.85 C 269.37 204.62 267.76 205.38 266.19 206.24 C 267.63 204.68 269.12 203.17 270.60 201.66 C 267.63 198.86 263.41 197.08 261.91 193.01 C 259.98 187.88 261.14 182.27 260.80 176.93 C 260.78 173.20 259.35 169.71 257.99 166.30 Z" />
</g>
<g id="#e7669cff">
<path fill="#e7669c" opacity="1.00" d=" M 150.22 44.25 C 160.96 40.24 173.04 38.60 184.18 41.90 C 190.17 43.67 196.16 47.96 197.37 54.45 C 199.10 63.85 193.98 73.04 187.31 79.30 C 180.51 85.88 171.19 89.16 161.96 90.44 C 156.95 90.88 151.67 91.22 146.86 89.42 C 143.01 87.84 138.97 84.86 138.71 80.33 C 141.89 82.41 144.89 85.16 148.87 85.52 C 157.55 86.62 166.43 84.13 173.99 79.92 C 180.43 76.27 186.24 70.89 188.95 63.86 C 190.25 60.26 190.41 55.48 187.17 52.83 C 183.28 49.56 177.92 49.08 173.04 49.10 C 160.34 49.04 148.36 54.32 137.58 60.59 C 130.43 64.84 123.37 69.86 118.86 77.00 C 115.55 82.07 114.94 89.29 118.69 94.30 C 124.19 101.87 132.92 106.05 139.26 112.80 C 144.00 110.00 149.08 107.73 153.64 104.65 C 156.89 101.21 160.28 97.43 165.06 96.24 C 166.89 95.93 169.28 95.81 170.47 97.54 C 172.10 99.57 171.49 102.32 171.47 104.71 C 173.30 104.38 175.04 104.81 176.61 105.79 C 175.30 112.69 172.17 119.32 172.51 126.46 C 175.65 121.93 177.53 116.70 179.84 111.73 C 182.41 105.70 185.56 99.89 187.38 93.57 C 188.12 89.48 193.85 90.09 196.71 91.26 C 196.86 93.25 195.87 95.09 195.51 97.02 C 194.52 101.01 195.52 105.16 197.14 108.85 C 202.14 102.40 206.00 94.82 207.86 86.82 C 210.84 86.16 213.94 85.87 216.92 86.74 C 216.00 90.43 214.36 94.16 215.04 98.05 C 215.33 101.10 216.87 103.78 218.18 106.48 C 225.74 103.24 234.68 102.15 242.34 105.66 C 247.83 108.16 252.59 113.72 252.00 120.06 C 252.08 124.63 247.96 128.58 243.52 128.94 C 245.48 126.36 248.87 124.63 249.20 121.08 C 249.27 116.32 245.66 112.27 241.46 110.48 C 234.77 107.54 226.94 107.66 220.10 110.03 C 220.75 113.07 222.05 116.41 220.43 119.37 C 217.88 124.57 212.20 127.10 206.87 128.44 C 205.38 127.41 203.61 126.10 203.85 124.03 C 204.43 118.33 208.49 113.89 212.53 110.19 C 210.55 106.61 209.35 102.69 208.42 98.72 C 205.76 103.85 202.82 108.81 199.69 113.66 C 201.49 117.65 202.33 122.68 199.54 126.45 C 196.13 130.77 190.37 133.10 184.91 132.71 C 183.22 132.87 181.64 131.06 182.46 129.45 C 185.26 124.44 189.96 120.79 192.88 115.85 C 191.52 111.62 189.25 107.64 188.73 103.12 C 185.82 109.14 183.56 115.47 180.29 121.32 C 177.88 125.51 176.20 130.33 172.57 133.67 C 171.19 135.09 168.54 135.36 167.25 133.69 C 165.26 131.03 165.94 127.45 165.70 124.35 C 163.77 127.91 162.63 131.95 160.01 135.09 C 157.97 137.70 153.24 137.41 151.64 134.46 C 147.18 127.79 148.00 119.26 150.09 111.90 C 147.43 113.37 144.78 114.85 142.13 116.35 C 145.46 125.27 143.90 136.19 137.01 143.03 C 131.44 149.21 122.42 151.53 114.47 149.34 C 110.29 146.92 108.96 141.40 110.14 136.95 C 111.02 132.63 113.95 129.08 117.24 126.30 C 122.24 122.01 128.00 118.74 133.86 115.79 C 124.95 108.22 113.44 103.12 107.36 92.66 C 104.82 88.64 104.44 83.51 106.24 79.13 C 109.07 71.42 114.98 65.33 121.19 60.18 C 129.86 53.26 139.88 48.19 150.22 44.25 M 158.21 110.26 C 155.48 115.92 153.84 123.09 156.84 128.95 C 159.85 126.16 160.98 122.10 162.51 118.43 C 164.46 113.06 166.87 107.71 167.31 101.94 C 162.70 102.17 160.09 106.60 158.21 110.26 M 207.99 124.20 C 212.85 123.55 215.42 118.35 214.37 113.83 C 210.91 116.25 209.05 120.22 207.99 124.20 M 120.56 132.52 C 118.85 135.30 116.88 139.72 119.65 142.43 C 125.21 144.12 130.67 140.13 133.89 135.89 C 137.58 131.33 138.23 125.14 137.09 119.55 C 131.06 123.06 124.67 126.72 120.56 132.52 M 187.26 129.32 C 191.14 128.10 194.02 124.73 195.01 120.84 C 191.85 123.05 189.79 126.46 187.26 129.32 Z" />
</g>
<g id="#fffeffff">
</g>
<g id="#f1f1f1ff">
<path fill="#f1f1f1" opacity="1.00" d=" M 83.49 172.53 C 85.04 166.58 90.60 161.13 97.02 161.21 C 103.84 161.07 110.67 161.22 117.49 161.40 C 117.33 176.94 117.48 192.49 117.38 208.03 C 117.44 210.55 117.38 213.65 119.69 215.26 C 121.82 215.92 124.10 215.55 126.30 215.58 C 126.83 218.79 127.15 222.04 127.21 225.30 C 121.47 225.91 114.80 226.99 109.90 223.16 C 106.05 220.42 104.66 215.49 104.70 210.98 C 104.69 196.62 104.74 182.27 104.66 167.92 L 104.02 167.56 C 100.95 167.84 97.70 168.63 95.78 171.25 C 94.15 178.41 96.26 185.96 94.06 193.04 C 92.76 197.19 88.95 199.64 85.39 201.68 C 89.14 203.25 93.14 205.62 94.21 209.85 C 95.87 216.66 93.83 223.82 95.57 230.61 C 96.33 233.44 99.32 234.42 101.69 235.52 C 101.71 237.79 101.72 240.06 101.74 242.33 C 95.46 243.03 89.31 240.68 84.76 236.40 C 84.26 235.89 83.40 235.43 83.47 234.62 C 84.06 229.10 84.07 223.55 83.99 218.01 C 84.02 216.50 83.72 215.00 83.04 213.65 L 82.91 213.35 L 82.88 213.12 C 83.22 208.66 79.55 205.73 75.85 204.14 C 75.84 202.41 75.84 200.67 75.84 198.94 C 78.45 196.97 83.46 195.14 82.01 190.99 C 82.27 190.57 82.79 189.73 83.04 189.31 C 84.97 183.96 83.52 178.08 83.49 172.53 Z" />
</g>
<g id="#06416eff">
<path fill="#06416e" opacity="1.00" d=" M 117.49 161.40 L 117.89 160.82 L 118.49 161.23 L 119.20 161.75 L 119.21 162.85 C 119.16 167.03 119.14 171.21 119.03 175.39 C 118.88 182.27 119.33 189.14 119.17 196.02 C 119.25 201.13 118.77 206.32 119.72 211.37 C 119.95 213.08 121.75 213.93 123.32 213.64 C 124.53 212.63 125.35 211.25 126.30 210.01 C 127.58 217.77 133.81 224.14 141.50 225.70 C 149.42 227.27 158.07 226.92 165.49 223.52 C 164.83 220.43 164.06 217.37 163.22 214.33 C 166.30 216.53 166.76 220.41 167.54 223.82 C 168.14 221.09 168.80 218.36 169.93 215.80 C 170.44 215.74 171.45 215.61 171.95 215.55 C 170.86 218.32 170.34 221.25 169.99 224.20 C 177.22 226.62 185.20 227.60 192.60 225.33 C 197.61 223.77 202.33 220.10 203.63 214.81 C 205.29 209.20 203.34 202.77 198.44 199.42 C 201.91 199.49 203.61 202.49 205.23 205.08 C 207.13 205.00 208.96 205.53 210.75 206.16 C 209.58 204.12 208.60 201.97 207.94 199.72 C 211.92 205.28 219.10 205.79 224.97 208.10 C 227.89 208.97 228.72 213.27 226.02 214.89 C 220.68 218.18 213.90 216.38 208.43 214.30 C 207.03 217.44 206.20 220.78 205.84 224.20 C 208.26 224.91 210.67 225.63 213.14 226.16 C 212.60 226.57 211.51 227.40 210.97 227.81 C 217.42 228.13 224.36 229.27 230.41 226.40 C 231.49 226.06 231.66 224.94 231.93 224.02 C 234.32 222.43 236.76 220.66 238.14 218.06 C 240.53 214.25 239.85 209.53 239.37 205.31 C 240.20 205.74 241.04 206.15 241.90 206.55 C 242.26 205.02 242.47 203.43 243.13 201.99 C 246.00 200.13 249.34 199.09 252.69 198.51 C 251.01 195.23 248.92 191.87 249.14 188.02 C 249.27 182.80 248.83 177.47 250.28 172.38 C 251.60 179.28 249.55 186.52 251.88 193.27 C 253.19 197.24 256.87 199.56 260.22 201.66 C 256.81 203.44 252.97 205.52 251.71 209.44 C 249.67 216.11 251.60 223.18 250.40 229.96 C 249.84 233.06 246.76 234.30 244.25 235.52 C 244.23 237.72 244.19 239.92 244.11 242.12 C 196.65 242.44 149.19 242.01 101.74 242.33 C 101.72 240.06 101.71 237.79 101.69 235.52 C 99.32 234.42 96.33 233.44 95.57 230.61 C 93.83 223.82 95.87 216.66 94.21 209.85 C 93.14 205.62 89.14 203.25 85.39 201.68 C 88.95 199.64 92.76 197.19 94.06 193.04 C 96.26 185.96 94.15 178.41 95.78 171.25 C 96.59 178.13 96.63 185.12 95.96 192.02 C 95.66 195.49 93.22 198.14 91.19 200.76 C 93.63 201.85 96.18 202.66 98.76 203.35 C 97.87 203.82 96.98 204.30 96.10 204.78 C 97.89 204.97 99.68 205.17 101.47 205.37 C 101.83 206.59 102.19 207.80 102.55 209.03 C 102.91 195.20 103.98 181.40 104.02 167.56 L 104.66 167.92 C 104.74 182.27 104.69 196.62 104.70 210.98 C 104.66 215.49 106.05 220.42 109.90 223.16 C 114.80 226.99 121.47 225.91 127.21 225.30 C 127.15 222.04 126.83 218.79 126.30 215.58 C 124.10 215.55 121.82 215.92 119.69 215.26 C 117.38 213.65 117.44 210.55 117.38 208.03 C 117.48 192.49 117.33 176.94 117.49 161.40 Z" />
<path fill="#06416e" opacity="1.00" d=" M 138.09 197.58 C 138.59 193.99 140.26 190.32 143.88 188.98 C 142.53 191.20 141.53 193.61 140.55 196.01 C 144.69 196.29 148.84 196.33 152.98 196.20 C 153.74 195.41 154.51 194.63 155.28 193.85 C 155.45 195.09 155.64 196.32 155.83 197.56 C 149.91 197.54 144.00 197.54 138.09 197.58 Z" />
</g>
<g id="#004d85ff">
<path fill="#004d85" opacity="1.00" d=" M 118.49 161.23 C 160.41 160.99 202.33 161.20 244.26 161.11 C 244.24 163.44 244.26 165.77 244.39 168.10 C 245.18 168.25 246.77 168.55 247.56 168.70 C 248.55 169.83 250.03 170.79 250.28 172.38 C 248.83 177.47 249.27 182.80 249.14 188.02 C 248.92 191.87 251.01 195.23 252.69 198.51 C 249.34 199.09 246.00 200.13 243.13 201.99 C 242.47 203.43 242.26 205.02 241.90 206.55 C 241.04 206.15 240.20 205.74 239.37 205.31 C 238.05 203.44 236.86 201.37 234.89 200.10 C 230.70 197.42 225.53 197.12 221.15 194.87 C 218.52 193.74 219.12 189.51 221.81 188.83 C 226.54 187.35 231.55 188.83 236.06 190.42 C 237.32 187.39 238.16 184.21 238.60 180.96 C 230.07 178.45 219.94 176.74 212.11 182.07 C 206.47 185.89 205.62 193.73 207.94 199.72 C 208.60 201.97 209.58 204.12 210.75 206.16 C 208.96 205.53 207.13 205.00 205.23 205.08 C 203.61 202.49 201.91 199.49 198.44 199.42 C 194.08 197.71 189.40 196.84 185.19 194.78 C 182.64 193.53 183.34 189.71 185.87 188.89 C 190.61 187.33 195.68 188.85 200.20 190.46 C 201.42 187.43 202.35 184.29 202.74 181.04 C 203.18 181.20 204.07 181.50 204.52 181.65 C 204.45 184.47 203.95 187.26 203.41 190.02 C 205.45 187.22 207.22 184.19 209.63 181.68 C 213.91 177.83 219.83 176.54 225.45 176.39 C 227.22 176.22 229.59 176.39 230.50 174.46 C 231.55 172.53 232.66 170.62 234.44 169.26 C 233.60 168.88 232.75 168.51 231.91 168.13 C 235.06 167.07 239.32 167.63 241.34 164.51 C 236.66 164.31 231.98 163.95 227.43 162.79 C 225.64 162.41 223.82 162.12 222.00 162.06 C 195.98 161.78 169.97 161.47 143.95 161.90 C 135.70 161.68 127.42 162.60 119.20 161.75 L 118.49 161.23 Z" />
</g>
<g id="#eeeeeeff">
<path fill="#eeeeee" opacity="1.00" d=" M 246.07 161.34 C 249.65 160.87 253.41 160.41 256.76 162.12 L 256.57 162.77 C 255.77 164.20 257.49 165.40 258.82 165.03 L 259.80 165.00 L 259.94 165.65 L 260.18 166.72 C 259.63 166.61 258.54 166.41 257.99 166.30 C 259.35 169.71 260.78 173.20 260.80 176.93 C 261.14 182.27 259.98 187.88 261.91 193.01 C 263.41 197.08 267.63 198.86 270.60 201.66 C 269.12 203.17 267.63 204.68 266.19 206.24 C 261.22 210.73 262.11 217.88 262.13 223.90 C 262.04 228.19 262.88 233.20 259.72 236.67 C 255.98 241.27 249.71 242.29 244.11 242.12 C 244.19 239.92 244.23 237.72 244.25 235.52 C 246.76 234.30 249.84 233.06 250.40 229.96 C 251.60 223.18 249.67 216.11 251.71 209.44 C 252.97 205.52 256.81 203.44 260.22 201.66 C 256.87 199.56 253.19 197.24 251.88 193.27 C 249.55 186.52 251.60 179.28 250.28 172.38 C 250.03 170.79 248.55 169.83 247.56 168.70 C 246.30 166.47 245.81 163.88 246.07 161.34 Z" />
</g>
<g id="#1167a8ff">
<path fill="#1167a8" opacity="1.00" d=" M 119.20 161.75 C 127.42 162.60 135.70 161.68 143.95 161.90 C 169.97 161.47 195.98 161.78 222.00 162.06 C 223.82 162.12 225.64 162.41 227.43 162.79 C 191.36 163.42 155.28 163.19 119.21 162.85 L 119.20 161.75 Z" />
</g>
<g id="#005a99ff">
<path fill="#005a99" opacity="1.00" d=" M 119.21 162.85 C 155.28 163.19 191.36 163.42 227.43 162.79 C 231.98 163.95 236.66 164.31 241.34 164.51 C 239.32 167.63 235.06 167.07 231.91 168.13 C 232.75 168.51 233.60 168.88 234.44 169.26 C 232.66 170.62 231.55 172.53 230.50 174.46 C 229.59 176.39 227.22 176.22 225.45 176.39 C 219.83 176.54 213.91 177.83 209.63 181.68 C 207.22 184.19 205.45 187.22 203.41 190.02 C 203.95 187.26 204.45 184.47 204.52 181.65 C 204.07 181.50 203.18 181.20 202.74 181.04 C 194.59 178.49 185.14 176.96 177.34 181.35 C 173.57 183.35 171.64 187.39 170.73 191.38 C 170.42 191.13 169.81 190.62 169.51 190.37 C 168.69 191.42 167.89 192.49 167.10 193.57 C 165.75 188.96 163.20 184.51 159.07 181.88 C 154.06 178.40 147.60 178.05 141.77 179.16 C 137.80 176.48 134.68 181.73 130.70 181.66 C 127.74 181.93 127.42 177.74 124.82 177.17 C 122.87 176.64 120.90 176.15 119.03 175.39 C 119.14 171.21 119.16 167.03 119.21 162.85 Z" />
</g>
<g id="#d4d4d4ff">
<path fill="#d4d4d4" opacity="1.00" d=" M 258.82 165.03 C 257.49 165.40 255.77 164.20 256.57 162.77 C 258.11 162.85 258.86 163.61 258.82 165.03 Z" />
</g>
<g id="#aaaaaaff">
<path fill="#aaaaaa" opacity="1.00" d=" M 259.94 165.65 C 261.88 168.09 263.54 170.86 264.18 173.95 C 265.13 180.25 263.70 186.73 265.00 192.98 C 265.69 196.40 269.17 197.71 272.01 198.92 C 272.44 199.90 272.83 200.89 273.19 201.90 C 273.05 203.12 272.90 204.35 272.74 205.57 C 269.54 206.73 265.83 208.10 264.84 211.77 C 262.65 219.24 265.39 227.30 263.07 234.75 C 260.27 241.97 251.46 244.97 244.29 243.56 L 244.11 242.12 C 249.71 242.29 255.98 241.27 259.72 236.67 C 262.88 233.20 262.04 228.19 262.13 223.90 C 262.11 217.88 261.22 210.73 266.19 206.24 C 267.76 205.38 269.37 204.62 270.99 203.85 C 271.08 202.31 271.17 200.76 271.27 199.22 C 267.83 197.81 263.87 195.96 262.95 191.97 C 260.84 183.68 263.90 174.72 260.18 166.72 L 259.94 165.65 Z" />
</g>
<g id="#014c83ff">
<path fill="#014c83" opacity="1.00" d=" M 95.78 171.25 C 97.70 168.63 100.95 167.84 104.02 167.56 C 103.98 181.40 102.91 195.20 102.55 209.03 C 102.19 207.80 101.83 206.59 101.47 205.37 C 99.68 205.17 97.89 204.97 96.10 204.78 C 96.98 204.30 97.87 203.82 98.76 203.35 C 96.18 202.66 93.63 201.85 91.19 200.76 C 93.22 198.14 95.66 195.49 95.96 192.02 C 96.63 185.12 96.59 178.13 95.78 171.25 Z" />
</g>
<g id="#d7d7d7ff">
<path fill="#d7d7d7" opacity="1.00" d=" M 83.49 172.53 C 83.52 178.08 84.97 183.96 83.04 189.31 C 82.96 183.73 82.30 178.04 83.49 172.53 Z" />
</g>
<g id="#00508bff">
<path fill="#00508b" opacity="1.00" d=" M 119.03 175.39 C 120.90 176.15 122.87 176.64 124.82 177.17 C 127.42 177.74 127.74 181.93 130.70 181.66 C 134.68 181.73 137.80 176.48 141.77 179.16 C 135.56 180.71 130.63 185.27 127.76 190.88 C 125.51 193.49 122.67 195.60 119.17 196.02 C 119.33 189.14 118.88 182.27 119.03 175.39 Z" />
</g>
<g id="#f5f5f5ff">
<path fill="#f5f5f5" opacity="1.00" d=" M 127.76 190.88 C 130.63 185.27 135.56 180.71 141.77 179.16 C 147.60 178.05 154.06 178.40 159.07 181.88 C 163.20 184.51 165.75 188.96 167.10 193.57 C 167.93 197.90 167.81 202.34 167.48 206.72 C 157.66 206.51 147.83 206.62 138.01 206.66 C 138.20 207.72 138.41 208.78 138.63 209.84 C 139.95 212.90 142.70 215.26 145.99 215.92 C 151.77 217.47 157.58 215.48 163.22 214.33 C 164.06 217.37 164.83 220.43 165.49 223.52 C 158.07 226.92 149.42 227.27 141.50 225.70 C 133.81 224.14 127.58 217.77 126.30 210.01 C 124.82 203.65 125.55 196.97 127.76 190.88 M 138.09 197.58 C 144.00 197.54 149.91 197.54 155.83 197.56 C 155.64 196.32 155.45 195.09 155.28 193.85 C 153.55 189.34 148.30 187.01 143.88 188.98 C 140.26 190.32 138.59 193.99 138.09 197.58 Z" />
</g>
<g id="#f4f4f4ff">
<path fill="#f4f4f4" opacity="1.00" d=" M 177.34 181.35 C 185.14 176.96 194.59 178.49 202.74 181.04 C 202.35 184.29 201.42 187.43 200.20 190.46 C 195.68 188.85 190.61 187.33 185.87 188.89 C 183.34 189.71 182.64 193.53 185.19 194.78 C 189.40 196.84 194.08 197.71 198.44 199.42 C 203.34 202.77 205.29 209.20 203.63 214.81 C 202.33 220.10 197.61 223.77 192.60 225.33 C 185.20 227.60 177.22 226.62 169.99 224.20 C 170.34 221.25 170.86 218.32 171.95 215.55 C 172.13 215.26 172.49 214.68 172.68 214.39 C 177.48 216.19 182.80 217.50 187.88 216.08 C 189.95 215.42 192.27 213.64 191.71 211.18 C 191.69 209.13 189.58 208.25 187.97 207.63 C 183.29 205.92 177.91 205.44 174.12 201.87 C 171.12 199.28 170.86 195.07 170.73 191.38 C 171.64 187.39 173.57 183.35 177.34 181.35 Z" />
</g>
<g id="#f1f1f0ff">
<path fill="#f1f1f0" opacity="1.00" d=" M 212.11 182.07 C 219.94 176.74 230.07 178.45 238.60 180.96 C 238.16 184.21 237.32 187.39 236.06 190.42 C 231.55 188.83 226.54 187.35 221.81 188.83 C 219.12 189.51 218.52 193.74 221.15 194.87 C 225.53 197.12 230.70 197.42 234.89 200.10 C 236.86 201.37 238.05 203.44 239.37 205.31 C 239.85 209.53 240.53 214.25 238.14 218.06 C 236.76 220.66 234.32 222.43 231.93 224.02 C 226.08 226.79 219.45 227.03 213.14 226.16 C 210.67 225.63 208.26 224.91 205.84 224.20 C 206.20 220.78 207.03 217.44 208.43 214.30 C 213.90 216.38 220.68 218.18 226.02 214.89 C 228.72 213.27 227.89 208.97 224.97 208.10 C 219.10 205.79 211.92 205.28 207.94 199.72 C 205.62 193.73 206.47 185.89 212.11 182.07 Z" />
</g>
<g id="#00518bff">
<path fill="#00518b" opacity="1.00" d=" M 143.88 188.98 C 148.30 187.01 153.55 189.34 155.28 193.85 C 154.51 194.63 153.74 195.41 152.98 196.20 C 148.84 196.33 144.69 196.29 140.55 196.01 C 141.53 193.61 142.53 191.20 143.88 188.98 Z" />
</g>
<g id="#02487dff">
<path fill="#02487d" opacity="1.00" d=" M 169.51 190.37 C 169.81 190.62 170.42 191.13 170.73 191.38 C 170.86 195.07 171.12 199.28 174.12 201.87 C 177.91 205.44 183.29 205.92 187.97 207.63 C 189.58 208.25 191.69 209.13 191.71 211.18 C 192.27 213.64 189.95 215.42 187.88 216.08 C 182.80 217.50 177.48 216.19 172.68 214.39 C 172.49 214.68 172.13 215.26 171.95 215.55 C 171.45 215.61 170.44 215.74 169.93 215.80 C 168.80 218.36 168.14 221.09 167.54 223.82 C 166.76 220.41 166.30 216.53 163.22 214.33 C 157.58 215.48 151.77 217.47 145.99 215.92 C 142.70 215.26 139.95 212.90 138.63 209.84 C 141.85 207.22 146.18 208.26 149.99 208.09 C 155.27 207.91 160.63 208.65 165.86 207.79 C 166.27 207.53 167.08 206.99 167.48 206.72 C 167.81 202.34 167.93 197.90 167.10 193.57 C 167.89 192.49 168.69 191.42 169.51 190.37 Z" />
</g>
<g id="#02497eff">
<path fill="#02497e" opacity="1.00" d=" M 119.17 196.02 C 122.67 195.60 125.51 193.49 127.76 190.88 C 125.55 196.97 124.82 203.65 126.30 210.01 C 125.35 211.25 124.53 212.63 123.32 213.64 C 121.75 213.93 119.95 213.08 119.72 211.37 C 118.77 206.32 119.25 201.13 119.17 196.02 Z" />
</g>
<g id="#c6c6c6ff">
<path fill="#c6c6c6" opacity="1.00" d=" M 73.54 204.36 C 72.89 202.55 72.34 199.27 74.80 198.62 C 74.91 200.32 75.00 202.03 75.09 203.74 L 75.85 204.14 C 79.55 205.73 83.22 208.66 82.88 213.12 C 81.48 208.60 76.87 207.08 73.54 204.36 Z" />
</g>
<g id="#ccccccff">
<path fill="#cccccc" opacity="1.00" d=" M 273.19 201.90 C 273.58 202.92 273.97 203.94 274.36 204.96 C 274.10 205.54 273.59 206.71 273.33 207.30 C 271.04 208.61 268.38 209.68 266.97 212.06 C 264.54 215.56 265.63 220.03 265.41 224.00 C 265.31 229.15 266.14 234.86 263.29 239.45 C 260.38 243.12 255.74 245.61 251.01 245.57 C 200.35 245.51 149.69 245.57 99.03 245.54 C 95.67 245.64 92.44 244.28 89.79 242.31 C 89.69 241.88 89.48 241.01 89.37 240.57 C 92.44 241.91 95.66 243.10 99.03 243.31 C 145.68 243.11 192.34 243.31 239.00 243.20 C 240.76 243.22 242.53 243.34 244.29 243.56 C 251.46 244.97 260.27 241.97 263.07 234.75 C 265.39 227.30 262.65 219.24 264.84 211.77 C 265.83 208.10 269.54 206.73 272.74 205.57 C 272.90 204.35 273.05 203.12 273.19 201.90 Z" />
</g>
<g id="#0b3a68ff">
<path fill="#0b3a68" opacity="1.00" d=" M 138.01 206.66 C 147.83 206.62 157.66 206.51 167.48 206.72 C 167.08 206.99 166.27 207.53 165.86 207.79 C 160.63 208.65 155.27 207.91 149.99 208.09 C 146.18 208.26 141.85 207.22 138.63 209.84 C 138.41 208.78 138.20 207.72 138.01 206.66 Z" />
</g>
<g id="#d5d5d5ff">
<path fill="#d5d5d5" opacity="1.00" d=" M 83.04 213.65 C 83.72 215.00 84.02 216.50 83.99 218.01 C 84.07 223.55 84.06 229.10 83.47 234.62 C 82.32 227.71 82.91 220.63 83.04 213.65 Z" />
</g>
<g id="#09325dff">
<path fill="#09325d" opacity="1.00" d=" M 213.14 226.16 C 219.45 227.03 226.08 226.79 231.93 224.02 C 231.66 224.94 231.49 226.06 230.41 226.40 C 224.36 229.27 217.42 228.13 210.97 227.81 C 211.51 227.40 212.60 226.57 213.14 226.16 Z" />
</g>
<g id="#c2c2c2ff">
<path fill="#c2c2c2" opacity="1.00" d=" M 270.26 234.30 C 270.76 234.82 270.76 234.82 270.26 234.30 Z" />
</g>
<g id="#616c79ff">
<path fill="#616c79" opacity="1.00" d=" M 84.76 236.40 C 89.31 240.68 95.46 243.03 101.74 242.33 C 149.19 242.01 196.65 242.44 244.11 242.12 L 244.29 243.56 C 242.53 243.34 240.76 243.22 239.00 243.20 C 192.34 243.31 145.68 243.11 99.03 243.31 C 95.66 243.10 92.44 241.91 89.37 240.57 C 87.53 239.57 86.15 237.93 84.76 236.40 Z" />
</g>
</svg>
