<svg viewBox="0 0 780 422" xmlns="http://www.w3.org/2000/svg"><path d="M239.4 5.04c5.94 3.37 10.18 8.95 15.81 12.76 18.56 14.4 41.3 22.27 64.25 26.13 5.72 1.64 11.72 1.21 17.46 2.67 5.23 1.31 10.71.22 15.92 1.56 9.98 1.96 20.25.27 30.2 2.25 6.64.31 13.32.09 19.95.76 31.48.24 62.96.19 94.44.34 11.28 1.7 22.79 1.06 34.14 2.09 4.05 1.29 8.33 1.26 12.51 1.74 8.14 2.07 17.08 3.23 23.73 8.85 3.79 3.23 4.64 8.97 2.51 13.36-3.85 8.77-10.61 15.81-17.35 22.44-4.79 4.92-10.04 9.36-15.3 13.77-15.29 13.72-31.4 26.48-46.92 39.94-7.54 5.98-14.29 12.89-22.25 18.34 7.99-11.93 17.2-23.04 27.53-33.04 5.89-6.12 12.18-11.86 17.6-18.42 5.73-6.24 11.6-12.74 14.71-20.75.45-4.25 1.08-9.4-2.8-12.3-8.53-7.27-20.28-8.18-30.85-10.15-6.06-1.55-12.42-.07-18.48-1.6-3.74-.31-7.52-.21-11.21-1.02-27.44-.16-54.89.2-82.32-.25-7.95-1.31-16.03-1.64-24.06-2.1-5.46-1.57-11.24-1.14-16.72-2.48-26.67-4.41-54.15-11.74-75.61-29.08-8.84-7.06-15.71-16.21-21.59-25.81-1.9-3.25-4.31-6.29-5.3-10zm77.06 187.55c4.27-1.68 9-.81 13.48-.86 7.08 1.39 13.01 6.56 16.5 12.75 1.65 5.24 3.48 10.98 1.3 16.37-1.58 8.25-8.78 14.58-16.62 16.9-10.11 2.92-21.85-1.77-27.11-10.91-2.48-3.41-2.34-7.83-2.44-11.84.08-4.08-.09-8.55 2.37-12.04 2.97-4.62 7.3-8.5 12.52-10.37zm110.85-.6c5.98-.59 12.59-1.24 17.98 2.04 6.04 3.4 11.9 9.54 11.32 16.96-.27 5.41 1.17 11.58-2.23 16.27-4.42 6.7-12.21 11.54-20.38 11.23-9.51.39-18.61-5.96-22.45-14.53-.48-5.97-.46-11.99-.03-17.96 2.79-6.78 8.84-11.87 15.79-14.01zm233.73 96c.7-5.15 4.58-9.88 9.94-10.44 4.39-.41 9.65 1.44 11.42 5.81 3.73 6.74 1.39 14.67 2.26 21.97 5.02.24 10.13.68 14.93 2.25 1.97 1.63 4.26 3.63 4.31 6.4.19 3.38.63 7.28-2 9.9-4.29 5.05-11.55 3.72-17.42 4.4.08 16.26.03 32.53.03 48.79.26 4.53-3.09 8.84-7.26 10.4-6.99 3.66-17.1-2.32-16.52-10.41-.04-16.22-.09-32.44.03-48.66-5.45-.46-12.35-.92-15.21-6.42.28-4.38-1.77-10.07 2.4-13.12 3.3-3.45 8.57-1.72 12.64-3.54.31-5.77-.19-11.58.45-17.33zm-557.62 17.25c8.08-1.38 16.44-.74 24.62-.48 13.43 3.05 23.71 14.54 27.77 27.4.46 6.73 3.1 13.36 1.38 20.14-1.02 2.74-.91 5.69-1.36 8.55-3.76 12.24-12.99 23.02-25.32 27.15-8.33 1.97-17.07 1.75-25.5.49-16.81-4.51-28.31-21.44-28.95-38.4.11-5.09-.63-10.41 1.37-15.24 2.7-13.48 12.89-25.24 25.99-29.61m8.47 21.96c-10.02 3.42-12.86 15.72-10.94 25.08 1.2 7.36 7.15 14.55 15.05 14.56 6.06.6 12.06-3.21 14.57-8.68 3-4.52 2-10.09 2.12-15.2.33-10.14-10.86-19.87-20.8-15.76zm51.94-11.24c.06-8.23 10.58-14.32 17.61-9.72 2.4 1.18 3.79 4.16 6.53 4.52 3.39-1.98 6.26-5.1 10.22-5.92 4.24-.55 8.54-.38 12.8-.38 3.6.14 7.42-.2 10.72 1.52 9.85 4.43 16.84 13.56 20.65 23.46 1.99 4.57 1.93 9.67 2.06 14.57-.01 5.57.18 11.22-1 16.7-2.86 8.94-8.1 17.34-15.66 23.04-5.43 4.07-12.18 5.86-18.81 6.67-7.25.06-14.23-2.53-20.45-6.09-.36 9.48 1.69 19.3-1.49 28.48-.96 3.85-4.12 6.44-6.73 9.19h-8.58c-2.97-2.28-6.32-4.66-7.47-8.42-.67-2.8-.4-5.72-.44-8.57.06-29.68-.03-59.37.04-89.05m36.02 11.14c-3.32 1.25-6.59 3.13-8.26 6.4-3.74 5.02-3.28 11.61-2.99 17.53.33 7.41 5.83 14.77 13.44 15.74 2.86.08 5.99.41 8.55-1.16 7.21-3.43 10.81-11.91 9.91-19.62.72-6.96-2.84-14.11-8.81-17.73-3.53-2.06-8.02-2.72-11.84-1.16zm81.46-22.04c6.16-.96 12.46-.53 18.67-.55 8.08-.5 15.37 4.16 20.97 9.55 8.94 8.62 13.79 21.43 12.36 33.8-1.03 4.25-5.22 6.74-9.44 6.66-15.07.18-30.15-.08-45.22.11-1.46 6.82 5.62 11.23 11.34 12.44 6.26.51 12.99 1.04 18.78-1.93 5.21-1.99 10.4-5.6 16.24-4.43 2.83.43 4.58 2.92 6.27 4.98.6 3.23.57 6.61.05 9.86-4.11 7.58-12.98 10.21-20.68 12.55-9.79 1.54-19.84 1.87-29.66.29-15.64-4.45-27.75-19.35-28.54-35.65-.23-7.57-.58-15.45 2.35-22.6 4.72-11.6 14.5-21.27 26.51-25.08m4.65 20.9c-4.06 2.63-8.09 6.54-7.55 11.82 10.06.2 20.13.21 30.19 0 .24-6.23-5.22-10.33-10.03-13.22-4.14-.37-9.07-1.37-12.61 1.4zm54.68-11.03c-.34-5.26 4.54-9.15 9.29-10.06 5.52-.88 11.19 1.98 14.03 6.75 3.72-3.21 7.66-7.16 12.98-6.97 8.1.17 16.84-1.37 24.3 2.62 6.81 3.04 12.26 9.8 12.48 17.42.32 2.07.75 4.13.71 6.25-.01 15 .01 30.01 0 45.02-.28 3.2-.74 6.84-3.27 9.1-3.68 3.5-9.82 4.89-14.22 1.92-3.98-2.24-5.61-6.81-6.66-10.98-.98-13 .92-26.05-.08-39.05-.09-5.07-3.07-10.16-7.61-12.45-3.6-.46-7.35-.59-10.92.11-4.1 2.73-7.21 7.29-7.16 12.34-.55 12.38.37 24.77-.04 37.15-1.03 4.66-2.2 10.04-6.59 12.75-6.48 4.72-17.6-.57-17.24-8.79-.09-21.04-.1-42.09 0-63.13zm108.75-9.75c7.11-1.19 14.42-.6 21.61-.62 6.96-.23 14.16 2.9 18.36 8.53.47 3.95.42 7.97.07 11.93-1.07 1.93-2.79 3.65-4.7 4.74-6.89 1.92-13.27-2.08-19.82-3.38-8.18-.99-15.88 5.09-18.27 12.72-.47 4.92-.45 9.91-.02 14.85 1.62 5.18 5.04 10.25 10.43 12.08 8.84 3.48 17.04-4.52 25.92-3.06 2.93.25 4.83 2.82 6.46 4.99.34 3.64.39 7.34-.02 10.99-1.68 3.54-5.46 5.43-8.82 7.09-2.75 1.11-5.46 2.71-8.52 2.61-7.34.1-14.71.27-22.04-.15-12.96-3.74-23.14-14.83-26.78-27.69-.75-4.6-2.42-9.06-1.95-13.8-.52-5.08 1.16-9.88 1.99-14.81 3.66-12.54 13.57-23.08 26.1-27.02zm56.38 13.58c4.74-6.11 10.72-11.73 18.32-13.93 6.6-.55 13.27-.5 19.88-.1 4.41.78 7.74 4.1 11.01 6.92 3.17-2.55 5.7-6.57 10.15-6.86 6.43-1.02 12.77 4.03 13.62 10.39.65 5.24.29 10.54.38 15.82-.06 14.69.11 29.39-.09 44.08.1 4.64-2.07 9.5-6.19 11.85-3.63 2.37-8.76 2.36-12.33-.12-2.23-1.41-3.84-3.55-5.57-5.5-3 3.2-6.49 6.46-10.93 7.28-6.67.23-13.35.3-20-.08-7.68-2.2-13.52-8.13-18.37-14.21-11.19-16.24-11.16-39.35.12-55.54m27.2 8.58c-1.94.82-3.85 1.79-5.46 3.16-5.38 6.3-7.4 15.42-4.82 23.34 1.37 7.15 7.84 13.28 15.31 13.02 8.58.45 15.53-7.69 16.16-15.81.37-5.58.67-11.73-2.6-16.57-3.35-6.37-11.82-10.27-18.59-7.14zm60.19-20.82c6.2-3.99 14.96-1.19 18.29 5.21 3.16-2.37 5.94-5.32 9.62-6.92 4.54-.46 9.19-.64 13.71.08 1.72 1.38 3.18 3.05 4.76 4.58.2 4.06.19 8.13.05 12.2-4.55 5.14-11.62 6.09-17.74 8.38-6.21 1.42-9.88 7.89-9.93 13.94-.58 11.25.08 22.53-.32 33.79-.66 4.24-3.46 8.37-7.64 9.79-3.91 2.02-8.58.8-11.97-1.66-3.12-2.21-3.88-6.3-4.52-9.8-.04-19.74-.06-39.48.01-59.21.75-3.88 1.66-8.57 5.68-10.38z" fill="#2dc0ee"/></svg>