<?xml version="1.0" encoding="UTF-8" ?>
<!DOCTYPE svg PUBLIC "-//W3C//DTD SVG 1.1//EN" "http://www.w3.org/Graphics/SVG/1.1/DTD/svg11.dtd">
<svg viewBox="0 0 780 422" version="1.1" xmlns="http://www.w3.org/2000/svg">
<g id="#2dc0eeff">
<path fill="#2dc0ee" opacity="1.00" d=" M 239.40 5.04 C 245.34 8.41 249.58 13.99 255.21 17.80 C 273.77 32.20 296.51 40.07 319.46 43.93 C 325.18 45.57 331.18 45.14 336.92 46.60 C 342.15 47.91 347.63 46.82 352.84 48.16 C 362.82 50.12 373.09 48.43 383.04 50.41 C 389.68 50.72 396.36 50.50 402.99 51.17 C 434.47 51.41 465.95 51.36 497.43 51.51 C 508.71 53.21 520.22 52.57 531.57 53.60 C 535.62 54.89 539.90 54.86 544.08 55.34 C 552.22 57.41 561.16 58.57 567.81 64.19 C 571.60 67.42 572.45 73.16 570.32 77.55 C 566.47 86.32 559.71 93.36 552.97 99.99 C 548.18 104.91 542.93 109.35 537.67 113.76 C 522.38 127.48 506.27 140.24 490.75 153.70 C 483.21 159.68 476.46 166.59 468.50 172.04 C 476.49 160.11 485.70 149.00 496.03 139.00 C 501.92 132.88 508.21 127.14 513.63 120.58 C 519.36 114.34 525.23 107.84 528.34 99.83 C 528.79 95.58 529.42 90.43 525.54 87.53 C 517.01 80.26 505.26 79.35 494.69 77.38 C 488.63 75.83 482.27 77.31 476.21 75.78 C 472.47 75.47 468.69 75.57 465.00 74.76 C 437.56 74.60 410.11 74.96 382.68 74.51 C 374.73 73.20 366.65 72.87 358.62 72.41 C 353.16 70.84 347.38 71.27 341.90 69.93 C 315.23 65.52 287.75 58.19 266.29 40.85 C 257.45 33.79 250.58 24.64 244.70 15.04 C 242.80 11.79 240.39 8.75 239.40 5.04 Z" />
<path fill="#2dc0ee" opacity="1.00" d=" M 316.46 192.59 C 320.73 190.91 325.46 191.78 329.94 191.73 C 337.02 193.12 342.95 198.29 346.44 204.48 C 348.09 209.72 349.92 215.46 347.74 220.85 C 346.16 229.10 338.96 235.43 331.12 237.75 C 321.01 240.67 309.27 235.98 304.01 226.84 C 301.53 223.43 301.67 219.01 301.57 215.00 C 301.65 210.92 301.48 206.45 303.94 202.96 C 306.91 198.34 311.24 194.46 316.46 192.59 Z" />
<path fill="#2dc0ee" opacity="1.00" d=" M 427.31 191.99 C 433.29 191.40 439.90 190.75 445.29 194.03 C 451.33 197.43 457.19 203.57 456.61 210.99 C 456.34 216.40 457.78 222.57 454.38 227.26 C 449.96 233.96 442.17 238.80 434.00 238.49 C 424.49 238.88 415.39 232.53 411.55 223.96 C 411.07 217.99 411.09 211.97 411.52 206.00 C 414.31 199.22 420.36 194.13 427.31 191.99 Z" />
<path fill="#2dc0ee" opacity="1.00" d=" M 661.04 287.99 C 661.74 282.84 665.62 278.11 670.98 277.55 C 675.37 277.14 680.63 278.99 682.40 283.36 C 686.13 290.10 683.79 298.03 684.66 305.33 C 689.68 305.57 694.79 306.01 699.59 307.58 C 701.56 309.21 703.85 311.21 703.90 313.98 C 704.09 317.36 704.53 321.26 701.90 323.88 C 697.61 328.93 690.35 327.60 684.48 328.28 C 684.56 344.54 684.51 360.81 684.51 377.07 C 684.77 381.60 681.42 385.91 677.25 387.47 C 670.26 391.13 660.15 385.15 660.73 377.06 C 660.69 360.84 660.64 344.62 660.76 328.40 C 655.31 327.94 648.41 327.48 645.55 321.98 C 645.83 317.60 643.78 311.91 647.95 308.86 C 651.25 305.41 656.52 307.14 660.59 305.32 C 660.90 299.55 660.40 293.74 661.04 287.99 Z" />
<path fill="#2dc0ee" opacity="1.00" d=" M 103.42 305.24 C 111.50 303.86 119.86 304.50 128.04 304.76 C 141.47 307.81 151.75 319.30 155.81 332.16 C 156.27 338.89 158.91 345.52 157.19 352.30 C 156.17 355.04 156.28 357.99 155.83 360.85 C 152.07 373.09 142.84 383.87 130.51 388.00 C 122.18 389.97 113.44 389.75 105.01 388.49 C 88.20 383.98 76.70 367.05 76.06 350.09 C 76.17 345.00 75.43 339.68 77.43 334.85 C 80.13 321.37 90.32 309.61 103.42 305.24 M 111.89 327.20 C 101.87 330.62 99.03 342.92 100.95 352.28 C 102.15 359.64 108.10 366.83 116.00 366.84 C 122.06 367.44 128.06 363.63 130.57 358.16 C 133.57 353.64 132.57 348.07 132.69 342.96 C 133.02 332.82 121.83 323.09 111.89 327.20 Z" />
<path fill="#2dc0ee" opacity="1.00" d=" M 163.83 315.96 C 163.89 307.73 174.41 301.64 181.44 306.24 C 183.84 307.42 185.23 310.40 187.97 310.76 C 191.36 308.78 194.23 305.66 198.19 304.84 C 202.43 304.29 206.73 304.46 210.99 304.46 C 214.59 304.60 218.41 304.26 221.71 305.98 C 231.56 310.41 238.55 319.54 242.36 329.44 C 244.35 334.01 244.29 339.11 244.42 344.01 C 244.41 349.58 244.60 355.23 243.42 360.71 C 240.56 369.65 235.32 378.05 227.76 383.75 C 222.33 387.82 215.58 389.61 208.95 390.42 C 201.70 390.48 194.72 387.89 188.50 384.33 C 188.14 393.81 190.19 403.63 187.01 412.81 C 186.05 416.66 182.89 419.25 180.28 422.00 L 171.70 422.00 C 168.73 419.72 165.38 417.34 164.23 413.58 C 163.56 410.78 163.83 407.86 163.79 405.01 C 163.85 375.33 163.76 345.64 163.83 315.96 M 199.85 327.10 C 196.53 328.35 193.26 330.23 191.59 333.50 C 187.85 338.52 188.31 345.11 188.60 351.03 C 188.93 358.44 194.43 365.80 202.04 366.77 C 204.90 366.85 208.03 367.18 210.59 365.61 C 217.80 362.18 221.40 353.70 220.50 345.99 C 221.22 339.03 217.66 331.88 211.69 328.26 C 208.16 326.20 203.67 325.54 199.85 327.10 Z" />
<path fill="#2dc0ee" opacity="1.00" d=" M 281.31 305.06 C 287.47 304.10 293.77 304.53 299.98 304.51 C 308.06 304.01 315.35 308.67 320.95 314.06 C 329.89 322.68 334.74 335.49 333.31 347.86 C 332.28 352.11 328.09 354.60 323.87 354.52 C 308.80 354.70 293.72 354.44 278.65 354.63 C 277.19 361.45 284.27 365.86 289.99 367.07 C 296.25 367.58 302.98 368.11 308.77 365.14 C 313.98 363.15 319.17 359.54 325.01 360.71 C 327.84 361.14 329.59 363.63 331.28 365.69 C 331.88 368.92 331.85 372.30 331.33 375.55 C 327.22 383.13 318.35 385.76 310.65 388.10 C 300.86 389.64 290.81 389.97 280.99 388.39 C 265.35 383.94 253.24 369.04 252.45 352.74 C 252.22 345.17 251.87 337.29 254.80 330.14 C 259.52 318.54 269.30 308.87 281.31 305.06 M 285.96 325.96 C 281.90 328.59 277.87 332.50 278.41 337.78 C 288.47 337.98 298.54 337.99 308.60 337.78 C 308.84 331.55 303.38 327.45 298.57 324.56 C 294.43 324.19 289.50 323.19 285.96 325.96 Z" />
<path fill="#2dc0ee" opacity="1.00" d=" M 340.64 314.93 C 340.30 309.67 345.18 305.78 349.93 304.87 C 355.45 303.99 361.12 306.85 363.96 311.62 C 367.68 308.41 371.62 304.46 376.94 304.65 C 385.04 304.82 393.78 303.28 401.24 307.27 C 408.05 310.31 413.50 317.07 413.72 324.69 C 414.04 326.76 414.47 328.82 414.43 330.94 C 414.42 345.94 414.44 360.95 414.43 375.96 C 414.15 379.16 413.69 382.80 411.16 385.06 C 407.48 388.56 401.34 389.95 396.94 386.98 C 392.96 384.74 391.33 380.17 390.28 376.00 C 389.30 363.00 391.20 349.95 390.20 336.95 C 390.11 331.88 387.13 326.79 382.59 324.50 C 378.99 324.04 375.24 323.91 371.67 324.61 C 367.57 327.34 364.46 331.90 364.51 336.95 C 363.96 349.33 364.88 361.72 364.47 374.10 C 363.44 378.76 362.27 384.14 357.88 386.85 C 351.40 391.57 340.28 386.28 340.64 378.06 C 340.55 357.02 340.54 335.97 340.64 314.93 Z" />
<path fill="#2dc0ee" opacity="1.00" d=" M 449.39 305.18 C 456.50 303.99 463.81 304.58 471.00 304.56 C 477.96 304.33 485.16 307.46 489.36 313.09 C 489.83 317.04 489.78 321.06 489.43 325.02 C 488.36 326.95 486.64 328.67 484.73 329.76 C 477.84 331.68 471.46 327.68 464.91 326.38 C 456.73 325.39 449.03 331.47 446.64 339.10 C 446.17 344.02 446.19 349.01 446.62 353.95 C 448.24 359.13 451.66 364.20 457.05 366.03 C 465.89 369.51 474.09 361.51 482.97 362.97 C 485.90 363.22 487.80 365.79 489.43 367.96 C 489.77 371.60 489.82 375.30 489.41 378.95 C 487.73 382.49 483.95 384.38 480.59 386.04 C 477.84 387.15 475.13 388.75 472.07 388.65 C 464.73 388.75 457.36 388.92 450.03 388.50 C 437.07 384.76 426.89 373.67 423.25 360.81 C 422.50 356.21 420.83 351.75 421.30 347.01 C 420.78 341.93 422.46 337.13 423.29 332.20 C 426.95 319.66 436.86 309.12 449.39 305.18 Z" />
<path fill="#2dc0ee" opacity="1.00" d=" M 505.77 318.76 C 510.51 312.65 516.49 307.03 524.09 304.83 C 530.69 304.28 537.36 304.33 543.97 304.73 C 548.38 305.51 551.71 308.83 554.98 311.65 C 558.15 309.10 560.68 305.08 565.13 304.79 C 571.56 303.77 577.90 308.82 578.75 315.18 C 579.40 320.42 579.04 325.72 579.13 331.00 C 579.07 345.69 579.24 360.39 579.04 375.08 C 579.14 379.72 576.97 384.58 572.85 386.93 C 569.22 389.30 564.09 389.29 560.52 386.81 C 558.29 385.40 556.68 383.26 554.95 381.31 C 551.95 384.51 548.46 387.77 544.02 388.59 C 537.35 388.82 530.67 388.89 524.02 388.51 C 516.34 386.31 510.50 380.38 505.65 374.30 C 494.46 358.06 494.49 334.95 505.77 318.76 M 532.97 327.34 C 531.03 328.16 529.12 329.13 527.51 330.50 C 522.13 336.80 520.11 345.92 522.69 353.84 C 524.06 360.99 530.53 367.12 538.00 366.86 C 546.58 367.31 553.53 359.17 554.16 351.05 C 554.53 345.47 554.83 339.32 551.56 334.48 C 548.21 328.11 539.74 324.21 532.97 327.34 Z" />
<path fill="#2dc0ee" opacity="1.00" d=" M 593.16 306.52 C 599.36 302.53 608.12 305.33 611.45 311.73 C 614.61 309.36 617.39 306.41 621.07 304.81 C 625.61 304.35 630.26 304.17 634.78 304.89 C 636.50 306.27 637.96 307.94 639.54 309.47 C 639.74 313.53 639.73 317.60 639.59 321.67 C 635.04 326.81 627.97 327.76 621.85 330.05 C 615.64 331.47 611.97 337.94 611.92 343.99 C 611.34 355.24 612.00 366.52 611.60 377.78 C 610.94 382.02 608.14 386.15 603.96 387.57 C 600.05 389.59 595.38 388.37 591.99 385.91 C 588.87 383.70 588.11 379.61 587.47 376.11 C 587.43 356.37 587.41 336.63 587.48 316.90 C 588.23 313.02 589.14 308.33 593.16 306.52 Z" />
</g>
</svg>
