<svg viewBox="0 0 868 390" xmlns="http://www.w3.org/2000/svg"><g fill="#393939"><path d="M280.06 3.98c3.74-1.67 7.92-1.18 11.9-1.23h413.09c8.16-.13 15.58 7.02 15.59 15.21.06 50.74.03 101.48.02 152.22 14.78-.05 29.57-.02 44.36-.02 7.96-.21 15.11 6.86 15.22 14.79.03 62.34.05 124.68 0 187.02-.14 7.92-7.25 14.94-15.21 14.78-45.35.02-90.71.04-136.06 0-7.76-.07-14.67-6.92-14.78-14.67-.13-14.64.07-29.29-.1-43.93-25.57-.04-51.15.11-76.72-.08 1.92 14.34 4.15 28.65 6.35 42.96 4.77.14 9.55-.38 14.32-.01 3.06.02 5.78 2.82 5.71 5.88.1 2.92-.01 5.84.04 8.76-171.91.19-343.83.21-515.74.18-3.33-.14-6.88.57-10-.95-6.66-2.71-13.46-5.07-20.07-7.87-2.47-.86-3.88-3.45-3.58-5.99.06-2.52-.73-6.38 2.52-7.22 20.52-.23 41.06.11 61.59-.17-.2-72.22-.02-144.44-.09-216.67-.53-5.3 4.27-10.2 9.59-9.74 60.81 0 121.63-.04 182.45.02-.06-39.4-.01-78.8-.03-118.19-.3-6.39 3.72-12.66 9.63-15.08m8.6 17.96c-.01 38.45.06 76.9-.03 115.35 10.12-.13 20.24-.01 30.37-.06 22.65.06 45.29.02 67.94.02 2.96.08 6.14-.4 8.88 1.01 2.83 1.43 4.77 4.48 4.78 7.67.1 12.15-.02 24.31.05 36.46V187c-.03 22.57-.02 45.13 0 67.7-.01 1.72-.01 3.45-.01 5.18 71.16-.14 142.33-.05 213.49-.04-.02-1.71-.03-3.41-.03-5.11.02-22.58.09-45.15-.03-67.73.07-1.56.17-3.11.27-4.67 1.64-6.66 7.65-12.09 14.65-12.18 14.38-.07 28.77.02 43.15-.04 10.12.01 20.23-.04 30.35.02-.09-49.39-.02-98.79-.03-148.19-137.94.04-275.87.05-413.8 0M80.68 147.05c.01 72.28-.01 144.56.01 216.84 83.78-.16 167.56-.04 251.34-.07 22.08.12 44.18-.25 66.25.18.37-6.65.05-13.32.16-19.98.06-65.69.01-131.39.03-197.08.44-4.12-3.29-7.85-7.41-7.51-101-.03-202.01.02-303.01.02-4.15-.34-7.92 3.43-7.37 7.6m544.73 27.38c-4.66 1.73-7.94 6.56-7.71 11.56-.05 60.67.02 121.35-.03 182.03-.23 4.15.3 8.74 3.55 11.71 3.51 3.87 9.04 3.61 13.8 3.48 43.31-.03 86.62.03 129.93-.03 6.42.14 12.02-5.81 11.75-12.18-.01-59.99 0-119.99 0-179.98-.1-3.33.44-6.83-.92-9.98-1.76-4.25-6.14-7.39-10.79-7.33-44.66-.07-89.32.01-133.97-.04-1.89.03-3.83.07-5.61.76M400.63 280.95c.05 15.01-.01 30.02.03 45.04 71.15-.16 142.31-.06 213.46-.06-.03-14.99-.03-29.98 0-44.97-71.16.02-142.33.04-213.49-.01m.05 47.19c-.1 11.79.19 23.6-.15 35.4 16 .46 32.03.09 48.04.18 1.66-11.88 3.64-23.72 5.19-35.61-17.69.1-35.39.04-53.08.03m55.46-.13c-.29 1.71-.58 3.43-.87 5.15l.22.08c-1.8 10.16-3.07 20.41-4.71 30.61 4.07.07 8.16-.3 12.21.17 2.37 1.6 1.52 4.67 1.7 7.08 25.56-.15 51.13-.08 76.69-.03-1.8-12.26-3.69-24.51-5.45-36.77-.31-2.1-.63-4.19-.96-6.28-26.27.01-52.55.02-78.83-.01M16.9 365.97c-.26 2.29-.41 4.61-.08 6.91.36 1.87 2.58 2.34 4.2 2.16 146.34-.07 292.69.04 439.03-.06 3.77-1.2 2.26-6.09 2.15-9.05-63.39.07-126.79.03-190.18.01-.01.73-.03 2.19-.03 2.92-.9.57-1.86.85-2.91.85-19.39-.01-38.78-.01-58.17 0a5.474 5.474 0 0 1-2.88-.83c-.01-.73-.04-2.2-.05-2.94-63.69.04-127.39.01-191.08.03m445.47 10.38c-6.31 2.9-13.29 4.21-19.52 7.2 39.53-.28 79.07.02 118.61-.15.16-2.8.53-5.83-.52-8.48-1.84-2.51-5.24-1.59-7.88-1.73-29.39-.09-58.79.14-88.18-.12-.77 1.13-1.34 2.5-2.51 3.28z"/><path d="M238.34 142.36c1.08-.83 2.97-.67 3.84.46 2.14 1.69.3 5.53-2.28 5.2-2.86.14-4.2-4.25-1.56-5.66m-.74 2.58c.78.81 1.57 1.63 2.36 2.44.82-.81 1.64-1.62 2.45-2.43-.82-.81-1.64-1.61-2.47-2.41l-2.34 2.4zm-145.92 6.05c98.59.06 197.18.06 295.76 0-.05 67.54-.06 135.07.01 202.61-98.59-.12-197.19-.13-295.78.01.08-67.54.05-135.08.01-202.62m2.16 2.16c.03 66.08.1 132.17-.03 198.25 97.16-.06 194.34-.1 291.5.02-.17-66.1-.04-132.2-.06-198.3-97.14.12-194.27.05-291.41.03zm600.6 28.29c.98-3.07 6.21-2.09 5.85 1.18.16 1.95-1.7 2.77-3.19 3.43-1.66-.81-3.87-2.55-2.66-4.61m1.72-.35c-2.66 1.66 1.09 5.21 2.7 2.64 1.41-1.58-1.21-4.17-2.7-2.64zm-69.07 9.97c1.88-.59 3.9-.28 5.85-.35 44.03.03 88.07.02 132.11.01 1.95-.3 4.22 1.08 4.1 3.24.06 56 .02 112.02.02 168.03.32 2.29-1.98 4-4.11 3.68-45.39-.04-90.79.01-136.18-.02-1.89.12-3.71-1.64-3.55-3.54 0-54.69.02-109.37-.01-164.06.11-2.37-.71-5.51 1.77-6.99m.44 11.89c-.02 52.69.03 105.38-.02 158.07-.21 1.05.16 2.65 1.57 2.44 43.61.03 87.23.01 130.85.01 2.36-.01 4.76.23 7.09-.34.01-56.07 0-112.14.01-168.21.48-1.95-1.6-2.24-2.97-2.04-45.44.09-90.88-.09-136.31.09-.39 3.31-.19 6.65-.22 9.98zm167.86 33.54c17.85-.62 35.76-.09 53.63-.27 8.61-.56 16.43 7.16 16.15 15.75-.02 39.65.04 79.31-.03 118.96-.09 7.91-7.11 15.18-15.13 14.97-13.99.37-27.99.05-41.98.15-5.87-.64-12.36 1.17-17.61-2.26-5.13-2.96-8-9-7.62-14.84.04-38.99.01-77.99.01-116.98-.14-7.28 5.38-14.19 12.58-15.48m1.92 2.02c-6.74.42-12.4 6.67-12.21 13.41.03 39.69-.03 79.38.03 119.07.13 6.72 6.07 12.65 12.8 12.77 16.7.1 33.41-.01 50.12.06 7.37.76 14.64-5.23 14.82-12.72.08-38.04 0-76.08.04-114.11-.1-3.33.42-6.82-.92-9.97-1.93-5.22-7.35-8.78-12.9-8.59-17.26.06-34.52-.1-51.78.08z"/><path d="M814.27 247.39c6.21-.12 12.44.01 18.66-.05 1.35-.5 3.1 1.77 1.01 2.14-6.3.13-12.61-.01-18.91.06-1.76.61-2.8-1.92-.76-2.15zm-26.28 11.5c.59-.66 1.21-1.31 1.83-1.95 22.41.06 44.81-.01 67.22.03 2.07-.22 3.18 2.31 2.87 4.07-.03 34.34.04 68.67-.03 103.01-.6.65-1.19 1.31-1.77 1.96-22.77-.02-45.54-.02-68.31 0-.61-.64-1.21-1.28-1.8-1.92-.01-35.07.02-70.13-.01-105.2m1.48 1.19c0 33.99.03 67.98-.02 101.97-.05.97.22 1.86.82 2.66 22.5-.11 45.01-.03 67.52-.04.44-1.2.65-2.44.61-3.72-.06-33.31-.05-66.63-.01-99.94.19-1.38-.48-3.33-2.22-2.85-21.41 0-42.83.03-64.24-.02-1.27-.33-2.5.67-2.46 1.94zm-296.93 34.47c6.92-2.58 14.58 4.48 12.71 11.58-1.2 7.32-11.3 10.5-16.46 5.17-5.54-4.73-3.31-14.85 3.75-16.75zm202.89 74.95c3.94-1.45 8.43 2.46 7.51 6.58-.58 4.3-6.44 6.48-9.57 3.37-3.43-2.7-2.14-8.82 2.06-9.95zm126.95-.09c3.37-1.23 7.37 1.93 6.91 5.51-.01 3.95-5.12 6.57-8.29 4.16-3.83-2.2-2.87-8.58 1.38-9.67z"/></g><g fill="#ecf0ee"><path d="M288.66 21.94c137.93.05 275.86.04 413.8 0 .01 49.4-.06 98.8.03 148.19-10.12-.06-20.23-.01-30.35-.02.25-39.04.11-78.08.08-117.11h-353.3c0 28.08-.15 56.15.08 84.23-10.13.05-20.25-.07-30.37.06.09-38.45.02-76.9.03-115.35m30.25 10.69c-.06 5.49-.04 10.98.01 16.48 86-.04 172 .08 258-.06.08-5.45.02-10.89.04-16.34-8.65-.32-17.31-.05-25.97-.14-77.36.04-154.72-.07-232.08.06m265.71.05c-.06 5.45-.15 10.9.04 16.35 29.18.16 58.36.09 87.54.03.12-5.46.09-10.93.03-16.39-29.2-.15-58.41-.17-87.61.01z"/><path d="M80.68 147.05c-.55-4.17 3.22-7.94 7.37-7.6 101 0 202.01-.05 303.01-.02 4.12-.34 7.85 3.39 7.41 7.51-.02 65.69.03 131.39-.03 197.08-.11 6.66.21 13.33-.16 19.98-22.07-.43-44.17-.06-66.25-.18-83.78.03-167.56-.09-251.34.07-.02-72.28 0-144.56-.01-216.84m157.66-4.69c-2.64 1.41-1.3 5.8 1.56 5.66 2.58.33 4.42-3.51 2.28-5.2-.87-1.13-2.76-1.29-3.84-.46m-146.66 8.63c.04 67.54.07 135.08-.01 202.62 98.59-.14 197.19-.13 295.78-.01-.07-67.54-.06-135.07-.01-202.61-98.58.06-197.17.06-295.76 0z"/><path d="M93.84 153.15c97.14.02 194.27.09 291.41-.03.02 66.1-.11 132.2.06 198.3-97.16-.12-194.34-.08-291.5-.02.13-66.08.06-132.17.03-198.25m22.17 9.85c-.02 4.8.01 9.6-.03 14.4 14.32.45 28.67.06 43 .19 49.03-.07 98.07.14 147.09-.1-.11-4.83-.06-9.66-.06-14.49h-190m200 0c-.01 4.81-.01 9.61-.01 14.41 15.66.33 31.35.25 47.02.04-.04-4.82-.02-9.64-.02-14.46-15.66.04-31.33-.01-46.99.01m-199.97 18.06c-.1 35.32-.01 70.65-.04 105.98 82.33.03 164.66-.01 246.99.02.01-35.35.04-70.7-.02-106.05-82.31.01-164.62-.07-246.93.05M116 291.92c.02 17.35-.04 34.71.03 52.07 26.45.07 52.89-.06 79.34.08.07-17.36.13-34.72-.03-52.08-26.44-.19-52.89-.04-79.34-.07m83.91-.01c0 17.36-.03 34.72.01 52.09 26.37.01 52.73 0 79.09.01-.02-17.37 0-34.73-.01-52.09-26.36-.04-52.73-.01-79.09-.01m83.89.07c-.13 17.35-.06 34.72-.03 52.08 26.41-.13 52.82-.02 79.24-.05-.02-17.36 0-34.72-.01-52.07-26.4-.03-52.8-.11-79.2.04zm341.61-117.55c1.78-.69 3.72-.73 5.61-.76 44.65.05 89.31-.03 133.97.04 4.65-.06 9.03 3.08 10.79 7.33 1.36 3.15.82 6.65.92 9.98 0 59.99-.01 119.99 0 179.98.27 6.37-5.33 12.32-11.75 12.18-43.31.06-86.62 0-129.93.03-4.76.13-10.29.39-13.8-3.48-3.25-2.97-3.78-7.56-3.55-11.71.05-60.68-.02-121.36.03-182.03-.23-5 3.05-9.83 7.71-11.56m69.03 7.01c-1.21 2.06 1 3.8 2.66 4.61 1.49-.66 3.35-1.48 3.19-3.43.36-3.27-4.87-4.25-5.85-1.18m-67.35 9.62c-2.48 1.48-1.66 4.62-1.77 6.99.03 54.69.01 109.37.01 164.06-.16 1.9 1.66 3.66 3.55 3.54 45.39.03 90.79-.02 136.18.02 2.13.32 4.43-1.39 4.11-3.68 0-56.01.04-112.03-.02-168.03.12-2.16-2.15-3.54-4.1-3.24-44.04.01-88.08.02-132.11-.01-1.95.07-3.97-.24-5.85.35m68.34 178.44c-4.2 1.13-5.49 7.25-2.06 9.95 3.13 3.11 8.99.93 9.57-3.37.92-4.12-3.57-8.03-7.51-6.58zM400.65 182.39c19.09.53 38.19.08 57.28.23h103.06c17.78-.19 35.58.37 53.35-.29-.1 1.56-.2 3.11-.27 4.67-18.33-.02-36.66-.02-54.98.01-.01 22.58-.21 45.17.1 67.75 18.3.05 36.61.09 54.91-.03 0 1.7.01 3.4.03 5.11-71.16-.01-142.33-.1-213.49.04 0-1.73 0-3.46.01-5.18 10.72.17 21.44.11 32.16.05.31-22.57.1-45.16.1-67.74-10.75-.04-21.51-.01-32.26-.01v-4.61m39 4.54c-.19 13.02-.02 26.04-.08 39.05.23 9.62-.45 19.29.34 28.87 37.59-.18 75.2.09 112.79-.14.19-22.53-.01-45.07.1-67.61-37.71-.28-75.43.06-113.15-.17z"/><path d="M627.53 202.95c.03-3.33-.17-6.67.22-9.98 45.43-.18 90.87 0 136.31-.09 1.37-.2 3.45.09 2.97 2.04-.01 56.07 0 112.14-.01 168.21-2.33.57-4.73.33-7.09.34-43.62 0-87.24.02-130.85-.01-1.41.21-1.78-1.39-1.57-2.44.05-52.69 0-105.38.02-158.07m9.1-3.16c-.14 4.8-.13 9.6 0 14.39 40.46.07 80.93.06 121.39.01v-14.4c-40.46-.1-80.93-.1-121.39 0m-.02 18.02c-.06 30.44-.15 60.88.04 91.31 40.45-.02 80.91.07 121.36-.04 0-30.43.03-60.85-.02-91.27-40.46-.05-80.92-.06-121.38 0m-.06 95.17c-.33 15.34-.24 30.71-.05 46.06 19.83-.09 39.66-.02 59.5-.04.02-15.33.02-30.67-.01-46-19.82-.01-39.63.03-59.44-.02m63.04-.02c-.34 15.35-.28 30.73-.03 46.08 19.49-.1 38.97-.02 58.46-.03-.01-15.33 0-30.66-.01-45.99-19.47-.07-38.95.05-58.42-.06zm97.72-74.45c17.26-.18 34.52-.02 51.78-.08 5.55-.19 10.97 3.37 12.9 8.59 1.34 3.15.82 6.64.92 9.97-.04 38.03.04 76.07-.04 114.11-.18 7.49-7.45 13.48-14.82 12.72-16.71-.07-33.42.04-50.12-.06-6.73-.12-12.67-6.05-12.8-12.77-.06-39.69 0-79.38-.03-119.07-.19-6.74 5.47-12.99 12.21-13.41m16.96 8.88c-2.04.23-1 2.76.76 2.15 6.3-.07 12.61.07 18.91-.06 2.09-.37.34-2.64-1.01-2.14-6.22.06-12.45-.07-18.66.05m-26.28 11.5c.03 35.07 0 70.13.01 105.2.59.64 1.19 1.28 1.8 1.92 22.77-.02 45.54-.02 68.31 0 .58-.65 1.17-1.31 1.77-1.96.07-34.34 0-68.67.03-103.01.31-1.76-.8-4.29-2.87-4.07-22.41-.04-44.81.03-67.22-.03-.62.64-1.24 1.29-1.83 1.95m34.39 110.52c-4.25 1.09-5.21 7.47-1.38 9.67 3.17 2.41 8.28-.21 8.29-4.16.46-3.58-3.54-6.74-6.91-5.51z"/><path d="M789.47 260.08c-.04-1.27 1.19-2.27 2.46-1.94 21.41.05 42.83.02 64.24.02 1.74-.48 2.41 1.47 2.22 2.85-.04 33.31-.05 66.63.01 99.94.04 1.28-.17 2.52-.61 3.72-22.51.01-45.02-.07-67.52.04-.6-.8-.87-1.69-.82-2.66.05-33.99.02-67.98.02-101.97m4.51 2.7c-.02 3.85-.01 7.69 0 11.54 20 .17 40.02.18 60.02 0 .03-3.85.04-7.69 0-11.54-20.01-.08-40.02-.08-60.02 0m.03 15.11c-.06 17.36.01 34.73-.04 52.09 20.01.04 40.03.02 60.04.01 0-17.36.02-34.72-.01-52.09-20-.04-40-.01-59.99-.01m-.03 55.13c.01 9.49-.02 18.98.02 28.47 20 .14 40.02.24 60.01-.05.01-9.47.01-18.94 0-28.41-20.01-.06-40.02-.03-60.03-.01zm-393.35-52.07c71.16.05 142.33.03 213.49.01-.03 14.99-.03 29.98 0 44.97-71.15 0-142.31-.1-213.46.06-.04-15.02.02-30.03-.03-45.04m91.91 13.6c-7.06 1.9-9.29 12.02-3.75 16.75 5.16 5.33 15.26 2.15 16.46-5.17 1.87-7.1-5.79-14.16-12.71-11.58zm-41.76 69.3c1.64-10.2 2.91-20.45 4.71-30.61 1.12.51 2.28.83 3.5.98 25.65.05 51.3-.12 76.94.08 1.76 12.26 3.65 24.51 5.45 36.77-25.56-.05-51.13-.12-76.69.03-.18-2.41.67-5.48-1.7-7.08-4.05-.47-8.14-.1-12.21-.17z"/><path d="M16.9 365.97c63.69-.02 127.39.01 191.08-.03.01.74.04 2.21.05 2.94.89.55 1.85.82 2.88.83 19.39-.01 38.78-.01 58.17 0 1.05 0 2.01-.28 2.91-.85 0-.73.02-2.19.03-2.92 63.39.02 126.79.06 190.18-.01.11 2.96 1.62 7.85-2.15 9.05-146.34.1-292.69-.01-439.03.06-1.62.18-3.84-.29-4.2-2.16-.33-2.3-.18-4.62.08-6.91zm445.47 10.38c1.17-.78 1.74-2.15 2.51-3.28 29.39.26 58.79.03 88.18.12 2.64.14 6.04-.78 7.88 1.73 1.05 2.65.68 5.68.52 8.48-39.54.17-79.08-.13-118.61.15 6.23-2.99 13.21-4.3 19.52-7.2z"/></g><path d="M318.91 32.63c77.36-.13 154.72-.02 232.08-.06 8.66.09 17.32-.18 25.97.14-.02 5.45.04 10.89-.04 16.34-86 .14-172 .02-258 .06-.05-5.5-.07-10.99-.01-16.48zm265.71.05c29.2-.18 58.41-.16 87.61-.01.06 5.46.09 10.93-.03 16.39-29.18.06-58.36.13-87.54-.03-.19-5.45-.1-10.9-.04-16.35zM318.92 53h353.3c.03 39.03.17 78.07-.08 117.11-14.38.06-28.77-.03-43.15.04-7 .09-13.01 5.52-14.65 12.18-17.77.66-35.57.1-53.35.29H457.93c-19.09-.15-38.19.3-57.28-.23-.07-12.15.05-24.31-.05-36.46-.01-3.19-1.95-6.24-4.78-7.67-2.74-1.41-5.92-.93-8.88-1.01-22.65 0-45.29.04-67.94-.02-.23-28.08-.08-56.15-.08-84.23zm-81.32 91.94l2.34-2.4c.83.8 1.65 1.6 2.47 2.41-.81.81-1.63 1.62-2.45 2.43-.79-.81-1.58-1.63-2.36-2.44zM116.01 163h190c0 4.83-.05 9.66.06 14.49-49.02.24-98.06.03-147.09.1-14.33-.13-28.68.26-43-.19.04-4.8.01-9.6.03-14.4zm200 0c15.66-.02 31.33.03 46.99-.01 0 4.82-.02 9.64.02 14.46-15.67.21-31.36.29-47.02-.04 0-4.8 0-9.6.01-14.41zm-199.97 18.06c82.31-.12 164.62-.04 246.93-.05.06 35.35.03 70.7.02 106.05-82.33-.03-164.66.01-246.99-.02.03-35.33-.06-70.66.04-105.98zm580.12.03c1.49-1.53 4.11 1.06 2.7 2.64-1.61 2.57-5.36-.98-2.7-2.64zM400.65 187c10.75 0 21.51-.03 32.26.01 0 22.58.21 45.17-.1 67.74-10.72.06-21.44.12-32.16-.05-.02-22.57-.03-45.13 0-67.7zm39-.07c37.72.23 75.44-.11 113.15.17-.11 22.54.09 45.08-.1 67.61-37.59.23-75.2-.04-112.79.14-.79-9.58-.11-19.25-.34-28.87.06-13.01-.11-26.03.08-39.05zm119.44.08c18.32-.03 36.65-.03 54.98-.01.12 22.58.05 45.15.03 67.73-18.3.12-36.61.08-54.91.03-.31-22.58-.11-45.17-.1-67.75zm77.54 12.78c40.46-.1 80.93-.1 121.39 0v14.4c-40.46.05-80.93.06-121.39-.01-.13-4.79-.14-9.59 0-14.39zm-.02 18.02c40.46-.06 80.92-.05 121.38 0 .05 30.42.02 60.84.02 91.27-40.45.11-80.91.02-121.36.04-.19-30.43-.1-60.87-.04-91.31zm157.37 44.97c20-.08 40.01-.08 60.02 0 .04 3.85.03 7.69 0 11.54-20 .18-40.02.17-60.02 0-.01-3.85-.02-7.69 0-11.54zm.03 15.11c19.99 0 39.99-.03 59.99.01.03 17.37.01 34.73.01 52.09-20.01.01-40.03.03-60.04-.01.05-17.36-.02-34.73.04-52.09zM116 291.92c26.45.03 52.9-.12 79.34.07.16 17.36.1 34.72.03 52.08-26.45-.14-52.89-.01-79.34-.08-.07-17.36-.01-34.72-.03-52.07zm83.91-.01c26.36 0 52.73-.03 79.09.01.01 17.36-.01 34.72.01 52.09-26.36-.01-52.72 0-79.09-.01-.04-17.37-.01-34.73-.01-52.09zm83.89.07c26.4-.15 52.8-.07 79.2-.04.01 17.35-.01 34.71.01 52.07-26.42.03-52.83-.08-79.24.05-.03-17.36-.1-34.73.03-52.08zm352.75 21c19.81.05 39.62.01 59.44.02.03 15.33.03 30.67.01 46-19.84.02-39.67-.05-59.5.04-.19-15.35-.28-30.72.05-46.06zm63.04-.02c19.47.11 38.95-.01 58.42.06.01 15.33 0 30.66.01 45.99-19.49.01-38.97-.07-58.46.03-.25-15.35-.31-30.73.03-46.08zm-243.45 15.05c26.28.03 52.56.02 78.83.01.33 2.09.65 4.18.96 6.28-25.64-.2-51.29-.03-76.94-.08-1.22-.15-2.38-.47-3.5-.98l-.22-.08c.29-1.72.58-3.44.87-5.15zm337.84 5.01c20.01-.02 40.02-.05 60.03.01.01 9.47.01 18.94 0 28.41-19.99.29-40.01.19-60.01.05-.04-9.49-.01-18.98-.02-28.47z" fill="#9fcce2"/></svg>