<svg viewBox="0 0 512 384" xmlns="http://www.w3.org/2000/svg"><path fill="#cf649a" d="M166.54 11.35C188.86 3.86 212.44-.18 236.01.3c21.27.66 43.22 4.66 61.36 16.36 11.18 7.16 20.2 18.19 23.28 31.28 4.92 20.31-.84 41.77-11.1 59.5-14.84 25.41-38.52 45.55-65.92 56.26-15.59 5.97-31.9 10.18-48.51 12-13.84 1.45-27.96 1.61-41.62-1.39-9.42-2.25-18.35-6.77-25.6-13.21-4.71-4.24-9.1-9.63-9.91-16.11-.52-1.95 1.06-3.72 3.04-3.57 3.35 2.1 5.44 5.68 8.78 7.83 11.02 7.78 24.89 10.35 38.16 10.16 18.36-.76 36.53-4.96 53.56-11.78 23.39-9.51 45.03-24.58 59.91-45.2 7.36-10.37 13.1-22.47 13.5-35.36.05-7.43-1.8-15.4-7.22-20.8-7.09-7.23-17.02-10.71-26.7-12.85-14.1-2.9-28.69-2.69-42.94-1.06-28.74 3.59-56.36 13.55-82.02 26.73-24.8 12.74-49.07 27.28-69.33 46.62-13.36 13.07-25.38 29.21-27.72 48.26-1.81 11.6 1.2 23.65 7.66 33.38 8.89 13.5 21.73 23.67 34.33 33.53 13.03 10.26 26.76 19.88 37.96 32.22 16.88-9.27 33.84-18.41 50.64-27.79 10-12.8 22.54-24.68 38.32-29.77 6.95-2.13 16.1-1.59 20.42 5.09 5.06 7.88 4.03 17.88 2.72 26.71 4.22-4.77 11.95-3.88 15.99.61 1.99 2.28 1.15 5.51.54 8.16-4.2 15.5-8.6 30.96-11.79 46.71-1.14 5.7-1.53 11.61-.52 17.37 3.49-3.89 5.41-8.81 7.82-13.37 4.81-9.36 8.92-19.05 13.26-28.63 8.96-20.07 18.04-40.08 26.6-60.31 2.6-5.91 3.38-12.38 5.62-18.39 2.91-2.92 7.49-3.17 11.38-3.84 5.37-.43 11.08-1.12 16.22.93 1.98.79 4.36 2.84 3.37 5.21-2.37 7.3-5.18 14.57-5.92 22.28-.7 5.99.1 12.01 1 17.94 1.01 6.5 4.15 12.39 7.19 18.15 10.01-16.71 19.87-33.58 28.04-51.28 3.99-7.86 4.17-17.03 8.07-24.9 5.14-3.7 11.99-3.58 18.07-4 4.56.1 11.03.12 13 5.19-1.66 6.29-4.35 12.29-5.51 18.72-1.86 8.58-.9 17.48.85 26 2.13 7.62 6.37 14.41 9.84 21.46 23.82-11.43 52.24-14.42 77.39-5.7 16.39 5.8 31.14 18.02 37.31 34.59 4.07 10.98 4.41 24.24-2.42 34.22-4.62 6.69-11.43 12.27-19.39 14.33-2.15.92-3.96-.56-4.39-2.64 6.45-4.54 13.48-9.25 16.51-16.9 4.27-9.25.98-20.03-4.53-28-8.18-11.74-21.92-18.23-35.6-21.11-19.58-4-40.57-3.61-59.25 4.05 4.01 10.54 6.61 23.05.74 33.44-7.11 12.52-19.74 21.18-33.12 25.91-5.17 1.99-11.15 4.17-16.53 1.66-4.41-1.81-6.86-6.55-6.91-11.15-.14-7.98 2.67-15.75 6.5-22.64 5.99-10.39 14.21-19.38 23.44-26.98-3.4-6.96-7.09-13.84-9.31-21.29-1.92-6.58-3.51-13.25-4.74-19.98-8.9 18.27-19.23 35.83-30.69 52.62 5.17 11.68 8.34 25.37 3.49 37.71-4.49 11.77-15.45 19.56-26.76 24.11-8.15 3.6-17.04 5.59-25.96 5.4-3.61-.09-7.6-.96-9.88-4.01-2.22-2.83-1.36-6.76.07-9.75 1.96-3.59 4.7-6.68 7.24-9.87 9.79-11.98 20.3-23.42 29.01-36.25-3.62-7.91-8.01-15.5-10.6-23.84-2.12-6.79-3.66-13.73-5.04-20.69-11.88 30.37-25.82 59.92-41.82 88.34-3.99 7.58-8.68 15.17-15.7 20.31-3.5 2.69-8.43 3.92-12.56 1.96-4.39-1.92-6.69-6.56-7.89-10.94-2.44-9.71-1.61-19.85-.26-29.65-4.54 11.47-9.57 22.76-15.37 33.65-2.09 3.76-4.33 7.54-7.54 10.46-7.18 6.71-20.37 6.04-26.1-2.25-8.76-11.86-12.45-26.87-13.02-41.42.42-13.3 2.44-26.64 6.83-39.23-9.77 5.3-19.39 10.87-28.91 16.61 6.77 13.76 7.66 29.72 5.67 44.71-2.43 18.31-10.85 35.86-24.21 48.7-14.14 14.17-33.46 23.28-53.54 24.16h-4.92c-8.28-.88-17.83-1-24.11-7.3-9.21-9.2-12.35-23.18-10.18-35.77 1.84-12.72 8.38-24.37 17.43-33.37 18.83-18.86 42.37-32 65.83-44.17-8.85-7.59-18.63-13.97-28.18-20.63C56 231.58 39.8 220.14 25.85 206.15 13.51 193.59 2.7 178.33 0 160.55v-7.05c1.05-10.75 4.89-21.04 9.93-30.53 8.47-15.79 20.32-29.5 33.33-41.71 17.99-16.67 38.51-30.41 60.01-42.12 20.28-10.98 41.49-20.21 63.27-27.79m45.87 203.26c-6.68 2.13-12.03 7.23-16.1 12.78-10.3 14.58-17.68 31.56-19.14 49.49-.7 8.35-.8 17.05 2.05 25.04.82 1.89 2.24 4.82 4.79 3.93 2.7-1.47 4.22-4.32 5.76-6.86 5.39-9.88 9.15-20.54 13.25-30.99 5.07-12.7 9.68-25.59 13.24-38.8 1.05-4.31 2.46-8.73 1.85-13.21-1.09-2.08-3.75-2.01-5.7-1.38m151.03 64.76c-1.22 3.4-3.15 7.16-1.67 10.79 4.4-1.76 8.79-3.83 12.29-7.1 7.98-7.09 10.52-19.13 7.22-29.11-8.05 6.7-14.18 15.62-17.84 25.42M65.26 307.34c-8.53 8.12-15.08 18.79-16.86 30.54-.52 5.11-.42 11.37 4 14.86 5.08 3.48 11.77 2.44 17.39 1.04 16.73-4.76 30.29-17.62 38.37-32.74 7.73-14.42 8.88-31.79 4.44-47.42-16.68 9.86-33.26 20.3-47.34 33.72m238.1-17.88c-4.92 6-10.56 11.37-15.36 17.47 4.33.47 7.69-2.81 11.01-5.06 7.98-5.91 15.04-14.82 14.58-25.26-3.49 4.22-6.71 8.65-10.23 12.85z"/></svg>