<?xml version="1.0" encoding="UTF-8" ?>
<!DOCTYPE svg PUBLIC "-//W3C//DTD SVG 1.1//EN" "http://www.w3.org/Graphics/SVG/1.1/DTD/svg11.dtd">
<svg viewBox="0 0 512 384" version="1.1" xmlns="http://www.w3.org/2000/svg">
<g id="#cf649aff">
<path fill="#cf649a" opacity="1.00" d=" M 166.54 11.35 C 188.86 3.86 212.44 -0.18 236.01 0.30 C 257.28 0.96 279.23 4.96 297.37 16.66 C 308.55 23.82 317.57 34.85 320.65 47.94 C 325.57 68.25 319.81 89.71 309.55 107.44 C 294.71 132.85 271.03 152.99 243.63 163.70 C 228.04 169.67 211.73 173.88 195.12 175.70 C 181.28 177.15 167.16 177.31 153.50 174.31 C 144.08 172.06 135.15 167.54 127.90 161.10 C 123.19 156.86 118.80 151.47 117.99 144.99 C 117.47 143.04 119.05 141.27 121.03 141.42 C 124.38 143.52 126.47 147.10 129.81 149.25 C 140.83 157.03 154.70 159.60 167.97 159.41 C 186.33 158.65 204.50 154.45 221.53 147.63 C 244.92 138.12 266.56 123.05 281.44 102.43 C 288.80 92.06 294.54 79.96 294.94 67.07 C 294.99 59.64 293.14 51.67 287.72 46.27 C 280.63 39.04 270.70 35.56 261.02 33.42 C 246.92 30.52 232.33 30.73 218.08 32.36 C 189.34 35.95 161.72 45.91 136.06 59.09 C 111.26 71.83 86.99 86.37 66.73 105.71 C 53.37 118.78 41.35 134.92 39.01 153.97 C 37.20 165.57 40.21 177.62 46.67 187.35 C 55.56 200.85 68.40 211.02 81.00 220.88 C 94.03 231.14 107.76 240.76 118.96 253.10 C 135.84 243.83 152.80 234.69 169.60 225.31 C 179.60 212.51 192.14 200.63 207.92 195.54 C 214.87 193.41 224.02 193.95 228.34 200.63 C 233.40 208.51 232.37 218.51 231.06 227.34 C 235.28 222.57 243.01 223.46 247.05 227.95 C 249.04 230.23 248.20 233.46 247.59 236.11 C 243.39 251.61 238.99 267.07 235.80 282.82 C 234.66 288.52 234.27 294.43 235.28 300.19 C 238.77 296.30 240.69 291.38 243.10 286.82 C 247.91 277.46 252.02 267.77 256.36 258.19 C 265.32 238.12 274.40 218.11 282.96 197.88 C 285.56 191.97 286.34 185.50 288.58 179.49 C 291.49 176.57 296.07 176.32 299.96 175.65 C 305.33 175.22 311.04 174.53 316.18 176.58 C 318.16 177.37 320.54 179.42 319.55 181.79 C 317.18 189.09 314.37 196.36 313.63 204.07 C 312.93 210.06 313.73 216.08 314.63 222.01 C 315.64 228.51 318.78 234.40 321.82 240.16 C 331.83 223.45 341.69 206.58 349.86 188.88 C 353.85 181.02 354.03 171.85 357.93 163.98 C 363.07 160.28 369.92 160.40 376.00 159.98 C 380.56 160.08 387.03 160.10 389.00 165.17 C 387.34 171.46 384.65 177.46 383.49 183.89 C 381.63 192.47 382.59 201.37 384.34 209.89 C 386.47 217.51 390.71 224.30 394.18 231.35 C 418.00 219.92 446.42 216.93 471.57 225.65 C 487.96 231.45 502.71 243.67 508.88 260.24 C 512.95 271.22 513.29 284.48 506.46 294.46 C 501.84 301.15 495.03 306.73 487.07 308.79 C 484.92 309.71 483.11 308.23 482.68 306.15 C 489.13 301.61 496.16 296.90 499.19 289.25 C 503.46 280.00 500.17 269.22 494.66 261.25 C 486.48 249.51 472.74 243.02 459.06 240.14 C 439.48 236.14 418.49 236.53 399.81 244.19 C 403.82 254.73 406.42 267.24 400.55 277.63 C 393.44 290.15 380.81 298.81 367.43 303.54 C 362.26 305.53 356.28 307.71 350.90 305.20 C 346.49 303.39 344.04 298.65 343.99 294.05 C 343.85 286.07 346.66 278.30 350.49 271.41 C 356.48 261.02 364.70 252.03 373.93 244.43 C 370.53 237.47 366.84 230.59 364.62 223.14 C 362.70 216.56 361.11 209.89 359.88 203.16 C 350.98 221.43 340.65 238.99 329.19 255.78 C 334.36 267.46 337.53 281.15 332.68 293.49 C 328.19 305.26 317.23 313.05 305.92 317.60 C 297.77 321.20 288.88 323.19 279.96 323.00 C 276.35 322.91 272.36 322.04 270.08 318.99 C 267.86 316.16 268.72 312.23 270.15 309.24 C 272.11 305.65 274.85 302.56 277.39 299.37 C 287.18 287.39 297.69 275.95 306.40 263.12 C 302.78 255.21 298.39 247.62 295.80 239.28 C 293.68 232.49 292.14 225.55 290.76 218.59 C 278.88 248.96 264.94 278.51 248.94 306.93 C 244.95 314.51 240.26 322.10 233.24 327.24 C 229.74 329.93 224.81 331.16 220.68 329.20 C 216.29 327.28 213.99 322.64 212.79 318.26 C 210.35 308.55 211.18 298.41 212.53 288.61 C 207.99 300.08 202.96 311.37 197.16 322.26 C 195.07 326.02 192.83 329.80 189.62 332.72 C 182.44 339.43 169.25 338.76 163.52 330.47 C 154.76 318.61 151.07 303.60 150.50 289.05 C 150.92 275.75 152.94 262.41 157.33 249.82 C 147.56 255.12 137.94 260.69 128.42 266.43 C 135.19 280.19 136.08 296.15 134.09 311.14 C 131.66 329.45 123.24 347.00 109.88 359.84 C 95.74 374.01 76.42 383.12 56.34 384.00 L 51.42 384.00 C 43.14 383.12 33.59 383.00 27.31 376.70 C 18.10 367.50 14.96 353.52 17.13 340.93 C 18.97 328.21 25.51 316.56 34.56 307.56 C 53.39 288.70 76.93 275.56 100.39 263.39 C 91.54 255.80 81.76 249.42 72.21 242.76 C 56.00 231.58 39.80 220.14 25.85 206.15 C 13.51 193.59 2.70 178.33 0.00 160.55 L 0.00 153.50 C 1.05 142.75 4.89 132.46 9.93 122.97 C 18.40 107.18 30.25 93.47 43.26 81.26 C 61.25 64.59 81.77 50.85 103.27 39.14 C 123.55 28.16 144.76 18.93 166.54 11.35 M 212.41 214.61 C 205.73 216.74 200.38 221.84 196.31 227.39 C 186.01 241.97 178.63 258.95 177.17 276.88 C 176.47 285.23 176.37 293.93 179.22 301.92 C 180.04 303.81 181.46 306.74 184.01 305.85 C 186.71 304.38 188.23 301.53 189.77 298.99 C 195.16 289.11 198.92 278.45 203.02 268.00 C 208.09 255.30 212.70 242.41 216.26 229.20 C 217.31 224.89 218.72 220.47 218.11 215.99 C 217.02 213.91 214.36 213.98 212.41 214.61 M 363.44 279.37 C 362.22 282.77 360.29 286.53 361.77 290.16 C 366.17 288.40 370.56 286.33 374.06 283.06 C 382.04 275.97 384.58 263.93 381.28 253.95 C 373.23 260.65 367.10 269.57 363.44 279.37 M 65.26 307.34 C 56.73 315.46 50.18 326.13 48.40 337.88 C 47.88 342.99 47.98 349.25 52.40 352.74 C 57.48 356.22 64.17 355.18 69.79 353.78 C 86.52 349.02 100.08 336.16 108.16 321.04 C 115.89 306.62 117.04 289.25 112.60 273.62 C 95.92 283.48 79.34 293.92 65.26 307.34 M 303.36 289.46 C 298.44 295.46 292.80 300.83 288.00 306.93 C 292.33 307.40 295.69 304.12 299.01 301.87 C 306.99 295.96 314.05 287.05 313.59 276.61 C 310.10 280.83 306.88 285.26 303.36 289.46 Z" />
</g>
</svg>
