<svg viewBox="0 0 545 525" xmlns="http://www.w3.org/2000/svg"><path d="M109.06 267.93c16.96-6.05 36.26-5.23 52.61 2.32 14.24 6.48 26.16 17.89 33.24 31.83 5.06 9.73 7.44 20.66 7.7 31.58-13.69.21-27.39.03-41.09.1-.08-10.59-6.24-20.87-15.74-25.64-12.06-6.53-28.37-2.81-36.41 8.3-8.77 11.12-7.34 28.55 3.09 38.12 5.82 6.11 14.58 7.34 22.54 8.39 16.18 1.9 32.64 7.05 44.91 18.19 11.61 10.57 19.45 25.2 21.79 40.73 2.22 14.46-.19 29.61-6.95 42.6-7.28 14.15-19.55 25.66-34.14 32.01-14.85 6.54-31.99 7.63-47.57 3.13-16.07-4.58-30.3-15.18-39.35-29.22-7.34-11.2-11.16-24.55-11.25-37.92 13.68-.04 27.36.01 41.04-.02.09 10 5.52 19.78 14.2 24.83 11.77 7.36 28.53 4.43 37.14-6.45 8.77-10.18 8.76-26.52-.01-36.69-6.13-7.81-16.54-9.48-25.72-11.1-16.6-2.75-33.92-7.72-46.13-19.95-12.23-12.11-19.68-28.88-20.39-46.08-.75-15.18 3.65-30.55 12.36-43 8.29-11.96 20.39-21.24 34.13-26.06zm93.38-3.99c13.71.06 27.42-.14 41.13.1 9.53 46.42 19.27 92.79 28.87 139.19 9.71-46.38 19.32-92.78 28.89-139.2 13.71-.22 27.42-.03 41.13-.1-16.5 79.46-33.01 158.92-49.5 238.38-13.69.01-27.37 0-41.06 0-16.49-79.46-32.98-158.91-49.46-238.37zm164.95 16.33c12.6-10.66 29.09-16.56 45.6-16.34 16.17.05 32.23 5.99 44.56 16.45 15.63 13 25 33.1 24.86 53.44-13.66-.01-27.33-.01-40.99 0-.1-9.82-5.3-19.42-13.72-24.55-9.28-5.93-21.97-5.8-31.13.34-8.11 5.22-13.21 14.69-13.11 24.34-.05 30.69 0 61.39-.02 92.08-.05 5.64-.22 11.49 1.97 16.81 3.93 10.47 14.4 18.06 25.59 18.45 10.96.68 21.9-5.6 26.96-15.32 2.3-4.27 3.38-9.12 3.4-13.95.04-9.47 0-18.93.01-28.39-9.67-.01-19.33 0-29 0 .02-13.68-.03-27.35.03-41.03 23.33.05 46.65.01 69.98.02 0 23.8-.01 47.59 0 71.38-.23 14.96-5.55 29.75-14.81 41.5-9.18 11.73-22.18 20.43-36.57 24.33-17.47 4.83-36.79 2.58-52.61-6.29-21.36-11.65-35.7-35.11-35.94-59.48-.04-31.01 0-62.02-.01-93.02.03-5.35-.23-10.73.5-16.05 2.09-17.29 11.06-33.59 24.45-44.72z" fill="#fff"/><path d="M264.61 2.08c4.92-.13 9.86-.13 14.79 0 1.74 1.51 4.29.43 6.17 1.67 1.33.23 2.68.41 3.96.88 1.7.52 3.32 1.26 4.91 2.06.49.26 1.46.77 1.95 1.03 1.35.65 2.69 1.31 4.05 1.95 7.87 4.5 14.79 10.83 19.27 18.75.78 1.44 1.78 2.75 2.65 4.14.91 1.88 1.64 3.84 2.35 5.8.88 1.57 1.39 3.27 1.54 5.07.67 1.23.75 2.64.99 4 1.1 1.65.71 3.66.78 5.52-.07 4.81.07 9.63-.1 14.44-1.55 1.75-.36 4.35-1.73 6.19-.09.47-.28 1.41-.38 1.88-.71 1.71-1.32 3.46-2.05 5.16-.72 1.3-1.4 2.62-2.04 3.96-1.36 3.45-3.85 6.28-5.66 9.42-.14 16.13-.02 32.26-.06 48.39 11.78-11.47 23.21-23.29 34.97-34.78.03-1 .07-2.01.13-3.01 1.51-1.76.34-4.35 1.71-6.18.1-.46.29-1.4.38-1.87.77-2.02 1.48-4.07 2.53-5.97.5-1.07 1.03-2.14 1.52-3.22 5.57-10.04 14.03-18.51 24.32-23.67 1.86-.96 3.82-1.7 5.79-2.39 1.57-.89 3.28-1.41 5.09-1.54 1.49-.95 3.29-.74 4.97-.91.4-.2 1.2-.6 1.59-.8 5.46-.12 10.93-.08 16.4.02 1.73 1.57 4.34.35 6.18 1.74.46.1 1.38.29 1.84.39 1 .43 2.03.8 3.08 1.11 2.76.81 5.37 2.05 7.93 3.36 9.88 5.87 18.18 14.4 23.34 24.7.89 2.07 1.51 4.26 2.58 6.26.53 1.2.66 2.52.91 3.8.76 1.66.62 3.62 1.65 5.18.14 6.12.14 12.26.04 18.38l-.8 1.6c-.11.94-.22 1.87-.31 2.82-.95 2-.98 4.3-2.12 6.24-.66 1.65-1.25 3.33-1.95 4.97-.51.93-1 1.86-1.47 2.81-5.82 9.91-14.39 18.17-24.68 23.35-1.36.56-2.71 1.12-4.11 1.55-.99.35-1.99.68-2.99.98-.99.36-1.99.71-2.99 1.03-1.94 1-4.37.17-6.13 1.56-1.01.05-2.02.09-3.01.13-11.49 11.76-23.31 23.18-34.77 34.97 16.44-.03 32.89.07 49.33-.05 1.99-.78 3.24-3.06 5.46-3.65 2.27-1.45 4.54-2.89 6.96-4.08 1.35-.56 2.7-1.13 4.12-1.54.98-.37 1.97-.71 2.97-1.02 1.27-.52 2.63-.68 3.97-.9 2.77-1.87 6.53.45 9.17-1.68 2.64.16 5.72-.91 8.01.84 2.31.24 4.86-.45 6.96.84 1.35.25 2.81.24 4.01 1.05.47.1 1.4.28 1.87.37 1.27.56 2.59.99 3.88 1.54 2.55.93 5.02 1.99 7.25 3.56 5.97 2.73 9.99 8.03 14.64 12.42 2.36 2.71 4.09 5.9 6.12 8.85.24.5.71 1.51.95 2.01.98 1.85 1.7 3.81 2.42 5.78 1.15 1.94 1.18 4.24 2.12 6.25.25 1.69-.17 3.63 1.09 5.02.1 2.46.08 4.92.08 7.39h23c-.03 66.99.06 133.99-.05 200.98-.21.41-.64 1.22-.85 1.62-.09 1.59-.13 3.19-.2 4.79-.96 1.14-.87 2.67-1.15 4.04-.67 1.64-.89 3.4-1.39 5.1-.45 1.4-1.04 2.75-1.64 4.1-.66 1.66-1.25 3.35-1.96 4.99-.88 1.56-1.68 3.18-2.43 4.81-7.22 12.34-17.57 22.68-29.9 29.91-1.35.62-2.68 1.28-4.01 1.96-2.25 1.24-4.75 1.91-7.07 3.01-.93.37-1.87.71-2.82 1.04-1.27.5-2.63.66-3.96.91-1.67.74-3.6.65-5.17 1.63-1.61.08-3.21.12-4.8.21-1.29 1.23-3.07.85-4.66.92-133.11-.1-266.22.09-399.33-.09-2.02-1.87-5.12-.04-7.2-1.79l-2.82-.3c-1.59-.85-3.43-.93-5.12-1.49-.95-.32-1.89-.67-2.82-1.04-1.63-.8-3.34-1.4-5.05-1.99-1.72-.88-3.44-1.78-5.21-2.55-13.56-7.73-25.03-19.21-32.11-33.17-.52-1.08-1.07-2.14-1.6-3.21-.6-1.71-1.2-3.42-1.99-5.04-.38-.93-.72-1.87-1.04-2.81-.5-1.28-.67-2.64-.91-3.97-.75-1.67-.65-3.6-1.63-5.17-.09-1.61-.13-3.21-.21-4.8-.21-.4-.64-1.2-.85-1.6-.11-67-.02-134-.05-201h23c-.01-2.47-.02-4.93.08-7.39 1.5-1.76.44-4.3 1.67-6.18.23-1.29.34-2.6.91-3.79 1.15-2.3 1.81-4.8 3.02-7.08 2.71-5.02 5.76-10.01 10.07-13.81 3.3-3.37 6.52-6.93 10.83-9.03 2.24-1.18 4.25-2.8 6.76-3.43 1.7-.77 3.47-1.4 5.21-2.1.47-.09 1.41-.28 1.88-.38 1.18-.81 2.64-.8 4-1.04 2.45-1.76 5.84.31 8.17-1.69 2.65.17 5.73-.93 8.01.85 2.64.3 5.55-.57 7.96.83 1.33.22 2.7.36 3.96.9 1 .32 2 .66 2.98 1.02 1.41.41 2.75.97 4.1 1.54.93.5 1.88.99 2.83 1.47 1.67 1 3.21 2.2 4.99 3.01 2.12.66 3.11 3.52 5.49 3.3 16.15.01 32.3 0 48.46 0-11.46-11.79-23.29-23.21-34.77-34.97-1-.04-2.01-.08-3.01-.13-1.77-1.5-4.34-.36-6.18-1.71-.46-.1-1.38-.29-1.85-.39-1-.43-2.02-.8-3.06-1.11-2.77-.81-5.38-2.05-7.93-3.36-9.27-5.48-17.08-13.31-22.33-22.72-.25-.49-.75-1.47-1-1.97-.92-2.07-1.53-4.27-2.6-6.27-.55-1.2-.67-2.52-.9-3.8-.69-1.23-.76-2.64-.99-4-1.11-1.66-.71-3.68-.78-5.55.08-4.8-.08-9.61.11-14.41 1.03-1.56.88-3.52 1.65-5.18.24-1.28.37-2.6.92-3.8 1.39-3 2.39-6.16 4.01-9.06a62.087 62.087 0 0 1 21.9-21.9c2.58-1.34 5.25-2.49 7.98-3.48.47-.09 1.41-.29 1.89-.38.99-.43 1.99-.82 3.01-1.18 1.96-.94 4.4-.14 6.16-1.55 5.46-.11 10.93-.15 16.39-.03.4.2 1.19.6 1.59.8 1.68.18 3.48-.06 4.97.91 1.28.22 2.6.34 3.8.88 2.01 1.08 4.21 1.68 6.28 2.61.49.25 1.48.75 1.97 1 9.46 5.16 17.36 12.98 22.72 22.32.76 1.63 1.55 3.24 2.43 4.81.73 1.7 1.34 3.45 2.05 5.17.09.47.28 1.41.38 1.88 1.36 1.83.21 4.41 1.71 6.17.05 1 .09 2.01.13 3.01 11.76 11.49 23.18 23.31 34.97 34.77-.04-16.1.08-32.2-.06-48.29-1.06-2.37-3.06-4.31-4.26-6.66-.46-.96-.94-1.91-1.42-2.85-.51-1.06-1.04-2.11-1.55-3.16-.83-1.57-1.6-3.18-2.03-4.91-.36-.99-.7-1.98-1.01-2.98-.79-1.53-.67-3.27-.83-4.93-.2-.42-.59-1.24-.79-1.65-.1-5.97-.1-11.95 0-17.92.2-.4.6-1.21.81-1.62.09-.94.19-1.88.3-2.82.82-1.54.9-3.32 1.48-4.94 1.06-2.01 1.7-4.19 2.59-6.28 5.01-9.82 12.65-18.35 22.35-23.71 2.01-.95 4.01-1.95 5.99-2.96 1.58-.82 3.2-1.55 4.9-2.06 1.27-.49 2.62-.66 3.96-.89 1.88-1.24 4.43-.16 6.18-1.67m-19.54 22.95c-9.6 7.66-15.58 19.64-15.85 31.94-.43 11.63 4.23 23.27 12.48 31.46.12 29 .01 58 .05 87-20.85-20.19-41.16-40.96-61.79-61.39.04-16.09-9.67-31.69-24.27-38.51-12.42-6.06-27.78-5.57-39.76 1.32-10.75 6.04-18.65 16.93-20.89 29.08-2.53 12.71 1.16 26.49 9.79 36.18 7.97 9.24 20.03 14.61 32.21 14.65 20.65 20.53 41.26 41.1 61.86 61.69-29.07-.01-58.13-.06-87.19.03-5.12-4.73-11.08-8.67-17.81-10.65-14.26-4.54-30.75-.89-41.69 9.34-8.78 7.92-13.78 19.6-13.9 31.39 155.79.01 311.58 0 467.37 0 .06-16.65-10.44-32.69-25.81-39.13-13.7-6.04-30.55-4.2-42.5 4.86-2.16 1.29-3.73 4.01-6.38 4.13-28.63.05-57.27-.02-85.9.04 20.61-20.59 41.21-41.17 61.87-61.7 16.08.08 31.68-9.64 38.54-24.2 6.05-12.36 5.57-27.66-1.31-39.59-6.23-11.11-17.68-19.14-30.28-21.1-13.34-2.29-27.61 2.22-37.16 11.83-8.09 7.88-12.6 19.07-12.7 30.33-20.58 20.6-41.27 41.1-61.82 61.73.09-29.12-.07-58.23.08-87.35 12.01-11.7 15.84-30.72 9.39-46.18-5.04-12.66-16.51-22.51-29.8-25.54-12.69-3.06-26.72.05-36.83 8.34m-136.01 242.9c-13.74 4.82-25.84 14.1-34.13 26.06-8.71 12.45-13.11 27.82-12.36 43 .71 17.2 8.16 33.97 20.39 46.08 12.21 12.23 29.53 17.2 46.13 19.95 9.18 1.62 19.59 3.29 25.72 11.1 8.77 10.17 8.78 26.51.01 36.69-8.61 10.88-25.37 13.81-37.14 6.45-8.68-5.05-14.11-14.83-14.2-24.83-13.68.03-27.36-.02-41.04.02.09 13.37 3.91 26.72 11.25 37.92 9.05 14.04 23.28 24.64 39.35 29.22 15.58 4.5 32.72 3.41 47.57-3.13 14.59-6.35 26.86-17.86 34.14-32.01 6.76-12.99 9.17-28.14 6.95-42.6-2.34-15.53-10.18-30.16-21.79-40.73-12.27-11.14-28.73-16.29-44.91-18.19-7.96-1.05-16.72-2.28-22.54-8.39-10.43-9.57-11.86-27-3.09-38.12 8.04-11.11 24.35-14.83 36.41-8.3 9.5 4.77 15.66 15.05 15.74 25.64 13.7-.07 27.4.11 41.09-.1-.26-10.92-2.64-21.85-7.7-31.58-7.08-13.94-19-25.35-33.24-31.83-16.35-7.55-35.65-8.37-52.61-2.32m93.38-3.99c16.48 79.46 32.97 158.91 49.46 238.37 13.69 0 27.37.01 41.06 0 16.49-79.46 33-158.92 49.5-238.38-13.71.07-27.42-.12-41.13.1-9.57 46.42-19.18 92.82-28.89 139.2-9.6-46.4-19.34-92.77-28.87-139.19-13.71-.24-27.42-.04-41.13-.1m164.95 16.33c-13.39 11.13-22.36 27.43-24.45 44.72-.73 5.32-.47 10.7-.5 16.05.01 31-.03 62.01.01 93.02.24 24.37 14.58 47.83 35.94 59.48 15.82 8.87 35.14 11.12 52.61 6.29 14.39-3.9 27.39-12.6 36.57-24.33 9.26-11.75 14.58-26.54 14.81-41.5-.01-23.79 0-47.58 0-71.38-23.33-.01-46.65.03-69.98-.02-.06 13.68-.01 27.35-.03 41.03 9.67 0 19.33-.01 29 0-.01 9.46.03 18.92-.01 28.39-.02 4.83-1.1 9.68-3.4 13.95-5.06 9.72-16 16-26.96 15.32-11.19-.39-21.66-7.98-25.59-18.45-2.19-5.32-2.02-11.17-1.97-16.81.02-30.69-.03-61.39.02-92.08-.1-9.65 5-19.12 13.11-24.34 9.16-6.14 21.85-6.27 31.13-.34 8.42 5.13 13.62 14.73 13.72 24.55 13.66-.01 27.33-.01 40.99 0 .14-20.34-9.23-40.44-24.86-53.44-12.33-10.46-28.39-16.4-44.56-16.45-16.51-.22-33 5.68-45.6 16.34z"/><path fill="#ffb03a" d="M245.07 25.03c10.11-8.29 24.14-11.4 36.83-8.34 13.29 3.03 24.76 12.88 29.8 25.54 6.45 15.46 2.62 34.48-9.39 46.18-.15 29.12.01 58.23-.08 87.35 20.55-20.63 41.24-41.13 61.82-61.73.1-11.26 4.61-22.45 12.7-30.33 9.55-9.61 23.82-14.12 37.16-11.83 12.6 1.96 24.05 9.99 30.28 21.1 6.88 11.93 7.36 27.23 1.31 39.59-6.86 14.56-22.46 24.28-38.54 24.2-20.66 20.53-41.26 41.11-61.87 61.7 28.63-.06 57.27.01 85.9-.04 2.65-.12 4.22-2.84 6.38-4.13 11.95-9.06 28.8-10.9 42.5-4.86 15.37 6.44 25.87 22.48 25.81 39.13-155.79 0-311.58.01-467.37 0 .12-11.79 5.12-23.47 13.9-31.39 10.94-10.23 27.43-13.88 41.69-9.34 6.73 1.98 12.69 5.92 17.81 10.65 29.06-.09 58.12-.04 87.19-.03-20.6-20.59-41.21-41.16-61.86-61.69-12.18-.04-24.24-5.41-32.21-14.65-8.63-9.69-12.32-23.47-9.79-36.18 2.24-12.15 10.14-23.04 20.89-29.08 11.98-6.89 27.34-7.38 39.76-1.32 14.6 6.82 24.31 22.42 24.27 38.51 20.63 20.43 40.94 41.2 61.79 61.39-.04-29 .07-58-.05-87-8.25-8.19-12.91-19.83-12.48-31.46.27-12.3 6.25-24.28 15.85-31.94z"/></svg>