<?xml version="1.0" encoding="UTF-8" ?>
<!DOCTYPE svg PUBLIC "-//W3C//DTD SVG 1.1//EN" "http://www.w3.org/Graphics/SVG/1.1/DTD/svg11.dtd">
<svg viewBox="0 0 545 525" version="1.1" xmlns="http://www.w3.org/2000/svg">
<g id="#ffffffff">
<path fill="#ffffff" opacity="1.00" d=" M 109.06 267.93 C 126.02 261.88 145.32 262.70 161.67 270.25 C 175.91 276.73 187.83 288.14 194.91 302.08 C 199.97 311.81 202.35 322.74 202.61 333.66 C 188.92 333.87 175.22 333.69 161.52 333.76 C 161.44 323.17 155.28 312.89 145.78 308.12 C 133.72 301.59 117.41 305.31 109.37 316.42 C 100.60 327.54 102.03 344.97 112.46 354.54 C 118.28 360.65 127.04 361.88 135.00 362.93 C 151.18 364.83 167.64 369.98 179.91 381.12 C 191.52 391.69 199.36 406.32 201.70 421.85 C 203.92 436.31 201.51 451.46 194.75 464.45 C 187.47 478.60 175.20 490.11 160.61 496.46 C 145.76 503.00 128.62 504.09 113.04 499.59 C 96.97 495.01 82.74 484.41 73.69 470.37 C 66.35 459.17 62.53 445.82 62.44 432.45 C 76.12 432.41 89.80 432.46 103.48 432.43 C 103.57 442.43 109.00 452.21 117.68 457.26 C 129.45 464.62 146.21 461.69 154.82 450.81 C 163.59 440.63 163.58 424.29 154.81 414.12 C 148.68 406.31 138.27 404.64 129.09 403.02 C 112.49 400.27 95.17 395.30 82.96 383.07 C 70.73 370.96 63.28 354.19 62.57 336.99 C 61.82 321.81 66.22 306.44 74.93 293.99 C 83.22 282.03 95.32 272.75 109.06 267.93 Z" />
<path fill="#ffffff" opacity="1.00" d=" M 202.44 263.94 C 216.15 264.00 229.86 263.80 243.57 264.04 C 253.10 310.46 262.84 356.83 272.44 403.23 C 282.15 356.85 291.76 310.45 301.33 264.03 C 315.04 263.81 328.75 264.00 342.46 263.93 C 325.96 343.39 309.45 422.85 292.96 502.31 C 279.27 502.32 265.59 502.31 251.90 502.31 C 235.41 422.85 218.92 343.40 202.44 263.94 Z" />
<path fill="#ffffff" opacity="1.00" d=" M 367.39 280.27 C 379.99 269.61 396.48 263.71 412.99 263.93 C 429.16 263.98 445.22 269.92 457.55 280.38 C 473.18 293.38 482.55 313.48 482.41 333.82 C 468.75 333.81 455.08 333.81 441.42 333.82 C 441.32 324.00 436.12 314.40 427.70 309.27 C 418.42 303.34 405.73 303.47 396.57 309.61 C 388.46 314.83 383.36 324.30 383.46 333.95 C 383.41 364.64 383.46 395.34 383.44 426.03 C 383.39 431.67 383.22 437.52 385.41 442.84 C 389.34 453.31 399.81 460.90 411.00 461.29 C 421.96 461.97 432.90 455.69 437.96 445.97 C 440.26 441.70 441.34 436.85 441.36 432.02 C 441.40 422.55 441.36 413.09 441.37 403.63 C 431.70 403.62 422.04 403.63 412.37 403.63 C 412.39 389.95 412.34 376.28 412.40 362.60 C 435.73 362.65 459.05 362.61 482.38 362.62 C 482.38 386.42 482.37 410.21 482.38 434.00 C 482.15 448.96 476.83 463.75 467.57 475.50 C 458.39 487.23 445.39 495.93 431.00 499.83 C 413.53 504.66 394.21 502.41 378.39 493.54 C 357.03 481.89 342.69 458.43 342.45 434.06 C 342.41 403.05 342.45 372.04 342.44 341.04 C 342.47 335.69 342.21 330.31 342.94 324.99 C 345.03 307.70 354.00 291.40 367.39 280.27 Z" />
</g>
<g id="#000000ff">
<path fill="#000000" opacity="1.00" d=" M 264.61 2.08 C 269.53 1.95 274.47 1.95 279.40 2.08 C 281.14 3.59 283.69 2.51 285.57 3.75 C 286.90 3.98 288.25 4.16 289.53 4.63 C 291.23 5.15 292.85 5.89 294.44 6.69 C 294.93 6.95 295.90 7.46 296.39 7.72 C 297.74 8.37 299.08 9.03 300.44 9.67 C 308.31 14.17 315.23 20.50 319.71 28.42 C 320.49 29.86 321.49 31.17 322.36 32.56 C 323.27 34.44 324.00 36.40 324.71 38.36 C 325.59 39.93 326.10 41.63 326.25 43.43 C 326.92 44.66 327.00 46.07 327.24 47.43 C 328.34 49.08 327.95 51.09 328.02 52.95 C 327.95 57.76 328.09 62.58 327.92 67.39 C 326.37 69.14 327.56 71.74 326.19 73.58 C 326.10 74.05 325.91 74.99 325.81 75.46 C 325.10 77.17 324.49 78.92 323.76 80.62 C 323.04 81.92 322.36 83.24 321.72 84.58 C 320.36 88.03 317.87 90.86 316.06 94.00 C 315.92 110.13 316.04 126.26 316.00 142.39 C 327.78 130.92 339.21 119.10 350.97 107.61 C 351.00 106.61 351.04 105.60 351.10 104.60 C 352.61 102.84 351.44 100.25 352.81 98.42 C 352.91 97.96 353.10 97.02 353.19 96.55 C 353.96 94.53 354.67 92.48 355.72 90.58 C 356.22 89.51 356.75 88.44 357.24 87.36 C 362.81 77.32 371.27 68.85 381.56 63.69 C 383.42 62.73 385.38 61.99 387.35 61.30 C 388.92 60.41 390.63 59.89 392.44 59.76 C 393.93 58.81 395.73 59.02 397.41 58.85 C 397.81 58.65 398.61 58.25 399.00 58.05 C 404.46 57.93 409.93 57.97 415.40 58.07 C 417.13 59.64 419.74 58.42 421.58 59.81 C 422.04 59.91 422.96 60.10 423.42 60.20 C 424.42 60.63 425.45 61.00 426.50 61.31 C 429.26 62.12 431.87 63.36 434.43 64.67 C 444.31 70.54 452.61 79.07 457.77 89.37 C 458.66 91.44 459.28 93.63 460.35 95.63 C 460.88 96.83 461.01 98.15 461.26 99.43 C 462.02 101.09 461.88 103.05 462.91 104.61 C 463.05 110.73 463.05 116.87 462.95 122.99 C 462.75 123.39 462.35 124.19 462.15 124.59 C 462.04 125.53 461.93 126.46 461.84 127.41 C 460.89 129.41 460.86 131.71 459.72 133.65 C 459.06 135.30 458.47 136.98 457.77 138.62 C 457.26 139.55 456.77 140.48 456.30 141.43 C 450.48 151.34 441.91 159.60 431.62 164.78 C 430.26 165.34 428.91 165.90 427.51 166.33 C 426.52 166.68 425.52 167.01 424.52 167.31 C 423.53 167.67 422.53 168.02 421.53 168.34 C 419.59 169.34 417.16 168.51 415.40 169.90 C 414.39 169.95 413.38 169.99 412.39 170.03 C 400.90 181.79 389.08 193.21 377.62 205.00 C 394.06 204.97 410.51 205.07 426.95 204.95 C 428.94 204.17 430.19 201.89 432.41 201.30 C 434.68 199.85 436.95 198.41 439.37 197.22 C 440.72 196.66 442.07 196.09 443.49 195.68 C 444.47 195.31 445.46 194.97 446.46 194.66 C 447.73 194.14 449.09 193.98 450.43 193.76 C 453.20 191.89 456.96 194.21 459.60 192.08 C 462.24 192.24 465.32 191.17 467.61 192.92 C 469.92 193.16 472.47 192.47 474.57 193.76 C 475.92 194.01 477.38 194.00 478.58 194.81 C 479.05 194.91 479.98 195.09 480.45 195.18 C 481.72 195.74 483.04 196.17 484.33 196.72 C 486.88 197.65 489.35 198.71 491.58 200.28 C 497.55 203.01 501.57 208.31 506.22 212.70 C 508.58 215.41 510.31 218.60 512.34 221.55 C 512.58 222.05 513.05 223.06 513.29 223.56 C 514.27 225.41 514.99 227.37 515.71 229.34 C 516.86 231.28 516.89 233.58 517.83 235.59 C 518.08 237.28 517.66 239.22 518.92 240.61 C 519.02 243.07 519.00 245.53 519.00 248.00 C 526.67 248.00 534.33 248.00 542.00 248.00 C 541.97 314.99 542.06 381.99 541.95 448.98 C 541.74 449.39 541.31 450.20 541.10 450.60 C 541.01 452.19 540.97 453.79 540.90 455.39 C 539.94 456.53 540.03 458.06 539.75 459.43 C 539.08 461.07 538.86 462.83 538.36 464.53 C 537.91 465.93 537.32 467.28 536.72 468.63 C 536.06 470.29 535.47 471.98 534.76 473.62 C 533.88 475.18 533.08 476.80 532.33 478.43 C 525.11 490.77 514.76 501.11 502.43 508.34 C 501.08 508.96 499.75 509.62 498.42 510.30 C 496.17 511.54 493.67 512.21 491.35 513.31 C 490.42 513.68 489.48 514.02 488.53 514.35 C 487.26 514.85 485.90 515.01 484.57 515.26 C 482.90 516.00 480.97 515.91 479.40 516.89 C 477.79 516.97 476.19 517.01 474.60 517.10 C 473.31 518.33 471.53 517.95 469.94 518.02 C 336.83 517.92 203.72 518.11 70.61 517.93 C 68.59 516.06 65.49 517.89 63.41 516.14 C 62.47 516.04 61.53 515.94 60.59 515.84 C 59.00 514.99 57.16 514.91 55.47 514.35 C 54.52 514.03 53.58 513.68 52.65 513.31 C 51.02 512.51 49.31 511.91 47.60 511.32 C 45.88 510.44 44.16 509.54 42.39 508.77 C 28.83 501.04 17.36 489.56 10.28 475.60 C 9.76 474.52 9.21 473.46 8.68 472.39 C 8.08 470.68 7.48 468.97 6.69 467.35 C 6.31 466.42 5.97 465.48 5.65 464.54 C 5.15 463.26 4.98 461.90 4.74 460.57 C 3.99 458.90 4.09 456.97 3.11 455.40 C 3.02 453.79 2.98 452.19 2.90 450.60 C 2.69 450.20 2.26 449.40 2.05 449.00 C 1.94 382.00 2.03 315.00 2.00 248.00 C 9.67 248.00 17.33 248.00 25.00 248.00 C 24.99 245.53 24.98 243.07 25.08 240.61 C 26.58 238.85 25.52 236.31 26.75 234.43 C 26.98 233.14 27.09 231.83 27.66 230.64 C 28.81 228.34 29.47 225.84 30.68 223.56 C 33.39 218.54 36.44 213.55 40.75 209.75 C 44.05 206.38 47.27 202.82 51.58 200.72 C 53.82 199.54 55.83 197.92 58.34 197.29 C 60.04 196.52 61.81 195.89 63.55 195.19 C 64.02 195.10 64.96 194.91 65.43 194.81 C 66.61 194.00 68.07 194.01 69.43 193.77 C 71.88 192.01 75.27 194.08 77.60 192.08 C 80.25 192.25 83.33 191.15 85.61 192.93 C 88.25 193.23 91.16 192.36 93.57 193.76 C 94.90 193.98 96.27 194.12 97.53 194.66 C 98.53 194.98 99.53 195.32 100.51 195.68 C 101.92 196.09 103.26 196.65 104.61 197.22 C 105.54 197.72 106.49 198.21 107.44 198.69 C 109.11 199.69 110.65 200.89 112.43 201.70 C 114.55 202.36 115.54 205.22 117.92 205.00 C 134.07 205.01 150.22 205.00 166.38 205.00 C 154.92 193.21 143.09 181.79 131.61 170.03 C 130.61 169.99 129.60 169.95 128.60 169.90 C 126.83 168.40 124.26 169.54 122.42 168.19 C 121.96 168.09 121.04 167.90 120.57 167.80 C 119.57 167.37 118.55 167.00 117.51 166.69 C 114.74 165.88 112.13 164.64 109.58 163.33 C 100.31 157.85 92.50 150.02 87.25 140.61 C 87.00 140.12 86.50 139.14 86.25 138.64 C 85.33 136.57 84.72 134.37 83.65 132.37 C 83.10 131.17 82.98 129.85 82.75 128.57 C 82.06 127.34 81.99 125.93 81.76 124.57 C 80.65 122.91 81.05 120.89 80.98 119.02 C 81.06 114.22 80.90 109.41 81.09 104.61 C 82.12 103.05 81.97 101.09 82.74 99.43 C 82.98 98.15 83.11 96.83 83.66 95.63 C 85.05 92.63 86.05 89.47 87.67 86.57 C 92.99 77.55 100.55 69.99 109.57 64.67 C 112.15 63.33 114.82 62.18 117.55 61.19 C 118.02 61.10 118.96 60.90 119.44 60.81 C 120.43 60.38 121.43 59.99 122.45 59.63 C 124.41 58.69 126.85 59.49 128.61 58.08 C 134.07 57.97 139.54 57.93 145.00 58.05 C 145.40 58.25 146.19 58.65 146.59 58.85 C 148.27 59.03 150.07 58.79 151.56 59.76 C 152.84 59.98 154.16 60.10 155.36 60.64 C 157.37 61.72 159.57 62.32 161.64 63.25 C 162.13 63.50 163.12 64.00 163.61 64.25 C 173.07 69.41 180.97 77.23 186.33 86.57 C 187.09 88.20 187.88 89.81 188.76 91.38 C 189.49 93.08 190.10 94.83 190.81 96.55 C 190.90 97.02 191.09 97.96 191.19 98.43 C 192.55 100.26 191.40 102.84 192.90 104.60 C 192.95 105.60 192.99 106.61 193.03 107.61 C 204.79 119.10 216.21 130.92 228.00 142.38 C 227.96 126.28 228.08 110.18 227.94 94.09 C 226.88 91.72 224.88 89.78 223.68 87.43 C 223.22 86.47 222.74 85.52 222.26 84.58 C 221.75 83.52 221.22 82.47 220.71 81.42 C 219.88 79.85 219.11 78.24 218.68 76.51 C 218.32 75.52 217.98 74.53 217.67 73.53 C 216.88 72.00 217.00 70.26 216.84 68.60 C 216.64 68.18 216.25 67.36 216.05 66.95 C 215.95 60.98 215.95 55.00 216.05 49.03 C 216.25 48.63 216.65 47.82 216.86 47.41 C 216.95 46.47 217.05 45.53 217.16 44.59 C 217.98 43.05 218.06 41.27 218.64 39.65 C 219.70 37.64 220.34 35.46 221.23 33.37 C 226.24 23.55 233.88 15.02 243.58 9.66 C 245.59 8.71 247.59 7.71 249.57 6.70 C 251.15 5.88 252.77 5.15 254.47 4.64 C 255.74 4.15 257.09 3.98 258.43 3.75 C 260.31 2.51 262.86 3.59 264.61 2.08 M 245.07 25.03 C 235.47 32.69 229.49 44.67 229.22 56.97 C 228.79 68.60 233.45 80.24 241.70 88.43 C 241.82 117.43 241.71 146.43 241.75 175.43 C 220.90 155.24 200.59 134.47 179.96 114.04 C 180.00 97.95 170.29 82.35 155.69 75.53 C 143.27 69.47 127.91 69.96 115.93 76.85 C 105.18 82.89 97.28 93.78 95.04 105.93 C 92.51 118.64 96.20 132.42 104.83 142.11 C 112.80 151.35 124.86 156.72 137.04 156.76 C 157.69 177.29 178.30 197.86 198.90 218.45 C 169.83 218.44 140.77 218.39 111.71 218.48 C 106.59 213.75 100.63 209.81 93.90 207.83 C 79.64 203.29 63.15 206.94 52.21 217.17 C 43.43 225.09 38.43 236.77 38.31 248.56 C 194.10 248.57 349.89 248.56 505.68 248.56 C 505.74 231.91 495.24 215.87 479.87 209.43 C 466.17 203.39 449.32 205.23 437.37 214.29 C 435.21 215.58 433.64 218.30 430.99 218.42 C 402.36 218.47 373.72 218.40 345.09 218.46 C 365.70 197.87 386.30 177.29 406.96 156.76 C 423.04 156.84 438.64 147.12 445.50 132.56 C 451.55 120.20 451.07 104.90 444.19 92.97 C 437.96 81.86 426.51 73.83 413.91 71.87 C 400.57 69.58 386.30 74.09 376.75 83.70 C 368.66 91.58 364.15 102.77 364.05 114.03 C 343.47 134.63 322.78 155.13 302.23 175.76 C 302.32 146.64 302.16 117.53 302.31 88.41 C 314.32 76.71 318.15 57.69 311.70 42.23 C 306.66 29.57 295.19 19.72 281.90 16.69 C 269.21 13.63 255.18 16.74 245.07 25.03 M 109.06 267.93 C 95.32 272.75 83.22 282.03 74.93 293.99 C 66.22 306.44 61.82 321.81 62.57 336.99 C 63.28 354.19 70.73 370.96 82.96 383.07 C 95.17 395.30 112.49 400.27 129.09 403.02 C 138.27 404.64 148.68 406.31 154.81 414.12 C 163.58 424.29 163.59 440.63 154.82 450.81 C 146.21 461.69 129.45 464.62 117.68 457.26 C 109.00 452.21 103.57 442.43 103.48 432.43 C 89.80 432.46 76.12 432.41 62.44 432.45 C 62.53 445.82 66.35 459.17 73.69 470.37 C 82.74 484.41 96.97 495.01 113.04 499.59 C 128.62 504.09 145.76 503.00 160.61 496.46 C 175.20 490.11 187.47 478.60 194.75 464.45 C 201.51 451.46 203.92 436.31 201.70 421.85 C 199.36 406.32 191.52 391.69 179.91 381.12 C 167.64 369.98 151.18 364.83 135.00 362.93 C 127.04 361.88 118.28 360.65 112.46 354.54 C 102.03 344.97 100.60 327.54 109.37 316.42 C 117.41 305.31 133.72 301.59 145.78 308.12 C 155.28 312.89 161.44 323.17 161.52 333.76 C 175.22 333.69 188.92 333.87 202.61 333.66 C 202.35 322.74 199.97 311.81 194.91 302.08 C 187.83 288.14 175.91 276.73 161.67 270.25 C 145.32 262.70 126.02 261.88 109.06 267.93 M 202.44 263.94 C 218.92 343.40 235.41 422.85 251.90 502.31 C 265.59 502.31 279.27 502.32 292.96 502.31 C 309.45 422.85 325.96 343.39 342.46 263.93 C 328.75 264.00 315.04 263.81 301.33 264.03 C 291.76 310.45 282.15 356.85 272.44 403.23 C 262.84 356.83 253.10 310.46 243.57 264.04 C 229.86 263.80 216.15 264.00 202.44 263.94 M 367.39 280.27 C 354.00 291.40 345.03 307.70 342.94 324.99 C 342.21 330.31 342.47 335.69 342.44 341.04 C 342.45 372.04 342.41 403.05 342.45 434.06 C 342.69 458.43 357.03 481.89 378.39 493.54 C 394.21 502.41 413.53 504.66 431.00 499.83 C 445.39 495.93 458.39 487.23 467.57 475.50 C 476.83 463.75 482.15 448.96 482.38 434.00 C 482.37 410.21 482.38 386.42 482.38 362.62 C 459.05 362.61 435.73 362.65 412.40 362.60 C 412.34 376.28 412.39 389.95 412.37 403.63 C 422.04 403.63 431.70 403.62 441.37 403.63 C 441.36 413.09 441.40 422.55 441.36 432.02 C 441.34 436.85 440.26 441.70 437.96 445.97 C 432.90 455.69 421.96 461.97 411.00 461.29 C 399.81 460.90 389.34 453.31 385.41 442.84 C 383.22 437.52 383.39 431.67 383.44 426.03 C 383.46 395.34 383.41 364.64 383.46 333.95 C 383.36 324.30 388.46 314.83 396.57 309.61 C 405.73 303.47 418.42 303.34 427.70 309.27 C 436.12 314.40 441.32 324.00 441.42 333.82 C 455.08 333.81 468.75 333.81 482.41 333.82 C 482.55 313.48 473.18 293.38 457.55 280.38 C 445.22 269.92 429.16 263.98 412.99 263.93 C 396.48 263.71 379.99 269.61 367.39 280.27 Z" />
</g>
<g id="#ffb03aff">
<path fill="#ffb03a" opacity="1.00" d=" M 245.07 25.03 C 255.18 16.74 269.21 13.63 281.90 16.69 C 295.19 19.72 306.66 29.57 311.70 42.23 C 318.15 57.69 314.32 76.71 302.31 88.41 C 302.16 117.53 302.32 146.64 302.23 175.76 C 322.78 155.13 343.47 134.63 364.05 114.03 C 364.15 102.77 368.66 91.58 376.75 83.70 C 386.30 74.09 400.57 69.58 413.91 71.87 C 426.51 73.83 437.96 81.86 444.19 92.97 C 451.07 104.90 451.55 120.20 445.50 132.56 C 438.64 147.12 423.04 156.84 406.96 156.76 C 386.30 177.29 365.70 197.87 345.09 218.46 C 373.72 218.40 402.36 218.47 430.99 218.42 C 433.64 218.30 435.21 215.58 437.37 214.29 C 449.32 205.23 466.17 203.39 479.87 209.43 C 495.24 215.87 505.74 231.91 505.68 248.56 C 349.89 248.56 194.10 248.57 38.31 248.56 C 38.43 236.77 43.43 225.09 52.21 217.17 C 63.15 206.94 79.64 203.29 93.90 207.83 C 100.63 209.81 106.59 213.75 111.71 218.48 C 140.77 218.39 169.83 218.44 198.90 218.45 C 178.30 197.86 157.69 177.29 137.04 156.76 C 124.86 156.72 112.80 151.35 104.83 142.11 C 96.20 132.42 92.51 118.64 95.04 105.93 C 97.28 93.78 105.18 82.89 115.93 76.85 C 127.91 69.96 143.27 69.47 155.69 75.53 C 170.29 82.35 180.00 97.95 179.96 114.04 C 200.59 134.47 220.90 155.24 241.75 175.43 C 241.71 146.43 241.82 117.43 241.70 88.43 C 233.45 80.24 228.79 68.60 229.22 56.97 C 229.49 44.67 235.47 32.69 245.07 25.03 Z" />
</g>
</svg>
