<?xml version="1.0" encoding="UTF-8" ?>
<!DOCTYPE svg PUBLIC "-//W3C//DTD SVG 1.1//EN" "http://www.w3.org/Graphics/SVG/1.1/DTD/svg11.dtd">
<svg viewBox="0 0 1024 661" version="1.1" xmlns="http://www.w3.org/2000/svg">
<g id="#453f3dff">
<path fill="#453f3d" opacity="1.00" d=" M 488.59 31.85 C 528.87 28.23 570.16 36.28 605.96 55.14 C 639.36 72.60 667.97 99.10 687.93 131.06 C 707.28 161.83 718.42 197.68 719.95 233.99 C 721.65 271.02 713.44 308.46 696.24 341.30 C 678.73 374.96 652.02 403.75 619.81 423.79 C 588.50 443.38 551.97 454.53 515.05 455.72 C 476.29 457.16 437.20 447.68 403.45 428.57 C 368.68 409.02 339.62 379.49 320.63 344.41 C 304.12 314.05 295.17 279.57 295.12 245.00 C 294.66 208.94 303.83 172.84 321.27 141.29 C 338.03 110.80 362.40 84.55 391.54 65.54 C 420.47 46.56 454.13 34.89 488.59 31.85 M 486.66 41.90 C 440.76 46.52 396.80 67.58 364.30 100.30 C 338.72 125.79 320.10 158.23 311.18 193.24 C 301.35 231.56 303.05 272.79 316.17 310.13 C 329.93 349.62 356.33 384.52 390.46 408.68 C 420.96 430.41 457.61 443.42 495.01 445.64 C 531.78 448.01 569.16 440.04 601.74 422.81 C 635.40 405.16 663.89 377.82 682.98 344.95 C 701.12 313.93 710.65 277.97 710.33 242.04 C 710.16 206.82 700.53 171.69 682.65 141.34 C 664.20 109.80 637.09 83.42 605.06 65.83 C 569.26 46.03 527.34 37.60 486.66 41.90 Z" />
<path fill="#453f3d" opacity="1.00" d=" M 433.67 76.80 C 477.42 57.23 528.96 56.04 573.59 73.50 C 594.65 81.64 614.09 93.84 630.79 109.02 C 624.20 108.57 617.44 110.21 611.98 113.98 C 601.71 120.84 596.34 133.89 598.08 146.03 C 599.62 158.28 606.43 168.91 612.75 179.20 C 621.20 192.51 628.16 207.19 630.02 223.00 C 632.74 244.11 626.88 265.11 619.96 284.87 C 615.53 295.96 612.68 307.59 609.11 318.97 C 605.65 330.61 602.08 342.21 598.71 353.88 C 576.46 288.66 554.70 223.27 532.69 157.96 C 539.86 157.55 547.03 157.07 554.15 156.14 C 558.75 155.62 561.61 150.30 559.92 146.09 C 558.92 142.80 555.35 140.86 552.02 141.35 C 535.70 142.48 519.36 143.58 503.00 143.62 C 487.30 143.48 471.63 142.39 455.97 141.34 C 453.66 141.10 451.22 141.92 449.75 143.76 C 446.31 147.53 447.76 154.85 453.07 155.97 C 459.93 157.05 466.88 157.46 473.80 157.98 C 483.33 183.92 492.81 209.89 502.25 235.87 C 488.90 275.68 475.66 315.54 462.36 355.37 C 440.02 289.64 418.01 223.78 395.89 157.96 C 403.02 157.54 410.16 157.07 417.25 156.15 C 421.88 155.69 424.83 150.32 423.08 146.09 C 422.15 143.15 419.14 141.07 416.06 141.32 C 395.80 142.61 375.49 144.21 355.18 143.38 C 374.31 114.32 401.85 90.88 433.67 76.80 Z" />
<path fill="#453f3d" opacity="1.00" d=" M 667.58 155.92 C 685.66 188.64 693.05 227.01 688.79 264.12 C 685.22 296.28 672.74 327.37 653.19 353.14 C 638.60 372.46 620.12 388.81 599.21 401.00 C 616.80 349.94 634.52 298.92 652.17 247.87 C 655.26 238.51 659.23 229.45 661.90 219.94 C 668.12 199.28 670.40 177.36 667.58 155.92 Z" />
<path fill="#453f3d" opacity="1.00" d=" M 343.34 322.67 C 320.08 275.13 319.27 217.38 341.07 169.16 C 370.13 248.59 399.13 328.03 428.12 407.48 C 391.41 389.78 361.03 359.38 343.34 322.67 Z" />
<path fill="#453f3d" opacity="1.00" d=" M 510.76 259.52 C 530.16 311.38 548.63 363.60 568.02 415.47 C 532.17 427.95 492.47 429.06 456.06 418.25 C 474.27 365.33 492.43 312.40 510.76 259.52 Z" />
<path fill="#453f3d" opacity="1.00" d=" M 522.68 512.43 C 538.78 512.38 554.88 512.42 570.98 512.41 C 578.96 512.45 587.03 512.06 594.89 513.68 C 603.82 515.38 612.65 519.32 618.72 526.26 C 627.05 535.66 628.70 550.11 623.35 561.37 C 620.03 568.36 613.95 573.77 607.01 577.05 C 594.01 583.50 579.17 582.11 565.13 582.22 C 565.24 592.19 564.74 602.20 565.81 612.14 C 566.48 617.13 567.55 622.86 571.97 625.97 C 576.49 629.04 582.22 628.83 587.44 629.12 C 587.44 631.02 587.39 632.91 587.39 634.82 C 565.82 634.76 544.26 634.81 522.70 634.80 C 522.69 632.90 522.68 631.01 522.68 629.12 C 527.64 628.85 532.96 629.00 537.41 626.43 C 540.85 624.46 542.59 620.63 543.45 616.92 C 545.33 608.42 544.82 599.65 544.90 591.02 C 544.85 574.66 545.00 558.29 544.82 541.94 C 544.40 535.66 544.32 528.80 540.56 523.46 C 536.35 518.11 528.84 518.34 522.70 518.11 C 522.68 516.21 522.68 514.32 522.68 512.43 M 565.13 522.69 C 565.13 539.03 565.11 555.37 565.13 571.71 C 571.10 571.65 577.08 571.80 583.05 571.64 C 589.85 571.43 596.72 568.15 600.37 562.26 C 605.19 554.45 605.39 544.30 602.17 535.86 C 599.47 528.75 592.59 523.65 585.05 522.92 C 578.42 522.40 571.76 522.81 565.13 522.69 Z" />
<path fill="#453f3d" opacity="1.00" d=" M 853.71 542.72 C 866.06 534.62 883.37 535.73 895.02 544.64 C 896.58 542.33 897.67 539.76 898.41 537.08 C 900.18 537.01 901.97 536.95 903.77 536.94 C 903.86 548.10 903.78 559.25 903.81 570.40 C 901.83 570.40 899.85 570.39 897.89 570.40 C 896.79 564.05 894.70 557.58 890.16 552.84 C 884.28 546.49 874.42 544.47 866.39 547.43 C 861.70 549.09 857.63 553.69 858.42 558.93 C 859.00 564.81 864.47 568.21 869.15 570.82 C 878.01 575.40 887.14 579.45 895.98 584.08 C 903.19 588.04 909.45 594.47 911.59 602.59 C 913.79 611.39 910.88 621.12 904.66 627.64 C 898.33 634.40 889.11 637.95 879.96 638.39 C 869.89 638.98 860.05 634.95 852.19 628.87 C 850.13 631.74 848.59 634.95 847.81 638.41 C 846.02 638.42 844.24 638.42 842.48 638.44 C 842.44 625.41 842.47 612.38 842.47 599.35 C 844.37 599.33 846.28 599.38 848.20 599.44 C 849.01 606.19 851.42 612.86 855.81 618.13 C 862.49 626.32 873.74 630.28 884.11 628.67 C 890.04 627.79 895.82 623.30 896.36 617.01 C 897.21 610.73 892.51 605.54 887.63 602.34 C 877.83 595.95 866.44 592.51 856.51 586.36 C 848.88 581.43 842.86 573.24 842.49 563.92 C 841.82 555.41 846.71 547.27 853.71 542.72 Z" />
<path fill="#453f3d" opacity="1.00" d=" M 938.97 543.98 C 951.30 534.53 969.84 535.29 982.02 544.64 C 983.59 542.34 984.68 539.77 985.41 537.09 C 987.21 537.02 989.02 536.92 990.85 536.90 C 990.96 548.07 990.86 559.23 990.90 570.40 C 988.89 570.40 986.89 570.40 984.90 570.40 C 983.81 564.07 981.73 557.60 977.19 552.87 C 970.83 545.99 959.65 544.04 951.36 548.40 C 947.21 550.52 944.43 555.31 945.60 559.99 C 946.80 565.57 952.21 568.60 956.81 571.17 C 965.27 575.45 973.90 579.39 982.34 583.72 C 988.84 587.18 994.62 592.48 997.50 599.37 C 1001.04 607.71 999.22 617.73 993.93 624.92 C 985.54 636.25 969.85 640.61 956.43 637.40 C 950.13 635.89 944.33 632.78 939.20 628.87 C 937.13 631.75 935.62 634.98 934.80 638.43 C 933.02 638.43 931.24 638.42 929.48 638.43 C 929.44 625.41 929.47 612.38 929.47 599.36 C 931.38 599.33 933.30 599.38 935.23 599.46 C 936.01 606.20 938.44 612.85 942.81 618.11 C 949.65 626.52 961.33 630.52 971.92 628.51 C 977.91 627.40 983.44 622.39 983.44 615.99 C 983.72 609.53 978.49 604.69 973.45 601.54 C 964.52 596.15 954.61 592.64 945.50 587.60 C 937.25 582.88 930.36 574.68 929.58 564.92 C 928.61 556.87 932.61 548.81 938.97 543.98 Z" />
<path fill="#453f3d" opacity="1.00" d=" M 632.84 540.65 C 649.58 540.64 666.32 540.63 683.05 540.65 C 693.35 540.77 704.32 542.76 712.38 549.62 C 722.04 557.49 723.60 573.08 715.78 582.75 C 710.57 589.57 702.25 593.11 694.03 594.71 C 700.88 601.93 707.32 609.54 714.47 616.48 C 720.93 622.73 728.88 628.04 737.98 629.17 C 742.36 629.13 747.64 628.16 750.00 624.01 C 752.45 619.45 752.38 614.08 752.60 609.05 C 752.65 595.02 752.62 580.99 752.61 566.96 C 752.36 561.40 752.67 555.28 749.48 550.44 C 745.90 545.90 739.45 546.28 734.26 546.10 C 734.25 544.27 734.25 542.45 734.26 540.64 C 761.96 540.64 789.67 540.64 817.38 540.64 C 818.06 549.51 818.71 558.38 819.38 567.25 C 817.83 567.24 816.30 567.24 814.78 567.25 C 813.38 562.59 812.83 557.25 809.24 553.64 C 805.64 550.39 800.53 549.90 795.93 549.48 C 788.03 548.98 780.11 549.31 772.21 549.22 C 772.22 559.74 772.20 570.26 772.22 580.78 C 778.63 580.49 785.50 581.24 791.48 578.43 C 796.39 575.54 795.65 569.02 795.85 564.15 C 797.64 564.13 799.44 564.12 801.26 564.12 C 801.27 578.16 801.27 592.20 801.26 606.24 C 799.45 606.23 797.65 606.23 795.86 606.23 C 795.65 601.28 796.40 594.51 791.21 591.76 C 785.28 589.14 778.59 589.87 772.28 589.52 C 772.24 597.32 771.93 605.16 772.61 612.94 C 773.03 617.05 774.01 621.91 777.97 624.07 C 782.59 626.44 787.99 625.74 793.01 625.88 C 799.47 625.79 806.29 626.04 812.30 623.31 C 817.91 620.55 818.87 613.77 820.24 608.34 C 821.73 608.26 823.23 608.19 824.75 608.15 C 824.22 617.02 823.59 625.89 823.07 634.77 C 784.72 634.81 746.37 634.80 708.02 634.78 C 706.62 635.04 706.00 633.56 705.22 632.76 C 695.43 620.31 685.37 608.08 675.66 595.58 C 674.03 595.52 672.41 595.46 670.80 595.45 C 670.96 603.24 670.28 611.11 671.60 618.83 C 672.18 622.12 673.59 625.63 676.69 627.30 C 680.51 629.32 684.98 629.22 689.19 629.35 C 689.17 631.15 689.18 632.96 689.18 634.78 C 670.40 634.81 651.63 634.79 632.85 634.79 C 632.84 632.97 632.83 631.14 632.83 629.34 C 638.01 629.16 644.36 629.46 647.94 624.99 C 651.15 620.34 650.87 614.38 651.17 608.99 C 651.21 594.35 651.27 579.71 651.14 565.08 C 650.80 559.83 651.02 553.81 647.36 549.60 C 643.51 545.94 637.76 546.27 632.84 546.09 C 632.83 544.27 632.83 542.46 632.84 540.65 M 670.80 549.22 C 670.80 561.71 670.75 574.19 670.83 586.68 C 677.51 586.29 684.60 587.78 690.92 584.99 C 704.01 579.10 703.99 557.00 691.03 550.97 C 684.68 548.13 677.53 549.56 670.80 549.22 Z" />
</g>
<g id="#0b6f98ff">
<path fill="#0b6f98" opacity="1.00" d=" M 17.73 512.52 C 38.69 512.27 59.65 512.47 80.61 512.41 C 80.61 514.29 80.62 516.17 80.64 518.06 C 75.34 518.47 69.07 517.91 64.90 521.85 C 61.40 525.92 63.11 531.71 64.34 536.36 C 70.89 556.58 77.59 576.75 84.21 596.96 C 93.79 568.80 103.21 540.59 112.73 512.41 C 114.56 512.40 116.38 512.42 118.21 512.44 C 127.47 540.63 136.80 568.81 146.11 596.99 C 152.54 578.06 158.93 559.12 165.34 540.18 C 166.74 535.91 168.26 531.55 168.24 527.00 C 168.23 524.38 166.96 521.71 164.60 520.45 C 160.34 518.15 155.32 518.33 150.63 518.11 C 150.62 516.21 150.62 514.31 150.62 512.42 C 168.34 512.39 186.07 512.42 203.79 512.41 C 203.79 514.30 203.79 516.21 203.79 518.12 C 197.32 518.24 190.06 518.42 184.99 523.02 C 179.89 527.90 177.67 534.85 175.26 541.30 C 164.26 574.04 153.43 606.85 142.42 639.59 C 141.50 639.58 139.66 639.57 138.74 639.56 C 129.06 610.27 119.76 580.85 109.92 551.62 C 99.98 580.89 90.40 610.29 80.58 639.60 C 79.31 639.55 78.05 639.52 76.78 639.49 C 66.49 607.48 56.03 575.53 45.67 543.54 C 43.17 536.47 41.06 528.81 35.70 523.29 C 31.07 518.57 24.03 518.22 17.83 518.10 C 17.81 516.24 17.78 514.37 17.73 512.52 Z" />
<path fill="#0b6f98" opacity="1.00" d=" M 231.56 537.88 C 246.07 535.45 261.52 538.07 274.06 545.89 C 285.36 552.81 294.34 563.94 297.44 576.94 C 300.48 589.16 298.00 602.52 291.08 613.02 C 282.30 626.66 267.10 635.55 251.15 637.79 C 234.82 640.21 217.45 635.89 204.54 625.49 C 194.84 617.75 187.78 606.45 186.06 594.07 C 184.38 582.82 187.24 571.06 193.64 561.69 C 202.23 548.90 216.48 540.45 231.56 537.88 M 234.37 546.60 C 224.92 548.41 216.92 555.13 212.67 563.65 C 206.72 575.37 205.76 589.32 209.00 601.97 C 211.20 610.49 215.79 618.73 223.15 623.80 C 231.49 629.57 242.44 630.53 252.09 628.06 C 260.42 625.90 267.47 619.95 271.48 612.40 C 277.45 601.33 278.72 588.06 276.20 575.84 C 274.32 566.87 270.02 558.02 262.64 552.34 C 254.75 546.19 244.01 544.64 234.37 546.60 Z" />
<path fill="#0b6f98" opacity="1.00" d=" M 303.42 546.10 C 303.42 544.27 303.43 542.45 303.44 540.64 C 319.94 540.64 336.44 540.64 352.95 540.64 C 361.02 540.68 369.29 541.79 376.60 545.41 C 382.20 548.19 387.13 552.72 389.52 558.58 C 392.96 566.76 391.56 576.83 385.70 583.57 C 380.45 589.87 372.51 593.18 364.63 594.70 C 371.35 601.86 377.78 609.31 384.77 616.21 C 391.63 622.92 400.23 628.70 410.07 629.30 C 414.93 629.22 420.80 629.15 424.15 625.04 C 427.05 621.00 427.07 615.75 427.37 611.00 C 427.50 598.66 427.39 586.33 427.43 574.00 C 427.38 567.95 427.68 561.85 426.52 555.88 C 425.93 552.88 424.57 549.74 421.78 548.19 C 417.95 546.07 413.40 546.21 409.16 546.10 C 409.15 544.28 409.15 542.46 409.16 540.65 C 421.09 540.63 433.01 540.65 444.94 540.64 C 456.98 540.71 469.21 540.02 480.99 543.00 C 492.21 545.65 503.08 551.55 509.80 561.15 C 517.70 572.34 519.32 587.09 516.12 600.20 C 513.62 610.42 507.07 619.54 498.18 625.18 C 486.61 632.65 472.51 634.78 458.97 634.79 C 431.79 634.79 404.60 634.83 377.42 634.76 C 367.06 621.65 356.49 608.69 346.17 595.54 C 344.57 595.51 342.98 595.45 341.39 595.46 C 341.51 602.99 340.96 610.57 342.06 618.05 C 342.56 621.46 343.80 625.19 346.92 627.08 C 350.78 629.33 355.43 629.22 359.76 629.33 C 359.75 631.14 359.75 632.96 359.76 634.79 C 340.98 634.79 322.21 634.81 303.43 634.78 C 303.42 632.96 303.42 631.14 303.42 629.33 C 308.51 629.17 314.62 629.44 318.30 625.28 C 321.59 620.95 321.44 615.17 321.73 610.00 C 321.86 595.34 321.83 580.67 321.75 566.00 C 321.46 560.53 321.77 554.33 318.15 549.83 C 314.38 545.90 308.42 546.29 303.42 546.10 M 341.38 549.23 C 341.39 561.71 341.38 574.19 341.39 586.67 C 347.98 586.32 354.92 587.72 361.20 585.12 C 374.74 579.40 374.65 556.51 361.17 550.78 C 354.91 548.19 347.96 549.55 341.38 549.23 M 446.95 549.25 C 447.08 570.16 446.99 591.07 446.99 611.98 C 447.18 615.50 447.00 619.25 448.63 622.48 C 449.82 624.71 452.47 625.58 454.85 625.74 C 463.23 626.25 472.10 625.83 479.60 621.65 C 486.08 618.16 490.62 611.80 492.80 604.87 C 495.65 595.73 495.83 585.88 494.39 576.47 C 492.90 567.25 488.11 558.00 479.60 553.49 C 469.65 547.90 457.88 549.39 446.95 549.25 Z" />
</g>
</svg>
