<svg viewBox="0 0 1024 661" xmlns="http://www.w3.org/2000/svg"><g fill="#453f3d"><path d="M488.59 31.85c40.28-3.62 81.57 4.43 117.37 23.29 33.4 17.46 62.01 43.96 81.97 75.92 19.35 30.77 30.49 66.62 32.02 102.93 1.7 37.03-6.51 74.47-23.71 107.31-17.51 33.66-44.22 62.45-76.43 82.49-31.31 19.59-67.84 30.74-104.76 31.93-38.76 1.44-77.85-8.04-111.6-27.15-34.77-19.55-63.83-49.08-82.82-84.16-16.51-30.36-25.46-64.84-25.51-99.41-.46-36.06 8.71-72.16 26.15-103.71 16.76-30.49 41.13-56.74 70.27-75.75 28.93-18.98 62.59-30.65 97.05-33.69m-1.93 10.05c-45.9 4.62-89.86 25.68-122.36 58.4-25.58 25.49-44.2 57.93-53.12 92.94-9.83 38.32-8.13 79.55 4.99 116.89 13.76 39.49 40.16 74.39 74.29 98.55 30.5 21.73 67.15 34.74 104.55 36.96 36.77 2.37 74.15-5.6 106.73-22.83 33.66-17.65 62.15-44.99 81.24-77.86 18.14-31.02 27.67-66.98 27.35-102.91-.17-35.22-9.8-70.35-27.68-100.7-18.45-31.54-45.56-57.92-77.59-75.51-35.8-19.8-77.72-28.23-118.4-23.93z"/><path d="M433.67 76.8c43.75-19.57 95.29-20.76 139.92-3.3 21.06 8.14 40.5 20.34 57.2 35.52-6.59-.45-13.35 1.19-18.81 4.96-10.27 6.86-15.64 19.91-13.9 32.05 1.54 12.25 8.35 22.88 14.67 33.17 8.45 13.31 15.41 27.99 17.27 43.8 2.72 21.11-3.14 42.11-10.06 61.87-4.43 11.09-7.28 22.72-10.85 34.1-3.46 11.64-7.03 23.24-10.4 34.91-22.25-65.22-44.01-130.61-66.02-195.92 7.17-.41 14.34-.89 21.46-1.82 4.6-.52 7.46-5.84 5.77-10.05-1-3.29-4.57-5.23-7.9-4.74-16.32 1.13-32.66 2.23-49.02 2.27-15.7-.14-31.37-1.23-47.03-2.28-2.31-.24-4.75.58-6.22 2.42-3.44 3.77-1.99 11.09 3.32 12.21 6.86 1.08 13.81 1.49 20.73 2.01 9.53 25.94 19.01 51.91 28.45 77.89-13.35 39.81-26.59 79.67-39.89 119.5-22.34-65.73-44.35-131.59-66.47-197.41 7.13-.42 14.27-.89 21.36-1.81 4.63-.46 7.58-5.83 5.83-10.06-.93-2.94-3.94-5.02-7.02-4.77-20.26 1.29-40.57 2.89-60.88 2.06 19.13-29.06 46.67-52.5 78.49-66.58zm233.91 79.12c18.08 32.72 25.47 71.09 21.21 108.2-3.57 32.16-16.05 63.25-35.6 89.02-14.59 19.32-33.07 35.67-53.98 47.86 17.59-51.06 35.31-102.08 52.96-153.13 3.09-9.36 7.06-18.42 9.73-27.93 6.22-20.66 8.5-42.58 5.68-64.02zM343.34 322.67c-23.26-47.54-24.07-105.29-2.27-153.51 29.06 79.43 58.06 158.87 87.05 238.32-36.71-17.7-67.09-48.1-84.78-84.81z"/><path d="M510.76 259.52c19.4 51.86 37.87 104.08 57.26 155.95-35.85 12.48-75.55 13.59-111.96 2.78 18.21-52.92 36.37-105.85 54.7-158.73zm11.92 252.91c16.1-.05 32.2-.01 48.3-.02 7.98.04 16.05-.35 23.91 1.27 8.93 1.7 17.76 5.64 23.83 12.58 8.33 9.4 9.98 23.85 4.63 35.11-3.32 6.99-9.4 12.4-16.34 15.68-13 6.45-27.84 5.06-41.88 5.17.11 9.97-.39 19.98.68 29.92.67 4.99 1.74 10.72 6.16 13.83 4.52 3.07 10.25 2.86 15.47 3.15 0 1.9-.05 3.79-.05 5.7-21.57-.06-43.13-.01-64.69-.02-.01-1.9-.02-3.79-.02-5.68 4.96-.27 10.28-.12 14.73-2.69 3.44-1.97 5.18-5.8 6.04-9.51 1.88-8.5 1.37-17.27 1.45-25.9-.05-16.36.1-32.73-.08-49.08-.42-6.28-.5-13.14-4.26-18.48-4.21-5.35-11.72-5.12-17.86-5.35-.02-1.9-.02-3.79-.02-5.68m42.45 10.26c0 16.34-.02 32.68 0 49.02 5.97-.06 11.95.09 17.92-.07 6.8-.21 13.67-3.49 17.32-9.38 4.82-7.81 5.02-17.96 1.8-26.4-2.7-7.11-9.58-12.21-17.12-12.94-6.63-.52-13.29-.11-19.92-.23zm288.58 20.03c12.35-8.1 29.66-6.99 41.31 1.92 1.56-2.31 2.65-4.88 3.39-7.56 1.77-.07 3.56-.13 5.36-.14.09 11.16.01 22.31.04 33.46-1.98 0-3.96-.01-5.92 0-1.1-6.35-3.19-12.82-7.73-17.56-5.88-6.35-15.74-8.37-23.77-5.41-4.69 1.66-8.76 6.26-7.97 11.5.58 5.88 6.05 9.28 10.73 11.89 8.86 4.58 17.99 8.63 26.83 13.26 7.21 3.96 13.47 10.39 15.61 18.51 2.2 8.8-.71 18.53-6.93 25.05-6.33 6.76-15.55 10.31-24.7 10.75-10.07.59-19.91-3.44-27.77-9.52-2.06 2.87-3.6 6.08-4.38 9.54-1.79.01-3.57.01-5.33.03-.04-13.03-.01-26.06-.01-39.09 1.9-.02 3.81.03 5.73.09.81 6.75 3.22 13.42 7.61 18.69 6.68 8.19 17.93 12.15 28.3 10.54 5.93-.88 11.71-5.37 12.25-11.66.85-6.28-3.85-11.47-8.73-14.67-9.8-6.39-21.19-9.83-31.12-15.98-7.63-4.93-13.65-13.12-14.02-22.44-.67-8.51 4.22-16.65 11.22-21.2zm85.26 1.26c12.33-9.45 30.87-8.69 43.05.66 1.57-2.3 2.66-4.87 3.39-7.55 1.8-.07 3.61-.17 5.44-.19.11 11.17.01 22.33.05 33.5h-6c-1.09-6.33-3.17-12.8-7.71-17.53-6.36-6.88-17.54-8.83-25.83-4.47-4.15 2.12-6.93 6.91-5.76 11.59 1.2 5.58 6.61 8.61 11.21 11.18 8.46 4.28 17.09 8.22 25.53 12.55 6.5 3.46 12.28 8.76 15.16 15.65 3.54 8.34 1.72 18.36-3.57 25.55-8.39 11.33-24.08 15.69-37.5 12.48-6.3-1.51-12.1-4.62-17.23-8.53-2.07 2.88-3.58 6.11-4.4 9.56-1.78 0-3.56-.01-5.32 0-.04-13.02-.01-26.05-.01-39.07 1.91-.03 3.83.02 5.76.1.78 6.74 3.21 13.39 7.58 18.65 6.84 8.41 18.52 12.41 29.11 10.4 5.99-1.11 11.52-6.12 11.52-12.52.28-6.46-4.95-11.3-9.99-14.45-8.93-5.39-18.84-8.9-27.95-13.94-8.25-4.72-15.14-12.92-15.92-22.68-.97-8.05 3.03-16.11 9.39-20.94zm-306.13-3.33c16.74-.01 33.48-.02 50.21 0 10.3.12 21.27 2.11 29.33 8.97 9.66 7.87 11.22 23.46 3.4 33.13-5.21 6.82-13.53 10.36-21.75 11.96 6.85 7.22 13.29 14.83 20.44 21.77 6.46 6.25 14.41 11.56 23.51 12.69 4.38-.04 9.66-1.01 12.02-5.16 2.45-4.56 2.38-9.93 2.6-14.96.05-14.03.02-28.06.01-42.09-.25-5.56.06-11.68-3.13-16.52-3.58-4.54-10.03-4.16-15.22-4.34-.01-1.83-.01-3.65 0-5.46h83.12c.68 8.87 1.33 17.74 2 26.61-1.55-.01-3.08-.01-4.6 0-1.4-4.66-1.95-10-5.54-13.61-3.6-3.25-8.71-3.74-13.31-4.16-7.9-.5-15.82-.17-23.72-.26.01 10.52-.01 21.04.01 31.56 6.41-.29 13.28.46 19.26-2.35 4.91-2.89 4.17-9.41 4.37-14.28 1.79-.02 3.59-.03 5.41-.03.01 14.04.01 28.08 0 42.12-1.81-.01-3.61-.01-5.4-.01-.21-4.95.54-11.72-4.65-14.47-5.93-2.62-12.62-1.89-18.93-2.24-.04 7.8-.35 15.64.33 23.42.42 4.11 1.4 8.97 5.36 11.13 4.62 2.37 10.02 1.67 15.04 1.81 6.46-.09 13.28.16 19.29-2.57 5.61-2.76 6.57-9.54 7.94-14.97 1.49-.08 2.99-.15 4.51-.19-.53 8.87-1.16 17.74-1.68 26.62-38.35.04-76.7.03-115.05.01-1.4.26-2.02-1.22-2.8-2.02-9.79-12.45-19.85-24.68-29.56-37.18-1.63-.06-3.25-.12-4.86-.13.16 7.79-.52 15.66.8 23.38.58 3.29 1.99 6.8 5.09 8.47 3.82 2.02 8.29 1.92 12.5 2.05-.02 1.8-.01 3.61-.01 5.43-18.78.03-37.55.01-56.33.01-.01-1.82-.02-3.65-.02-5.45 5.18-.18 11.53.12 15.11-4.35 3.21-4.65 2.93-10.61 3.23-16 .04-14.64.1-29.28-.03-43.91-.34-5.25-.12-11.27-3.78-15.48-3.85-3.66-9.6-3.33-14.52-3.51-.01-1.82-.01-3.63 0-5.44m37.96 8.57c0 12.49-.05 24.97.03 37.46 6.68-.39 13.77 1.1 20.09-1.69 13.09-5.89 13.07-27.99.11-34.02-6.35-2.84-13.5-1.41-20.23-1.75z"/></g><path d="M17.73 512.52c20.96-.25 41.92-.05 62.88-.11 0 1.88.01 3.76.03 5.65-5.3.41-11.57-.15-15.74 3.79-3.5 4.07-1.79 9.86-.56 14.51 6.55 20.22 13.25 40.39 19.87 60.6 9.58-28.16 19-56.37 28.52-84.55 1.83-.01 3.65.01 5.48.03 9.26 28.19 18.59 56.37 27.9 84.55 6.43-18.93 12.82-37.87 19.23-56.81 1.4-4.27 2.92-8.63 2.9-13.18-.01-2.62-1.28-5.29-3.64-6.55-4.26-2.3-9.28-2.12-13.97-2.34-.01-1.9-.01-3.8-.01-5.69 17.72-.03 35.45 0 53.17-.01v5.71c-6.47.12-13.73.3-18.8 4.9-5.1 4.88-7.32 11.83-9.73 18.28-11 32.74-21.83 65.55-32.84 98.29-.92-.01-2.76-.02-3.68-.03-9.68-29.29-18.98-58.71-28.82-87.94-9.94 29.27-19.52 58.67-29.34 87.98-1.27-.05-2.53-.08-3.8-.11-10.29-32.01-20.75-63.96-31.11-95.95-2.5-7.07-4.61-14.73-9.97-20.25-4.63-4.72-11.67-5.07-17.87-5.19-.02-1.86-.05-3.73-.1-5.58zm213.83 25.36c14.51-2.43 29.96.19 42.5 8.01 11.3 6.92 20.28 18.05 23.38 31.05 3.04 12.22.56 25.58-6.36 36.08-8.78 13.64-23.98 22.53-39.93 24.77-16.33 2.42-33.7-1.9-46.61-12.3-9.7-7.74-16.76-19.04-18.48-31.42-1.68-11.25 1.18-23.01 7.58-32.38 8.59-12.79 22.84-21.24 37.92-23.81m2.81 8.72c-9.45 1.81-17.45 8.53-21.7 17.05-5.95 11.72-6.91 25.67-3.67 38.32 2.2 8.52 6.79 16.76 14.15 21.83 8.34 5.77 19.29 6.73 28.94 4.26 8.33-2.16 15.38-8.11 19.39-15.66 5.97-11.07 7.24-24.34 4.72-36.56-1.88-8.97-6.18-17.82-13.56-23.5-7.89-6.15-18.63-7.7-28.27-5.74zm69.05-.5c0-1.83.01-3.65.02-5.46h49.51c8.07.04 16.34 1.15 23.65 4.77 5.6 2.78 10.53 7.31 12.92 13.17 3.44 8.18 2.04 18.25-3.82 24.99-5.25 6.3-13.19 9.61-21.07 11.13 6.72 7.16 13.15 14.61 20.14 21.51 6.86 6.71 15.46 12.49 25.3 13.09 4.86-.08 10.73-.15 14.08-4.26 2.9-4.04 2.92-9.29 3.22-14.04.13-12.34.02-24.67.06-37-.05-6.05.25-12.15-.91-18.12-.59-3-1.95-6.14-4.74-7.69-3.83-2.12-8.38-1.98-12.62-2.09-.01-1.82-.01-3.64 0-5.45 11.93-.02 23.85 0 35.78-.01 12.04.07 24.27-.62 36.05 2.36 11.22 2.65 22.09 8.55 28.81 18.15 7.9 11.19 9.52 25.94 6.32 39.05-2.5 10.22-9.05 19.34-17.94 24.98-11.57 7.47-25.67 9.6-39.21 9.61-27.18 0-54.37.04-81.55-.03-10.36-13.11-20.93-26.07-31.25-39.22-1.6-.03-3.19-.09-4.78-.08.12 7.53-.43 15.11.67 22.59.5 3.41 1.74 7.14 4.86 9.03 3.86 2.25 8.51 2.14 12.84 2.25-.01 1.81-.01 3.63 0 5.46-18.78 0-37.55.02-56.33-.01-.01-1.82-.01-3.64-.01-5.45 5.09-.16 11.2.11 14.88-4.05 3.29-4.33 3.14-10.11 3.43-15.28.13-14.66.1-29.33.02-44-.29-5.47.02-11.67-3.6-16.17-3.77-3.93-9.73-3.54-14.73-3.73m37.96 3.13c.01 12.48 0 24.96.01 37.44 6.59-.35 13.53 1.05 19.81-1.55 13.54-5.72 13.45-28.61-.03-34.34-6.26-2.59-13.21-1.23-19.79-1.55m105.57.02c.13 20.91.04 41.82.04 62.73.19 3.52.01 7.27 1.64 10.5 1.19 2.23 3.84 3.1 6.22 3.26 8.38.51 17.25.09 24.75-4.09 6.48-3.49 11.02-9.85 13.2-16.78 2.85-9.14 3.03-18.99 1.59-28.4-1.49-9.22-6.28-18.47-14.79-22.98-9.95-5.59-21.72-4.1-32.65-4.24z" fill="#0b6f98"/></svg>