<?xml version="1.0" encoding="UTF-8" ?>
<!DOCTYPE svg PUBLIC "-//W3C//DTD SVG 1.1//EN" "http://www.w3.org/Graphics/SVG/1.1/DTD/svg11.dtd">
<svg viewBox="0 0 800 457" version="1.1" xmlns="http://www.w3.org/2000/svg">
<g id="#f82cbfff">
<path fill="#f82cbf" opacity="1.00" d=" M 0.00 0.00 L 469.04 0.00 C 469.57 11.92 470.13 23.87 469.78 35.80 C 468.49 66.87 468.65 97.99 469.63 129.06 L 469.65 129.83 C 470.59 185.13 469.47 240.44 470.26 295.74 C 470.23 301.22 470.24 306.73 470.17 312.22 C 470.13 313.47 470.09 314.72 470.03 315.98 C 468.86 337.53 468.03 359.19 469.50 380.75 C 475.00 391.25 486.27 397.64 492.01 407.98 C 488.88 413.09 484.70 417.46 480.93 422.09 C 477.78 425.52 474.45 428.84 471.89 432.74 C 470.32 435.98 470.56 439.77 469.98 443.27 C 469.44 447.83 469.15 452.41 468.81 457.00 L 0.00 457.00 L 0.00 0.00 M 20.01 20.00 C 19.99 159.33 20.00 298.66 20.01 437.99 C 163.00 438.01 306.00 438.00 448.99 438.00 C 449.01 298.67 449.00 159.34 448.99 20.01 C 306.00 19.99 163.00 20.00 20.01 20.00 Z" />
<path fill="#f82cbf" opacity="1.00" d=" M 89.69 109.73 C 102.47 108.82 115.29 108.96 128.09 108.95 C 139.42 130.96 149.60 153.55 159.98 176.02 C 162.01 179.80 162.83 184.67 166.56 187.26 C 178.57 161.12 190.44 134.87 202.96 108.95 C 214.85 108.98 226.74 108.98 238.63 109.20 C 223.27 142.06 205.44 173.70 188.92 205.98 C 187.55 208.38 186.58 211.36 188.04 213.95 C 200.16 237.21 211.95 260.65 224.23 283.84 C 229.96 295.87 236.90 307.32 241.62 319.82 C 228.74 320.03 215.86 320.03 202.99 320.01 C 189.37 292.71 176.91 264.86 163.40 237.52 C 150.43 264.95 138.54 292.88 125.00 320.04 C 112.62 320.02 100.23 320.15 87.86 319.42 C 103.73 288.20 119.99 257.16 136.15 226.09 C 138.20 221.30 143.75 216.07 140.62 210.54 C 123.58 176.97 106.73 143.30 89.69 109.73 Z" />
<path fill="#f82cbf" opacity="1.00" d=" M 341.01 109.00 C 352.66 109.00 364.33 109.00 375.99 109.00 C 376.00 165.67 376.04 222.33 375.96 279.00 C 375.93 289.38 376.18 299.78 376.92 310.14 C 357.65 319.56 335.87 323.32 314.53 321.53 C 299.88 319.61 285.15 314.09 274.67 303.33 C 263.46 292.56 256.80 277.67 254.67 262.39 C 252.65 249.05 251.84 235.21 255.04 222.00 C 259.33 201.08 271.98 181.31 291.05 171.09 C 305.83 161.67 324.07 161.35 340.99 160.84 C 341.01 143.56 340.99 126.28 341.01 109.00 M 307.63 196.63 C 290.56 208.61 286.13 231.50 288.86 250.98 C 290.32 266.05 296.71 283.24 312.28 288.67 C 320.96 292.96 330.75 290.45 339.98 290.07 C 340.01 257.23 340.02 224.40 339.98 191.57 C 329.06 190.76 316.98 189.89 307.63 196.63 Z" />
</g>
<g id="#89bbf6ff">
<path fill="#89bbf6" opacity="1.00" d=" M 469.04 0.00 L 800.00 0.00 L 800.00 457.00 L 468.81 457.00 C 469.15 452.41 469.44 447.83 469.98 443.27 C 474.00 435.99 478.29 428.87 482.97 422.00 C 578.31 421.99 673.65 422.02 768.99 421.99 C 769.00 293.66 769.01 165.34 768.99 37.01 C 685.66 37.00 602.33 36.97 519.00 37.03 C 502.59 36.95 486.13 37.53 469.78 35.80 C 470.13 23.87 469.57 11.92 469.04 0.00 Z" />
<path fill="#89bbf6" opacity="1.00" d=" M 469.65 129.83 C 493.24 128.54 517.73 126.11 540.68 133.35 C 551.17 137.05 560.92 143.32 567.62 152.34 C 582.45 173.08 582.59 202.86 569.53 224.47 C 559.13 240.59 541.45 251.36 522.67 254.57 C 512.52 256.08 502.27 256.63 492.04 257.29 C 491.95 277.29 492.04 297.29 491.97 317.29 C 484.64 316.92 477.33 316.54 470.03 315.98 C 470.09 314.72 470.13 313.47 470.17 312.22 C 470.28 306.72 470.31 301.23 470.26 295.74 C 469.47 240.44 470.59 185.13 469.65 129.83 M 492.61 157.68 C 491.49 179.82 492.10 202.00 492.04 224.16 C 501.36 223.61 510.85 223.41 519.90 220.81 C 529.02 217.70 535.75 209.46 538.44 200.38 C 540.71 187.87 538.81 173.23 528.06 164.96 C 518.12 157.33 504.38 158.53 492.61 157.68 Z" />
<path fill="#89bbf6" opacity="1.00" d=" M 615.06 179.11 C 626.58 173.03 639.93 171.10 652.83 171.34 C 664.50 171.71 675.55 176.05 686.05 180.85 C 686.01 191.29 685.99 201.73 685.92 212.18 C 674.20 207.04 662.05 201.94 649.09 201.39 C 642.44 201.00 633.80 204.82 633.40 212.31 C 633.11 218.06 638.37 221.84 643.07 223.91 C 657.07 229.94 672.94 233.70 683.66 245.33 C 695.07 257.45 695.72 276.60 689.31 291.26 C 684.61 301.84 674.82 309.13 664.34 313.37 C 641.23 321.78 615.16 318.02 593.95 306.18 C 593.98 295.81 593.98 285.43 593.99 275.06 C 608.10 282.88 624.24 288.55 640.57 286.51 C 644.95 285.89 649.35 283.39 651.41 279.38 C 653.17 273.47 650.70 266.80 645.88 263.11 C 638.01 256.04 627.29 254.43 618.05 249.90 C 607.27 245.25 596.42 237.91 592.95 226.02 C 588.62 207.76 598.42 187.54 615.06 179.11 Z" />
</g>
<g id="#2f001eff">
<path fill="#2f001e" opacity="1.00" d=" M 20.01 20.00 C 163.00 20.00 306.00 19.99 448.99 20.01 C 449.00 159.34 449.01 298.67 448.99 438.00 C 306.00 438.00 163.00 438.01 20.01 437.99 C 20.00 298.66 19.99 159.33 20.01 20.00 M 89.69 109.73 C 106.73 143.30 123.58 176.97 140.62 210.54 C 143.75 216.07 138.20 221.30 136.15 226.09 C 119.99 257.16 103.73 288.20 87.86 319.42 C 100.23 320.15 112.62 320.02 125.00 320.04 C 138.54 292.88 150.43 264.95 163.40 237.52 C 176.91 264.86 189.37 292.71 202.99 320.01 C 215.86 320.03 228.74 320.03 241.62 319.82 C 236.90 307.32 229.96 295.87 224.23 283.84 C 211.95 260.65 200.16 237.21 188.04 213.95 C 186.58 211.36 187.55 208.38 188.92 205.98 C 205.44 173.70 223.27 142.06 238.63 109.20 C 226.74 108.98 214.85 108.98 202.96 108.95 C 190.44 134.87 178.57 161.12 166.56 187.26 C 162.83 184.67 162.01 179.80 159.98 176.02 C 149.60 153.55 139.42 130.96 128.09 108.95 C 115.29 108.96 102.47 108.82 89.69 109.73 M 341.01 109.00 C 340.99 126.28 341.01 143.56 340.99 160.84 C 324.07 161.35 305.83 161.67 291.05 171.09 C 271.98 181.31 259.33 201.08 255.04 222.00 C 251.84 235.21 252.65 249.05 254.67 262.39 C 256.80 277.67 263.46 292.56 274.67 303.33 C 285.15 314.09 299.88 319.61 314.53 321.53 C 335.87 323.32 357.65 319.56 376.92 310.14 C 376.18 299.78 375.93 289.38 375.96 279.00 C 376.04 222.33 376.00 165.67 375.99 109.00 C 364.33 109.00 352.66 109.00 341.01 109.00 Z" />
<path fill="#2f001e" opacity="1.00" d=" M 469.63 129.06 C 468.65 97.99 468.49 66.87 469.78 35.80 C 470.16 66.89 470.16 97.98 469.63 129.06 Z" />
<path fill="#2f001e" opacity="1.00" d=" M 307.63 196.63 C 316.98 189.89 329.06 190.76 339.98 191.57 C 340.02 224.40 340.01 257.23 339.98 290.07 C 330.75 290.45 320.96 292.96 312.28 288.67 C 296.71 283.24 290.32 266.05 288.86 250.98 C 286.13 231.50 290.56 208.61 307.63 196.63 Z" />
<path fill="#2f001e" opacity="1.00" d=" M 469.50 380.75 C 468.03 359.19 468.86 337.53 470.03 315.98 C 472.00 336.29 470.31 356.74 471.25 377.10 C 471.33 380.14 472.60 383.04 474.67 385.26 C 481.50 392.99 488.63 400.48 494.73 408.83 C 490.21 413.33 485.64 417.79 480.93 422.09 C 484.70 417.46 488.88 413.09 492.01 407.98 C 486.27 397.64 475.00 391.25 469.50 380.75 Z" />
</g>
<g id="#090142ff">
<path fill="#090142" opacity="1.00" d=" M 469.78 35.80 C 486.13 37.53 502.59 36.95 519.00 37.03 C 602.33 36.97 685.66 37.00 768.99 37.01 C 769.01 165.34 769.00 293.66 768.99 421.99 C 673.65 422.02 578.31 421.99 482.97 422.00 C 478.29 428.87 474.00 435.99 469.98 443.27 C 470.56 439.77 470.32 435.98 471.89 432.74 C 474.45 428.84 477.78 425.52 480.93 422.09 C 485.64 417.79 490.21 413.33 494.73 408.83 C 488.63 400.48 481.50 392.99 474.67 385.26 C 472.60 383.04 471.33 380.14 471.25 377.10 C 470.31 356.74 472.00 336.29 470.03 315.98 C 477.33 316.54 484.64 316.92 491.97 317.29 C 492.04 297.29 491.95 277.29 492.04 257.29 C 502.27 256.63 512.52 256.08 522.67 254.57 C 541.45 251.36 559.13 240.59 569.53 224.47 C 582.59 202.86 582.45 173.08 567.62 152.34 C 560.92 143.32 551.17 137.05 540.68 133.35 C 517.73 126.11 493.24 128.54 469.65 129.83 L 469.63 129.06 C 470.16 97.98 470.16 66.89 469.78 35.80 M 615.06 179.11 C 598.42 187.54 588.62 207.76 592.95 226.02 C 596.42 237.91 607.27 245.25 618.05 249.90 C 627.29 254.43 638.01 256.04 645.88 263.11 C 650.70 266.80 653.17 273.47 651.41 279.38 C 649.35 283.39 644.95 285.89 640.57 286.51 C 624.24 288.55 608.10 282.88 593.99 275.06 C 593.98 285.43 593.98 295.81 593.95 306.18 C 615.16 318.02 641.23 321.78 664.34 313.37 C 674.82 309.13 684.61 301.84 689.31 291.26 C 695.72 276.60 695.07 257.45 683.66 245.33 C 672.94 233.70 657.07 229.94 643.07 223.91 C 638.37 221.84 633.11 218.06 633.40 212.31 C 633.80 204.82 642.44 201.00 649.09 201.39 C 662.05 201.94 674.20 207.04 685.92 212.18 C 685.99 201.73 686.01 191.29 686.05 180.85 C 675.55 176.05 664.50 171.71 652.83 171.34 C 639.93 171.10 626.58 173.03 615.06 179.11 Z" />
<path fill="#090142" opacity="1.00" d=" M 492.61 157.68 C 504.38 158.53 518.12 157.33 528.06 164.96 C 538.81 173.23 540.71 187.87 538.44 200.38 C 535.75 209.46 529.02 217.70 519.90 220.81 C 510.85 223.41 501.36 223.61 492.04 224.16 C 492.10 202.00 491.49 179.82 492.61 157.68 Z" />
<path fill="#090142" opacity="1.00" d=" M 470.26 295.74 C 470.31 301.23 470.28 306.72 470.17 312.22 C 470.24 306.73 470.23 301.22 470.26 295.74 Z" />
</g>
</svg>
