<svg viewBox="0 0 800 457" xmlns="http://www.w3.org/2000/svg"><g fill="#f82cbf"><path d="M0 0h469.04c.53 11.92 1.09 23.87.74 35.8-1.29 31.07-1.13 62.19-.15 93.26l.02.77c.94 55.3-.18 110.61.61 165.91-.03 5.48-.02 10.99-.09 16.48-.04 1.25-.08 2.5-.14 3.76-1.17 21.55-2 43.21-.53 64.77 5.5 10.5 16.77 16.89 22.51 27.23-3.13 5.11-7.31 9.48-11.08 14.11-3.15 3.43-6.48 6.75-9.04 10.65-1.57 3.24-1.33 7.03-1.91 10.53-.54 4.56-.83 9.14-1.17 13.73H0V0m20.01 20c-.02 139.33-.01 278.66 0 417.99 142.99.02 285.99.01 428.98.01.02-139.33.01-278.66 0-417.99C306 19.99 163 20 20.01 20z"/><path d="M89.69 109.73c12.78-.91 25.6-.77 38.4-.78 11.33 22.01 21.51 44.6 31.89 67.07 2.03 3.78 2.85 8.65 6.58 11.24 12.01-26.14 23.88-52.39 36.4-78.31 11.89.03 23.78.03 35.67.25-15.36 32.86-33.19 64.5-49.71 96.78-1.37 2.4-2.34 5.38-.88 7.97 12.12 23.26 23.91 46.7 36.19 69.89 5.73 12.03 12.67 23.48 17.39 35.98-12.88.21-25.76.21-38.63.19-13.62-27.3-26.08-55.15-39.59-82.49-12.97 27.43-24.86 55.36-38.4 82.52-12.38-.02-24.77.11-37.14-.62 15.87-31.22 32.13-62.26 48.29-93.33 2.05-4.79 7.6-10.02 4.47-15.55-17.04-33.57-33.89-67.24-50.93-100.81zm251.32-.73h34.98c.01 56.67.05 113.33-.03 170-.03 10.38.22 20.78.96 31.14-19.27 9.42-41.05 13.18-62.39 11.39-14.65-1.92-29.38-7.44-39.86-18.2-11.21-10.77-17.87-25.66-20-40.94-2.02-13.34-2.83-27.18.37-40.39 4.29-20.92 16.94-40.69 36.01-50.91 14.78-9.42 33.02-9.74 49.94-10.25.02-17.28 0-34.56.02-51.84m-33.38 87.63c-17.07 11.98-21.5 34.87-18.77 54.35 1.46 15.07 7.85 32.26 23.42 37.69 8.68 4.29 18.47 1.78 27.7 1.4.03-32.84.04-65.67 0-98.5-10.92-.81-23-1.68-32.35 5.06z"/></g><g fill="#89bbf6"><path d="M469.04 0H800v457H468.81c.34-4.59.63-9.17 1.17-13.73 4.02-7.28 8.31-14.4 12.99-21.27 95.34-.01 190.68.02 286.02-.01.01-128.33.02-256.65 0-384.98-83.33-.01-166.66-.04-249.99.02-16.41-.08-32.87.5-49.22-1.23.35-11.93-.21-23.88-.74-35.8z"/><path d="M469.65 129.83c23.59-1.29 48.08-3.72 71.03 3.52 10.49 3.7 20.24 9.97 26.94 18.99 14.83 20.74 14.97 50.52 1.91 72.13-10.4 16.12-28.08 26.89-46.86 30.1-10.15 1.51-20.4 2.06-30.63 2.72-.09 20 0 40-.07 60-7.33-.37-14.64-.75-21.94-1.31.06-1.26.1-2.51.14-3.76.11-5.5.14-10.99.09-16.48-.79-55.3.33-110.61-.61-165.91m22.96 27.85c-1.12 22.14-.51 44.32-.57 66.48 9.32-.55 18.81-.75 27.86-3.35 9.12-3.11 15.85-11.35 18.54-20.43 2.27-12.51.37-27.15-10.38-35.42-9.94-7.63-23.68-6.43-35.45-7.28zm122.45 21.43c11.52-6.08 24.87-8.01 37.77-7.77 11.67.37 22.72 4.71 33.22 9.51-.04 10.44-.06 20.88-.13 31.33-11.72-5.14-23.87-10.24-36.83-10.79-6.65-.39-15.29 3.43-15.69 10.92-.29 5.75 4.97 9.53 9.67 11.6 14 6.03 29.87 9.79 40.59 21.42 11.41 12.12 12.06 31.27 5.65 45.93-4.7 10.58-14.49 17.87-24.97 22.11-23.11 8.41-49.18 4.65-70.39-7.19.03-10.37.03-20.75.04-31.12 14.11 7.82 30.25 13.49 46.58 11.45 4.38-.62 8.78-3.12 10.84-7.13 1.76-5.91-.71-12.58-5.53-16.27-7.87-7.07-18.59-8.68-27.83-13.21-10.78-4.65-21.63-11.99-25.1-23.88-4.33-18.26 5.47-38.48 22.11-46.91z"/></g><g fill="#2f001e"><path d="M20.01 20c142.99 0 285.99-.01 428.98.01.01 139.33.02 278.66 0 417.99-142.99 0-285.99.01-428.98-.01-.01-139.33-.02-278.66 0-417.99m69.68 89.73c17.04 33.57 33.89 67.24 50.93 100.81 3.13 5.53-2.42 10.76-4.47 15.55-16.16 31.07-32.42 62.11-48.29 93.33 12.37.73 24.76.6 37.14.62 13.54-27.16 25.43-55.09 38.4-82.52 13.51 27.34 25.97 55.19 39.59 82.49 12.87.02 25.75.02 38.63-.19-4.72-12.5-11.66-23.95-17.39-35.98-12.28-23.19-24.07-46.63-36.19-69.89-1.46-2.59-.49-5.57.88-7.97 16.52-32.28 34.35-63.92 49.71-96.78-11.89-.22-23.78-.22-35.67-.25-12.52 25.92-24.39 52.17-36.4 78.31-3.73-2.59-4.55-7.46-6.58-11.24-10.38-22.47-20.56-45.06-31.89-67.07-12.8.01-25.62-.13-38.4.78m251.32-.73c-.02 17.28 0 34.56-.02 51.84-16.92.51-35.16.83-49.94 10.25-19.07 10.22-31.72 29.99-36.01 50.91-3.2 13.21-2.39 27.05-.37 40.39 2.13 15.28 8.79 30.17 20 40.94 10.48 10.76 25.21 16.28 39.86 18.2 21.34 1.79 43.12-1.97 62.39-11.39-.74-10.36-.99-20.76-.96-31.14.08-56.67.04-113.33.03-170h-34.98zm128.62 20.06c-.98-31.07-1.14-62.19.15-93.26.38 31.09.38 62.18-.15 93.26z"/><path d="M307.63 196.63c9.35-6.74 21.43-5.87 32.35-5.06.04 32.83.03 65.66 0 98.5-9.23.38-19.02 2.89-27.7-1.4-15.57-5.43-21.96-22.62-23.42-37.69-2.73-19.48 1.7-42.37 18.77-54.35zM469.5 380.75c-1.47-21.56-.64-43.22.53-64.77 1.97 20.31.28 40.76 1.22 61.12.08 3.04 1.35 5.94 3.42 8.16 6.83 7.73 13.96 15.22 20.06 23.57-4.52 4.5-9.09 8.96-13.8 13.26 3.77-4.63 7.95-9 11.08-14.11-5.74-10.34-17.01-16.73-22.51-27.23z"/></g><g fill="#090142"><path d="M469.78 35.8c16.35 1.73 32.81 1.15 49.22 1.23 83.33-.06 166.66-.03 249.99-.02.02 128.33.01 256.65 0 384.98-95.34.03-190.68 0-286.02.01-4.68 6.87-8.97 13.99-12.99 21.27.58-3.5.34-7.29 1.91-10.53 2.56-3.9 5.89-7.22 9.04-10.65 4.71-4.3 9.28-8.76 13.8-13.26-6.1-8.35-13.23-15.84-20.06-23.57-2.07-2.22-3.34-5.12-3.42-8.16-.94-20.36.75-40.81-1.22-61.12 7.3.56 14.61.94 21.94 1.31.07-20-.02-40 .07-60 10.23-.66 20.48-1.21 30.63-2.72 18.78-3.21 36.46-13.98 46.86-30.1 13.06-21.61 12.92-51.39-1.91-72.13-6.7-9.02-16.45-15.29-26.94-18.99-22.95-7.24-47.44-4.81-71.03-3.52l-.02-.77c.53-31.08.53-62.17.15-93.26m145.28 143.31c-16.64 8.43-26.44 28.65-22.11 46.91 3.47 11.89 14.32 19.23 25.1 23.88 9.24 4.53 19.96 6.14 27.83 13.21 4.82 3.69 7.29 10.36 5.53 16.27-2.06 4.01-6.46 6.51-10.84 7.13-16.33 2.04-32.47-3.63-46.58-11.45-.01 10.37-.01 20.75-.04 31.12 21.21 11.84 47.28 15.6 70.39 7.19 10.48-4.24 20.27-11.53 24.97-22.11 6.41-14.66 5.76-33.81-5.65-45.93-10.72-11.63-26.59-15.39-40.59-21.42-4.7-2.07-9.96-5.85-9.67-11.6.4-7.49 9.04-11.31 15.69-10.92 12.96.55 25.11 5.65 36.83 10.79.07-10.45.09-20.89.13-31.33-10.5-4.8-21.55-9.14-33.22-9.51-12.9-.24-26.25 1.69-37.77 7.77z"/><path d="M492.61 157.68c11.77.85 25.51-.35 35.45 7.28 10.75 8.27 12.65 22.91 10.38 35.42-2.69 9.08-9.42 17.32-18.54 20.43-9.05 2.6-18.54 2.8-27.86 3.35.06-22.16-.55-44.34.57-66.48zm-22.35 138.06c.05 5.49.02 10.98-.09 16.48.07-5.49.06-11 .09-16.48z"/></g></svg>