<svg viewBox="0 0 240 240" xmlns="http://www.w3.org/2000/svg"><path d="M142.3 72.31c14.22-5.06 30.67-3.06 43.39 5.02-4.27 7.41-8.38 14.92-12.57 22.38-4.38-2.34-9.09-4.62-14.18-4.39-8.59-.14-17.26 4.56-21.49 12.11-4.29 7.02-4.21 16.27-.39 23.48 3.91 7.69 12.22 12.8 20.82 13.01 8.33.53 16.47-3.81 21.19-10.6-6.86-.06-13.72-.04-20.57.01-.01-8.61-.01-17.22.01-25.83 16.32-.01 32.64-.02 48.95-.01-.06 10.86.82 22.14-3.3 32.45-4.72 13.3-16.33 23.63-29.85 27.4-10.44 2.75-21.78 3.11-32.03-.59-13.37-4.48-24.49-15.09-29.87-28.08-4.22-10.47-5.1-22.41-1.83-33.26 4.38-15.28 16.66-28.04 31.72-33.1zm-89.63 1.34c5.34-2.69 11.44-3.19 17.34-3.16 10.48.05 20.97 0 31.45.02 0 8.16.01 16.32.01 24.48-11.15.02-22.3-.03-33.45-.01-3.14-.08-6.54.89-8.42 3.58-2.24 2.71-1.89 6.42-1.98 9.7 14.62 0 29.24-.02 43.85 0 .01 7.75.03 15.49 0 23.23-14.63.01-29.26-.01-43.88.01.01 3.51.18 7.44 2.93 10.01 2.04 2.52 5.47 2.74 8.46 2.75 10.83-.01 21.66-.01 32.48-.02-.02 8.2.11 16.4-.08 24.6-10.81-.2-21.62-.02-32.43-.08-7.3-.17-14.76-1.73-20.94-5.76-9.21-6.17-15.33-16.88-15.43-28.03-.08-9.97.01-19.94-.04-29.9-.36-13.23 7.98-26.21 20.13-31.42z" fill="#1179bf"/><path d="M94.94 13.14c8.12-.74 16.01-3.02 24.08-4.11 6.05-.73 11.97 1.2 18 .97 5.7.03 11.61-.4 17.07 1.53 6.41 2.29 13.4 2.71 19.49 5.89 8.15 4.19 15.93 9.16 22.94 15.07 3.46 2.94 6.37 6.5 8.47 10.54 1.36 2.85 4.22 4.39 6.3 6.63 10.03 11.62 17.47 25.36 22.34 39.89 2.35 6.9 2.36 14.24 3.29 21.4.21 8.04.06 16.1-.28 24.13-2.2 8.79-4.75 17.56-9.03 25.6-3.19 7.95-7.13 15.64-12.44 22.4-3.44 4.22-7.42 7.97-10.69 12.34-3.97 5.01-8.86 9.19-13.95 13.02-7.95 5.95-16.13 11.82-25.34 15.64-8.45 3.01-17.42 4.11-26.24 5.5-10.02 1.51-19.97-1.59-30.01-1.12-6.41-.5-12.98-.03-19.15-2.18-4.8-1.57-9.81-2.29-14.74-3.3-6.74-1.65-12.75-5.23-18.97-8.16-5.56-2.6-8.8-8.26-11.53-13.48 1.7-.12 3.52-.82 5.16-.02 6.72 2.92 13.07 6.63 19.76 9.61-4.86-4.28-9.53-8.75-13.75-13.66-8.24-9.45-19.51-16.39-25.26-27.87-3.47-8.78-4-18.33-6.44-27.39-3.02-13.2-3.07-27-.65-40.3-.83-1.03-1.67-2.05-2.51-3.07 1.02-4.82 1.85-11.39 7.09-13.36-.14-.31-.4-.92-.54-1.23-1.46 1.29-3.01 2.5-4.55 3.7-2.69-2.17-1.78-5.83-1.46-8.8 2.32-11.15 8.77-20.87 15.85-29.57 7.74-10.11 18.77-16.81 28.7-24.45 3.81-1.84 7.83-3.24 11.49-5.4 5.38-3.19 11.47-4.89 17.5-6.39m47.36 59.17c-15.06 5.06-27.34 17.82-31.72 33.1-3.27 10.85-2.39 22.79 1.83 33.26 5.38 12.99 16.5 23.6 29.87 28.08 10.25 3.7 21.59 3.34 32.03.59 13.52-3.77 25.13-14.1 29.85-27.4 4.12-10.31 3.24-21.59 3.3-32.45-16.31-.01-32.63 0-48.95.01-.02 8.61-.02 17.22-.01 25.83 6.85-.05 13.71-.07 20.57-.01-4.72 6.79-12.86 11.13-21.19 10.6-8.6-.21-16.91-5.32-20.82-13.01-3.82-7.21-3.9-16.46.39-23.48 4.23-7.55 12.9-12.25 21.49-12.11 5.09-.23 9.8 2.05 14.18 4.39 4.19-7.46 8.3-14.97 12.57-22.38-12.72-8.08-29.17-10.08-43.39-5.02m-89.63 1.34c-12.15 5.21-20.49 18.19-20.13 31.42.05 9.96-.04 19.93.04 29.9.1 11.15 6.22 21.86 15.43 28.03 6.18 4.03 13.64 5.59 20.94 5.76 10.81.06 21.62-.12 32.43.08.19-8.2.06-16.4.08-24.6-10.82.01-21.65.01-32.48.02-2.99-.01-6.42-.23-8.46-2.75-2.75-2.57-2.92-6.5-2.93-10.01 14.62-.02 29.25 0 43.88-.01.03-7.74.01-15.48 0-23.23-14.61-.02-29.23 0-43.85 0 .09-3.28-.26-6.99 1.98-9.7 1.88-2.69 5.28-3.66 8.42-3.58 11.15-.02 22.3.03 33.45.01 0-8.16-.01-16.32-.01-24.48-10.48-.02-20.97.03-31.45-.02-5.9-.03-12 .47-17.34 3.16zM5.72 92.63c1.7-3.25 2.84-7.41 6.35-9.17 2.38.38 2.72 3.63 2.38 5.61-.91 3.24-2.1 6.43-2.18 9.84-2.36 8.48-1.48 17.38-1.39 26.07 1.77 7.64 2.73 15.5 5.39 22.92 2.8 8.3 5.08 16.88 9.23 24.64-.79.53-1.59 1.06-2.39 1.6-7.14-5.75-11.25-14.21-14.64-22.52-4.25-10.23-5.89-21.5-4.9-32.52.43-5.29-.29-10.63.76-15.86.66-3.53-.41-7.32 1.39-10.61z" fill="#fff"/></svg>