<svg viewBox="0 0 166 100" xmlns="http://www.w3.org/2000/svg" fill-rule="evenodd" clip-rule="evenodd" stroke-linejoin="round" stroke-miterlimit="1.414"><path d="M1 1h77v21H1zm87.01 0H165v20.99c-18.67.02-37.33 0-56 .01v35h35v-6.96c6.97-7.03 13.99-14.02 20.99-21.01.01 16.32.01 32.64.01 48.96-6.99 7-13.99 14-20.99 20.98-.02-6.99 0-13.98-.01-20.97-18.67-.01-37.33.01-56-.01 0-25.66-.01-51.32.01-76.99zM1 29c25.67 0 51.33 0 77 .01v20.98c-25.67.01-51.33.01-77 0V29zm0 28h77v21H1z" fill-rule="nonzero" fill="#fff"/></svg>