<svg width="115pt" height="73pt" viewBox="0 0 115 73" xmlns="http://www.w3.org/2000/svg"><path d="M74.54 8.66c1.68-2.62 3-6.19 6.43-6.88 3.62-1 7.69 1.5 8.25 5.26.79 3.47-1.77 6.34-3.34 9.17 2.27 3.9 4.16 8.2 4.17 12.81.27 8.28-4.54 16.65-12.17 20.1-3.94 2.03-8.51 1.88-12.81 1.43-1.67 2.96-3.62 5.78-4.83 8.98 1.12-1.19 2.18-2.45 3.24-3.7 6.54.08 13.09-.19 19.63.1 4.61.27 7.73 6.18 4.81 9.97-1.71 2.66-5.06 3.04-7.93 2.88-6.3-.08-12.6.09-18.89-.08-6.54-.12-12.19-6.15-11.76-12.71-.13-4.51 2.61-8.39 6.02-11.07-3.64-4.09-6.07-9.35-6.02-14.89-.32-8.69 5.05-17.41 13.23-20.56 3.77-1.63 7.99-1.42 11.97-.81m6.77-5.8c2.31 2.02 4.8 4.01 5.63 7.15 2.43-3.79-1.99-7.34-5.63-7.15m3.04 16.83c1.25 3.74 2.31 7.54 2.81 11.47 2.59-4.45-.27-9.71-2.53-13.69l-.28 2.22M67.3 21.46c-4.9 2.12-5.39 9.06-3.18 13.32 1.94 4.15 8.77 4.28 10.95.3 2-3.55 1.97-8.36-.44-11.7-1.61-2.31-4.81-2.66-7.33-1.92m13.38 36.66c3.08 1.01 5 3.47 6.55 6.17.96-3.88-2.64-8.02-6.55-6.17zM18.27 9.23c9.84-3.68 22.18 1.85 25.17 12.11 1.62 4.49 1.23 11.28-4.14 12.93-7.05.71-14.18-.11-21.25.43 1.45 1.24 2.81 3.08 4.92 3.09 6.15.3 12.32.03 18.47.12.01 3.77.01 7.54.02 11.31-7.16-.27-14.4.6-21.49-.58-8.28-1.72-14.93-9.26-15.5-17.71-.83-9.21 5.01-18.66 13.8-21.7m4.84.75c3.01 2.66 7.62 1.59 10.75 4.17 5.08 2.93 6.83 8.82 7.67 14.24.26-.51.77-1.54 1.02-2.05.05-9.9-9.84-17.68-19.44-16.36m-5.02 13.35c4.42.22 8.85.23 13.27-.04-2.49-5.42-10.65-5.07-13.27.04z" fill="#fff"/></svg>